<svg width="1665" height="752" viewBox="0 0 1665 752" fill="none" xmlns="http://www.w3.org/2000/svg">
<path d="M1306.77 308.273L1664.48 0H0V751.907H347.97C347.97 751.907 347.97 459.191 632.021 279.305C984.435 56.1261 1306.77 308.273 1306.77 308.273Z" fill="#74AE94"/>
<path d="M249.574 212.669C260.069 211.774 268.366 214.412 274.463 220.583C280.694 226.742 284.202 234.873 284.989 244.976C285.517 251.755 282.564 261.909 276.128 275.438C269.683 288.834 261.255 302.532 250.844 316.534C253.684 315.221 259.621 314.18 268.655 313.409C277.822 312.628 284.899 312.493 289.887 313.004L289.251 335.74C280.962 335.777 274.028 336.034 268.448 336.51C253.171 337.812 236.414 342.453 218.179 350.431L208.259 333.814C221.797 320.482 234.127 304.511 245.248 285.899C256.37 267.288 261.645 254.326 261.076 247.015C260.496 239.571 257.283 236.098 251.438 236.596C246.655 237.004 241.891 240.221 237.145 246.245C232.521 252.126 227.669 260.234 222.59 270.569L201.575 258.311C216.702 229.321 232.702 214.108 249.574 212.669Z" fill="black"/>
</svg>
