<svg width="361" height="305" viewBox="0 0 361 305" fill="none" xmlns="http://www.w3.org/2000/svg">
<rect y="76.2051" width="92.9189" height="309.071" transform="rotate(-55.0976 0 76.2051)" fill="#614294"/>
<path d="M247.222 183.521C253.511 176.359 260.469 171.259 268.095 168.221C275.782 165.079 283.145 165.572 290.183 169.702C297.221 173.832 300.665 179.818 300.515 187.66C300.53 195.46 297.38 204.742 291.064 215.506C284.748 226.27 275.413 240.758 263.057 258.97L250.654 250.231L252.327 244.534C245.823 244.475 240.035 242.957 234.964 239.981C229.892 237.006 226.672 232.89 225.304 227.635C223.996 222.276 225.194 216.44 228.898 210.126C232.603 203.813 238.896 200.201 247.778 199.291C256.763 198.441 265.405 200.312 273.703 204.902L276.162 200.711C280.96 192.534 281.392 187.292 277.459 184.984C275.493 183.831 272.862 184.165 269.566 185.988C266.435 187.768 263.474 190.205 260.685 193.299L247.222 183.521ZM244.187 220.349C242.244 223.661 243.239 226.471 247.172 228.779C249.863 230.358 253.073 231.407 256.803 231.926L264.766 219.067C259.658 216.627 255.255 215.713 251.557 216.326C247.919 216.835 245.462 218.176 244.187 220.349Z" fill="#270560"/>
</svg>
