<svg width="425" height="215" viewBox="0 0 425 215" fill="none" xmlns="http://www.w3.org/2000/svg">
<rect width="100" height="330" transform="matrix(0.11102 -0.993818 -0.993818 -0.11102 401.464 174.527)" fill="#614294"/>
<path d="M395.518 88.6147L395.664 66.2945C395.652 58.0145 395.458 48.5948 395.082 38.0353L416.144 39.8036C416.397 48.3233 416.541 63.8031 416.574 86.243C416.608 108.563 415.691 137.364 413.824 172.647L397.802 171.231C397.435 166.432 397.066 160.792 396.697 154.313C391.552 164.641 385.98 169.809 379.98 169.818C370.74 169.832 364.316 166.962 360.707 161.207C357.098 155.453 355.286 147.115 355.269 136.195C355.253 125.155 357.576 113.752 362.238 101.985C367.02 90.2176 372.411 84.3295 378.411 84.3204C383.811 84.3123 389.513 85.7437 395.518 88.6147ZM396.083 105.354C393.08 103.078 390.078 101.943 387.078 101.947C384.198 101.952 381.684 105.856 379.535 113.659C377.387 121.342 376.319 129.384 376.332 137.784C376.344 146.184 378.391 150.381 382.471 150.374C384.031 150.372 386.127 147.789 388.759 142.625C391.391 137.341 393.781 130.677 395.929 122.634L396.083 105.354Z" fill="#270560"/>
</svg>
