<svg width="5655" height="4239" viewBox="0 0 5655 4239" fill="none" xmlns="http://www.w3.org/2000/svg">
<g clip-path="url(#clip0_5_2676)">
<rect width="5655" height="4239" fill="#BFA68F"/>
<rect x="874.347" y="3935.99" width="3034.98" height="3977.62" rx="53.0738" transform="rotate(-90 874.347 3935.99)" fill="#0B0B0B"/>
<g clip-path="url(#clip1_5_2676)">
<path d="M636.735 4788.37C690.145 4906.01 607.118 4908.45 636.735 5034.37C666.352 5160.3 649.878 5399.9 558.56 5603.85C265.726 6257.9 -664.701 7606.33 -664.701 7606.33L1423.71 7733.12C1423.71 7733.12 1427.26 6541.71 1702.7 5852.62C1764.02 5699.2 1789.06 5612.34 1864.13 5465.23C1964.94 5267.66 2028.03 5190.61 2134.22 4995.92C2358.86 4584.08 2538.67 3935.77 2511.3 3933.87C2120.8 3906.88 1070.3 3941.87 953.797 3933.87C953.797 3933.87 881.797 3933.87 893.62 3622.59C903.767 3355.46 941.238 3010.53 733.62 2873.09C693.96 2846.84 610.71 2880.84 607.74 2928.63C575.137 3453.21 401.427 3984.09 479.297 4292.37C515.797 4436.87 579.291 4661.85 636.735 4788.37Z" fill="#FEB98B"/>
<path d="M896.796 3411.88C896.796 3411.88 849.82 3794.85 915.912 3900.17C949.022 3952.94 1112.14 3925.82 1387.83 4212.48C1663.52 4499.14 1714.8 4942.88 1714.8 4942.88" stroke="#FEAC76" stroke-width="20" stroke-linecap="round"/>
</g>
<rect x="985.612" y="3824.73" width="2812.46" height="3755.1" rx="21.6086" transform="rotate(-90 985.612 3824.73)" fill="#7DD1EB"/>
<path d="M2310.33 1802.52C2310.33 1802.52 2231.24 1849.98 2224.71 2050.87C2218.18 2251.76 2309.45 2321.77 2309.45 2321.77" stroke="#D9873C" stroke-width="50" stroke-linecap="round"/>
<path d="M2490.84 1817C2490.84 1817 2571.52 1922.24 2575.59 2047.87C2579.67 2173.5 2490.84 2318 2490.84 2318" stroke="#D9873C" stroke-width="50" stroke-linecap="round"/>
<path d="M2545.5 1694.5C2545.5 1694.5 2809 1642.5 3118.5 1861C3428 2079.5 3449 2275.5 3449 2275.5" stroke="#D9873C" stroke-width="50" stroke-linecap="round"/>
<path d="M2549 3151C2549 3151 2809 3195.5 3118.5 2977C3428 2758.5 3443.5 2566.5 3443.5 2566.5" stroke="#D9873C" stroke-width="50" stroke-linecap="round"/>
<path d="M2535 2420.5H3310" stroke="#D9873C" stroke-width="50" stroke-linecap="round"/>
<path d="M2310.33 2521.39C2310.33 2521.39 2231.24 2568.84 2224.71 2769.73C2218.18 2970.63 2309.45 3040.63 2309.45 3040.63" stroke="#D9873C" stroke-width="50" stroke-linecap="round"/>
<path d="M2489.99 2518.38C2489.99 2518.38 2569.07 2565.84 2575.59 2766.74C2582.12 2967.63 2490.84 3037.63 2490.84 3037.63" stroke="#D9873C" stroke-width="50" stroke-linecap="round"/>
<rect x="2271" y="3266" width="258" height="258" rx="129" transform="rotate(-90 2271 3266)" fill="#74AE94"/>
<path d="M2363.96 3094.8C2371.96 3089.07 2379.16 3084.93 2385.56 3082.4C2392.1 3079.73 2399.43 3078.4 2407.56 3078.4C2415.7 3078.4 2422.76 3081.13 2428.76 3086.6C2434.76 3092.07 2437.76 3099.73 2437.76 3109.6C2437.76 3119.33 2430.03 3129.6 2414.56 3140.4C2427.9 3147.33 2434.56 3156.73 2434.56 3168.6C2434.56 3180.33 2430.16 3190 2421.36 3197.6C2412.56 3205.2 2403.76 3209 2394.96 3209C2386.16 3209 2378.1 3207.6 2370.76 3204.8L2367.16 3182.8C2371.83 3184.27 2377.56 3185 2384.36 3185C2391.16 3185 2397.23 3183.53 2402.56 3180.6C2407.9 3177.53 2410.56 3174 2410.56 3170C2410.56 3165.87 2408.9 3162.47 2405.56 3159.8C2402.23 3157 2397.96 3155.6 2392.76 3155.6C2387.56 3155.6 2381.96 3156.53 2375.96 3158.4L2369.16 3137.8C2383.16 3133.13 2393.9 3128.2 2401.36 3123C2408.96 3117.67 2412.76 3112.87 2412.76 3108.6C2412.76 3103.8 2410.16 3101.4 2404.96 3101.4C2398.03 3101.4 2388.63 3105.53 2376.76 3113.8L2363.96 3094.8Z" fill="black"/>
<rect x="2271" y="2548" width="258" height="258" rx="129" transform="rotate(-90 2271 2548)" fill="#74AE94"/>
<path d="M2424.76 2364.4C2422.1 2386.27 2420.76 2408.6 2420.76 2431.4C2420.76 2454.07 2421.7 2474.47 2423.56 2492.6L2396.76 2490C2395.83 2474.4 2395.36 2459.2 2395.36 2444.4C2395.36 2429.47 2395.9 2415.33 2396.96 2402L2385.76 2417L2370.56 2404.2C2378.96 2391.93 2387.83 2376.87 2397.16 2359L2424.76 2364.4Z" fill="black"/>
<rect x="2271" y="1830" width="258" height="258" rx="129" transform="rotate(-90 2271 1830)" fill="#74AE94"/>
<path d="M2409.36 1641.6C2419.9 1641.6 2427.96 1644.93 2433.56 1651.6C2439.3 1658.27 2442.16 1666.67 2442.16 1676.8C2442.16 1683.6 2438.43 1693.47 2430.96 1706.4C2423.5 1719.2 2414.03 1732.13 2402.56 1745.2C2405.5 1744.13 2411.5 1743.6 2420.56 1743.6C2429.76 1743.6 2436.83 1744.07 2441.76 1745L2439.36 1767.6C2431.1 1766.93 2424.16 1766.6 2418.56 1766.6C2403.23 1766.6 2386.16 1769.8 2367.36 1776.2L2358.76 1758.8C2373.3 1746.67 2386.83 1731.8 2399.36 1714.2C2411.9 1696.6 2418.16 1684.13 2418.16 1676.8C2418.16 1669.33 2415.23 1665.6 2409.36 1665.6C2404.56 1665.6 2399.56 1668.4 2394.36 1674C2389.3 1679.47 2383.83 1687.13 2377.96 1697L2357.96 1683C2375.3 1655.4 2392.43 1641.6 2409.36 1641.6Z" fill="black"/>
<rect x="3313" y="2548" width="258" height="258" rx="129" transform="rotate(-90 3313 2548)" fill="#74AE94"/>
<path d="M3448.16 2456.4C3443.5 2456.4 3434.36 2457.2 3420.76 2458.8L3396.96 2442.6C3396.96 2439.4 3403.23 2426.6 3415.76 2404.2C3428.43 2381.67 3438.36 2366.47 3445.56 2358.6L3478.56 2361.8C3475.36 2386.87 3473.36 2411.07 3472.56 2434.4L3485.36 2435.6L3482.56 2456.6H3472.16C3472.16 2471.8 3472.5 2484.6 3473.16 2495L3449.16 2493C3448.5 2483.53 3448.16 2471.33 3448.16 2456.4ZM3426.76 2435.6C3433.43 2434.67 3440.63 2434.2 3448.36 2434.2C3449.3 2416.6 3450.9 2400.13 3453.16 2384.8C3441.83 2404.4 3433.03 2421.33 3426.76 2435.6Z" fill="black"/>
<rect x="985.612" y="3824.73" width="2812.46" height="3755.1" rx="21.6086" transform="rotate(-90 985.612 3824.73)" stroke="#262626" stroke-width="2.27459"/>
<rect x="863.295" y="1250.21" width="173.993" height="8.8098" transform="rotate(-90 863.295 1250.21)" fill="black"/>
<rect x="1290.57" y="897.811" width="138.754" height="8.8098" transform="rotate(180 1290.57 897.811)" fill="black"/>
<rect x="1466.77" y="897.811" width="138.754" height="8.8098" transform="rotate(180 1466.77 897.811)" fill="black"/>
<g filter="url(#filter0_d_5_2676)">
<path d="M4940.85 207.1L4955.85 208.45C4956.55 216.45 4957.6 227.05 4959 240.25C4960.5 253.35 4961.55 262.65 4962.15 268.15L4962.9 268C4970 237.4 4974.6 213.45 4976.7 196.15L4996.35 197.8C4990.75 230.9 4982.55 264.9 4971.75 299.8L4957.35 298.6C4953.95 286.8 4950.15 271.35 4945.95 252.25C4941.65 272.85 4937.55 289.3 4933.65 301.6L4919.25 300.4C4910.75 258 4905 223.6 4902 197.2L4921.35 198.85C4922.95 215.75 4925.45 238.85 4928.85 268.15L4929.6 268C4935.4 241.3 4939.15 221 4940.85 207.1ZM4996.94 256.75C4998.44 248.95 5001.29 242.35 5005.49 236.95C5009.69 231.45 5015.19 228.7 5021.99 228.7C5028.79 228.7 5033.79 231.55 5036.99 237.25C5040.29 242.85 5041.94 250.85 5041.94 261.25C5041.94 271.65 5041.34 286 5040.14 304.3L5027.54 303.25L5026.34 298.45C5021.64 301.15 5016.84 302.5 5011.94 302.5C5007.04 302.5 5002.99 300.9 4999.79 297.7C4996.59 294.4 4994.99 289.7 4994.99 283.6C4994.99 277.5 4997.99 272.25 5003.99 267.85C5010.09 263.45 5017.09 261.15 5024.99 260.95V256.9C5024.99 249 5023.09 245.05 5019.29 245.05C5017.39 245.05 5015.64 246.4 5014.04 249.1C5012.54 251.7 5011.44 254.7 5010.74 258.1L4996.94 256.75ZM5010.29 284.5C5010.29 287.7 5012.19 289.3 5015.99 289.3C5018.59 289.3 5021.34 288.7 5024.24 287.5L5024.54 274.9C5019.84 275.3 5016.29 276.5 5013.89 278.5C5011.49 280.4 5010.29 282.4 5010.29 284.5ZM5077.89 192.7C5076.39 218 5075.64 240.8 5075.64 261.1C5075.64 281.4 5075.89 295.65 5076.39 303.85L5058.69 302.2C5058.29 291.8 5058.09 277.05 5058.09 257.95C5058.09 238.75 5058.84 216.55 5060.34 191.35L5077.89 192.7ZM5093.39 302.2C5092.99 291.8 5092.79 276.4 5092.79 256C5092.79 235.6 5093.54 214.05 5095.04 191.35L5112.59 192.7C5111.09 217.2 5110.34 240.8 5110.34 263.5C5120.74 250.8 5128.54 238.45 5133.74 226.45L5145.74 236.95C5141.24 247.45 5135.24 257.85 5127.74 268.15C5135.54 277.25 5141.74 285.75 5146.34 293.65L5134.94 304.45C5129.54 296.05 5121.34 286.1 5110.34 274.6C5110.34 285.7 5110.54 295.45 5110.94 303.85L5093.39 302.2ZM5155.81 229.45L5172.91 231.1V303.1L5155.81 301.45V229.45ZM5157.01 203.05L5173.81 205L5172.31 221.8L5155.51 219.7L5157.01 203.05ZM5219.46 229.6C5232.66 229.6 5239.26 240.6 5239.26 262.6C5239.26 274.2 5238.61 286.5 5237.31 299.5L5219.76 297.85C5220.86 286.45 5221.41 274.95 5221.41 263.35C5221.41 251.65 5219.76 245.8 5216.46 245.8C5214.86 245.8 5212.81 249.85 5210.31 257.95C5207.81 265.95 5206.26 273.8 5205.66 281.5C5205.86 285.6 5206.26 293 5206.86 303.7L5189.31 302.05C5188.21 287.95 5187.66 275.55 5187.66 264.85C5187.66 254.15 5187.96 244.55 5188.56 236.05L5199.66 237.25C5199.86 238.05 5200.61 241.3 5201.91 247C5207.71 235.4 5213.56 229.6 5219.46 229.6ZM5273.44 321.1C5276.54 321.1 5279.04 317.9 5280.94 311.5C5282.84 305.2 5283.79 297.35 5283.79 287.95C5278.49 297.45 5272.99 302.2 5267.29 302.2C5261.69 302.2 5257.14 300.3 5253.64 296.5C5250.24 292.6 5248.54 286.75 5248.54 278.95C5248.54 271.05 5249.89 263.25 5252.59 255.55C5255.29 247.75 5258.59 241.55 5262.49 236.95C5266.49 232.25 5270.29 229.9 5273.89 229.9C5280.19 229.9 5285.99 232.45 5291.29 237.55L5301.79 239.05C5300.49 245.55 5299.84 255.55 5299.84 269.05C5299.84 282.45 5299.44 292.35 5298.64 298.75C5297.94 305.05 5296.74 311.25 5295.04 317.35C5293.34 323.45 5290.84 328.3 5287.54 331.9C5284.24 335.5 5279.89 337.3 5274.49 337.3C5269.09 337.3 5263.94 335.1 5259.04 330.7C5254.14 326.4 5250.19 321.2 5247.19 315.1L5259.79 309.7C5263.69 317.3 5268.24 321.1 5273.44 321.1ZM5277.64 245.2C5275.14 245.2 5272.59 248.8 5269.99 256C5267.49 263.2 5266.24 270.85 5266.24 278.95C5266.24 282.05 5266.64 284.4 5267.44 286C5268.34 287.6 5269.29 288.4 5270.29 288.4C5271.39 288.4 5272.79 287.4 5274.49 285.4C5276.19 283.4 5277.99 280.2 5279.89 275.8C5281.89 271.4 5283.34 266.55 5284.24 261.25L5284.54 249.85C5281.64 246.75 5279.34 245.2 5277.64 245.2Z" fill="black"/>
<path d="M4956.6 480.72C4962.63 480.72 4965.64 479.387 4965.64 476.72C4965.64 475.547 4963.96 474.56 4960.6 473.76C4957.19 472.96 4953.93 472.56 4950.84 472.56C4944.01 472.56 4940.6 473.68 4940.6 475.92C4940.6 477.36 4942.44 478.533 4946.12 479.44C4949.75 480.293 4953.24 480.72 4956.6 480.72ZM4955.88 490.08C4950.92 490.08 4946.07 489.067 4941.32 487.04C4938.92 485.973 4936.97 484.48 4935.48 482.56C4933.93 480.587 4933.16 478.4 4933.16 476C4933.16 473.6 4933.72 471.547 4934.84 469.84C4935.91 468.08 4937.35 466.747 4939.16 465.84C4942.73 464.08 4946.63 463.2 4950.84 463.2C4956.65 463.2 4961.83 464.4 4966.36 466.8C4970.84 469.147 4973.08 472.453 4973.08 476.72C4973.08 485.627 4967.35 490.08 4955.88 490.08ZM4932.92 441.987C4932.92 434.947 4938.79 431.427 4950.52 431.427C4956.71 431.427 4963.27 431.774 4970.2 432.467L4969.32 441.827C4963.24 441.24 4957.11 440.947 4950.92 440.947C4944.68 440.947 4941.56 441.827 4941.56 443.587C4941.56 444.44 4943.72 445.534 4948.04 446.867C4952.31 448.2 4956.49 449.027 4960.6 449.347C4962.79 449.24 4966.73 449.027 4972.44 448.707L4971.56 458.067C4964.04 458.654 4957.43 458.947 4951.72 458.947C4946.01 458.947 4940.89 458.787 4936.36 458.467L4937 452.547C4937.43 452.44 4939.16 452.04 4942.2 451.347C4936.01 448.254 4932.92 445.134 4932.92 441.987ZM4937.56 386.466H4945.16C4945.16 389.026 4945.19 390.999 4945.24 392.386C4950.57 392.546 4959.53 392.626 4972.12 392.626L4971.24 402.066C4961.91 402.066 4953.45 401.986 4945.88 401.826C4945.88 402.626 4946.01 404.146 4946.28 406.386L4939.72 407.586C4939.45 406.306 4939.11 404.306 4938.68 401.586C4934.73 401.479 4928.97 401.266 4921.4 400.946L4922.28 391.426C4927.56 391.746 4932.68 391.986 4937.64 392.146C4937.59 390.812 4937.56 388.919 4937.56 386.466ZM4938.44 371.817C4935.4 369.364 4933.88 366.964 4933.88 364.617C4933.88 362.217 4934.68 360.27 4936.28 358.777C4939.05 356.164 4942.57 354.857 4946.84 354.857C4954.57 354.857 4962.65 355.15 4971.08 355.737L4970.2 365.017C4962.36 364.644 4954.65 364.457 4947.08 364.457C4944.25 364.457 4942.84 365.177 4942.84 366.617C4942.84 368.324 4946.57 370.164 4954.04 372.137C4959.37 372.244 4965.43 372.51 4972.2 372.937L4971.32 382.297C4962.15 381.604 4951.91 381.257 4940.6 381.257C4929.29 381.257 4920.2 381.444 4913.32 381.817L4914.2 372.457C4921.72 372.03 4929.8 371.817 4938.44 371.817ZM4965.24 337.592C4965.24 335.566 4963.29 333.406 4959.4 331.112L4963 325.032C4964.76 326.046 4966.25 327.032 4967.48 327.992C4968.71 328.899 4969.88 330.286 4971 332.152C4972.12 334.019 4972.68 336.099 4972.68 338.392C4972.68 341.752 4971.27 344.579 4968.44 346.872C4965.56 349.166 4961.69 350.312 4956.84 350.312C4951.29 350.312 4946.12 349.326 4941.32 347.352C4938.81 346.286 4936.79 344.766 4935.24 342.792C4933.64 340.766 4932.84 338.712 4932.84 336.632C4932.84 334.499 4933.19 332.792 4933.88 331.512C4934.52 330.232 4935.27 329.219 4936.12 328.472C4936.92 327.672 4938.12 326.979 4939.72 326.392C4941.32 325.806 4942.63 325.406 4943.64 325.192C4944.65 324.926 4946.12 324.712 4948.04 324.552C4950.6 324.339 4952.92 324.232 4955 324.232C4956.17 328.499 4957.24 334.019 4958.2 340.792C4960.33 340.632 4962.04 340.259 4963.32 339.672C4964.6 339.086 4965.24 338.392 4965.24 337.592ZM4940.68 335.832C4940.68 337.006 4941.85 338.072 4944.2 339.032C4946.55 339.939 4949.27 340.472 4952.36 340.632C4951.77 337.806 4951.21 335.352 4950.68 333.272C4944.01 333.272 4940.68 334.126 4940.68 335.832Z" fill="black"/>
<path d="M5035.42 427.586H5067.41C5067.18 432.391 5067 437.107 5066.88 441.736C5066.82 446.365 5066.8 450.789 5066.8 455.008C5066.8 459.227 5066.8 463.094 5066.8 466.609C5066.85 470.066 5066.94 473.055 5067.06 475.574C5067.18 478.562 5067.29 481.229 5067.41 483.572C5064.42 485.096 5060.79 486.385 5056.51 487.439C5052.24 488.494 5047.05 489.021 5040.96 489.021C5034.86 489.021 5029.21 487.762 5023.99 485.242C5018.78 482.723 5014.24 478.914 5010.37 473.816C5006.5 468.66 5003.46 462.186 5001.23 454.393C4999.06 446.541 4997.98 437.312 4997.98 426.707C4997.98 416.102 4999.12 406.902 5001.41 399.109C5003.75 391.258 5006.91 384.783 5010.9 379.686C5014.88 374.529 5019.51 370.691 5024.78 368.172C5030.12 365.652 5035.77 364.393 5041.75 364.393C5044.21 364.393 5046.43 364.51 5048.43 364.744C5050.42 364.92 5052.26 365.184 5053.96 365.535C5055.72 365.887 5057.36 366.326 5058.89 366.854C5060.41 367.381 5061.9 367.938 5063.37 368.523V386.277C5059.56 382 5055.96 379.012 5052.56 377.312C5049.22 375.555 5045.58 374.676 5041.66 374.676C5037.15 374.676 5033.13 375.936 5029.62 378.455C5026.1 380.916 5023.11 384.432 5020.65 389.002C5018.25 393.572 5016.41 399.051 5015.12 405.438C5013.89 411.766 5013.27 418.797 5013.27 426.531C5013.27 434.031 5013.86 440.975 5015.03 447.361C5016.2 453.689 5017.96 459.197 5020.3 463.885C5022.65 468.514 5025.57 472.146 5029.09 474.783C5032.66 477.42 5036.82 478.738 5041.57 478.738C5043.62 478.738 5045.41 478.592 5046.93 478.299C5048.51 477.947 5050.07 477.361 5051.59 476.541C5051.65 475.252 5051.71 473.758 5051.77 472.059C5051.82 470.594 5051.88 468.836 5051.94 466.785C5052 464.676 5052.03 462.244 5052.03 459.49C5052.03 456.502 5051.97 453.191 5051.85 449.559C5051.8 445.926 5051.65 442 5051.41 437.781H5035.42V427.586ZM5131.92 380.213C5124.19 380.213 5117.45 381.297 5111.71 383.465C5105.97 385.633 5101.75 388.914 5099.05 393.309C5098.7 404.676 5098.52 416.131 5098.52 427.674C5098.52 433.123 5098.55 438.309 5098.61 443.23C5098.67 448.152 5098.76 452.986 5098.88 457.732C5098.99 462.479 5099.17 467.254 5099.4 472.059C5099.64 476.805 5099.9 481.785 5100.19 487H5083.93C5084.23 481.785 5084.46 476.805 5084.64 472.059C5084.87 467.254 5085.05 462.479 5085.16 457.732C5085.34 452.986 5085.46 448.152 5085.52 443.23C5085.57 438.309 5085.6 433.123 5085.6 427.674C5085.6 422.225 5085.57 416.951 5085.52 411.854C5085.46 406.697 5085.34 401.629 5085.16 396.648C5085.05 391.609 5084.87 386.6 5084.64 381.619C5084.46 376.58 5084.23 371.453 5083.93 366.238H5100.28C5100.11 368.992 5099.93 371.453 5099.75 373.621C5099.64 375.789 5099.52 378.221 5099.4 380.916C5101.28 378.748 5103.56 376.639 5106.26 374.588C5109.01 372.537 5111.88 370.75 5114.87 369.227C5117.86 367.645 5120.85 366.385 5123.84 365.447C5126.82 364.51 5129.52 364.041 5131.92 364.041V380.213ZM5182.72 487L5183.16 476.365C5181.76 477.947 5180.32 479.529 5178.86 481.111C5177.39 482.635 5175.75 484.012 5173.93 485.242C5172.12 486.414 5170.04 487.352 5167.69 488.055C5165.41 488.816 5162.68 489.197 5159.52 489.197C5155.89 489.197 5152.49 488.465 5149.32 487C5146.22 485.477 5143.49 483.279 5141.15 480.408C5138.87 477.537 5137.05 473.992 5135.7 469.773C5134.35 465.496 5133.68 460.574 5133.68 455.008C5133.68 447.918 5134.76 441.854 5136.93 436.814C5139.1 431.775 5142.29 427.498 5146.51 423.982C5150.79 420.467 5156.06 417.625 5162.33 415.457C5168.66 413.289 5175.96 411.531 5184.22 410.184C5184.22 403.094 5183.84 397.234 5183.07 392.605C5182.37 387.977 5181.32 384.314 5179.91 381.619C5178.5 378.865 5176.75 376.961 5174.64 375.906C5172.59 374.852 5170.21 374.324 5167.52 374.324C5165.17 374.324 5162.83 374.705 5160.49 375.467C5158.14 376.17 5155.8 377.137 5153.46 378.367C5151.17 379.598 5148.86 381.033 5146.51 382.674C5144.23 384.256 5141.97 385.926 5139.74 387.684V370.633C5142.21 369.695 5144.55 368.846 5146.78 368.084C5149 367.264 5151.23 366.561 5153.46 365.975C5155.74 365.389 5158.03 364.92 5160.31 364.568C5162.6 364.217 5165.03 364.041 5167.61 364.041C5172.76 364.041 5177.24 364.744 5181.05 366.15C5184.92 367.557 5188.11 369.783 5190.63 372.83C5193.21 375.877 5195.12 379.803 5196.35 384.607C5197.64 389.412 5198.28 395.184 5198.28 401.922C5198.28 402.566 5198.25 403.65 5198.19 405.174C5198.19 406.697 5198.16 408.484 5198.1 410.535C5198.1 412.586 5198.07 414.783 5198.02 417.127C5198.02 419.471 5197.99 421.785 5197.93 424.07C5197.93 426.355 5197.9 428.523 5197.84 430.574C5197.84 432.566 5197.84 434.236 5197.84 435.584C5197.84 438.689 5197.87 442.205 5197.93 446.131C5197.99 449.998 5198.07 454.129 5198.19 458.523C5198.37 462.918 5198.54 467.518 5198.72 472.322C5198.95 477.127 5199.22 482.02 5199.51 487H5182.72ZM5183.78 463.006C5183.95 457.029 5184.1 450.643 5184.22 443.846C5184.33 436.99 5184.39 429.168 5184.39 420.379C5176.95 421.258 5170.95 422.693 5166.38 424.686C5161.81 426.678 5158.26 429.139 5155.74 432.068C5153.22 434.939 5151.52 438.221 5150.64 441.912C5149.76 445.604 5149.32 449.617 5149.32 453.953C5149.32 457.645 5149.65 460.984 5150.29 463.973C5150.99 466.961 5151.99 469.51 5153.28 471.619C5154.57 473.67 5156.09 475.252 5157.85 476.365C5159.61 477.479 5161.6 478.035 5163.83 478.035C5166.35 478.035 5168.54 477.596 5170.42 476.717C5172.35 475.779 5174.08 474.607 5175.6 473.201C5177.19 471.736 5178.62 470.125 5179.91 468.367C5181.2 466.551 5182.49 464.764 5183.78 463.006ZM5245.65 366.238C5250.57 366.238 5254.97 367.088 5258.84 368.787C5262.7 370.428 5265.96 372.859 5268.59 376.082C5271.29 379.305 5273.31 383.23 5274.66 387.859C5276.06 392.488 5276.77 397.732 5276.77 403.592C5276.77 406.111 5276.53 408.807 5276.06 411.678C5275.59 414.49 5274.83 417.273 5273.78 420.027C5272.72 422.781 5271.38 425.447 5269.74 428.025C5268.09 430.545 5266.07 432.771 5263.67 434.705C5261.33 436.639 5258.57 438.191 5255.41 439.363C5252.3 440.477 5248.76 441.033 5244.77 441.033H5231.24C5231.36 448.533 5231.5 456.209 5231.68 464.061C5231.91 471.854 5232.26 479.5 5232.73 487H5216.3C5216.65 482.02 5216.91 476.922 5217.09 471.707C5217.32 466.434 5217.5 461.219 5217.62 456.062C5217.73 450.848 5217.82 445.75 5217.88 440.77C5217.94 435.789 5217.97 431.043 5217.97 426.531C5217.97 422.02 5217.94 417.273 5217.88 412.293C5217.82 407.312 5217.73 402.244 5217.62 397.088C5217.5 391.932 5217.32 386.746 5217.09 381.531C5216.91 376.316 5216.65 371.219 5216.3 366.238H5245.65ZM5232.29 376.082C5231.88 384.754 5231.59 393.426 5231.41 402.098C5231.3 410.77 5231.24 418.914 5231.24 426.531V431.277H5244.77C5250.05 431.277 5254.15 428.875 5257.08 424.07C5260.01 419.207 5261.47 412.381 5261.47 403.592C5261.47 394.627 5260.1 387.801 5257.34 383.113C5254.59 378.426 5250.4 376.082 5244.77 376.082H5232.29ZM5356.04 366.238C5355.75 371.219 5355.49 376.316 5355.25 381.531C5355.08 386.746 5354.93 391.932 5354.81 397.088C5354.7 402.244 5354.61 407.312 5354.55 412.293C5354.49 417.273 5354.46 422.02 5354.46 426.531C5354.46 431.043 5354.49 435.789 5354.55 440.77C5354.61 445.75 5354.67 450.848 5354.73 456.062C5354.84 461.219 5354.99 466.434 5355.16 471.707C5355.34 476.922 5355.57 482.02 5355.87 487H5339.52C5339.81 482.02 5340.05 476.922 5340.22 471.707C5340.46 466.434 5340.63 461.219 5340.75 456.062C5340.87 450.848 5340.96 445.75 5341.01 440.77C5341.07 435.789 5341.1 431.043 5341.1 426.531H5304.89C5304.89 431.043 5304.92 435.789 5304.98 440.77C5305.04 445.75 5305.13 450.848 5305.24 456.062C5305.36 461.219 5305.51 466.434 5305.68 471.707C5305.86 476.922 5306.09 482.02 5306.39 487H5289.95C5290.3 482.02 5290.57 476.922 5290.74 471.707C5290.98 466.434 5291.15 461.219 5291.27 456.062C5291.39 450.848 5291.47 445.75 5291.53 440.77C5291.59 435.789 5291.62 431.043 5291.62 426.531C5291.62 422.02 5291.59 417.273 5291.53 412.293C5291.47 407.312 5291.39 402.244 5291.27 397.088C5291.15 391.932 5290.98 386.746 5290.74 381.531C5290.57 376.316 5290.3 371.219 5289.95 366.238H5306.56C5305.98 374.441 5305.57 382.85 5305.33 391.463C5305.16 400.018 5305.01 408.279 5304.89 416.248H5341.01C5340.96 408.279 5340.81 400.018 5340.57 391.463C5340.34 382.85 5339.99 374.441 5339.52 366.238H5356.04Z" fill="#614294"/>
<path d="M5503.51 389.661C5503.34 389.107 5503.14 388.584 5502.97 388.033C5502.76 387.876 5502.64 388.14 5502.21 388.257C5502.02 388.31 5501.79 388.369 5501.65 388.553C5501.48 388.794 5500.78 388.964 5500.53 389.103C5499.99 389.409 5499.45 389.605 5498.84 389.793C5497.29 390.27 5496.06 391.067 5494.66 391.829C5493.73 392.331 5492.7 392.92 5491.91 393.594C5491.26 394.153 5490.6 394.632 5489.98 395.248C5489.61 395.617 5489.11 395.915 5488.83 396.369C5488.31 397.215 5487.98 398.401 5488.33 399.397C5488.86 400.919 5490.89 402.283 5492.5 402.239C5493.62 402.208 5494.81 402.162 5495.92 402.327C5497.26 402.525 5498.71 402.864 5500.08 402.795C5502.42 402.676 5504.64 402.178 5506.93 401.82C5507.76 401.689 5507.48 401.087 5507.23 400.597C5506.59 399.367 5506.21 397.999 5505.83 396.673C5505.53 395.653 5504.97 394.718 5504.68 393.689C5504.48 392.948 5504.17 392.248 5503.95 391.514C5503.76 390.905 5503.7 390.272 5503.51 389.661Z" fill="#6F432E"/>
<path d="M5502.86 387.603C5503.03 388.319 5503.29 388.966 5503.51 389.661C5503.7 390.272 5503.76 390.905 5503.95 391.514C5504.17 392.248 5504.48 392.948 5504.68 393.689C5504.97 394.718 5505.53 395.653 5505.83 396.673C5506.21 397.999 5506.59 399.367 5507.23 400.597C5507.48 401.087 5507.76 401.689 5506.93 401.82C5504.64 402.178 5502.42 402.676 5500.08 402.795C5498.71 402.864 5497.26 402.525 5495.92 402.327C5494.81 402.162 5493.62 402.208 5492.5 402.239C5490.89 402.283 5488.86 400.919 5488.33 399.397C5487.98 398.401 5488.31 397.215 5488.83 396.369C5489.11 395.915 5489.61 395.617 5489.98 395.248C5490.6 394.632 5491.26 394.153 5491.91 393.594C5492.7 392.92 5493.73 392.331 5494.66 391.829C5496.06 391.067 5497.29 390.27 5498.84 389.793C5499.45 389.605 5499.99 389.409 5500.53 389.103C5500.78 388.964 5501.48 388.794 5501.65 388.553C5501.79 388.369 5502.02 388.31 5502.21 388.257C5502.77 388.104 5502.81 387.698 5503.21 388.317" stroke="#6F432E" stroke-width="5" stroke-linecap="round"/>
<path d="M5512.21 419.489C5512.11 417.523 5511.75 415.066 5510.58 413.387C5510.42 413.382 5510.21 413.462 5509.93 413.607C5509.55 413.801 5509.18 414.021 5508.8 414.216C5507.78 414.739 5506.57 414.881 5505.57 415.431C5505.1 415.691 5504.57 415.8 5504.1 416.075C5503.57 416.379 5503.07 416.601 5502.51 416.835C5501.45 417.276 5500.45 417.711 5499.42 418.194C5498.29 418.724 5497 419.257 5495.74 419.321C5495.15 419.351 5493.74 419.515 5493.76 420.362C5493.77 420.971 5493.85 422.13 5494.54 422.407C5495.29 422.707 5496.1 422.868 5496.83 423.185C5497.24 423.368 5497.71 423.404 5498.15 423.478C5498.77 423.583 5499.41 423.533 5500.01 423.726C5500.35 423.833 5500.67 423.995 5501.02 424.07C5502.47 424.383 5504.04 424.648 5505.53 424.573L5510.24 424.333C5510.87 424.301 5511.48 424.461 5512.1 424.448C5512.45 424.44 5512.35 424.195 5512.33 423.913C5512.26 422.444 5512.29 420.973 5512.21 419.489Z" fill="#6F432E"/>
<path d="M5510.58 413.387C5511.75 415.066 5512.11 417.523 5512.21 419.489C5512.29 420.973 5512.26 422.444 5512.33 423.913C5512.35 424.195 5512.45 424.44 5512.1 424.448C5511.48 424.461 5510.87 424.301 5510.24 424.333C5508.67 424.413 5507.1 424.493 5505.53 424.573C5504.04 424.648 5502.47 424.383 5501.02 424.07C5500.67 423.995 5500.35 423.833 5500.01 423.726C5499.41 423.533 5498.77 423.583 5498.15 423.478C5497.71 423.404 5497.24 423.368 5496.83 423.185C5496.1 422.868 5495.29 422.707 5494.54 422.407C5493.85 422.13 5493.77 420.971 5493.76 420.362C5493.74 419.515 5495.15 419.351 5495.74 419.321C5497 419.257 5498.29 418.724 5499.42 418.194C5500.45 417.711 5501.45 417.276 5502.51 416.835C5503.07 416.601 5503.57 416.379 5504.1 416.075C5504.57 415.8 5505.1 415.691 5505.57 415.431C5506.57 414.881 5507.78 414.739 5508.8 414.216C5509.18 414.021 5509.55 413.801 5509.93 413.607C5510.65 413.236 5510.87 413.292 5511.09 414.1" stroke="#6F432E" stroke-width="5" stroke-linecap="round"/>
<path d="M5513.88 439.93C5513.83 438.518 5514.05 437.14 5513.96 435.743C5513.95 435.483 5512.51 433.779 5512.1 434.144C5511.98 434.246 5511.41 434.27 5511.25 434.309C5510.69 434.44 5509.99 434.588 5509.43 434.617C5507.6 434.709 5505.86 435.53 5504.04 435.622C5501.52 435.75 5499.1 436.444 5496.59 436.627C5495.68 436.693 5494.52 436.51 5494.32 437.683C5494.18 438.505 5494.32 439.167 5494.91 439.796C5495.39 440.317 5496.25 440.39 5496.87 440.683C5497.55 441.003 5498.36 441.06 5499.08 441.308C5500.26 441.716 5501.28 442.334 5502.56 442.38C5504.06 442.434 5505.36 442.92 5506.67 443.641C5507.79 444.261 5509.32 444.012 5510.54 444.152C5511.05 444.211 5512.77 444.522 5512.98 443.843C5513.11 443.416 5513.18 442.973 5513.28 442.527C5513.34 442.272 5513.51 441.966 5513.61 441.715C5513.82 441.143 5513.9 440.544 5513.88 439.93Z" fill="#6F432E"/>
<path d="M5513.82 434.603C5514.19 436.396 5513.82 438.135 5513.88 439.93C5513.9 440.544 5513.82 441.143 5513.61 441.715C5513.51 441.966 5513.34 442.272 5513.28 442.527C5513.18 442.973 5513.11 443.416 5512.98 443.843C5512.77 444.522 5511.05 444.211 5510.54 444.152C5509.32 444.012 5507.79 444.261 5506.67 443.641C5505.36 442.92 5504.06 442.434 5502.56 442.38C5501.28 442.334 5500.26 441.716 5499.08 441.308C5498.36 441.06 5497.55 441.003 5496.87 440.683C5496.25 440.39 5495.39 440.317 5494.91 439.796C5494.32 439.167 5494.18 438.505 5494.32 437.683C5494.52 436.51 5495.68 436.693 5496.59 436.627C5499.1 436.444 5501.52 435.75 5504.04 435.622C5505.86 435.53 5507.6 434.709 5509.43 434.617C5509.99 434.588 5510.69 434.44 5511.25 434.309C5511.41 434.27 5511.98 434.246 5512.1 434.144C5512.51 433.778 5513.95 435.49 5513.97 435.745" stroke="#6F432E" stroke-width="5" stroke-linecap="round"/>
<path d="M5477.8 404.949C5477.27 403.877 5476.83 402.653 5476.09 401.714C5475.7 401.225 5474.44 402.703 5474.26 402.806C5473.89 403.013 5473.62 403.275 5473.2 403.405C5472.34 403.673 5471.82 404.278 5471.07 404.733C5470.25 405.23 5469.45 405.748 5468.72 406.374C5467.34 407.553 5465.34 408.028 5464.15 409.428C5463.8 409.833 5463.87 410.241 5463.9 410.741C5463.93 411.262 5464.32 411.485 5464.74 411.697C5466.09 412.379 5468.51 412.443 5469.96 411.797C5470.48 411.57 5471.18 411.721 5471.73 411.603C5472.16 411.511 5472.64 411.455 5473.04 411.275C5473.92 410.884 5474.83 410.588 5475.69 410.148C5476.61 409.676 5477.74 409.663 5478.61 409.088C5478.87 408.92 5478.48 407.712 5478.47 407.498C5478.43 406.603 5478.19 405.759 5477.8 404.949Z" fill="#6F432E" stroke="#6F432E" stroke-width="5" stroke-linecap="round"/>
<path d="M5446.12 416.742C5445.76 415.908 5445.59 414.921 5445.36 414.04C5445.16 413.686 5449.58 412.628 5449.89 412.555C5450.85 412.331 5451.92 412.107 5452.82 411.727C5453.82 411.312 5454.77 410.949 5455.85 410.894C5457.1 410.831 5458.24 411.068 5457.59 412.536C5457.2 413.429 5456.31 414.274 5455.56 414.88C5455.07 415.277 5454.72 415.959 5454.25 416.41C5453.68 416.965 5452.95 417.354 5452.36 417.865C5451.81 418.341 5451.23 418.765 5450.69 419.256C5450.07 419.817 5449.4 420.544 5448.64 420.922C5448.18 421.153 5447.16 419.184 5447.04 418.82C5446.92 418.461 5446.63 418.193 5446.52 417.848C5446.39 417.472 5446.28 417.108 5446.12 416.742Z" fill="#6F432E" stroke="#6F432E" stroke-width="5" stroke-linecap="round"/>
<path d="M5482.31 421.465C5482.13 420.374 5481.76 419.286 5481.32 418.275C5481.29 417.732 5478.28 418.873 5477.9 419.029C5477.43 419.223 5476.93 419.431 5476.48 419.67C5475.46 420.214 5474.28 420.588 5473.32 421.248C5472.43 421.853 5471.53 422.505 5470.7 423.181C5469.77 423.932 5468.22 425.46 5468.59 426.812C5468.88 427.881 5469.85 427.846 5470.78 427.799L5472.34 427.719C5472.97 427.687 5473.59 427.363 5474.23 427.31C5476.16 427.147 5477.98 426.327 5479.89 426.076C5481.29 425.893 5482.48 425.506 5482.44 423.966C5482.42 423.113 5482.45 422.331 5482.31 421.465Z" fill="#6F432E" stroke="#6F432E" stroke-width="5" stroke-linecap="round"/>
<path d="M5451.14 432.245C5450.8 431.637 5450.41 431.062 5449.96 430.529C5449.86 430.406 5451.52 430.378 5451.7 430.312C5452.51 430.027 5453.32 429.84 5454.11 429.482C5455.67 428.769 5457.57 427.634 5459.32 427.545C5459.86 427.517 5462.66 427.205 5462.13 428.291C5461.78 428.993 5461.57 429.966 5460.91 430.495C5460.4 430.898 5459.88 431.358 5459.43 431.824C5458.97 432.302 5458.4 432.683 5458.04 433.231C5457.7 433.747 5456.75 434.135 5456.25 434.495C5455.65 434.919 5455.07 435.322 5454.51 435.791C5454.19 436.054 5453.63 436.856 5453.39 436.149C5453.15 435.458 5452.75 434.903 5452.4 434.272C5452.01 433.581 5451.54 432.941 5451.14 432.245Z" fill="#6F432E" stroke="#6F432E" stroke-width="5" stroke-linecap="round"/>
<path d="M5483.65 439.525C5483.75 438.262 5483.64 436.64 5483.34 435.418C5483.42 435.111 5481.59 436.171 5481.29 436.254C5480.57 436.453 5479.94 437.025 5479.25 437.275C5478.1 437.692 5476.99 438.545 5475.98 439.241C5475.07 439.873 5473.76 440.2 5473.49 441.504C5473.3 442.38 5473.69 442.806 5474.57 442.762C5475.64 442.707 5476.57 442.604 5477.59 442.393C5478.74 442.157 5479.85 441.484 5480.96 441.131C5482.06 440.782 5483.53 440.937 5483.65 439.525Z" fill="#6F432E" stroke="#6F432E" stroke-width="5" stroke-linecap="round"/>
<path d="M5459.79 448.018C5459.03 446.913 5458.13 445.911 5457.27 444.894C5457.05 444.796 5458.6 444.124 5458.74 444.035C5459.18 443.764 5459.97 443.899 5460.48 443.709C5461.82 443.201 5463.46 442.699 5464.89 442.626C5465.55 442.592 5467.91 442.37 5467.38 443.754C5467.14 444.369 5467.25 445.186 5466.77 445.718C5466.03 446.536 5465.05 447.24 5464.39 448.133C5464.2 448.38 5463.85 448.828 5463.54 448.861C5462.99 448.918 5462.44 449.004 5461.9 449.049C5461.42 449.088 5461.42 449.286 5461.11 449.553C5460.71 449.903 5460.47 449.674 5460.42 449.228C5460.38 448.885 5460 448.327 5459.8 448.03L5459.79 448.018Z" fill="#6F432E" stroke="#6F432E" stroke-width="5" stroke-linecap="round"/>
<path d="M5510.47 455.01C5509.73 454.96 5508.99 454.934 5508.26 454.905C5507.25 454.865 5506.27 454.619 5505.25 454.652C5504.81 454.667 5504.36 454.528 5503.92 454.494C5503.37 454.451 5502.79 454.453 5502.23 454.481C5501.68 454.509 5501.22 454.438 5500.68 454.361C5500.19 454.292 5499.68 454.348 5499.19 454.293C5497.97 454.157 5496.77 454.19 5495.57 454.251C5494.69 454.296 5493.91 454.423 5493.06 454.622C5492.83 454.678 5492.52 454.669 5492.3 454.751C5492.09 454.827 5491.94 455.004 5491.71 455.015C5491.36 455.033 5490.67 455.298 5490.4 455.533C5490.08 455.807 5489.84 456.051 5489.74 456.432C5489.6 456.929 5489.28 457.57 5489.02 458.01C5488.45 459.013 5488.25 460.175 5487.81 461.219C5487.36 462.271 5486.8 463.249 5486.34 464.297C5485.8 465.533 5485.17 466.47 5484.14 467.331C5482.53 468.672 5480.2 469.38 5478.22 469.944C5476.54 470.424 5474.84 471.184 5473.11 471.385C5471.53 471.567 5469.85 471.458 5468.3 471.769C5467.24 471.981 5466.21 472.034 5465.14 472.029C5464.79 472.027 5464.42 471.984 5464.05 472.003C5463.66 472.023 5463.26 472.303 5462.94 472.506C5462.06 473.054 5461.52 474.025 5460.99 474.909C5460.68 475.437 5460.41 476.027 5460 476.492C5459.52 477.037 5458.92 477.426 5458.45 477.987C5458.2 478.285 5458.12 478.733 5457.83 478.992C5457.33 479.443 5456.81 479.851 5456.28 480.27L5456.28 480.27C5455.53 480.86 5454.8 481.518 5454.16 482.227C5453.56 482.885 5452.73 483.467 5452.29 484.224C5452.13 484.491 5451.81 484.749 5451.77 485.08C5451.73 485.403 5452.52 485.518 5452.69 485.647C5452.82 485.745 5453.09 485.796 5453.25 485.844C5453.72 485.986 5454.06 486.102 5454.47 486.368C5454.97 486.686 5455.49 486.846 5456.04 487.016L5456.05 487.019C5457.44 487.446 5459.03 487.189 5460.45 487.363C5461.03 487.434 5461.68 487.688 5462.22 487.923C5463.03 488.279 5464.07 488.26 5464.94 488.434C5465.47 488.539 5466.01 488.528 5466.54 488.596C5467.54 488.723 5468.43 489.188 5469.45 489.256C5470.58 489.331 5471.65 489.391 5472.8 489.334C5474.43 489.25 5476.16 489.314 5477.78 489.036C5479.37 488.76 5480.97 488.301 5482.51 487.785C5484.64 487.072 5486.84 486.558 5488.97 485.834C5490.7 485.245 5492.29 484.169 5493.86 483.241C5495.04 482.547 5496.25 481.78 5497.31 480.928C5497.85 480.498 5498.38 480.025 5498.88 479.55C5499.39 479.069 5499.77 478.478 5500.27 477.992C5500.72 477.545 5501.04 476.952 5501.46 476.466C5501.98 475.852 5502.49 475.234 5503 474.607C5503.56 473.917 5504.09 473.219 5504.68 472.555C5505.16 472.014 5505.43 471.344 5505.82 470.739C5506.23 470.11 5506.59 469.588 5506.72 468.844C5506.81 468.33 5506.99 467.818 5507.09 467.301C5507.35 466.044 5507.47 464.769 5507.89 463.545C5508.31 462.341 5509.04 461.271 5509.55 460.116C5509.72 459.734 5509.85 459.365 5509.95 458.977C5510.07 458.526 5510.52 458.107 5510.59 457.668C5510.69 457.104 5511.06 456.614 5511.23 456.071C5511.29 455.867 5511.33 455.672 5511.41 455.476C5511.49 455.296 5511.13 455.113 5510.82 455.036C5510.67 454.998 5510.53 454.986 5510.47 455.01Z" fill="#6F432E"/>
<path d="M5511.28 455.077C5510.29 454.979 5509.26 454.945 5508.26 454.905C5507.25 454.865 5506.27 454.619 5505.25 454.652C5504.81 454.667 5504.36 454.528 5503.92 454.494C5503.37 454.451 5502.79 454.453 5502.23 454.481C5501.68 454.509 5501.22 454.438 5500.68 454.361C5500.19 454.292 5499.68 454.348 5499.19 454.293C5497.97 454.157 5496.77 454.19 5495.57 454.251C5494.69 454.296 5493.91 454.423 5493.06 454.622C5492.83 454.678 5492.52 454.669 5492.3 454.751C5492.09 454.827 5491.94 455.004 5491.71 455.015C5491.36 455.033 5490.67 455.298 5490.4 455.533C5490.08 455.807 5489.84 456.051 5489.74 456.432C5489.6 456.929 5489.28 457.57 5489.02 458.01C5488.45 459.013 5488.25 460.175 5487.81 461.219C5487.36 462.271 5486.8 463.249 5486.34 464.297C5485.8 465.533 5485.17 466.47 5484.14 467.331C5482.53 468.672 5480.2 469.38 5478.22 469.944C5476.54 470.424 5474.84 471.184 5473.11 471.385C5471.53 471.567 5469.85 471.458 5468.3 471.769C5467.24 471.981 5466.21 472.034 5465.14 472.029C5464.79 472.027 5464.42 471.984 5464.05 472.003C5463.66 472.023 5463.26 472.303 5462.94 472.506C5462.06 473.054 5461.52 474.025 5460.99 474.909C5460.68 475.437 5460.41 476.027 5460 476.492C5459.52 477.037 5458.92 477.426 5458.45 477.987C5458.2 478.285 5458.12 478.733 5457.83 478.992C5457.33 479.443 5456.81 479.851 5456.28 480.27C5455.53 480.86 5454.8 481.518 5454.16 482.227C5453.56 482.885 5452.73 483.467 5452.29 484.224C5452.13 484.491 5451.81 484.749 5451.77 485.08C5451.73 485.403 5452.52 485.518 5452.69 485.647C5452.82 485.745 5453.09 485.796 5453.25 485.844C5453.72 485.986 5454.06 486.102 5454.47 486.368C5454.97 486.687 5455.49 486.848 5456.05 487.019C5457.44 487.446 5459.03 487.189 5460.45 487.363C5461.03 487.434 5461.68 487.688 5462.22 487.923C5463.03 488.279 5464.07 488.26 5464.94 488.434C5465.47 488.539 5466.01 488.528 5466.54 488.596C5467.54 488.723 5468.43 489.188 5469.45 489.256C5470.58 489.331 5471.65 489.391 5472.8 489.334C5474.43 489.25 5476.16 489.314 5477.78 489.036C5479.37 488.76 5480.97 488.301 5482.51 487.785C5484.64 487.072 5486.84 486.558 5488.97 485.834C5490.7 485.245 5492.29 484.169 5493.86 483.241C5495.04 482.547 5496.25 481.78 5497.31 480.928C5497.85 480.498 5498.38 480.025 5498.88 479.55C5499.39 479.069 5499.77 478.478 5500.27 477.992C5500.72 477.545 5501.04 476.952 5501.46 476.466C5501.98 475.852 5502.49 475.234 5503 474.607C5503.56 473.917 5504.09 473.219 5504.68 472.555C5505.16 472.014 5505.43 471.344 5505.82 470.739C5506.23 470.11 5506.59 469.588 5506.72 468.844C5506.81 468.33 5506.99 467.818 5507.09 467.301C5507.35 466.044 5507.47 464.769 5507.89 463.545C5508.31 462.341 5509.04 461.271 5509.55 460.116C5509.72 459.734 5509.85 459.365 5509.95 458.977C5510.07 458.526 5510.52 458.107 5510.59 457.668C5510.69 457.104 5511.06 456.614 5511.23 456.071C5511.29 455.867 5511.33 455.672 5511.41 455.476C5511.56 455.147 5510.22 454.812 5510.46 455.118" stroke="#6F432E" stroke-width="5" stroke-linecap="round"/>
<path d="M5482.74 450.846C5481.85 452.152 5481.54 453.874 5480.48 455.055C5479.74 455.876 5478.92 457.028 5477.65 456.862C5477.43 456.833 5477.22 456.677 5477.06 456.531C5476.82 456.311 5476.85 456.11 5476.72 455.858C5476.39 455.207 5477.02 454.5 5477.42 454.037C5478.06 453.315 5478.73 452.785 5479.51 452.227C5480.08 451.819 5480.99 451.584 5481.45 451.073" stroke="#6F432E" stroke-width="5" stroke-linecap="round"/>
<path d="M5466.74 458.062C5466.47 458.024 5466.44 457.89 5466.74 458.062C5466.75 458.062 5466.75 458.063 5466.75 458.063C5467.06 458.103 5467.26 458.213 5467.54 458.307C5467.62 458.335 5467.71 458.359 5467.79 458.38C5468.56 458.566 5469.45 458.499 5470.22 458.46C5470.89 458.426 5471.55 458.558 5472.21 458.377C5472.42 458.319 5473.13 458.048 5472.92 457.674C5472.64 457.185 5471.57 457.336 5471.14 457.358C5470.3 457.401 5469.38 457.553 5468.66 458.012C5468.41 458.171 5468.1 458.305 5467.79 458.38C5467.71 458.359 5467.62 458.335 5467.54 458.307C5467.26 458.213 5467.06 458.103 5466.75 458.063C5466.75 458.063 5466.75 458.062 5466.74 458.062Z" fill="#6F432E"/>
<path d="M5466.87 458.143C5466.43 457.851 5466.44 458.023 5466.75 458.063C5467.06 458.103 5467.26 458.213 5467.54 458.307C5468.37 458.581 5469.37 458.503 5470.22 458.46C5470.89 458.426 5471.55 458.558 5472.21 458.377C5472.42 458.319 5473.13 458.048 5472.92 457.674C5472.64 457.185 5471.57 457.336 5471.14 457.358C5470.3 457.401 5469.38 457.553 5468.66 458.012C5468.29 458.241 5467.81 458.42 5467.39 458.441C5467.04 458.459 5465.97 458.514 5466.32 458.496" stroke="#6F432E" stroke-width="5" stroke-linecap="round"/>
<path d="M5454.54 460.086C5454.53 459.037 5453.57 458.609 5452.68 458.729C5452.39 459.223 5451.6 458.747 5451.04 458.837C5449.99 459.008 5448.42 459.397 5447.62 460.148C5445.51 462.124 5443.08 463.677 5441.1 465.802C5440.64 466.3 5440.07 466.702 5439.63 467.244C5439.14 467.854 5438.65 468.502 5438.07 469.025C5437.14 469.855 5435.98 470.765 5435.44 471.88C5435.18 472.397 5435.79 473.367 5436.12 473.731C5436.67 474.336 5437.26 474.744 5437.75 475.436C5438.54 476.547 5439.9 477.111 5441 477.834C5441.72 478.305 5442.52 479.364 5443.14 478.501C5443.28 478.305 5443.37 477.766 5443.47 477.505C5443.69 476.928 5444.22 476.519 5444.51 475.987C5445.16 474.793 5446.12 473.51 5447 472.476C5447.44 471.947 5447.76 470.997 5448.05 470.352C5448.42 469.547 5448.76 468.744 5449.11 467.932C5449.87 466.203 5450.84 464.329 5452.1 462.904C5452.55 462.399 5452.91 461.909 5453.42 461.47C5453.78 461.167 5454.54 460.589 5454.54 460.086Z" fill="#6F432E"/>
<path d="M5452.46 458.772C5453.39 458.54 5454.53 458.947 5454.54 460.086C5454.54 460.589 5453.78 461.167 5453.42 461.47C5452.91 461.909 5452.55 462.399 5452.1 462.904C5450.84 464.329 5449.87 466.203 5449.11 467.932C5448.76 468.744 5448.42 469.547 5448.05 470.352C5447.76 470.997 5447.44 471.947 5447 472.476C5446.12 473.51 5445.16 474.793 5444.51 475.987C5444.22 476.519 5443.69 476.928 5443.47 477.505C5443.37 477.766 5443.28 478.305 5443.14 478.501C5442.52 479.364 5441.72 478.305 5441 477.834C5439.9 477.111 5438.54 476.547 5437.75 475.436C5437.26 474.744 5436.67 474.336 5436.12 473.731C5435.79 473.367 5435.18 472.397 5435.44 471.88C5435.98 470.765 5437.14 469.855 5438.07 469.025C5438.65 468.502 5439.14 467.854 5439.63 467.244C5440.07 466.702 5440.64 466.3 5441.1 465.802C5443.08 463.677 5445.51 462.124 5447.62 460.148C5448.42 459.397 5449.99 459.008 5451.04 458.837C5451.6 458.747 5452.39 459.223 5452.68 458.729" stroke="#6F432E" stroke-width="5" stroke-linecap="round"/>
<path d="M5444.01 443.601C5443.99 443.547 5443.98 443.495 5443.95 443.446C5443.65 442.658 5443.39 441.843 5442.73 441.877C5441.42 441.943 5440.21 441.779 5438.96 442.16C5438.19 442.394 5437.55 442.81 5436.88 443.238C5436.13 443.72 5435.58 444.614 5434.75 444.977C5433.6 445.482 5432.36 446.113 5431.26 446.718C5430.75 447.002 5430.1 447.471 5429.69 447.888C5429.02 448.58 5428.26 449.064 5427.51 449.655C5427.05 450.015 5426.25 450.785 5425.68 450.905C5425.22 451.002 5425.69 451.555 5425.81 451.779C5427.17 454.305 5427.81 456.99 5428.56 459.749C5428.65 460.096 5429.34 463.217 5429.79 463.111C5430.62 462.918 5431.02 461.674 5431.52 461.124C5432.53 460.006 5433.54 458.905 5434.54 457.789C5435.37 456.874 5436.12 455.925 5436.95 455.006C5438.76 452.999 5439.71 450.417 5441.41 448.325C5442.3 447.226 5443.01 445.879 5443.75 444.671C5443.92 444.391 5444.1 443.954 5444.01 443.601Z" fill="#6F432E"/>
<path d="M5442.65 442.709C5443.31 442.887 5443.59 442.871 5443.93 443.413C5444.16 443.784 5443.95 444.338 5443.75 444.671C5443.01 445.879 5442.3 447.226 5441.41 448.325C5439.71 450.417 5438.76 452.999 5436.95 455.006C5436.12 455.925 5435.37 456.874 5434.54 457.789C5433.54 458.905 5432.53 460.006 5431.52 461.124C5431.02 461.674 5430.62 462.918 5429.79 463.111C5429.34 463.217 5428.65 460.096 5428.56 459.749C5427.81 456.99 5427.17 454.305 5425.81 451.779C5425.69 451.555 5425.22 451.002 5425.68 450.905C5426.25 450.785 5427.05 450.015 5427.51 449.655C5428.26 449.064 5429.02 448.58 5429.69 447.888C5430.1 447.471 5430.75 447.002 5431.26 446.718C5432.36 446.113 5433.6 445.482 5434.75 444.977C5435.58 444.614 5436.13 443.72 5436.88 443.238C5437.55 442.81 5438.19 442.394 5438.96 442.16C5440.21 441.779 5441.42 441.943 5442.73 441.877C5443.44 441.841 5443.68 442.769 5444.01 443.601" stroke="#6F432E" stroke-width="5" stroke-linecap="round"/>
<path d="M5437.82 419.822C5437.47 419 5436.49 419.025 5435.72 418.835C5435.47 418.666 5433.84 418.743 5433.51 418.864C5432.11 419.38 5430.69 419.876 5429.23 420.231C5427.89 420.56 5426.52 420.896 5425.24 421.42C5423.96 421.941 5422.84 422.838 5421.55 423.289C5420.98 423.492 5420.98 423.629 5421.01 424.224L5421.12 426.289C5421.17 427.364 5421.19 428.572 5421.43 429.618C5421.71 430.835 5421.89 432.219 5421.95 433.469C5422.06 435.582 5422.29 437.671 5422.39 439.782C5422.43 440.433 5422.41 441.748 5423.33 440.911C5424.18 440.144 5424.86 439.197 5425.88 438.593C5427.33 437.733 5428.54 436.278 5429.66 435.036C5430.31 434.312 5431.07 433.679 5431.75 432.972C5432.56 432.12 5433.14 431.261 5433.83 430.316C5434.88 428.892 5435.72 427.35 5436.64 425.855C5437.36 424.697 5437.78 423.48 5438.21 422.234C5438.46 421.49 5438.11 420.507 5437.82 419.822Z" fill="#6F432E"/>
<path d="M5435.64 418.815C5436.42 419.027 5437.46 418.972 5437.82 419.822C5438.11 420.507 5438.46 421.49 5438.21 422.234C5437.78 423.48 5437.36 424.697 5436.64 425.855C5435.72 427.35 5434.88 428.892 5433.83 430.316C5433.14 431.261 5432.56 432.12 5431.75 432.972C5431.07 433.679 5430.31 434.312 5429.66 435.036C5428.54 436.278 5427.33 437.733 5425.88 438.593C5424.86 439.197 5424.18 440.144 5423.33 440.911C5422.41 441.748 5422.43 440.433 5422.39 439.782C5422.29 437.671 5422.06 435.582 5421.95 433.469C5421.89 432.219 5421.71 430.835 5421.43 429.618C5421.19 428.572 5421.17 427.364 5421.12 426.289C5421.08 425.601 5421.05 424.912 5421.01 424.224C5420.98 423.629 5420.98 423.492 5421.55 423.289C5422.84 422.838 5423.96 421.941 5425.24 421.42C5426.52 420.896 5427.89 420.56 5429.23 420.231C5430.69 419.876 5432.11 419.38 5433.51 418.864C5433.84 418.743 5435.47 418.666 5435.72 418.835" stroke="#6F432E" stroke-width="5" stroke-linecap="round"/>
<path d="M5475.97 275.929C5476.15 274.08 5476.28 272.035 5475.89 270.202C5476.14 269.405 5474.5 272.012 5474.39 272.177C5474.04 272.695 5473.35 273.211 5472.86 273.616C5471.45 274.787 5470.28 276.222 5468.67 277.134C5467.31 277.904 5466.28 279.463 5465.24 280.614C5464.25 281.719 5463.59 283.084 5462.52 284.137C5461.45 285.189 5460.88 286.361 5460.4 287.76C5459.94 289.095 5458.94 290.872 5459.88 292.216C5460.55 293.18 5461.71 293.34 5462.57 294.038C5463.36 294.675 5464.54 294.312 5465.39 294.066C5466.47 293.752 5467.85 293.914 5468.98 293.857C5470.51 293.779 5472.44 293.963 5473.88 293.431C5475.09 292.985 5476.29 292.527 5477.54 292.233C5478.39 292.035 5478.46 291.172 5478.04 290.499C5477.88 290.236 5477.96 289.8 5477.93 289.499C5477.88 288.996 5477.73 288.437 5477.64 287.923C5477.56 287.427 5477.68 286.777 5477.51 286.3C5477.25 285.583 5477.13 284.715 5477.06 283.957C5476.92 282.496 5476.27 281.227 5476.05 279.802C5475.85 278.591 5475.85 277.153 5475.97 275.929Z" fill="#6F432E" stroke="#6F432E" stroke-width="5" stroke-linecap="round"/>
<path d="M5483.8 307.301C5483.74 305.361 5483.74 303.317 5483.39 301.407C5483.59 301.067 5481.62 302.038 5481.47 302.162C5481.02 302.552 5480.35 302.879 5479.82 303.179C5478.62 303.859 5477.66 305.007 5476.41 305.573C5475.85 305.827 5475.35 306.401 5474.77 306.577C5474.18 306.758 5473.59 307.218 5473.06 307.551C5472.15 308.127 5471.35 308.878 5470.43 309.458C5470.06 309.693 5469.76 310.143 5469.38 310.307C5468.86 310.529 5468.29 310.976 5467.83 311.306C5467.01 311.89 5465.6 312.883 5465.46 313.963C5465.26 315.468 5465.7 317.161 5467.26 317.578C5468.3 317.853 5469.28 318.268 5470.3 318.574C5471.51 318.939 5472.7 318.985 5473.94 319.132C5475.42 319.306 5476.85 319.484 5478.33 319.408C5479.23 319.363 5480.14 319.435 5481.05 319.388C5482.03 319.339 5483.07 319.312 5484.02 319.527C5484.55 319.648 5485.39 319.937 5485.36 319.236C5485.33 318.73 5485.32 318.248 5485.19 317.759C5485.01 317.095 5484.91 316.436 5484.71 315.779C5484.49 315.056 5484.28 314.332 5484.07 313.603C5483.78 312.571 5483.89 311.328 5483.84 310.257C5483.79 309.266 5483.84 308.284 5483.8 307.301Z" fill="#6F432E" stroke="#6F432E" stroke-width="5" stroke-linecap="round"/>
<path d="M5431.84 309.611C5430.62 306.475 5429.09 303.493 5427.86 300.353C5427.94 300.195 5428.61 300.59 5428.82 300.682C5430.23 301.302 5431.63 302.245 5432.95 303.074C5435.56 304.707 5438.18 306.289 5440.94 307.644C5441.42 307.881 5441.95 307.93 5442.47 308.072C5443.32 308.31 5444.12 308.726 5444.97 308.971C5445.92 309.245 5446.86 309.809 5447.82 309.982C5448.59 310.123 5449.78 310.489 5450.46 310.907C5451.44 311.514 5452.4 312.46 5453.18 313.325C5453.58 313.762 5453.92 314.086 5454.19 314.608C5454.68 315.568 5454.35 316.182 5453.78 316.922C5453.25 317.607 5451.65 317.688 5450.89 317.726L5450.86 317.728C5449.5 317.797 5448.13 317.774 5446.83 317.696C5445.15 317.595 5443.49 316.741 5441.79 316.769C5441.35 316.776 5440.75 316.673 5440.33 316.541C5439.41 316.255 5438.44 315.967 5437.54 315.631C5436.5 315.245 5435.4 315.002 5434.38 314.602C5433.81 314.379 5433.72 314.382 5433.5 313.824C5432.95 312.416 5432.4 311.019 5431.84 309.611Z" fill="#6F432E"/>
<path d="M5427.85 300.323C5429.08 303.475 5430.62 306.465 5431.84 309.611C5432.4 311.019 5432.95 312.416 5433.5 313.824C5433.72 314.382 5433.81 314.379 5434.38 314.602C5435.4 315.002 5436.5 315.245 5437.54 315.631C5438.44 315.967 5439.41 316.255 5440.33 316.541C5440.75 316.673 5441.35 316.776 5441.79 316.769C5443.49 316.741 5445.15 317.595 5446.83 317.696C5448.13 317.774 5449.5 317.797 5450.86 317.728C5451.6 317.69 5453.24 317.617 5453.78 316.922C5454.35 316.182 5454.68 315.568 5454.19 314.608C5453.92 314.086 5453.58 313.762 5453.18 313.325C5452.4 312.46 5451.44 311.514 5450.46 310.907C5449.78 310.489 5448.59 310.123 5447.82 309.982C5446.86 309.809 5445.92 309.245 5444.97 308.971C5444.12 308.726 5443.32 308.31 5442.47 308.072C5441.95 307.93 5441.42 307.881 5440.94 307.644C5438.18 306.289 5435.56 304.707 5432.95 303.074C5431.63 302.245 5430.23 301.302 5428.82 300.682C5428.54 300.56 5427.46 299.9 5428.01 300.723" stroke="#6F432E" stroke-width="5" stroke-linecap="round"/>
<path d="M5450.63 310.996C5450.57 310.161 5449.96 309.846 5449.25 309.502C5448.32 309.043 5447.4 308.499 5446.47 308.013C5444.35 306.918 5441.92 306.274 5439.68 305.466C5438.8 305.148 5438 304.619 5437.16 304.227C5436.48 303.91 5435.77 303.661 5435.09 303.327C5434.21 302.885 5433.14 302.598 5432.2 302.284C5431.64 302.1 5430.9 302.026 5430.41 301.731" stroke="#6F432E" stroke-width="5" stroke-linecap="round"/>
<path d="M5422.22 306.352C5421.44 304.58 5420.27 300.177 5420.3 300.705C5419.14 303.354 5417.78 307.456 5416.42 310.037C5416.02 310.809 5415.66 311.573 5415.21 312.32C5414.64 313.259 5414.3 314.291 5413.76 315.239C5413.31 316.048 5413.12 316.99 5412.65 317.8C5412.16 318.656 5412.12 319.544 5411.78 320.427C5411.07 322.229 5410.72 324.051 5410.82 325.976C5410.89 327.379 5410.82 329.102 5411.54 330.369C5412.13 331.412 5413.07 331.711 5414.18 331.655C5415.13 331.607 5416.54 331.116 5417.26 330.499C5418.19 329.691 5419.21 328.888 5420.05 327.952C5420.81 327.114 5421.27 326.29 5421.72 325.252C5422.73 322.951 5424.13 320.718 5425.31 318.458C5425.66 317.793 5425.94 316.997 5426.18 316.285C5426.35 315.771 5426.13 315.7 5426.01 315.261C5425.68 314.06 5425.15 312.898 5424.7 311.72C5424.01 309.893 5423 308.146 5422.22 306.352Z" fill="#6F432E" stroke="#6F432E" stroke-width="5" stroke-linecap="round"/>
<path d="M5419.85 283.05C5419.44 281.365 5418.51 279.228 5417.54 277.806C5417.52 277.504 5419 278.662 5419.25 278.815C5419.76 279.136 5420.37 279.365 5420.94 279.557C5422.44 280.059 5424.07 280.335 5425.61 280.727C5428.19 281.386 5430.87 281.614 5433.45 282.352C5434.72 282.716 5435.93 282.912 5437.25 282.988C5437.78 283.018 5438.34 282.962 5438.87 283.083C5439.55 283.238 5440.2 283.716 5440.8 284.049C5442.03 284.731 5443.2 285.602 5443.79 286.914C5444.22 287.864 5444.5 288.497 5443.86 289.395C5443.68 289.637 5442.7 289.879 5442.42 290C5441.92 290.211 5441.4 290.414 5440.87 290.539C5440.23 290.689 5439.48 290.623 5438.83 290.655C5438.41 290.677 5437.93 290.763 5437.51 290.696C5436.49 290.537 5435.52 290.593 5434.53 290.309C5433.85 290.112 5433.17 289.933 5432.49 289.768C5431.99 289.647 5431.47 289.727 5430.95 289.663C5430.05 289.549 5429.2 289.622 5428.32 289.323C5427.61 289.082 5426.7 289.145 5425.95 289.088C5425.11 289.024 5423.52 289.324 5422.85 288.654C5422.36 288.154 5422.13 287.416 5421.61 286.917C5420.69 286.035 5420.14 284.234 5419.85 283.05Z" fill="#6F432E" stroke="#6F432E" stroke-width="5" stroke-linecap="round"/>
<path d="M5410.27 279.049C5410.05 278.419 5410.1 278.058 5409.33 278.078C5409.06 277.589 5408.42 278.613 5408.29 278.959C5408.11 279.422 5407.84 279.848 5407.67 280.318C5407.15 281.76 5406.38 283.113 5405.94 284.586C5405.04 287.549 5403.58 290.279 5402.35 293.101C5401.59 294.833 5401.06 296.554 5400.48 298.349C5400.03 299.721 5399.31 301.421 5399.35 302.888C5399.38 303.57 5399.35 304.3 5399.55 304.954C5399.71 305.487 5399.83 305.524 5400.21 305.867C5400.88 306.472 5401.36 306.4 5402.22 306.357C5403.53 306.29 5404.75 305.208 5405.58 304.294C5405.91 303.925 5406.2 303.719 5406.5 303.3C5407.02 302.566 5407.55 301.923 5407.95 301.104C5408.48 300.008 5409.29 298.935 5410.11 298.03C5411.19 296.833 5411.87 295.372 5412.62 293.953C5412.99 293.242 5413.4 292.541 5413.75 291.819C5414 291.308 5414.58 290.638 5414.55 290.056C5414.52 289.304 5414.47 288.497 5414.15 287.809C5413.73 286.911 5413.08 286.158 5412.68 285.242C5412.23 284.197 5411.9 283.095 5411.43 282.059C5410.98 281.083 5410.64 280.06 5410.27 279.049Z" fill="#6F432E" stroke="#6F432E" stroke-width="5" stroke-linecap="round"/>
<path d="M5375.19 321.359C5374.58 320.794 5374.59 319.948 5374.76 318.987C5374.37 318.878 5376.75 318.655 5377.02 318.637C5378.59 318.529 5380.14 318.159 5381.7 318.044C5382.74 317.968 5383.7 317.388 5384.73 317.299C5385.31 317.249 5385.87 317.004 5386.46 316.975C5386.96 316.949 5387.49 316.966 5387.99 316.89C5389.84 316.611 5391.6 316.557 5393.48 316.612C5394.88 316.652 5396.08 316.758 5397.28 317.49C5399.09 318.586 5398.19 320.864 5397.56 322.385C5397.34 322.927 5396.82 323.278 5396.36 323.596C5395.7 324.042 5395.2 324.614 5394.68 325.193C5393.86 326.099 5392.56 327.06 5391.5 327.661C5389.09 329.024 5386.69 330.31 5384.48 331.98C5384.12 332.251 5383.91 332.717 5383.69 332.145C5383.55 331.806 5383.31 331.512 5383.19 331.152C5382.8 330.013 5381.71 328.957 5381 328.017C5380.33 327.128 5379.7 326.165 5378.94 325.348C5378.24 324.592 5377.41 323.898 5376.78 323.085C5376.3 322.469 5375.75 321.89 5375.19 321.359Z" fill="#6F432E" stroke="#6F432E" stroke-width="5" stroke-linecap="round"/>
<path d="M5388.25 341.369C5388.25 341.361 5388.24 341.354 5388.23 341.346C5388.07 341.468 5388 341.535 5388.25 341.369C5388.91 342.01 5389.44 343.966 5389.89 344.725C5390.28 345.369 5390.85 345.887 5391.22 346.544C5391.86 347.678 5392.5 348.833 5393.05 350.013C5393.28 350.49 5393.39 351.037 5393.68 351.479C5393.97 351.903 5394.42 352.28 5394.64 352.732C5394.83 353.111 5395.93 352.134 5396.17 351.945C5396.63 351.57 5397.09 351.27 5397.6 350.952C5398.21 350.567 5398.67 350.048 5399.25 349.626C5400.34 348.835 5401.5 347.815 5402.4 346.811C5403.27 345.85 5404.15 344.935 5405.01 343.977C5405.62 343.31 5406.06 342.225 5406.42 341.395C5406.98 340.126 5407.72 338.02 5406.65 336.889C5405.81 336.011 5404.99 335.505 5403.75 335.406C5402.27 335.287 5401.2 335.737 5399.92 336.402C5399.07 336.846 5397.99 337.082 5397.08 337.381C5396.46 337.587 5395.92 338.016 5395.29 338.241C5394.63 338.48 5393.98 338.799 5393.32 339.044C5392.04 339.512 5390.74 339.805 5389.55 340.477C5389.1 340.735 5388.73 341.062 5388.29 341.343C5388.28 341.352 5388.27 341.361 5388.25 341.369Z" fill="#6F432E"/>
<path d="M5388.23 341.346C5388.9 341.963 5389.43 343.957 5389.89 344.725C5390.28 345.369 5390.85 345.887 5391.22 346.544C5391.86 347.678 5392.5 348.833 5393.05 350.013C5393.28 350.49 5393.39 351.037 5393.68 351.479C5393.97 351.903 5394.42 352.28 5394.64 352.732C5394.83 353.111 5395.93 352.134 5396.17 351.945C5396.63 351.57 5397.09 351.27 5397.6 350.952C5398.21 350.567 5398.67 350.048 5399.25 349.626C5400.34 348.835 5401.5 347.815 5402.4 346.811C5403.27 345.85 5404.15 344.935 5405.01 343.977C5405.62 343.31 5406.06 342.225 5406.42 341.395C5406.98 340.126 5407.72 338.02 5406.65 336.889C5405.81 336.011 5404.99 335.505 5403.75 335.406C5402.27 335.287 5401.2 335.737 5399.92 336.402C5399.07 336.846 5397.99 337.082 5397.08 337.381C5396.46 337.587 5395.92 338.016 5395.29 338.241C5394.63 338.48 5393.98 338.799 5393.32 339.044C5392.04 339.512 5390.74 339.805 5389.55 340.477C5389.1 340.735 5388.73 341.062 5388.29 341.343C5387.83 341.646 5388.26 341.329 5388.52 341.121" stroke="#6F432E" stroke-width="5" stroke-linecap="round"/>
<path d="M5359.36 296.828C5358.32 295.393 5357.39 293.837 5356.24 292.485C5355.9 292.083 5358.98 292.464 5360.08 292.408C5360.77 292.373 5361.59 292.369 5362.27 292.507C5362.88 292.631 5363.57 292.923 5364.19 292.909C5365.28 292.885 5366.35 293.302 5367.46 293.328C5368.59 293.354 5369.75 293.218 5370.88 293.161C5372.47 293.08 5373.78 293.331 5375.26 293.741C5376.04 293.957 5376.83 294.135 5377.62 294.291C5378.73 294.508 5379.87 294.595 5380.95 294.897C5381.96 295.177 5382.95 295.345 5383.94 295.692C5384.64 295.939 5385.22 296.508 5385.75 297.019C5386.9 298.123 5386.77 301.309 5385.36 302.27C5384.36 302.956 5383.57 303.997 5382.58 304.699C5381.75 305.286 5380.74 305.857 5379.76 306.169C5378.86 306.457 5377.91 306.789 5376.98 306.922C5376.07 307.052 5375.23 307.568 5374.35 307.831C5373.34 308.132 5372.3 308.409 5371.28 308.664C5370.38 308.888 5369.49 308.924 5368.59 309.221C5367.06 309.727 5366.41 307.824 5365.6 306.862C5364.39 305.437 5363.15 303.794 5362.52 302.011C5361.84 300.096 5360.53 298.45 5359.36 296.828Z" fill="#6F432E" stroke="#6F432E" stroke-width="5" stroke-linecap="round"/>
<path d="M5402.77 264.097C5402.2 262.602 5401.36 261.221 5400.83 259.7C5400.45 258.621 5398.57 262.615 5397.94 263.487C5397.16 264.587 5396.39 265.69 5395.66 266.824C5394.8 268.14 5394.54 269.813 5393.81 271.202C5393.16 272.46 5392.2 273.458 5391.38 274.612C5390.54 275.816 5389.33 277.156 5389.37 278.762C5389.42 280.25 5389.17 281.709 5389.25 283.211C5389.29 284.177 5389.71 285.023 5390.68 285.268C5390.88 285.32 5391.1 285.248 5391.3 285.269C5391.58 285.297 5391.79 285.466 5392.08 285.46C5392.43 285.452 5392.87 285.489 5393.2 285.396C5394.16 285.13 5395.02 284.076 5395.59 283.33C5396.18 282.549 5396.84 281.83 5397.35 280.992C5397.96 280.017 5398.34 279.153 5399.12 278.294C5400.12 277.178 5401.2 275.716 5401.87 274.375C5402.04 274.032 5402.28 273.736 5402.47 273.405C5402.7 272.999 5402.77 272.534 5403 272.129C5403.43 271.369 5403.61 270.312 5403.93 269.48C5404.14 268.917 5404.61 268.447 5404.32 267.863C5404.23 267.681 5404.12 267.094 5403.98 266.993C5403.86 266.905 5403.55 266.061 5403.51 265.899C5403.36 265.247 5403 264.716 5402.77 264.097Z" fill="#6F432E" stroke="#6F432E" stroke-width="5" stroke-linecap="round"/>
<path d="M5412.74 265.944C5411.79 263.179 5410.19 260.649 5409.02 257.983C5408.32 257.165 5412.82 259.375 5413.85 259.881L5413.88 259.893C5414.54 260.219 5415.25 260.435 5415.96 260.654C5416.56 260.841 5417.11 261.193 5417.72 261.386C5419.31 261.893 5420.96 262.231 5422.57 262.678C5423.52 262.942 5424.48 263.092 5425.44 263.301C5426 263.422 5426.55 263.745 5427.09 263.927C5427.8 264.163 5428.54 264.43 5429.18 264.826C5429.7 265.145 5430.01 265.429 5430.63 265.548C5431.47 265.707 5432.31 265.892 5433.15 266.038C5433.93 266.173 5434.37 266.427 5435.06 266.819L5435.07 266.827C5435.64 267.153 5436.33 267.444 5436.39 268.187C5436.42 268.503 5436.53 269.007 5436.28 269.251C5435.62 269.874 5435.23 269.902 5434.3 269.949C5432.94 270.018 5431.58 269.969 5430.22 270.038C5429.23 270.088 5428.08 270.21 5427.12 269.893C5425.83 269.466 5424.32 269.629 5422.99 269.511C5421.24 269.356 5419.36 269.253 5417.7 268.636C5416.46 268.179 5415.26 267.667 5414.1 267.097C5413.77 266.935 5413.6 266.566 5413.29 266.35C5413.09 266.211 5412.83 266.206 5412.74 265.944Z" fill="#6F432E" stroke="#6F432E" stroke-width="5" stroke-linecap="round"/>
<path d="M5399.02 235.185C5398.46 234.503 5398.98 234.352 5399.5 233.623C5399.47 232.934 5404.45 235.037 5407.04 235.547C5407.99 235.735 5408.96 236.238 5409.84 236.647C5410.8 237.098 5411.83 237.312 5412.77 237.799C5414.23 238.55 5416.07 239.264 5417.18 240.533C5417.57 240.988 5418.26 241.338 5418.83 241.514C5419.48 241.713 5420.17 242.219 5420.78 242.539C5421.45 242.892 5422.07 243.328 5422.73 243.682L5422.74 243.687C5423.2 243.93 5423.98 244.345 5424.26 244.793C5424.53 245.22 5424.82 245.663 5425.04 246.114C5425.3 246.64 5425.14 246.876 5425.16 247.396C5425.21 248.253 5423.19 248.272 5422.59 248.302L5417.26 248.573C5416.48 248.612 5415.76 248.495 5415.01 248.332C5414.18 248.153 5413.25 248.303 5412.41 248.346C5410.53 248.442 5408.65 248.655 5406.78 248.75C5405.8 248.8 5404.98 249.143 5404.39 248.306C5403.88 247.577 5403.55 246.719 5403.09 245.954C5402.34 244.732 5402.25 243.43 5401.97 242.081C5401.63 240.432 5401.34 239.033 5400.53 237.527C5400.07 236.672 5399.64 235.952 5399.02 235.185Z" fill="#6F432E" stroke="#6F432E" stroke-width="5" stroke-linecap="round"/>
<path d="M5391.13 241.146C5390.69 240.359 5390.39 238.454 5389.94 238.722C5388.24 239.957 5386.15 242.607 5385.05 244.833C5384.24 246.476 5383.69 248.085 5383.17 249.831C5382.96 250.565 5382.55 251.226 5382.28 251.94C5382.04 252.576 5381.95 253.191 5381.6 253.788C5381 254.815 5380.56 256.572 5380.62 257.768C5380.68 259.006 5380.83 260.095 5381.15 261.277C5381.37 262.077 5382.14 262.744 5382.92 263.001C5383.96 263.34 5384.79 262.936 5385.84 262.826C5386.8 262.727 5387.77 261.836 5388.3 261.111C5388.98 260.193 5390.02 259.591 5390.54 258.559C5390.96 257.714 5391.72 256.682 5392.46 256.102C5393.29 255.45 5393.89 253.757 5394.33 252.813C5394.58 252.271 5395.08 251.808 5395.46 251.362C5395.77 251.006 5395.62 250.707 5395.5 250.27C5395.23 249.292 5394.45 248.51 5394.17 247.498C5393.97 246.756 5393.77 245.977 5393.42 245.295C5393.06 244.604 5392.6 243.934 5392.3 243.216C5392 242.496 5391.52 241.83 5391.13 241.146Z" fill="#6F432E" stroke="#6F432E" stroke-width="5" stroke-linecap="round"/>
<path d="M5386.85 212.908C5385.88 211.639 5385.83 211.144 5386.17 210.844C5386.84 210.342 5387.57 211.235 5388.09 211.583C5389.01 212.196 5390.04 212.893 5391.07 213.285C5391.52 213.458 5391.85 213.751 5392.19 214.063C5392.44 214.288 5392.87 214.297 5393.15 214.494C5393.99 215.084 5394.89 215.479 5395.85 215.829C5397.15 216.3 5398.3 217.085 5399.61 217.531C5400.7 217.904 5401.75 218.408 5402.77 218.961C5403.77 219.506 5404.4 220.06 5404.96 221.045C5405.23 221.536 5405.37 222.602 5405.03 223.078C5404.82 223.37 5405.03 223.525 5404.55 223.55C5403.92 223.582 5403.31 223.731 5402.67 223.763C5401.38 223.829 5400.14 223.419 5398.84 223.485C5397.24 223.566 5395.66 223.173 5394.07 223.254C5393.57 223.279 5392.3 223.435 5392.01 222.885C5391.85 222.591 5391.67 222.235 5391.43 221.994C5391.19 221.749 5391.22 221.456 5391.06 221.159C5390.46 220.04 5389.93 218.762 5389.46 217.573C5388.83 215.964 5387.91 214.283 5386.85 212.908Z" fill="#6F432E" stroke="#6F432E" stroke-width="5" stroke-linecap="round"/>
<path d="M5378.66 217.292C5378.39 216.081 5378.35 213.535 5378.14 213.651C5377.58 213.971 5376.69 216.983 5376.68 217.564C5376.66 218.71 5376.21 219.813 5376.27 220.962C5376.35 222.705 5375.66 224.349 5375.49 226.062C5375.35 227.384 5375.03 228.777 5375.07 230.105C5375.13 231.661 5374.78 234.333 5376.23 235.344C5377.24 236.053 5378.76 234.662 5379.67 234.269C5380.72 233.811 5381.36 232.523 5382.11 231.694C5382.59 231.155 5383.84 230.275 5383.79 229.452C5383.77 228.938 5383.34 228.394 5383.07 227.958C5382.66 227.306 5382.18 226.685 5381.79 226.005C5380.82 224.286 5380.07 222.324 5379.46 220.445C5379.12 219.408 5378.89 218.358 5378.66 217.292Z" fill="#6F432E" stroke="#6F432E" stroke-width="5" stroke-linecap="round"/>
<path d="M5348.6 267.767C5347.96 266.394 5347.2 264.916 5346.38 263.647C5345.93 262.965 5350.01 264.761 5350.46 264.912C5351.6 265.29 5352.85 265.912 5354.06 265.977C5355.35 266.047 5356.73 266.719 5357.96 267.028C5359.86 267.501 5361.8 267.926 5363.63 268.593C5364.74 268.995 5365.69 269.449 5366.86 269.678C5368.16 269.934 5369.01 270.494 5370.17 271.068C5371.53 271.734 5374.05 272.891 5374.26 274.678C5374.38 275.623 5374.53 276.748 5373.99 277.571C5373.33 278.576 5372.01 279.255 5370.84 279.446C5369.17 279.718 5367.46 280.034 5365.8 280.379C5363.87 280.78 5361.81 280.726 5359.85 280.826C5358.33 280.903 5356.8 280.862 5355.27 280.94C5354.84 280.962 5354.39 281.101 5354.08 280.79C5353.81 280.514 5353.7 280.132 5353.52 279.793C5353 278.773 5352.42 277.66 5351.97 276.586C5351.45 275.317 5351.12 273.948 5350.68 272.643C5350.35 271.665 5350.12 270.631 5349.71 269.695C5349.4 268.999 5348.91 268.446 5348.6 267.767Z" fill="#6F432E" stroke="#6F432E" stroke-width="5" stroke-linecap="round"/>
<path d="M5343.95 247.387C5342.81 244.853 5343.57 241.77 5343 239.095C5342.8 238.159 5345.76 240.688 5346.19 240.826C5347.5 241.248 5348.8 241.407 5350.14 241.69C5351.84 242.052 5353.67 242.079 5355.34 242.609C5357.06 243.157 5358.73 243.611 5360.49 244.004C5363.07 244.579 5367.24 245.811 5367.4 249.003C5367.51 251.111 5364.06 251.659 5362.64 251.998C5361.03 252.381 5359.49 252.69 5357.83 252.774C5356.14 252.86 5354.36 252.848 5352.67 252.793C5351.22 252.747 5349.78 252.463 5348.34 252.422C5348.12 252.415 5345.15 252.623 5345.1 252.52C5344.76 251.851 5344.66 250.868 5344.62 250.133C5344.58 249.201 5344.34 248.242 5343.95 247.387Z" fill="#6F432E" stroke="#6F432E" stroke-width="5" stroke-linecap="round"/>
<path d="M5465.41 243.29C5464.42 241.305 5462.7 239.715 5462.16 237.541C5462.13 236.903 5460.82 238.943 5460.48 239.282C5459.86 239.9 5459.1 240.549 5458.43 241.108C5457.51 241.878 5456.72 242.8 5455.78 243.543C5454.82 244.301 5453.88 245.245 5453.04 246.14C5452.33 246.9 5451.72 248.033 5451.29 248.976C5450.75 250.201 5450.34 251.562 5449.68 252.725C5448.77 254.342 5447.98 256.413 5448.07 258.301C5448.12 259.135 5448.27 259.995 5448.46 260.804C5448.6 261.365 5448.78 261.964 5449.17 262.398C5449.91 263.215 5449.95 264.355 5451.01 264.868C5452.1 265.398 5453.25 265.911 5454.48 265.848C5455.06 265.819 5455.61 265.673 5456.19 265.643C5456.77 265.614 5457.55 265.519 5458.11 265.336C5458.7 265.137 5459.47 265.028 5460.1 264.972C5460.68 264.919 5461.22 264.442 5461.81 264.412C5462.37 264.383 5463.05 263.977 5463.6 263.847L5463.66 263.835C5464.21 263.705 5464.87 263.551 5465.36 263.311C5467.95 262.065 5470.99 261.225 5472.98 259.021C5473.5 258.446 5471.74 255.99 5471.59 255.391C5471.13 253.592 5469.91 252.052 5469.29 250.31C5469.08 249.724 5468.62 249.177 5468.31 248.637C5467.93 247.962 5467.61 247.229 5467.26 246.535C5466.7 245.423 5465.97 244.409 5465.41 243.29Z" fill="#6F432E" stroke="#6F432E" stroke-width="5" stroke-linecap="round"/>
<path d="M5450.43 222.048C5448.04 219.069 5445.88 215.88 5443.41 212.941C5443.3 212.819 5441.71 215.44 5441.31 215.887C5440.64 216.626 5439.86 217.244 5439.32 218.091C5438.57 219.246 5438.02 220.316 5437.55 221.611C5437.07 222.929 5436.58 224.136 5435.82 225.32C5435.3 226.125 5434.78 226.98 5434.35 227.833C5433.43 229.641 5433.45 231.67 5433.34 233.628C5433.23 235.652 5433.64 239.393 5435.94 240.147C5437.87 240.777 5439.76 240.151 5441.69 239.704C5443.13 239.37 5444.76 239.036 5445.96 238.127C5447.21 237.182 5448.14 235.745 5449.11 234.536C5450.06 233.347 5451.03 232.189 5452.07 231.074C5452.65 230.445 5453.35 229.938 5453.94 229.323C5454.27 228.969 5455.54 228.261 5455.51 227.705C5455.47 226.958 5454.46 226.197 5453.99 225.705C5452.83 224.485 5451.49 223.364 5450.43 222.048Z" fill="#6F432E" stroke="#6F432E" stroke-width="5" stroke-linecap="round"/>
<path d="M5427.81 199.3C5426.89 198.469 5426.14 197.829 5424.99 197.314C5424.44 197.069 5424.17 197.947 5424.06 198.189C5423.57 199.211 5423.08 200.18 5422.68 201.243C5421.83 203.442 5420.31 205.27 5419.24 207.352C5417.67 210.392 5415.86 213.246 5416.04 216.788C5416.09 217.876 5416.54 218.954 5417.37 219.704C5418.01 220.287 5418.78 220.224 5419.58 220.183C5420.5 220.136 5421.39 219.896 5422.21 219.458C5422.98 219.042 5423.61 218.422 5424.38 217.987C5425.59 217.303 5426.29 216.188 5427.19 215.183C5428.19 214.075 5429.33 213 5430.44 211.995C5431.61 210.929 5432.54 209.554 5433.35 208.193C5433.81 207.417 5434.32 206.637 5434.74 205.836C5434.93 205.463 5434.85 205.328 5434.55 205.109C5433.98 204.697 5433.46 204.067 5432.92 203.582C5432.49 203.194 5432.02 202.893 5431.53 202.594C5431.12 202.339 5430.85 201.834 5430.5 201.503C5430.02 201.056 5429.61 200.41 5429.06 200.065C5428.66 199.817 5428.15 199.607 5427.81 199.3Z" fill="#6F432E" stroke="#6F432E" stroke-width="5" stroke-linecap="round"/>
<path d="M5408.14 198.736C5411.2 196.454 5414.31 194.27 5417.13 191.681C5418.56 190.942 5414.53 190.374 5414.33 190.108C5413.85 189.454 5412.91 189.289 5412.23 188.946C5411.41 188.534 5410.62 188.137 5409.78 187.769C5408.42 187.172 5406.99 186.82 5405.61 186.285C5403.82 185.591 5402.06 184.78 5400.22 184.233C5398.62 183.759 5397.03 183.155 5395.6 182.312C5394.36 181.584 5393.03 181.297 5391.67 180.908C5389.98 180.426 5388.21 180.058 5386.48 179.778C5383.08 179.228 5379.52 178.576 5376.07 178.631C5373.02 178.678 5369.67 180.235 5367.19 181.914C5363.82 184.191 5361.34 187.336 5358.65 190.313L5358.56 190.414C5357.43 191.66 5356.26 192.95 5355.34 194.358C5354.65 195.423 5353.97 196.417 5353.12 197.363C5352.02 198.576 5351.46 200.027 5350.74 201.466C5350.07 202.784 5349.43 204.089 5348.84 205.44C5348.28 206.696 5347.73 207.982 5347.13 209.22C5346.83 209.856 5346.63 210.515 5346.37 211.171C5346.22 211.553 5345.96 211.93 5345.9 212.339C5345.69 213.755 5345.55 215.033 5345.51 216.453C5345.49 216.992 5345.33 217.509 5345.27 218.043C5345.21 218.575 5345.29 219.091 5345.15 219.619C5344.96 220.294 5344.59 221.083 5344.15 221.622C5343.41 222.531 5343.06 224.011 5343.12 225.157C5343.15 225.732 5343.25 225.49 5343.71 225.601C5344.37 225.761 5345.12 225.621 5345.8 225.586C5348.13 225.468 5350.79 225.986 5353.01 226.64C5355.4 227.341 5358.18 226.851 5360.65 226.725C5361.65 226.675 5362.42 225.786 5362.72 224.872C5363.24 223.231 5363.71 221.697 5364.03 219.995C5364.18 219.242 5364.19 218.373 5364.24 217.605C5364.28 216.939 5364.09 216.245 5364.23 215.588C5364.54 214.071 5364.71 212.427 5364.63 210.882C5364.56 209.408 5364.89 207.811 5365.54 206.478C5366.5 204.508 5367.84 203.079 5369.25 201.433C5370.88 199.515 5372.97 197.717 5375.27 196.646C5376.78 195.94 5378.13 195.554 5379.8 195.469C5381.01 195.408 5382.23 195.488 5383.45 195.534C5384.52 195.575 5385.56 195.886 5386.65 195.831C5387.53 195.786 5388.53 195.829 5389.4 195.954C5391.12 196.201 5392.96 196.913 5394.27 198.047C5395.79 199.375 5397.65 200.266 5399.06 201.694C5399.71 202.353 5400.92 202.14 5401.68 201.752C5403.77 200.679 5406.22 200.171 5408.14 198.736Z" fill="#6F432E" stroke="#6F432E" stroke-width="5" stroke-linecap="round"/>
<path d="M5416.89 191.575C5416.84 190.638 5416.47 190.295 5415.62 189.924C5414.78 189.557 5413.92 189.238 5413.08 188.869C5412.39 188.565 5411.55 188.047 5411.03 187.495C5410.71 187.162 5410.26 186.984 5409.85 186.793C5409.19 186.484 5408.61 186.029 5407.93 185.76C5405.67 184.868 5403.18 184.512 5400.83 183.991C5398.72 183.521 5397.28 181.827 5395.21 181.227C5392.49 180.437 5389.74 180.059 5386.95 179.556C5386.37 179.451 5385.8 179.504 5385.21 179.369C5384.4 179.184 5383.59 179.026 5382.79 178.847C5381.39 178.538 5380.02 178.454 5378.6 178.311C5377.09 178.159 5375.45 178.419 5373.93 178.495C5372.2 178.583 5370.54 178.858 5368.84 179.109C5366.48 179.454 5364.36 180.889 5362.2 181.76C5360.17 182.574 5358.9 184.453 5357.21 185.733C5356.38 186.361 5355.51 187.279 5354.85 188.1C5354.36 188.706 5353.86 189.308 5353.44 189.965C5351.42 193.161 5349.01 196.245 5348.05 199.986C5347.6 201.743 5347.29 203.542 5346.46 205.166C5346.01 206.036 5345.9 207.077 5345.73 208.023C5345.55 209.082 5345.42 209.898 5345.48 210.993C5345.59 213.316 5345.34 215.548 5345.09 217.841C5344.94 219.157 5344.67 220.553 5344.37 221.847C5344.26 222.323 5344.18 222.796 5344.12 223.279C5344.06 223.67 5344.02 223.69 5344.33 223.413" stroke="#6F432E" stroke-width="5" stroke-linecap="round"/>
<path d="M5349.67 198.062C5348.05 199.914 5347.53 202.48 5347.2 204.839C5346.93 206.785 5346.65 208.718 5346.35 210.659C5346.22 211.549 5346.05 212.426 5345.76 213.284C5345.51 214.053 5345.56 214.9 5345.41 215.694C5345.29 216.369 5345.22 217.013 5345.22 217.696C5345.22 218.288 5344.98 218.834 5344.96 219.417C5344.95 220.022 5344.9 220.62 5344.93 221.226C5344.96 221.768 5344.89 221.965 5345.43 221.7" stroke="#6F432E" stroke-width="5" stroke-linecap="round"/>
</g>
<rect x="447" y="532" width="2511" height="378" rx="100" fill="white"/>
<path d="M559.75 772.1C558.45 751.5 557.8 732.65 557.8 715.55C557.8 698.35 558.35 682.75 559.45 668.75L579.4 670.55C577.9 687.75 577.15 704.2 577.15 719.9C577.15 735.6 577.4 747.15 577.9 754.55C581.5 754.05 590.35 753.05 604.45 751.55L607.45 768.95C599.95 769.85 589.35 771.35 575.65 773.45L559.75 772.1ZM632.754 762.2C636.554 762.2 640.604 758.55 644.904 751.25L656.304 758C654.404 761.3 652.554 764.1 650.754 766.4C649.054 768.7 646.454 770.9 642.954 773C639.454 775.1 635.554 776.15 631.254 776.15C624.954 776.15 619.654 773.5 615.354 768.2C611.054 762.8 608.904 755.55 608.904 746.45C608.904 736.05 610.754 726.35 614.454 717.35C616.454 712.65 619.304 708.85 623.004 705.95C626.804 702.95 630.654 701.45 634.554 701.45C638.554 701.45 641.754 702.1 644.154 703.4C646.554 704.6 648.454 706 649.854 707.6C651.354 709.1 652.654 711.35 653.754 714.35C654.854 717.35 655.604 719.8 656.004 721.7C656.504 723.6 656.904 726.35 657.204 729.95C657.604 734.75 657.804 739.1 657.804 743C649.804 745.2 639.454 747.2 626.754 749C627.054 753 627.754 756.2 628.854 758.6C629.954 761 631.254 762.2 632.754 762.2ZM636.054 716.15C633.854 716.15 631.854 718.35 630.054 722.75C628.354 727.15 627.354 732.25 627.054 738.05C632.354 736.95 636.954 735.9 640.854 734.9C640.854 722.4 639.254 716.15 636.054 716.15ZM702.982 710.3V724.55C698.182 724.55 694.482 724.6 691.882 724.7C691.582 734.7 691.432 751.5 691.432 775.1L673.732 773.45C673.732 755.95 673.882 740.1 674.182 725.9C672.682 725.9 669.832 726.15 665.632 726.65L663.382 714.35C665.782 713.85 669.532 713.2 674.632 712.4C674.832 705 675.232 694.2 675.832 680L693.682 681.65C693.082 691.55 692.632 701.15 692.332 710.45C694.832 710.35 698.382 710.3 702.982 710.3ZM780.277 706.1C786.377 706.1 791.027 708.2 794.227 712.4C799.427 704.8 804.577 701 809.677 701C823.577 701 830.527 711.45 830.527 732.35C830.527 744.15 829.527 758.45 827.527 775.25L810.127 773.75C812.027 755.05 812.977 740.8 812.977 731C812.977 721.2 811.377 716.3 808.177 716.3C806.777 716.3 805.127 718.55 803.227 723.05C801.327 727.55 800.077 732.55 799.477 738.05C799.277 750.55 798.877 761.7 798.277 771.5L780.727 769.85C781.527 755.75 781.927 744.15 781.927 735.05C781.927 725.95 780.677 721.4 778.177 721.4C776.577 721.4 774.477 724.2 771.877 729.8C769.377 735.3 767.577 741.1 766.477 747.2C766.577 756.4 767.027 765.9 767.827 775.7L750.277 774.05C749.177 759.95 748.627 747.1 748.627 735.5C748.627 723.9 748.927 713.05 749.527 702.95L761.977 703.85C762.577 706.55 763.427 711.45 764.527 718.55C769.827 710.25 775.077 706.1 780.277 706.1ZM864.346 762.2C868.146 762.2 872.196 758.55 876.496 751.25L887.896 758C885.996 761.3 884.146 764.1 882.346 766.4C880.646 768.7 878.046 770.9 874.546 773C871.046 775.1 867.146 776.15 862.846 776.15C856.546 776.15 851.246 773.5 846.946 768.2C842.646 762.8 840.496 755.55 840.496 746.45C840.496 736.05 842.346 726.35 846.046 717.35C848.046 712.65 850.896 708.85 854.596 705.95C858.396 702.95 862.246 701.45 866.146 701.45C870.146 701.45 873.346 702.1 875.746 703.4C878.146 704.6 880.046 706 881.446 707.6C882.946 709.1 884.246 711.35 885.346 714.35C886.446 717.35 887.196 719.8 887.596 721.7C888.096 723.6 888.496 726.35 888.796 729.95C889.196 734.75 889.396 739.1 889.396 743C881.396 745.2 871.046 747.2 858.346 749C858.646 753 859.346 756.2 860.446 758.6C861.546 761 862.846 762.2 864.346 762.2ZM867.646 716.15C865.446 716.15 863.446 718.35 861.646 722.75C859.946 727.15 858.946 732.25 858.646 738.05C863.946 736.95 868.546 735.9 872.446 734.9C872.446 722.4 870.846 716.15 867.646 716.15ZM965.652 705.05L965.802 686.45C965.802 679.55 965.652 671.7 965.352 662.9L982.902 664.4C983.102 671.5 983.202 684.4 983.202 703.1C983.202 721.7 982.402 745.7 980.802 775.1L967.452 773.9C967.152 769.9 966.852 765.2 966.552 759.8C962.252 768.4 957.602 772.7 952.602 772.7C944.902 772.7 939.552 770.3 936.552 765.5C933.552 760.7 932.052 753.75 932.052 744.65C932.052 735.45 934.002 725.95 937.902 716.15C941.902 706.35 946.402 701.45 951.402 701.45C955.902 701.45 960.652 702.65 965.652 705.05ZM966.102 719C963.602 717.1 961.102 716.15 958.602 716.15C956.202 716.15 954.102 719.4 952.302 725.9C950.502 732.3 949.602 739 949.602 746C949.602 753 951.302 756.5 954.702 756.5C956.002 756.5 957.752 754.35 959.952 750.05C962.152 745.65 964.152 740.1 965.952 733.4L966.102 719ZM1025.53 718.85C1021.33 718.85 1018.18 724.15 1016.08 734.75C1016.28 741.75 1016.38 748.45 1016.38 754.85C1016.38 761.25 1016.18 768.45 1015.78 776.45L998.376 774.95C998.676 760.25 998.826 752.15 998.826 750.65C998.826 732.15 997.926 718 996.126 708.2L1007.38 709.4C1008.08 712.3 1008.88 714.85 1009.78 717.05C1014.68 706.55 1019.63 701.3 1024.63 701.3C1028.73 701.3 1032.33 703.1 1035.43 706.7L1031.53 720.5C1029.93 719.4 1027.93 718.85 1025.53 718.85ZM1041.69 728.75C1043.19 720.95 1046.04 714.35 1050.24 708.95C1054.44 703.45 1059.94 700.7 1066.74 700.7C1073.54 700.7 1078.54 703.55 1081.74 709.25C1085.04 714.85 1086.69 722.85 1086.69 733.25C1086.69 743.65 1086.09 758 1084.89 776.3L1072.29 775.25L1071.09 770.45C1066.39 773.15 1061.59 774.5 1056.69 774.5C1051.79 774.5 1047.74 772.9 1044.54 769.7C1041.34 766.4 1039.74 761.7 1039.74 755.6C1039.74 749.5 1042.74 744.25 1048.74 739.85C1054.84 735.45 1061.84 733.15 1069.74 732.95V728.9C1069.74 721 1067.84 717.05 1064.04 717.05C1062.14 717.05 1060.39 718.4 1058.79 721.1C1057.29 723.7 1056.19 726.7 1055.49 730.1L1041.69 728.75ZM1055.04 756.5C1055.04 759.7 1056.94 761.3 1060.74 761.3C1063.34 761.3 1066.09 760.7 1068.99 759.5L1069.29 746.9C1064.59 747.3 1061.04 748.5 1058.64 750.5C1056.24 752.4 1055.04 754.4 1055.04 756.5ZM1153.09 774.8L1138.99 773.6C1136.49 762.6 1134.24 752.4 1132.24 743C1129.74 751.9 1126.44 762.65 1122.34 775.25L1106.74 773.6C1100.64 743.8 1096.89 720.45 1095.49 703.55L1112.59 705.2C1114.19 727.1 1115.79 743.8 1117.39 755.3C1120.99 741.1 1124.59 724.8 1128.19 706.4L1139.74 707.45C1140.94 723.55 1142.79 738.25 1145.29 751.55C1148.79 737.85 1152.64 720.05 1156.84 698.15L1173.04 699.65C1168.64 720.75 1161.99 745.8 1153.09 774.8ZM1249.66 710.3V724.55C1244.86 724.55 1241.16 724.6 1238.56 724.7C1238.26 734.7 1238.11 751.5 1238.11 775.1L1220.41 773.45C1220.41 755.95 1220.56 740.1 1220.86 725.9C1219.36 725.9 1216.51 726.15 1212.31 726.65L1210.06 714.35C1212.46 713.85 1216.21 713.2 1221.31 712.4C1221.51 705 1221.91 694.2 1222.51 680L1240.36 681.65C1239.76 691.55 1239.31 701.15 1239.01 710.45C1241.51 710.35 1245.06 710.3 1249.66 710.3ZM1277.13 711.95C1281.73 706.25 1286.23 703.4 1290.63 703.4C1295.13 703.4 1298.78 704.9 1301.58 707.9C1306.48 713.1 1308.93 719.7 1308.93 727.7C1308.93 742.2 1308.38 757.35 1307.28 773.15L1289.88 771.5C1290.58 756.8 1290.93 742.35 1290.93 728.15C1290.93 722.85 1289.58 720.2 1286.88 720.2C1283.68 720.2 1280.23 727.2 1276.53 741.2C1276.33 751.2 1275.83 762.55 1275.03 775.25L1257.48 773.6C1258.78 756.4 1259.43 737.2 1259.43 716C1259.43 694.8 1259.08 677.75 1258.38 664.85L1275.93 666.5C1276.73 680.6 1277.13 695.75 1277.13 711.95ZM1341.3 762.2C1345.1 762.2 1349.15 758.55 1353.45 751.25L1364.85 758C1362.95 761.3 1361.1 764.1 1359.3 766.4C1357.6 768.7 1355 770.9 1351.5 773C1348 775.1 1344.1 776.15 1339.8 776.15C1333.5 776.15 1328.2 773.5 1323.9 768.2C1319.6 762.8 1317.45 755.55 1317.45 746.45C1317.45 736.05 1319.3 726.35 1323 717.35C1325 712.65 1327.85 708.85 1331.55 705.95C1335.35 702.95 1339.2 701.45 1343.1 701.45C1347.1 701.45 1350.3 702.1 1352.7 703.4C1355.1 704.6 1357 706 1358.4 707.6C1359.9 709.1 1361.2 711.35 1362.3 714.35C1363.4 717.35 1364.15 719.8 1364.55 721.7C1365.05 723.6 1365.45 726.35 1365.75 729.95C1366.15 734.75 1366.35 739.1 1366.35 743C1358.35 745.2 1348 747.2 1335.3 749C1335.6 753 1336.3 756.2 1337.4 758.6C1338.5 761 1339.8 762.2 1341.3 762.2ZM1344.6 716.15C1342.4 716.15 1340.4 718.35 1338.6 722.75C1336.9 727.15 1335.9 732.25 1335.6 738.05C1340.9 736.95 1345.5 735.9 1349.4 734.9C1349.4 722.4 1347.8 716.15 1344.6 716.15ZM1445.76 706.1C1451.86 706.1 1456.51 708.2 1459.71 712.4C1464.91 704.8 1470.06 701 1475.16 701C1489.06 701 1496.01 711.45 1496.01 732.35C1496.01 744.15 1495.01 758.45 1493.01 775.25L1475.61 773.75C1477.51 755.05 1478.46 740.8 1478.46 731C1478.46 721.2 1476.86 716.3 1473.66 716.3C1472.26 716.3 1470.61 718.55 1468.71 723.05C1466.81 727.55 1465.56 732.55 1464.96 738.05C1464.76 750.55 1464.36 761.7 1463.76 771.5L1446.21 769.85C1447.01 755.75 1447.41 744.15 1447.41 735.05C1447.41 725.95 1446.16 721.4 1443.66 721.4C1442.06 721.4 1439.96 724.2 1437.36 729.8C1434.86 735.3 1433.06 741.1 1431.96 747.2C1432.06 756.4 1432.51 765.9 1433.31 775.7L1415.76 774.05C1414.66 759.95 1414.11 747.1 1414.11 735.5C1414.11 723.9 1414.41 713.05 1415.01 702.95L1427.46 703.85C1428.06 706.55 1428.91 711.45 1430.01 718.55C1435.31 710.25 1440.56 706.1 1445.76 706.1ZM1509.12 728.75C1510.62 720.95 1513.47 714.35 1517.67 708.95C1521.87 703.45 1527.37 700.7 1534.17 700.7C1540.97 700.7 1545.97 703.55 1549.17 709.25C1552.47 714.85 1554.12 722.85 1554.12 733.25C1554.12 743.65 1553.52 758 1552.32 776.3L1539.72 775.25L1538.52 770.45C1533.82 773.15 1529.02 774.5 1524.12 774.5C1519.22 774.5 1515.17 772.9 1511.97 769.7C1508.77 766.4 1507.17 761.7 1507.17 755.6C1507.17 749.5 1510.17 744.25 1516.17 739.85C1522.27 735.45 1529.27 733.15 1537.17 732.95V728.9C1537.17 721 1535.27 717.05 1531.47 717.05C1529.57 717.05 1527.82 718.4 1526.22 721.1C1524.72 723.7 1523.62 726.7 1522.92 730.1L1509.12 728.75ZM1522.47 756.5C1522.47 759.7 1524.37 761.3 1528.17 761.3C1530.77 761.3 1533.52 760.7 1536.42 759.5L1536.72 746.9C1532.02 747.3 1528.47 748.5 1526.07 750.5C1523.67 752.4 1522.47 754.4 1522.47 756.5ZM1586.47 712.25C1590.47 706.15 1595.42 703.1 1601.32 703.1C1607.22 703.1 1611.82 705.5 1615.12 710.3C1618.42 715.1 1620.07 721.4 1620.07 729.2C1620.07 740.8 1617.57 751.35 1612.57 760.85C1607.67 770.35 1602.42 775.1 1596.82 775.1C1592.82 775.1 1589.37 774.6 1586.47 773.6C1586.67 787.4 1587.02 799.45 1587.52 809.75L1569.97 807.95C1569.47 789.95 1569.22 770.85 1569.22 750.65C1569.22 730.35 1569.92 712.85 1571.32 698.15L1586.92 699.8L1586.47 712.25ZM1590.97 760.1C1593.77 760.1 1596.37 757.35 1598.77 751.85C1601.27 746.35 1602.52 740.85 1602.52 735.35C1602.52 729.75 1602.02 725.45 1601.02 722.45C1600.02 719.35 1598.87 717.8 1597.57 717.8C1595.37 717.8 1593.42 719.1 1591.72 721.7C1590.12 724.3 1588.42 728.05 1586.62 732.95C1586.52 738.15 1586.47 746.15 1586.47 756.95C1587.97 759.05 1589.47 760.1 1590.97 760.1ZM1715.22 702.65L1714.92 726.35C1714.92 748.65 1715.32 765.05 1716.12 775.55L1701.27 774.05C1700.97 769.85 1700.32 765.6 1699.32 761.3C1693.82 769.4 1688.27 773.45 1682.67 773.45C1677.17 773.45 1672.77 771.55 1669.47 767.75C1666.17 763.95 1664.52 758.7 1664.52 752C1664.52 739 1665.47 723.5 1667.37 705.5L1684.77 707.15C1682.97 724.25 1682.07 738.45 1682.07 749.75C1682.07 754.85 1683.67 757.4 1686.87 757.4C1688.37 757.4 1690.17 755.35 1692.27 751.25C1694.47 747.15 1696.22 742.2 1697.52 736.4C1697.42 734.2 1697.37 731.6 1697.37 728.6C1697.37 725.6 1697.52 716.45 1697.82 701.15L1715.22 702.65ZM1757.06 725.75C1757.06 719.75 1755.56 716.75 1752.56 716.75C1751.06 716.75 1749.66 717.5 1748.36 719C1747.16 720.4 1746.56 722.35 1746.56 724.85C1746.56 727.25 1747.01 729.25 1747.91 730.85C1748.91 732.45 1750.66 734.05 1753.16 735.65C1755.76 737.15 1757.76 738.4 1759.16 739.4C1760.66 740.3 1762.41 741.6 1764.41 743.3C1768.51 746.9 1770.56 751.55 1770.56 757.25C1770.56 762.85 1768.41 767.4 1764.11 770.9C1759.91 774.4 1755.16 776.15 1749.86 776.15C1744.56 776.15 1739.76 774.75 1735.46 771.95C1731.26 769.05 1727.86 765.45 1725.26 761.15L1733.36 752C1737.36 758.9 1741.56 762.35 1745.96 762.35C1747.46 762.35 1748.76 761.95 1749.86 761.15C1750.96 760.25 1751.51 759.05 1751.51 757.55C1751.51 754.35 1749.21 751.4 1744.61 748.7C1739.71 746 1735.86 743 1733.06 739.7C1730.26 736.4 1728.86 731.75 1728.86 725.75C1728.86 719.65 1731.36 714.2 1736.36 709.4C1741.36 704.5 1746.71 702.05 1752.41 702.05C1758.21 702.05 1762.76 704.05 1766.06 708.05C1769.46 711.95 1771.16 717.25 1771.16 723.95C1771.16 726.65 1770.86 729.55 1770.26 732.65L1756.61 731.45C1756.91 729.15 1757.06 727.25 1757.06 725.75ZM1783.86 701.45L1800.96 703.1V775.1L1783.86 773.45V701.45ZM1785.06 675.05L1801.86 677L1800.36 693.8L1783.56 691.7L1785.06 675.05ZM1847.51 701.6C1860.71 701.6 1867.31 712.6 1867.31 734.6C1867.31 746.2 1866.66 758.5 1865.36 771.5L1847.81 769.85C1848.91 758.45 1849.46 746.95 1849.46 735.35C1849.46 723.65 1847.81 717.8 1844.51 717.8C1842.91 717.8 1840.86 721.85 1838.36 729.95C1835.86 737.95 1834.31 745.8 1833.71 753.5C1833.91 757.6 1834.31 765 1834.91 775.7L1817.36 774.05C1816.26 759.95 1815.71 747.55 1815.71 736.85C1815.71 726.15 1816.01 716.55 1816.61 708.05L1827.71 709.25C1827.91 710.05 1828.66 713.3 1829.96 719C1835.76 707.4 1841.61 701.6 1847.51 701.6ZM1901.49 793.1C1904.59 793.1 1907.09 789.9 1908.99 783.5C1910.89 777.2 1911.84 769.35 1911.84 759.95C1906.54 769.45 1901.04 774.2 1895.34 774.2C1889.74 774.2 1885.19 772.3 1881.69 768.5C1878.29 764.6 1876.59 758.75 1876.59 750.95C1876.59 743.05 1877.94 735.25 1880.64 727.55C1883.34 719.75 1886.64 713.55 1890.54 708.95C1894.54 704.25 1898.34 701.9 1901.94 701.9C1908.24 701.9 1914.04 704.45 1919.34 709.55L1929.84 711.05C1928.54 717.55 1927.89 727.55 1927.89 741.05C1927.89 754.45 1927.49 764.35 1926.69 770.75C1925.99 777.05 1924.79 783.25 1923.09 789.35C1921.39 795.45 1918.89 800.3 1915.59 803.9C1912.29 807.5 1907.94 809.3 1902.54 809.3C1897.14 809.3 1891.99 807.1 1887.09 802.7C1882.19 798.4 1878.24 793.2 1875.24 787.1L1887.84 781.7C1891.74 789.3 1896.29 793.1 1901.49 793.1ZM1905.69 717.2C1903.19 717.2 1900.64 720.8 1898.04 728C1895.54 735.2 1894.29 742.85 1894.29 750.95C1894.29 754.05 1894.69 756.4 1895.49 758C1896.39 759.6 1897.34 760.4 1898.34 760.4C1899.44 760.4 1900.84 759.4 1902.54 757.4C1904.24 755.4 1906.04 752.2 1907.94 747.8C1909.94 743.4 1911.39 738.55 1912.29 733.25L1912.59 721.85C1909.69 718.75 1907.39 717.2 1905.69 717.2ZM2005.21 775.4L1986.01 773.6C1978.61 743.8 1974.11 720.45 1972.51 703.55L1989.61 705.05C1991.31 723.45 1993.66 739.95 1996.66 754.55C2000.76 739.55 2005.11 720.7 2009.71 698L2025.91 699.35C2020.21 725.65 2013.31 751 2005.21 775.4ZM2052.04 762.2C2055.84 762.2 2059.89 758.55 2064.19 751.25L2075.59 758C2073.69 761.3 2071.84 764.1 2070.04 766.4C2068.34 768.7 2065.74 770.9 2062.24 773C2058.74 775.1 2054.84 776.15 2050.54 776.15C2044.24 776.15 2038.94 773.5 2034.64 768.2C2030.34 762.8 2028.19 755.55 2028.19 746.45C2028.19 736.05 2030.04 726.35 2033.74 717.35C2035.74 712.65 2038.59 708.85 2042.29 705.95C2046.09 702.95 2049.94 701.45 2053.84 701.45C2057.84 701.45 2061.04 702.1 2063.44 703.4C2065.84 704.6 2067.74 706 2069.14 707.6C2070.64 709.1 2071.94 711.35 2073.04 714.35C2074.14 717.35 2074.89 719.8 2075.29 721.7C2075.79 723.6 2076.19 726.35 2076.49 729.95C2076.89 734.75 2077.09 739.1 2077.09 743C2069.09 745.2 2058.74 747.2 2046.04 749C2046.34 753 2047.04 756.2 2048.14 758.6C2049.24 761 2050.54 762.2 2052.04 762.2ZM2055.34 716.15C2053.14 716.15 2051.14 718.35 2049.34 722.75C2047.64 727.15 2046.64 732.25 2046.34 738.05C2051.64 736.95 2056.24 735.9 2060.14 734.9C2060.14 722.4 2058.54 716.15 2055.34 716.15ZM2115.37 718.85C2111.17 718.85 2108.02 724.15 2105.92 734.75C2106.12 741.75 2106.22 748.45 2106.22 754.85C2106.22 761.25 2106.02 768.45 2105.62 776.45L2088.22 774.95C2088.52 760.25 2088.67 752.15 2088.67 750.65C2088.67 732.15 2087.77 718 2085.97 708.2L2097.22 709.4C2097.92 712.3 2098.72 714.85 2099.62 717.05C2104.52 706.55 2109.47 701.3 2114.47 701.3C2118.57 701.3 2122.17 703.1 2125.27 706.7L2121.37 720.5C2119.77 719.4 2117.77 718.85 2115.37 718.85ZM2167.39 710.3V724.55C2162.59 724.55 2158.89 724.6 2156.29 724.7C2155.99 734.7 2155.84 751.5 2155.84 775.1L2138.14 773.45C2138.14 755.95 2138.29 740.1 2138.59 725.9C2137.09 725.9 2134.24 726.15 2130.04 726.65L2127.79 714.35C2130.19 713.85 2133.94 713.2 2139.04 712.4C2139.24 705 2139.64 694.2 2140.24 680L2158.09 681.65C2157.49 691.55 2157.04 701.15 2156.74 710.45C2159.24 710.35 2162.79 710.3 2167.39 710.3ZM2195.3 762.2C2199.1 762.2 2203.15 758.55 2207.45 751.25L2218.85 758C2216.95 761.3 2215.1 764.1 2213.3 766.4C2211.6 768.7 2209 770.9 2205.5 773C2202 775.1 2198.1 776.15 2193.8 776.15C2187.5 776.15 2182.2 773.5 2177.9 768.2C2173.6 762.8 2171.45 755.55 2171.45 746.45C2171.45 736.05 2173.3 726.35 2177 717.35C2179 712.65 2181.85 708.85 2185.55 705.95C2189.35 702.95 2193.2 701.45 2197.1 701.45C2201.1 701.45 2204.3 702.1 2206.7 703.4C2209.1 704.6 2211 706 2212.4 707.6C2213.9 709.1 2215.2 711.35 2216.3 714.35C2217.4 717.35 2218.15 719.8 2218.55 721.7C2219.05 723.6 2219.45 726.35 2219.75 729.95C2220.15 734.75 2220.35 739.1 2220.35 743C2212.35 745.2 2202 747.2 2189.3 749C2189.6 753 2190.3 756.2 2191.4 758.6C2192.5 761 2193.8 762.2 2195.3 762.2ZM2198.6 716.15C2196.4 716.15 2194.4 718.35 2192.6 722.75C2190.9 727.15 2189.9 732.25 2189.6 738.05C2194.9 736.95 2199.5 735.9 2203.4 734.9C2203.4 722.4 2201.8 716.15 2198.6 716.15ZM2239.73 777.35L2223.83 772.7C2228.43 762 2234.23 750.7 2241.23 738.8C2235.23 727.7 2231.03 715.35 2228.63 701.75L2245.28 703.4C2246.68 710.4 2248.73 717.6 2251.43 725C2257.43 715.4 2261.78 706.55 2264.48 698.45L2277.38 704.75C2273.88 715.65 2267.73 726.8 2258.93 738.2C2263.33 748.5 2268.93 757.65 2275.73 765.65L2264.48 776.3C2258.78 768.9 2253.83 760.8 2249.63 752C2244.73 763.7 2241.43 772.15 2239.73 777.35ZM2321.23 728.75C2322.73 720.95 2325.58 714.35 2329.78 708.95C2333.98 703.45 2339.48 700.7 2346.28 700.7C2353.08 700.7 2358.08 703.55 2361.28 709.25C2364.58 714.85 2366.23 722.85 2366.23 733.25C2366.23 743.65 2365.63 758 2364.43 776.3L2351.83 775.25L2350.63 770.45C2345.93 773.15 2341.13 774.5 2336.23 774.5C2331.33 774.5 2327.28 772.9 2324.08 769.7C2320.88 766.4 2319.28 761.7 2319.28 755.6C2319.28 749.5 2322.28 744.25 2328.28 739.85C2334.38 735.45 2341.38 733.15 2349.28 732.95V728.9C2349.28 721 2347.38 717.05 2343.58 717.05C2341.68 717.05 2339.93 718.4 2338.33 721.1C2336.83 723.7 2335.73 726.7 2335.03 730.1L2321.23 728.75ZM2334.58 756.5C2334.58 759.7 2336.48 761.3 2340.28 761.3C2342.88 761.3 2345.63 760.7 2348.53 759.5L2348.83 746.9C2344.13 747.3 2340.58 748.5 2338.18 750.5C2335.78 752.4 2334.58 754.4 2334.58 756.5ZM2411.33 701.6C2424.53 701.6 2431.13 712.6 2431.13 734.6C2431.13 746.2 2430.48 758.5 2429.18 771.5L2411.63 769.85C2412.73 758.45 2413.28 746.95 2413.28 735.35C2413.28 723.65 2411.63 717.8 2408.33 717.8C2406.73 717.8 2404.68 721.85 2402.18 729.95C2399.68 737.95 2398.13 745.8 2397.53 753.5C2397.73 757.6 2398.13 765 2398.73 775.7L2381.18 774.05C2380.08 759.95 2379.53 747.55 2379.53 736.85C2379.53 726.15 2379.83 716.55 2380.43 708.05L2391.53 709.25C2391.73 710.05 2392.48 713.3 2393.78 719C2399.58 707.4 2405.43 701.6 2411.33 701.6ZM2473.86 705.05L2474.01 686.45C2474.01 679.55 2473.86 671.7 2473.56 662.9L2491.11 664.4C2491.31 671.5 2491.41 684.4 2491.41 703.1C2491.41 721.7 2490.61 745.7 2489.01 775.1L2475.66 773.9C2475.36 769.9 2475.06 765.2 2474.76 759.8C2470.46 768.4 2465.81 772.7 2460.81 772.7C2453.11 772.7 2447.76 770.3 2444.76 765.5C2441.76 760.7 2440.26 753.75 2440.26 744.65C2440.26 735.45 2442.21 725.95 2446.11 716.15C2450.11 706.35 2454.61 701.45 2459.61 701.45C2464.11 701.45 2468.86 702.65 2473.86 705.05ZM2474.31 719C2471.81 717.1 2469.31 716.15 2466.81 716.15C2464.41 716.15 2462.31 719.4 2460.51 725.9C2458.71 732.3 2457.81 739 2457.81 746C2457.81 753 2459.51 756.5 2462.91 756.5C2464.21 756.5 2465.96 754.35 2468.16 750.05C2470.36 745.65 2472.36 740.1 2474.16 733.4L2474.31 719ZM2561.81 762.2C2565.61 762.2 2569.66 758.55 2573.96 751.25L2585.36 758C2583.46 761.3 2581.61 764.1 2579.81 766.4C2578.11 768.7 2575.51 770.9 2572.01 773C2568.51 775.1 2564.61 776.15 2560.31 776.15C2554.01 776.15 2548.71 773.5 2544.41 768.2C2540.11 762.8 2537.96 755.55 2537.96 746.45C2537.96 736.05 2539.81 726.35 2543.51 717.35C2545.51 712.65 2548.36 708.85 2552.06 705.95C2555.86 702.95 2559.71 701.45 2563.61 701.45C2567.61 701.45 2570.81 702.1 2573.21 703.4C2575.61 704.6 2577.51 706 2578.91 707.6C2580.41 709.1 2581.71 711.35 2582.81 714.35C2583.91 717.35 2584.66 719.8 2585.06 721.7C2585.56 723.6 2585.96 726.35 2586.26 729.95C2586.66 734.75 2586.86 739.1 2586.86 743C2578.86 745.2 2568.51 747.2 2555.81 749C2556.11 753 2556.81 756.2 2557.91 758.6C2559.01 761 2560.31 762.2 2561.81 762.2ZM2565.11 716.15C2562.91 716.15 2560.91 718.35 2559.11 722.75C2557.41 727.15 2556.41 732.25 2556.11 738.05C2561.41 736.95 2566.01 735.9 2569.91 734.9C2569.91 722.4 2568.31 716.15 2565.11 716.15ZM2626.79 705.05L2626.94 686.45C2626.94 679.55 2626.79 671.7 2626.49 662.9L2644.04 664.4C2644.24 671.5 2644.34 684.4 2644.34 703.1C2644.34 721.7 2643.54 745.7 2641.94 775.1L2628.59 773.9C2628.29 769.9 2627.99 765.2 2627.69 759.8C2623.39 768.4 2618.74 772.7 2613.74 772.7C2606.04 772.7 2600.69 770.3 2597.69 765.5C2594.69 760.7 2593.19 753.75 2593.19 744.65C2593.19 735.45 2595.14 725.95 2599.04 716.15C2603.04 706.35 2607.54 701.45 2612.54 701.45C2617.04 701.45 2621.79 702.65 2626.79 705.05ZM2627.24 719C2624.74 717.1 2622.24 716.15 2619.74 716.15C2617.34 716.15 2615.24 719.4 2613.44 725.9C2611.64 732.3 2610.74 739 2610.74 746C2610.74 753 2612.44 756.5 2615.84 756.5C2617.14 756.5 2618.89 754.35 2621.09 750.05C2623.29 745.65 2625.29 740.1 2627.09 733.4L2627.24 719ZM2679.76 793.1C2682.86 793.1 2685.36 789.9 2687.26 783.5C2689.16 777.2 2690.11 769.35 2690.11 759.95C2684.81 769.45 2679.31 774.2 2673.61 774.2C2668.01 774.2 2663.46 772.3 2659.96 768.5C2656.56 764.6 2654.86 758.75 2654.86 750.95C2654.86 743.05 2656.21 735.25 2658.91 727.55C2661.61 719.75 2664.91 713.55 2668.81 708.95C2672.81 704.25 2676.61 701.9 2680.21 701.9C2686.51 701.9 2692.31 704.45 2697.61 709.55L2708.11 711.05C2706.81 717.55 2706.16 727.55 2706.16 741.05C2706.16 754.45 2705.76 764.35 2704.96 770.75C2704.26 777.05 2703.06 783.25 2701.36 789.35C2699.66 795.45 2697.16 800.3 2693.86 803.9C2690.56 807.5 2686.21 809.3 2680.81 809.3C2675.41 809.3 2670.26 807.1 2665.36 802.7C2660.46 798.4 2656.51 793.2 2653.51 787.1L2666.11 781.7C2670.01 789.3 2674.56 793.1 2679.76 793.1ZM2683.96 717.2C2681.46 717.2 2678.91 720.8 2676.31 728C2673.81 735.2 2672.56 742.85 2672.56 750.95C2672.56 754.05 2672.96 756.4 2673.76 758C2674.66 759.6 2675.61 760.4 2676.61 760.4C2677.71 760.4 2679.11 759.4 2680.81 757.4C2682.51 755.4 2684.31 752.2 2686.21 747.8C2688.21 743.4 2689.66 738.55 2690.56 733.25L2690.86 721.85C2687.96 718.75 2685.66 717.2 2683.96 717.2ZM2739.05 762.2C2742.85 762.2 2746.9 758.55 2751.2 751.25L2762.6 758C2760.7 761.3 2758.85 764.1 2757.05 766.4C2755.35 768.7 2752.75 770.9 2749.25 773C2745.75 775.1 2741.85 776.15 2737.55 776.15C2731.25 776.15 2725.95 773.5 2721.65 768.2C2717.35 762.8 2715.2 755.55 2715.2 746.45C2715.2 736.05 2717.05 726.35 2720.75 717.35C2722.75 712.65 2725.6 708.85 2729.3 705.95C2733.1 702.95 2736.95 701.45 2740.85 701.45C2744.85 701.45 2748.05 702.1 2750.45 703.4C2752.85 704.6 2754.75 706 2756.15 707.6C2757.65 709.1 2758.95 711.35 2760.05 714.35C2761.15 717.35 2761.9 719.8 2762.3 721.7C2762.8 723.6 2763.2 726.35 2763.5 729.95C2763.9 734.75 2764.1 739.1 2764.1 743C2756.1 745.2 2745.75 747.2 2733.05 749C2733.35 753 2734.05 756.2 2735.15 758.6C2736.25 761 2737.55 762.2 2739.05 762.2ZM2742.35 716.15C2740.15 716.15 2738.15 718.35 2736.35 722.75C2734.65 727.15 2733.65 732.25 2733.35 738.05C2738.65 736.95 2743.25 735.9 2747.15 734.9C2747.15 722.4 2745.55 716.15 2742.35 716.15ZM2802.08 725.75C2802.08 719.75 2800.58 716.75 2797.58 716.75C2796.08 716.75 2794.68 717.5 2793.38 719C2792.18 720.4 2791.58 722.35 2791.58 724.85C2791.58 727.25 2792.03 729.25 2792.93 730.85C2793.93 732.45 2795.68 734.05 2798.18 735.65C2800.78 737.15 2802.78 738.4 2804.18 739.4C2805.68 740.3 2807.43 741.6 2809.43 743.3C2813.53 746.9 2815.58 751.55 2815.58 757.25C2815.58 762.85 2813.43 767.4 2809.13 770.9C2804.93 774.4 2800.18 776.15 2794.88 776.15C2789.58 776.15 2784.78 774.75 2780.48 771.95C2776.28 769.05 2772.88 765.45 2770.28 761.15L2778.38 752C2782.38 758.9 2786.58 762.35 2790.98 762.35C2792.48 762.35 2793.78 761.95 2794.88 761.15C2795.98 760.25 2796.53 759.05 2796.53 757.55C2796.53 754.35 2794.23 751.4 2789.63 748.7C2784.73 746 2780.88 743 2778.08 739.7C2775.28 736.4 2773.88 731.75 2773.88 725.75C2773.88 719.65 2776.38 714.2 2781.38 709.4C2786.38 704.5 2791.73 702.05 2797.43 702.05C2803.23 702.05 2807.78 704.05 2811.08 708.05C2814.48 711.95 2816.18 717.25 2816.18 723.95C2816.18 726.65 2815.88 729.55 2815.28 732.65L2801.63 731.45C2801.93 729.15 2802.08 727.25 2802.08 725.75ZM2846.73 749.15C2847.83 752.65 2848.38 757.15 2848.38 762.65C2848.38 768.05 2847.68 772.55 2846.28 776.15L2826.03 774.5C2826.93 766.9 2827.38 761.1 2827.38 757.1C2827.38 753 2827.33 749.75 2827.23 747.35L2846.73 749.15Z" fill="black"/>
<path d="M815.059 909.048C804.03 842.327 562.997 821.333 600.13 877.854C682.035 1002.52 522.343 1143.41 542.72 1141.84C608.772 1136.74 829.091 993.943 815.059 909.048Z" fill="white"/>
</g>
<defs>
<filter id="filter0_d_5_2676" x="4882" y="159.764" width="654.485" height="356.094" filterUnits="userSpaceOnUse" color-interpolation-filters="sRGB">
<feFlood flood-opacity="0" result="BackgroundImageFix"/>
<feColorMatrix in="SourceAlpha" type="matrix" values="0 0 0 0 0 0 0 0 0 0 0 0 0 0 0 0 0 0 127 0" result="hardAlpha"/>
<feOffset dy="4"/>
<feGaussianBlur stdDeviation="10"/>
<feComposite in2="hardAlpha" operator="out"/>
<feColorMatrix type="matrix" values="0 0 0 0 0 0 0 0 0 0 0 0 0 0 0 0 0 0 0.25 0"/>
<feBlend mode="normal" in2="BackgroundImageFix" result="effect1_dropShadow_5_2676"/>
<feBlend mode="normal" in="SourceGraphic" in2="effect1_dropShadow_5_2676" result="shape"/>
</filter>
<clipPath id="clip0_5_2676">
<rect width="5655" height="4239" fill="white"/>
</clipPath>
<clipPath id="clip1_5_2676">
<rect width="1698" height="4069" fill="white" transform="translate(-1080 4239) rotate(-90)"/>
</clipPath>
</defs>
</svg>
