<svg width="396" height="370" viewBox="0 0 396 370" fill="none" xmlns="http://www.w3.org/2000/svg">
<rect x="279.707" y="33" width="100" height="310" transform="rotate(44.8705 279.707 33)" fill="#D9873C"/>
<path d="M125.964 305.489C129.219 302.295 129.619 295.765 127.165 285.899L142.602 282.097C143.749 286.52 144.518 290.473 144.91 293.956C145.387 297.354 145.01 301.424 143.778 306.164C142.546 310.905 140.088 315.082 136.406 318.697C131.011 323.993 124.244 326.178 116.106 325.254C107.885 324.244 99.9493 319.842 92.3 312.049C83.5579 303.142 76.9886 293.28 72.592 282.462C70.3541 276.756 69.6006 271.106 70.3316 265.512C71.0642 259.749 73.1004 255.228 76.4404 251.95C79.866 248.588 83.1529 246.454 86.301 245.55C89.365 244.561 92.169 244.162 94.7129 244.356C97.2584 244.38 100.263 245.214 103.727 246.858C107.191 248.503 109.892 249.971 111.832 251.262C113.857 252.468 116.511 254.487 119.794 257.318C124.172 261.093 128 264.65 131.278 267.99C126.276 276.599 119.093 287.011 109.73 299.228C113.349 302.402 116.639 304.554 119.598 305.685C122.558 306.815 124.68 306.75 125.964 305.489ZM90.0816 263.278C88.1975 265.127 88.334 268.693 90.491 273.974C92.7337 279.171 96.1643 284.379 100.783 289.599C104.397 284.201 107.454 279.436 109.953 275.301C99.4459 264.596 92.8221 260.588 90.0816 263.278Z" fill="#B55D0D"/>
</svg>
