<svg width="5655" height="4239" viewBox="0 0 5655 4239" fill="none" xmlns="http://www.w3.org/2000/svg">
<rect width="5655" height="4239" fill="#74AE94"/>
<path d="M1990.5 1677L2040.5 1681.5C2042.83 1708.17 2046.33 1743.5 2051 1787.5C2056 1831.17 2059.5 1862.17 2061.5 1880.5L2064 1880C2087.67 1778 2103 1698.17 2110 1640.5L2175.5 1646C2156.83 1756.33 2129.5 1869.67 2093.5 1986L2045.5 1982C2034.17 1942.67 2021.5 1891.17 2007.5 1827.5C1993.17 1896.17 1979.5 1951 1966.5 1992L1918.5 1988C1890.17 1846.67 1871 1732 1861 1644L1925.5 1649.5C1930.83 1705.83 1939.17 1782.83 1950.5 1880.5L1953 1880C1972.33 1791 1984.83 1723.33 1990.5 1677ZM2177.48 1842.5C2182.48 1816.5 2191.98 1794.5 2205.98 1776.5C2219.98 1758.17 2238.31 1749 2260.98 1749C2283.64 1749 2300.31 1758.5 2310.98 1777.5C2321.98 1796.17 2327.48 1822.83 2327.48 1857.5C2327.48 1892.17 2325.48 1940 2321.48 2001L2279.48 1997.5L2275.48 1981.5C2259.81 1990.5 2243.81 1995 2227.48 1995C2211.14 1995 2197.64 1989.67 2186.98 1979C2176.31 1968 2170.98 1952.33 2170.98 1932C2170.98 1911.67 2180.98 1894.17 2200.98 1879.5C2221.31 1864.83 2244.64 1857.17 2270.98 1856.5V1843C2270.98 1816.67 2264.64 1803.5 2251.98 1803.5C2245.64 1803.5 2239.81 1808 2234.48 1817C2229.48 1825.67 2225.81 1835.67 2223.48 1847L2177.48 1842.5ZM2221.98 1935C2221.98 1945.67 2228.31 1951 2240.98 1951C2249.64 1951 2258.81 1949 2268.48 1945L2269.48 1903C2253.81 1904.33 2241.98 1908.33 2233.98 1915C2225.98 1921.33 2221.98 1928 2221.98 1935ZM2447.3 1629C2442.3 1713.33 2439.8 1789.33 2439.8 1857C2439.8 1924.67 2440.63 1972.17 2442.3 1999.5L2383.3 1994C2381.97 1959.33 2381.3 1910.17 2381.3 1846.5C2381.3 1782.5 2383.8 1708.5 2388.8 1624.5L2447.3 1629ZM2498.96 1994C2497.63 1959.33 2496.96 1908 2496.96 1840C2496.96 1772 2499.46 1700.17 2504.46 1624.5L2562.96 1629C2557.96 1710.67 2555.46 1789.33 2555.46 1865C2590.13 1822.67 2616.13 1781.5 2633.46 1741.5L2673.46 1776.5C2658.46 1811.5 2638.46 1846.17 2613.46 1880.5C2639.46 1910.83 2660.13 1939.17 2675.46 1965.5L2637.46 2001.5C2619.46 1973.5 2592.13 1940.33 2555.46 1902C2555.46 1939 2556.13 1971.5 2557.46 1999.5L2498.96 1994ZM2707.04 1751.5L2764.04 1757V1997L2707.04 1991.5V1751.5ZM2711.04 1663.5L2767.04 1670L2762.04 1726L2706.04 1719L2711.04 1663.5ZM2919.21 1752C2963.21 1752 2985.21 1788.67 2985.21 1862C2985.21 1900.67 2983.04 1941.67 2978.71 1985L2920.21 1979.5C2923.87 1941.5 2925.71 1903.17 2925.71 1864.5C2925.71 1825.5 2920.21 1806 2909.21 1806C2903.87 1806 2897.04 1819.5 2888.71 1846.5C2880.37 1873.17 2875.21 1899.33 2873.21 1925C2873.87 1938.67 2875.21 1963.33 2877.21 1999L2818.71 1993.5C2815.04 1946.5 2813.21 1905.17 2813.21 1869.5C2813.21 1833.83 2814.21 1801.83 2816.21 1773.5L2853.21 1777.5C2853.87 1780.17 2856.37 1791 2860.71 1810C2880.04 1771.33 2899.54 1752 2919.21 1752ZM3099.12 2057C3109.45 2057 3117.79 2046.33 3124.12 2025C3130.45 2004 3133.62 1977.83 3133.62 1946.5C3115.95 1978.17 3097.62 1994 3078.62 1994C3059.95 1994 3044.79 1987.67 3033.12 1975C3021.79 1962 3016.12 1942.5 3016.12 1916.5C3016.12 1890.17 3020.62 1864.17 3029.62 1838.5C3038.62 1812.5 3049.62 1791.83 3062.62 1776.5C3075.95 1760.83 3088.62 1753 3100.62 1753C3121.62 1753 3140.95 1761.5 3158.62 1778.5L3193.62 1783.5C3189.29 1805.17 3187.12 1838.5 3187.12 1883.5C3187.12 1928.17 3185.79 1961.17 3183.12 1982.5C3180.79 2003.5 3176.79 2024.17 3171.12 2044.5C3165.45 2064.83 3157.12 2081 3146.12 2093C3135.12 2105 3120.62 2111 3102.62 2111C3084.62 2111 3067.45 2103.67 3051.12 2089C3034.79 2074.67 3021.62 2057.33 3011.62 2037L3053.62 2019C3066.62 2044.33 3081.79 2057 3099.12 2057ZM3113.12 1804C3104.79 1804 3096.29 1816 3087.62 1840C3079.29 1864 3075.12 1889.5 3075.12 1916.5C3075.12 1926.83 3076.45 1934.67 3079.12 1940C3082.12 1945.33 3085.29 1948 3088.62 1948C3092.29 1948 3096.95 1944.67 3102.62 1938C3108.29 1931.33 3114.29 1920.67 3120.62 1906C3127.29 1891.33 3132.12 1875.17 3135.12 1857.5L3136.12 1819.5C3126.45 1809.17 3118.79 1804 3113.12 1804Z" fill="black"/>
<path d="M2032 2536.75C2050.83 2536.75 2060.25 2532.58 2060.25 2524.25C2060.25 2520.58 2055 2517.5 2044.5 2515C2033.83 2512.5 2023.67 2511.25 2014 2511.25C1992.67 2511.25 1982 2514.75 1982 2521.75C1982 2526.25 1987.75 2529.92 1999.25 2532.75C2010.58 2535.42 2021.5 2536.75 2032 2536.75ZM2029.75 2566C2014.25 2566 1999.08 2562.83 1984.25 2556.5C1976.75 2553.17 1970.67 2548.5 1966 2542.5C1961.17 2536.33 1958.75 2529.5 1958.75 2522C1958.75 2514.5 1960.5 2508.08 1964 2502.75C1967.33 2497.25 1971.83 2493.08 1977.5 2490.25C1988.67 2484.75 2000.83 2482 2014 2482C2032.17 2482 2048.33 2485.75 2062.5 2493.25C2076.5 2500.58 2083.5 2510.92 2083.5 2524.25C2083.5 2552.08 2065.58 2566 2029.75 2566ZM1958 2415.71C1958 2393.71 1976.33 2382.71 2013 2382.71C2032.33 2382.71 2052.83 2383.79 2074.5 2385.96L2071.75 2415.21C2052.75 2413.38 2033.58 2412.46 2014.25 2412.46C1994.75 2412.46 1985 2415.21 1985 2420.71C1985 2423.38 1991.75 2426.79 2005.25 2430.96C2018.58 2435.13 2031.67 2437.71 2044.5 2438.71C2051.33 2438.38 2063.67 2437.71 2081.5 2436.71L2078.75 2465.96C2055.25 2467.79 2034.58 2468.71 2016.75 2468.71C1998.92 2468.71 1982.92 2468.21 1968.75 2467.21L1970.75 2448.71C1972.08 2448.38 1977.5 2447.13 1987 2444.96C1967.67 2435.29 1958 2425.54 1958 2415.71ZM1972.5 2242.21H1996.25C1996.25 2250.21 1996.33 2256.37 1996.5 2260.71C2013.17 2261.21 2041.17 2261.46 2080.5 2261.46L2077.75 2290.96C2048.58 2290.96 2022.17 2290.71 1998.5 2290.21C1998.5 2292.71 1998.92 2297.46 1999.75 2304.46L1979.25 2308.21C1978.42 2304.21 1977.33 2297.96 1976 2289.46C1963.67 2289.12 1945.67 2288.46 1922 2287.46L1924.75 2257.71C1941.25 2258.71 1957.25 2259.46 1972.75 2259.96C1972.58 2255.79 1972.5 2249.87 1972.5 2242.21ZM1975.25 2196.43C1965.75 2188.76 1961 2181.26 1961 2173.93C1961 2166.43 1963.5 2160.34 1968.5 2155.68C1977.17 2147.51 1988.17 2143.43 2001.5 2143.43C2025.67 2143.43 2050.92 2144.34 2077.25 2146.18L2074.5 2175.18C2050 2174.01 2025.92 2173.43 2002.25 2173.43C1993.42 2173.43 1989 2175.68 1989 2180.18C1989 2185.51 2000.67 2191.26 2024 2197.43C2040.67 2197.76 2059.58 2198.59 2080.75 2199.93L2078 2229.18C2049.33 2227.01 2017.33 2225.93 1982 2225.93C1946.67 2225.93 1918.25 2226.51 1896.75 2227.68L1899.5 2198.43C1923 2197.09 1948.25 2196.43 1975.25 2196.43ZM2059 2089.48C2059 2083.14 2052.92 2076.39 2040.75 2069.23L2052 2050.23C2057.5 2053.39 2062.17 2056.48 2066 2059.48C2069.83 2062.31 2073.5 2066.64 2077 2072.48C2080.5 2078.31 2082.25 2084.81 2082.25 2091.98C2082.25 2102.48 2077.83 2111.31 2069 2118.48C2060 2125.64 2047.92 2129.23 2032.75 2129.23C2015.42 2129.23 1999.25 2126.14 1984.25 2119.98C1976.42 2116.64 1970.08 2111.89 1965.25 2105.73C1960.25 2099.39 1957.75 2092.98 1957.75 2086.48C1957.75 2079.81 1958.83 2074.48 1961 2070.48C1963 2066.48 1965.33 2063.31 1968 2060.98C1970.5 2058.48 1974.25 2056.31 1979.25 2054.48C1984.25 2052.64 1988.33 2051.39 1991.5 2050.73C1994.67 2049.89 1999.25 2049.23 2005.25 2048.73C2013.25 2048.06 2020.5 2047.73 2027 2047.73C2030.67 2061.06 2034 2078.31 2037 2099.48C2043.67 2098.98 2049 2097.81 2053 2095.98C2057 2094.14 2059 2091.98 2059 2089.48ZM1982.25 2083.98C1982.25 2087.64 1985.92 2090.98 1993.25 2093.98C2000.58 2096.81 2009.08 2098.48 2018.75 2098.98C2016.92 2090.14 2015.17 2082.48 2013.5 2075.98C1992.67 2075.98 1982.25 2078.64 1982.25 2083.98Z" fill="black"/>
<path d="M2311.73 2373.95H2418.37C2417.59 2389.97 2417 2405.69 2416.61 2421.12C2416.41 2436.55 2416.32 2451.3 2416.32 2465.36C2416.32 2479.42 2416.32 2492.31 2416.32 2504.03C2416.51 2515.55 2416.8 2525.52 2417.2 2533.91C2417.59 2543.88 2417.98 2552.76 2418.37 2560.57C2408.41 2565.65 2396.3 2569.95 2382.04 2573.46C2367.78 2576.98 2350.5 2578.74 2330.18 2578.74C2309.87 2578.74 2291.02 2574.54 2273.64 2566.14C2256.26 2557.74 2241.12 2545.05 2228.23 2528.05C2215.34 2510.87 2205.18 2489.29 2197.76 2463.31C2190.54 2437.14 2186.92 2406.38 2186.92 2371.02C2186.92 2335.67 2190.73 2305.01 2198.35 2279.03C2206.16 2252.86 2216.71 2231.28 2229.99 2214.29C2243.27 2197.1 2258.7 2184.3 2276.28 2175.91C2294.05 2167.51 2312.9 2163.31 2332.82 2163.31C2341.02 2163.31 2348.45 2163.7 2355.09 2164.48C2361.73 2165.07 2367.88 2165.95 2373.54 2167.12C2379.4 2168.29 2384.87 2169.75 2389.95 2171.51C2395.03 2173.27 2400.01 2175.12 2404.89 2177.08V2236.26C2392.2 2222 2380.18 2212.04 2368.86 2206.38C2357.72 2200.52 2345.61 2197.59 2332.53 2197.59C2317.49 2197.59 2304.11 2201.79 2292.39 2210.18C2280.67 2218.39 2270.71 2230.11 2262.51 2245.34C2254.5 2260.57 2248.35 2278.84 2244.05 2300.12C2239.95 2321.22 2237.9 2344.66 2237.9 2370.44C2237.9 2395.44 2239.85 2418.58 2243.76 2439.87C2247.66 2460.96 2253.52 2479.32 2261.34 2494.95C2269.15 2510.38 2278.91 2522.49 2290.63 2531.28C2302.55 2540.07 2316.41 2544.46 2332.23 2544.46C2339.07 2544.46 2345.03 2543.97 2350.11 2543C2355.38 2541.82 2360.55 2539.87 2365.63 2537.14C2365.83 2532.84 2366.02 2527.86 2366.22 2522.2C2366.41 2517.31 2366.61 2511.45 2366.8 2504.62C2367 2497.59 2367.1 2489.48 2367.1 2480.3C2367.1 2470.34 2366.9 2459.3 2366.51 2447.2C2366.32 2435.09 2365.83 2422 2365.05 2407.94H2311.73V2373.95ZM2633.41 2216.04C2607.62 2216.04 2585.16 2219.66 2566.02 2226.88C2546.88 2234.11 2532.82 2245.05 2523.84 2259.7C2522.66 2297.59 2522.08 2335.77 2522.08 2374.25C2522.08 2392.41 2522.18 2409.7 2522.37 2426.1C2522.57 2442.51 2522.86 2458.62 2523.25 2474.44C2523.64 2490.26 2524.23 2506.18 2525.01 2522.2C2525.79 2538.02 2526.67 2554.62 2527.64 2572H2473.45C2474.42 2554.62 2475.2 2538.02 2475.79 2522.2C2476.57 2506.18 2477.16 2490.26 2477.55 2474.44C2478.13 2458.62 2478.52 2442.51 2478.72 2426.1C2478.91 2409.7 2479.01 2392.41 2479.01 2374.25C2479.01 2356.08 2478.91 2338.5 2478.72 2321.51C2478.52 2304.32 2478.13 2287.43 2477.55 2270.83C2477.16 2254.03 2476.57 2237.33 2475.79 2220.73C2475.2 2203.93 2474.42 2186.84 2473.45 2169.46H2527.94C2527.35 2178.64 2526.77 2186.84 2526.18 2194.07C2525.79 2201.3 2525.4 2209.4 2525.01 2218.39C2531.26 2211.16 2538.88 2204.13 2547.86 2197.29C2557.04 2190.46 2566.61 2184.5 2576.57 2179.42C2586.53 2174.15 2596.49 2169.95 2606.45 2166.82C2616.41 2163.7 2625.4 2162.14 2633.41 2162.14V2216.04ZM2802.74 2572L2804.21 2536.55C2799.52 2541.82 2794.73 2547.1 2789.85 2552.37C2784.97 2557.45 2779.5 2562.04 2773.45 2566.14C2767.39 2570.05 2760.46 2573.17 2752.64 2575.52C2745.03 2578.05 2735.95 2579.32 2725.4 2579.32C2713.29 2579.32 2701.96 2576.88 2691.41 2572C2681.06 2566.92 2671.98 2559.6 2664.17 2550.03C2656.55 2540.46 2650.5 2528.64 2646 2514.58C2641.51 2500.32 2639.27 2483.91 2639.27 2465.36C2639.27 2441.73 2642.88 2421.51 2650.11 2404.71C2657.33 2387.92 2667.98 2373.66 2682.04 2361.94C2696.3 2350.22 2713.88 2340.75 2734.77 2333.52C2755.87 2326.3 2780.18 2320.44 2807.72 2315.95C2807.72 2292.31 2806.45 2272.78 2803.91 2257.35C2801.57 2241.92 2798.05 2229.71 2793.37 2220.73C2788.68 2211.55 2782.82 2205.2 2775.79 2201.69C2768.95 2198.17 2761.04 2196.41 2752.06 2196.41C2744.25 2196.41 2736.43 2197.68 2728.62 2200.22C2720.81 2202.57 2713 2205.79 2705.18 2209.89C2697.57 2213.99 2689.85 2218.78 2682.04 2224.25C2674.42 2229.52 2666.9 2235.09 2659.48 2240.95V2184.11C2667.68 2180.98 2675.5 2178.15 2682.92 2175.61C2690.34 2172.88 2697.76 2170.54 2705.18 2168.58C2712.8 2166.63 2720.42 2165.07 2728.04 2163.89C2735.65 2162.72 2743.76 2162.14 2752.35 2162.14C2769.54 2162.14 2784.48 2164.48 2797.18 2169.17C2810.07 2173.86 2820.71 2181.28 2829.11 2191.43C2837.7 2201.59 2844.05 2214.68 2848.15 2230.69C2852.45 2246.71 2854.6 2265.95 2854.6 2288.41C2854.6 2290.55 2854.5 2294.17 2854.3 2299.25C2854.3 2304.32 2854.21 2310.28 2854.01 2317.12C2854.01 2323.95 2853.91 2331.28 2853.72 2339.09C2853.72 2346.9 2853.62 2354.62 2853.43 2362.23C2853.43 2369.85 2853.33 2377.08 2853.13 2383.91C2853.13 2390.55 2853.13 2396.12 2853.13 2400.61C2853.13 2410.96 2853.23 2422.68 2853.43 2435.77C2853.62 2448.66 2853.91 2462.43 2854.3 2477.08C2854.89 2491.73 2855.48 2507.06 2856.06 2523.07C2856.84 2539.09 2857.72 2555.4 2858.7 2572H2802.74ZM2806.26 2492.02C2806.84 2472.1 2807.33 2450.81 2807.72 2428.15C2808.11 2405.3 2808.31 2379.23 2808.31 2349.93C2783.5 2352.86 2763.48 2357.64 2748.25 2364.29C2733.02 2370.93 2721.2 2379.13 2712.8 2388.89C2704.4 2398.46 2698.74 2409.4 2695.81 2421.71C2692.88 2434.01 2691.41 2447.39 2691.41 2461.84C2691.41 2474.15 2692.49 2485.28 2694.64 2495.24C2696.98 2505.2 2700.3 2513.7 2704.6 2520.73C2708.89 2527.57 2713.97 2532.84 2719.83 2536.55C2725.69 2540.26 2732.33 2542.12 2739.75 2542.12C2748.15 2542.12 2755.48 2540.65 2761.73 2537.72C2768.17 2534.6 2773.93 2530.69 2779.01 2526C2784.29 2521.12 2789.07 2515.75 2793.37 2509.89C2797.66 2503.84 2801.96 2497.88 2806.26 2492.02ZM3012.51 2169.46C3028.91 2169.46 3043.56 2172.29 3056.45 2177.96C3069.34 2183.43 3080.18 2191.53 3088.97 2202.27C3097.96 2213.02 3104.7 2226.1 3109.19 2241.53C3113.88 2256.96 3116.22 2274.44 3116.22 2293.97C3116.22 2302.37 3115.44 2311.36 3113.88 2320.93C3112.31 2330.3 3109.77 2339.58 3106.26 2348.76C3102.74 2357.94 3098.25 2366.82 3092.78 2375.42C3087.31 2383.82 3080.57 2391.24 3072.57 2397.68C3064.75 2404.13 3055.57 2409.3 3045.03 2413.21C3034.68 2416.92 3022.86 2418.78 3009.58 2418.78H2964.46C2964.85 2443.78 2965.34 2469.36 2965.93 2495.54C2966.71 2521.51 2967.88 2547 2969.44 2572H2914.66C2915.83 2555.4 2916.71 2538.41 2917.29 2521.02C2918.07 2503.45 2918.66 2486.06 2919.05 2468.88C2919.44 2451.49 2919.73 2434.5 2919.93 2417.9C2920.12 2401.3 2920.22 2385.48 2920.22 2370.44C2920.22 2355.4 2920.12 2339.58 2919.93 2322.98C2919.73 2306.38 2919.44 2289.48 2919.05 2272.29C2918.66 2255.11 2918.07 2237.82 2917.29 2220.44C2916.71 2203.05 2915.83 2186.06 2914.66 2169.46H3012.51ZM2967.98 2202.27C2966.61 2231.18 2965.63 2260.09 2965.05 2288.99C2964.66 2317.9 2964.46 2345.05 2964.46 2370.44V2386.26H3009.58C3027.16 2386.26 3040.83 2378.25 3050.59 2362.23C3060.36 2346.02 3065.24 2323.27 3065.24 2293.97C3065.24 2264.09 3060.65 2241.34 3051.47 2225.71C3042.29 2210.09 3028.33 2202.27 3009.58 2202.27H2967.98ZM3380.48 2169.46C3379.5 2186.06 3378.62 2203.05 3377.84 2220.44C3377.25 2237.82 3376.77 2255.11 3376.38 2272.29C3375.98 2289.48 3375.69 2306.38 3375.5 2322.98C3375.3 2339.58 3375.2 2355.4 3375.2 2370.44C3375.2 2385.48 3375.3 2401.3 3375.5 2417.9C3375.69 2434.5 3375.89 2451.49 3376.08 2468.88C3376.47 2486.06 3376.96 2503.45 3377.55 2521.02C3378.13 2538.41 3378.91 2555.4 3379.89 2572H3325.4C3326.38 2555.4 3327.16 2538.41 3327.74 2521.02C3328.52 2503.45 3329.11 2486.06 3329.5 2468.88C3329.89 2451.49 3330.18 2434.5 3330.38 2417.9C3330.57 2401.3 3330.67 2385.48 3330.67 2370.44H3209.97C3209.97 2385.48 3210.07 2401.3 3210.26 2417.9C3210.46 2434.5 3210.75 2451.49 3211.14 2468.88C3211.53 2486.06 3212.02 2503.45 3212.61 2521.02C3213.19 2538.41 3213.97 2555.4 3214.95 2572H3160.16C3161.34 2555.4 3162.21 2538.41 3162.8 2521.02C3163.58 2503.45 3164.17 2486.06 3164.56 2468.88C3164.95 2451.49 3165.24 2434.5 3165.44 2417.9C3165.63 2401.3 3165.73 2385.48 3165.73 2370.44C3165.73 2355.4 3165.63 2339.58 3165.44 2322.98C3165.24 2306.38 3164.95 2289.48 3164.56 2272.29C3164.17 2255.11 3163.58 2237.82 3162.8 2220.44C3162.21 2203.05 3161.34 2186.06 3160.16 2169.46H3215.54C3213.58 2196.8 3212.21 2224.83 3211.43 2253.54C3210.85 2282.06 3210.36 2309.6 3209.97 2336.16H3330.38C3330.18 2309.6 3329.7 2282.06 3328.91 2253.54C3328.13 2224.83 3326.96 2196.8 3325.4 2169.46H3380.48Z" fill="#270560"/>
<path d="M3772.51 2244.94C3771.98 2243.23 3771.36 2241.61 3770.86 2239.9C3770.2 2239.42 3769.82 2240.24 3768.51 2240.6C3767.91 2240.76 3767.18 2240.94 3766.77 2241.51C3766.24 2242.26 3764.07 2242.78 3763.31 2243.21C3761.63 2244.16 3759.95 2244.76 3758.07 2245.35C3753.28 2246.82 3749.5 2249.28 3745.15 2251.64C3742.29 2253.19 3739.08 2255.01 3736.65 2257.1C3734.64 2258.82 3732.6 2260.31 3730.68 2262.21C3729.54 2263.35 3728.01 2264.27 3727.14 2265.68C3725.53 2268.29 3724.49 2271.96 3725.57 2275.04C3727.23 2279.74 3733.5 2283.96 3738.48 2283.82C3741.95 2283.73 3745.61 2283.59 3749.05 2284.09C3753.21 2284.71 3757.67 2285.76 3761.9 2285.54C3769.14 2285.18 3776.02 2283.64 3783.08 2282.53C3785.66 2282.12 3784.8 2280.26 3784.01 2278.75C3782.05 2274.94 3780.87 2270.72 3779.68 2266.62C3778.77 2263.46 3777.04 2260.57 3776.14 2257.39C3775.5 2255.1 3774.55 2252.93 3773.86 2250.67C3773.29 2248.78 3773.1 2246.83 3772.51 2244.94Z" fill="#6F432E"/>
<path d="M3770.5 2238.58C3771.04 2240.79 3771.85 2242.79 3772.51 2244.94C3773.1 2246.83 3773.29 2248.78 3773.86 2250.67C3774.55 2252.93 3775.5 2255.1 3776.14 2257.39C3777.04 2260.57 3778.77 2263.46 3779.68 2266.62C3780.87 2270.72 3782.05 2274.94 3784.01 2278.75C3784.8 2280.26 3785.66 2282.12 3783.08 2282.53C3776.02 2283.64 3769.14 2285.18 3761.9 2285.54C3757.67 2285.76 3753.21 2284.71 3749.05 2284.09C3745.61 2283.59 3741.95 2283.73 3738.48 2283.82C3733.5 2283.96 3727.23 2279.74 3725.57 2275.04C3724.49 2271.96 3725.53 2268.29 3727.14 2265.68C3728.01 2264.27 3729.54 2263.35 3730.68 2262.21C3732.6 2260.31 3734.64 2258.82 3736.65 2257.1C3739.08 2255.01 3742.29 2253.19 3745.15 2251.64C3749.5 2249.28 3753.28 2246.82 3758.07 2245.35C3759.95 2244.76 3761.63 2244.16 3763.31 2243.21C3764.07 2242.78 3766.24 2242.26 3766.77 2241.51C3767.18 2240.94 3767.91 2240.76 3768.51 2240.6C3770.22 2240.12 3770.36 2238.87 3771.58 2240.78" stroke="#6F432E" stroke-width="8" stroke-linecap="round"/>
<path d="M3799.42 2337.15C3799.11 2331.07 3798 2323.47 3794.37 2318.28C3793.87 2318.27 3793.24 2318.51 3792.36 2318.96C3791.19 2319.56 3790.05 2320.25 3788.88 2320.85C3785.73 2322.46 3781.98 2322.9 3778.89 2324.6C3777.43 2325.41 3775.79 2325.74 3774.33 2326.59C3772.7 2327.53 3771.15 2328.22 3769.42 2328.94C3766.16 2330.31 3763.05 2331.65 3759.87 2333.14C3756.37 2334.78 3752.4 2336.43 3748.5 2336.63C3746.68 2336.72 3742.31 2337.23 3742.36 2339.85C3742.4 2341.73 3742.65 2345.31 3744.78 2346.17C3747.1 2347.1 3749.62 2347.6 3751.85 2348.58C3753.14 2349.14 3754.59 2349.25 3755.94 2349.48C3757.85 2349.81 3759.83 2349.65 3761.7 2350.25C3762.75 2350.58 3763.74 2351.08 3764.81 2351.31C3769.29 2352.28 3774.15 2353.1 3778.75 2352.87L3793.32 2352.13C3795.27 2352.03 3797.16 2352.52 3799.09 2352.48C3800.16 2352.46 3799.84 2351.7 3799.79 2350.83C3799.56 2346.28 3799.65 2341.74 3799.42 2337.15Z" fill="#6F432E"/>
<path d="M3794.37 2318.28C3798 2323.47 3799.11 2331.07 3799.42 2337.15C3799.65 2341.74 3799.56 2346.28 3799.79 2350.83C3799.84 2351.7 3800.16 2352.46 3799.09 2352.48C3797.16 2352.52 3795.27 2352.03 3793.32 2352.13C3788.46 2352.37 3783.61 2352.62 3778.75 2352.87C3774.15 2353.1 3769.29 2352.28 3764.81 2351.31C3763.74 2351.08 3762.75 2350.58 3761.7 2350.25C3759.83 2349.65 3757.85 2349.81 3755.94 2349.48C3754.59 2349.25 3753.14 2349.14 3751.85 2348.58C3749.62 2347.6 3747.1 2347.1 3744.78 2346.17C3742.65 2345.31 3742.4 2341.73 3742.36 2339.85C3742.31 2337.23 3746.68 2336.72 3748.5 2336.63C3752.4 2336.43 3756.37 2334.78 3759.87 2333.14C3763.05 2331.65 3766.16 2330.31 3769.42 2328.94C3771.15 2328.22 3772.7 2327.53 3774.33 2326.59C3775.79 2325.74 3777.43 2325.41 3778.89 2324.6C3781.98 2322.9 3785.73 2322.46 3788.88 2320.85C3790.05 2320.25 3791.19 2319.56 3792.36 2318.96C3794.6 2317.82 3795.28 2317.99 3795.95 2320.49" stroke="#6F432E" stroke-width="8" stroke-linecap="round"/>
<path d="M3804.57 2400.35C3804.42 2395.98 3805.11 2391.72 3804.84 2387.4C3804.78 2386.6 3800.34 2381.33 3799.06 2382.46C3798.71 2382.77 3796.95 2382.85 3796.43 2382.97C3794.71 2383.37 3792.55 2383.83 3790.81 2383.92C3785.16 2384.21 3779.77 2386.74 3774.16 2387.03C3766.37 2387.42 3758.87 2389.57 3751.13 2390.13C3748.32 2390.34 3744.73 2389.77 3744.11 2393.4C3743.68 2395.94 3744.09 2397.99 3745.92 2399.93C3747.43 2401.54 3750.07 2401.77 3752 2402.67C3754.1 2403.66 3756.61 2403.84 3758.83 2404.61C3762.46 2405.87 3765.61 2407.78 3769.57 2407.92C3774.21 2408.09 3778.25 2409.59 3782.28 2411.82C3785.75 2413.73 3790.47 2412.97 3794.24 2413.4C3795.83 2413.58 3801.16 2414.54 3801.79 2412.44C3802.18 2411.12 3802.41 2409.76 3802.73 2408.37C3802.91 2407.59 3803.44 2406.64 3803.73 2405.86C3804.4 2404.1 3804.63 2402.24 3804.57 2400.35Z" fill="#6F432E"/>
<path d="M3804.38 2383.88C3805.54 2389.42 3804.38 2394.8 3804.57 2400.35C3804.63 2402.24 3804.4 2404.1 3803.73 2405.86C3803.44 2406.64 3802.91 2407.59 3802.73 2408.37C3802.41 2409.76 3802.18 2411.12 3801.79 2412.44C3801.16 2414.54 3795.83 2413.58 3794.24 2413.4C3790.47 2412.97 3785.75 2413.73 3782.28 2411.82C3778.25 2409.59 3774.21 2408.09 3769.57 2407.92C3765.61 2407.78 3762.46 2405.87 3758.83 2404.61C3756.61 2403.84 3754.1 2403.66 3752 2402.67C3750.07 2401.77 3747.43 2401.54 3745.92 2399.93C3744.09 2397.99 3743.68 2395.94 3744.11 2393.4C3744.73 2389.77 3748.32 2390.34 3751.13 2390.13C3758.87 2389.57 3766.37 2387.42 3774.16 2387.03C3779.77 2386.74 3785.16 2384.21 3790.81 2383.92C3792.55 2383.83 3794.71 2383.37 3796.43 2382.97C3796.95 2382.85 3798.71 2382.77 3799.06 2382.46C3800.34 2381.33 3804.8 2386.62 3804.84 2387.41" stroke="#6F432E" stroke-width="8" stroke-linecap="round"/>
<path d="M3693.02 2292.2C3691.4 2288.89 3690.04 2285.1 3687.73 2282.2C3686.53 2280.69 3682.65 2285.25 3682.09 2285.57C3680.95 2286.21 3680.1 2287.02 3678.81 2287.43C3676.15 2288.26 3674.54 2290.12 3672.21 2291.53C3669.68 2293.07 3667.21 2294.67 3664.95 2296.6C3660.69 2300.25 3654.51 2301.72 3650.82 2306.05C3649.75 2307.3 3649.97 2308.56 3650.05 2310.11C3650.14 2311.72 3651.35 2312.4 3652.64 2313.06C3656.82 2315.17 3664.3 2315.37 3668.8 2313.37C3670.38 2312.67 3672.56 2313.14 3674.26 2312.77C3675.59 2312.49 3677.07 2312.31 3678.32 2311.76C3681.03 2310.55 3683.84 2309.63 3686.49 2308.27C3689.34 2306.81 3692.84 2306.77 3695.53 2305C3696.32 2304.48 3695.14 2300.74 3695.11 2300.08C3694.96 2297.31 3694.24 2294.7 3693.02 2292.2Z" fill="#6F432E" stroke="#6F432E" stroke-width="8" stroke-linecap="round"/>
<path d="M3595.09 2328.66C3593.97 2326.08 3593.46 2323.03 3592.73 2320.3C3592.11 2319.21 3605.79 2315.94 3606.75 2315.72C3609.71 2315.02 3613.01 2314.33 3615.81 2313.15C3618.88 2311.87 3621.82 2310.75 3625.16 2310.58C3629.02 2310.38 3632.54 2311.12 3630.55 2315.66C3629.34 2318.42 3626.59 2321.03 3624.28 2322.9C3622.77 2324.13 3621.67 2326.24 3620.23 2327.63C3618.46 2329.35 3616.2 2330.55 3614.37 2332.13C3612.66 2333.6 3610.88 2334.91 3609.2 2336.43C3607.29 2338.17 3605.22 2340.41 3602.88 2341.58C3601.45 2342.3 3598.31 2336.21 3597.93 2335.08C3597.56 2333.97 3596.67 2333.15 3596.31 2332.08C3595.91 2330.92 3595.59 2329.79 3595.09 2328.66Z" fill="#6F432E" stroke="#6F432E" stroke-width="8" stroke-linecap="round"/>
<path d="M3706.97 2343.26C3706.42 2339.89 3705.28 2336.52 3703.91 2333.4C3703.82 2331.72 3694.53 2335.25 3693.34 2335.73C3691.88 2336.33 3690.35 2336.97 3688.96 2337.71C3685.78 2339.39 3682.16 2340.55 3679.17 2342.59C3676.43 2344.46 3673.65 2346.48 3671.07 2348.57C3668.2 2350.89 3663.39 2355.61 3664.55 2359.79C3665.46 2363.1 3668.44 2362.99 3671.33 2362.84L3676.14 2362.6C3678.09 2362.5 3680.03 2361.5 3681.99 2361.33C3687.96 2360.83 3693.58 2358.29 3699.49 2357.52C3703.8 2356.95 3707.49 2355.75 3707.38 2350.99C3707.33 2348.36 3707.41 2345.94 3706.97 2343.26Z" fill="#6F432E" stroke="#6F432E" stroke-width="8" stroke-linecap="round"/>
<path d="M3610.62 2376.59C3609.55 2374.71 3608.34 2372.93 3606.95 2371.28C3606.63 2370.9 3611.77 2370.82 3612.34 2370.61C3614.84 2369.73 3617.36 2369.15 3619.79 2368.05C3624.62 2365.84 3630.48 2362.33 3635.89 2362.06C3637.58 2361.97 3646.22 2361.01 3644.57 2364.36C3643.5 2366.54 3642.85 2369.54 3640.8 2371.18C3639.25 2372.43 3637.62 2373.85 3636.24 2375.29C3634.83 2376.77 3633.04 2377.94 3631.93 2379.64C3630.89 2381.23 3627.94 2382.43 3626.39 2383.54C3624.56 2384.86 3622.75 2386.1 3621.01 2387.55C3620.03 2388.37 3618.29 2390.85 3617.55 2388.66C3616.82 2386.52 3615.59 2384.81 3614.49 2382.86C3613.28 2380.72 3611.83 2378.74 3610.62 2376.59Z" fill="#6F432E"/>
<path d="M3606.95 2371.28L3610.01 2368.71L3610.01 2368.71L3606.95 2371.28ZM3610.62 2376.59L3607.13 2378.56L3607.13 2378.56L3610.62 2376.59ZM3614.49 2382.86L3617.97 2380.89L3617.97 2380.89L3614.49 2382.86ZM3617.55 2388.66L3613.76 2389.95L3613.76 2389.95L3617.55 2388.66ZM3621.01 2387.55L3618.45 2384.48L3618.45 2384.48L3621.01 2387.55ZM3626.39 2383.54L3628.72 2386.79L3628.72 2386.79L3626.39 2383.54ZM3631.93 2379.64L3635.28 2381.83L3631.93 2379.64ZM3636.24 2375.29L3639.13 2378.05L3639.13 2378.05L3636.24 2375.29ZM3640.8 2371.18L3638.31 2368.06L3638.31 2368.06L3640.8 2371.18ZM3644.57 2364.36L3640.98 2362.6L3640.98 2362.6L3644.57 2364.36ZM3619.79 2368.05L3621.44 2371.69L3621.44 2371.69L3619.79 2368.05ZM3612.34 2370.61L3613.67 2374.39L3613.67 2374.39L3612.34 2370.61ZM3610.01 2368.71C3611.57 2370.56 3612.92 2372.55 3614.1 2374.62L3607.13 2378.56C3606.18 2376.87 3605.11 2375.3 3603.89 2373.86L3610.01 2368.71ZM3614.1 2374.62C3614.64 2375.58 3615.24 2376.51 3615.92 2377.56C3616.57 2378.57 3617.3 2379.7 3617.97 2380.89L3611.01 2384.82C3610.47 2383.88 3609.87 2382.95 3609.19 2381.9C3608.54 2380.88 3607.81 2379.75 3607.13 2378.56L3614.1 2374.62ZM3617.97 2380.89C3618.81 2382.37 3620.44 2384.76 3621.33 2387.37L3613.76 2389.95C3613.19 2388.28 3612.37 2387.24 3611.01 2384.82L3617.97 2380.89ZM3621.33 2387.37C3621.32 2387.34 3621.22 2387.03 3620.9 2386.66C3620.53 2386.23 3619.93 2385.79 3619.12 2385.62C3618.36 2385.45 3617.75 2385.59 3617.42 2385.7C3617.11 2385.8 3616.94 2385.93 3616.92 2385.94C3616.91 2385.95 3617.01 2385.87 3617.33 2385.55C3617.5 2385.37 3618.02 2384.84 3618.45 2384.48L3623.57 2390.63C3623.58 2390.61 3623.55 2390.64 3623.43 2390.76C3623.28 2390.91 3623.21 2390.98 3622.99 2391.2C3622.68 2391.51 3622.12 2392.07 3621.46 2392.52C3620.96 2392.87 3619.42 2393.87 3617.41 2393.43C3615.08 2392.92 3614.12 2390.99 3613.76 2389.95L3621.33 2387.37ZM3618.45 2384.48C3620.34 2382.91 3622.31 2381.55 3624.06 2380.29L3628.72 2386.79C3626.81 2388.17 3625.17 2389.29 3623.57 2390.63L3618.45 2384.48ZM3624.06 2380.29C3624.62 2379.89 3625.25 2379.52 3625.77 2379.22C3626.35 2378.89 3626.8 2378.64 3627.29 2378.34C3627.76 2378.06 3628.11 2377.83 3628.36 2377.63C3628.63 2377.41 3628.65 2377.35 3628.59 2377.44L3635.28 2381.83C3634.2 2383.48 3632.44 2384.58 3631.41 2385.2C3629.97 2386.07 3629.34 2386.35 3628.72 2386.79L3624.06 2380.29ZM3628.59 2377.44C3629.43 2376.16 3630.47 2375.16 3631.28 2374.42C3632.22 2373.57 3632.77 2373.13 3633.35 2372.52L3639.13 2378.05C3638.29 2378.93 3637.25 2379.81 3636.66 2380.34C3635.96 2380.98 3635.55 2381.42 3635.28 2381.83L3628.59 2377.44ZM3633.35 2372.52C3634.89 2370.91 3636.67 2369.37 3638.31 2368.06L3643.3 2374.3C3641.83 2375.48 3640.34 2376.78 3639.13 2378.05L3633.35 2372.52ZM3638.31 2368.06C3638.58 2367.84 3638.94 2367.38 3639.41 2366.33C3639.64 2365.82 3639.84 2365.29 3640.1 2364.64C3640.34 2364.03 3640.63 2363.3 3640.98 2362.6L3648.16 2366.13C3647.97 2366.51 3647.78 2366.97 3647.54 2367.59C3647.31 2368.16 3647.02 2368.9 3646.7 2369.61C3646.07 2371.02 3645.08 2372.88 3643.3 2374.3L3638.31 2368.06ZM3640.98 2362.6C3640.91 2362.75 3640.62 2363.43 3640.88 2364.37C3641.15 2365.32 3641.77 2365.81 3642.02 2365.96C3642.24 2366.1 3642.32 2366.09 3642.09 2366.03C3641.89 2365.99 3641.59 2365.94 3641.17 2365.91C3639.35 2365.77 3637.26 2365.99 3636.09 2366.05L3635.69 2358.06C3636.21 2358.04 3639.28 2357.74 3641.79 2357.93C3642.93 2358.02 3644.78 2358.25 3646.27 2359.19C3647.13 2359.73 3648.16 2360.69 3648.59 2362.23C3649.02 2363.76 3648.64 2365.14 3648.16 2366.13L3640.98 2362.6ZM3636.09 2366.05C3634.11 2366.15 3631.82 2366.87 3629.21 2368C3627.93 2368.55 3626.65 2369.17 3625.34 2369.81C3624.06 2370.44 3622.72 2371.11 3621.44 2371.69L3618.13 2364.41C3619.27 2363.89 3620.47 2363.29 3621.82 2362.63C3623.14 2361.98 3624.57 2361.29 3626.03 2360.66C3628.91 2359.41 3632.26 2358.24 3635.69 2358.06L3636.09 2366.05ZM3621.44 2371.69C3620.01 2372.34 3618.58 2372.82 3617.29 2373.23C3615.93 2373.66 3614.84 2373.97 3613.67 2374.39L3611.01 2366.84C3612.34 2366.37 3613.75 2365.96 3614.88 2365.6C3616.08 2365.22 3617.14 2364.86 3618.13 2364.41L3621.44 2371.69ZM3613.67 2374.39C3613.1 2374.59 3612.5 2374.65 3612.39 2374.66C3612.12 2374.69 3611.81 2374.72 3611.52 2374.74C3610.98 2374.78 3610.17 2374.83 3609.6 2374.87C3608.93 2374.92 3608.44 2374.96 3608.15 2375.01C3607.95 2375.03 3608.11 2375.03 3608.4 2374.93C3608.41 2374.92 3609.18 2374.69 3609.87 2373.96C3610.29 2373.51 3610.89 2372.64 3610.94 2371.39C3610.98 2370.12 3610.43 2369.2 3610.01 2368.71L3603.89 2373.86C3603.46 2373.34 3602.9 2372.4 3602.94 2371.11C3602.99 2369.83 3603.6 2368.94 3604.04 2368.47C3604.77 2367.7 3605.62 2367.42 3605.74 2367.38C3606.25 2367.2 3606.76 2367.12 3607.01 2367.09C3607.61 2367 3608.38 2366.94 3609.03 2366.89C3609.78 2366.84 3610.33 2366.81 3610.91 2366.76C3611.17 2366.74 3611.36 2366.73 3611.47 2366.71C3611.75 2366.68 3611.44 2366.69 3611.01 2366.84L3613.67 2374.39Z" fill="#6F432E"/>
<path d="M3711.1 2399.1C3711.42 2395.19 3711.07 2390.18 3710.15 2386.4C3710.41 2385.45 3704.75 2388.73 3703.82 2388.98C3701.6 2389.6 3699.65 2391.37 3697.52 2392.14C3693.95 2393.43 3690.52 2396.07 3687.41 2398.22C3684.59 2400.17 3680.54 2401.18 3679.69 2405.22C3679.12 2407.92 3680.32 2409.24 3683.03 2409.1C3686.34 2408.94 3689.22 2408.62 3692.38 2407.96C3695.93 2407.23 3699.37 2405.15 3702.81 2404.06C3706.2 2402.98 3710.74 2403.46 3711.1 2399.1Z" fill="#6F432E" stroke="#6F432E" stroke-width="8" stroke-linecap="round"/>
<path d="M3637.34 2425.35C3635.01 2421.94 3632.21 2418.84 3629.57 2415.7C3628.87 2415.39 3633.68 2413.32 3634.12 2413.04C3635.46 2412.2 3637.92 2412.62 3639.47 2412.03C3643.62 2410.46 3648.69 2408.91 3653.12 2408.68C3655.16 2408.58 3662.45 2407.89 3660.8 2412.17C3660.07 2414.07 3660.42 2416.6 3658.94 2418.24C3656.65 2420.77 3653.6 2422.95 3651.56 2425.71C3651 2426.47 3649.9 2427.86 3648.93 2427.96C3647.24 2428.14 3645.55 2428.4 3643.86 2428.54C3642.4 2428.66 3642.4 2429.27 3641.44 2430.1C3640.19 2431.18 3639.44 2430.47 3639.29 2429.1C3639.18 2428.04 3638 2426.31 3637.37 2425.39L3637.34 2425.35Z" fill="#6F432E" stroke="#6F432E" stroke-width="8" stroke-linecap="round"/>
<path d="M3794.03 2446.97C3791.76 2446.82 3789.45 2446.74 3787.2 2446.65C3784.07 2446.53 3781.05 2445.77 3777.89 2445.87C3776.53 2445.91 3775.15 2445.49 3773.8 2445.38C3772.07 2445.25 3770.28 2445.25 3768.55 2445.34C3766.85 2445.43 3765.43 2445.21 3763.77 2444.97C3762.25 2444.75 3760.69 2444.93 3759.15 2444.76C3755.4 2444.34 3751.69 2444.44 3747.97 2444.63C3745.25 2444.77 3742.83 2445.16 3740.22 2445.77C3739.49 2445.95 3738.55 2445.92 3737.86 2446.17C3737.21 2446.41 3736.75 2446.95 3736.04 2446.99C3734.94 2447.05 3732.83 2447.86 3731.98 2448.59C3731 2449.44 3730.26 2450.19 3729.94 2451.37C3729.51 2452.91 3728.51 2454.89 3727.73 2456.25C3725.95 2459.35 3725.34 2462.94 3723.97 2466.17C3722.59 2469.42 3720.85 2472.45 3719.43 2475.69C3717.76 2479.51 3715.82 2482.4 3712.62 2485.07C3707.64 2489.21 3700.45 2491.4 3694.34 2493.15C3689.13 2494.63 3683.89 2496.98 3678.52 2497.6C3673.65 2498.16 3668.45 2497.83 3663.65 2498.79C3660.38 2499.44 3657.18 2499.61 3653.9 2499.59C3652.8 2499.58 3651.66 2499.45 3650.51 2499.51C3649.3 2499.57 3648.08 2500.44 3647.08 2501.07C3644.36 2502.76 3642.69 2505.76 3641.07 2508.49C3640.09 2510.13 3639.26 2511.95 3637.98 2513.39C3636.5 2515.07 3634.66 2516.28 3633.2 2518.01C3632.43 2518.93 3632.19 2520.32 3631.3 2521.12C3629.73 2522.51 3628.14 2523.77 3626.49 2525.07L3626.49 2525.07C3624.18 2526.89 3621.9 2528.93 3619.93 2531.12C3618.09 2533.16 3615.53 2534.96 3614.16 2537.3C3613.68 2538.12 3612.69 2538.92 3612.55 2539.94C3612.42 2540.94 3614.86 2541.3 3615.39 2541.69C3615.79 2542 3616.62 2542.15 3617.12 2542.3C3618.58 2542.74 3619.63 2543.1 3620.91 2543.92C3622.43 2544.91 3624.04 2545.4 3625.76 2545.93L3625.78 2545.93C3630.08 2547.26 3634.99 2546.46 3639.4 2547C3641.19 2547.22 3643.2 2548 3644.85 2548.73C3647.37 2549.83 3650.59 2549.77 3653.27 2550.31C3654.89 2550.63 3656.59 2550.6 3658.23 2550.81C3661.31 2551.2 3664.05 2552.64 3667.2 2552.85C3670.72 2553.08 3674.03 2553.27 3677.56 2553.09C3682.62 2552.83 3687.96 2553.03 3692.95 2552.17C3697.89 2551.32 3702.84 2549.9 3707.59 2548.3C3714.17 2546.1 3720.97 2544.51 3727.55 2542.27C3732.91 2540.45 3737.83 2537.12 3742.69 2534.25C3746.32 2532.11 3750.06 2529.74 3753.35 2527.1C3755.02 2525.77 3756.66 2524.31 3758.21 2522.84C3759.78 2521.36 3760.95 2519.53 3762.48 2518.03C3763.9 2516.64 3764.89 2514.81 3766.18 2513.31C3767.8 2511.41 3769.36 2509.5 3770.93 2507.56C3772.66 2505.43 3774.3 2503.27 3776.13 2501.22C3777.62 2499.54 3778.46 2497.47 3779.66 2495.6C3780.92 2493.66 3782.03 2492.05 3782.43 2489.75C3782.71 2488.15 3783.26 2486.57 3783.59 2484.98C3784.38 2481.09 3784.75 2477.14 3786.06 2473.36C3787.35 2469.64 3789.62 2466.33 3791.18 2462.76C3791.7 2461.58 3792.11 2460.44 3792.43 2459.24C3792.8 2457.84 3794.18 2456.55 3794.41 2455.19C3794.71 2453.45 3795.85 2451.93 3796.38 2450.26C3796.57 2449.62 3796.69 2449.02 3796.95 2448.41C3797.2 2447.86 3796.06 2447.29 3795.11 2447.05C3794.65 2446.94 3794.23 2446.9 3794.03 2446.97Z" fill="#6F432E"/>
<path d="M3796.53 2447.18C3793.47 2446.88 3790.28 2446.77 3787.2 2446.65C3784.07 2446.53 3781.05 2445.77 3777.89 2445.87C3776.53 2445.91 3775.15 2445.49 3773.8 2445.38C3772.07 2445.25 3770.28 2445.25 3768.55 2445.34C3766.85 2445.43 3765.43 2445.21 3763.77 2444.97C3762.25 2444.75 3760.69 2444.93 3759.15 2444.76C3755.4 2444.34 3751.69 2444.44 3747.97 2444.63C3745.25 2444.77 3742.83 2445.16 3740.22 2445.77C3739.49 2445.95 3738.55 2445.92 3737.86 2446.17C3737.21 2446.41 3736.75 2446.95 3736.04 2446.99C3734.94 2447.05 3732.83 2447.86 3731.98 2448.59C3731 2449.44 3730.26 2450.19 3729.94 2451.37C3729.51 2452.91 3728.51 2454.89 3727.73 2456.25C3725.95 2459.35 3725.34 2462.94 3723.97 2466.17C3722.59 2469.42 3720.85 2472.45 3719.43 2475.69C3717.76 2479.51 3715.82 2482.4 3712.62 2485.07C3707.64 2489.21 3700.45 2491.4 3694.34 2493.15C3689.13 2494.63 3683.89 2496.98 3678.52 2497.6C3673.65 2498.16 3668.45 2497.83 3663.65 2498.79C3660.38 2499.44 3657.18 2499.61 3653.9 2499.59C3652.8 2499.58 3651.66 2499.45 3650.51 2499.51C3649.3 2499.57 3648.08 2500.44 3647.08 2501.07C3644.36 2502.76 3642.69 2505.76 3641.07 2508.49C3640.09 2510.13 3639.26 2511.95 3637.98 2513.39C3636.5 2515.07 3634.66 2516.28 3633.2 2518.01C3632.43 2518.93 3632.19 2520.32 3631.3 2521.12C3629.73 2522.51 3628.13 2523.78 3626.49 2525.07C3624.18 2526.89 3621.9 2528.93 3619.93 2531.12C3618.09 2533.16 3615.53 2534.96 3614.16 2537.3C3613.68 2538.12 3612.69 2538.92 3612.55 2539.94C3612.42 2540.94 3614.86 2541.3 3615.39 2541.69C3615.79 2542 3616.62 2542.15 3617.12 2542.3C3618.58 2542.74 3619.63 2543.1 3620.91 2543.92C3622.44 2544.91 3624.06 2545.41 3625.78 2545.93C3630.08 2547.26 3634.99 2546.46 3639.4 2547C3641.19 2547.22 3643.2 2548 3644.85 2548.73C3647.37 2549.83 3650.59 2549.77 3653.27 2550.31C3654.89 2550.63 3656.59 2550.6 3658.23 2550.81C3661.31 2551.2 3664.05 2552.64 3667.2 2552.85C3670.72 2553.08 3674.03 2553.27 3677.56 2553.09C3682.62 2552.83 3687.96 2553.03 3692.95 2552.17C3697.89 2551.32 3702.84 2549.9 3707.59 2548.3C3714.17 2546.1 3720.97 2544.51 3727.55 2542.27C3732.91 2540.45 3737.83 2537.12 3742.69 2534.25C3746.32 2532.11 3750.06 2529.74 3753.35 2527.1C3755.02 2525.77 3756.66 2524.31 3758.21 2522.84C3759.78 2521.36 3760.95 2519.53 3762.48 2518.03C3763.9 2516.64 3764.89 2514.81 3766.18 2513.31C3767.8 2511.41 3769.36 2509.5 3770.93 2507.56C3772.66 2505.43 3774.3 2503.27 3776.13 2501.22C3777.62 2499.54 3778.46 2497.47 3779.66 2495.6C3780.92 2493.66 3782.03 2492.05 3782.43 2489.75C3782.71 2488.15 3783.26 2486.57 3783.59 2484.98C3784.38 2481.09 3784.75 2477.14 3786.06 2473.36C3787.35 2469.64 3789.62 2466.33 3791.18 2462.76C3791.7 2461.58 3792.11 2460.44 3792.43 2459.24C3792.8 2457.84 3794.18 2456.55 3794.41 2455.19C3794.71 2453.45 3795.85 2451.93 3796.38 2450.26C3796.57 2449.62 3796.69 2449.02 3796.95 2448.41C3797.4 2447.4 3793.26 2446.36 3794.01 2447.31" stroke="#6F432E" stroke-width="8" stroke-linecap="round"/>
<path d="M3708.29 2434.1C3705.54 2438.14 3704.61 2443.46 3701.31 2447.11C3699.02 2449.65 3696.5 2453.21 3692.56 2452.7C3691.87 2452.61 3691.24 2452.12 3690.74 2451.67C3689.98 2450.99 3690.09 2450.37 3689.7 2449.59C3688.68 2447.58 3690.61 2445.39 3691.87 2443.96C3693.83 2441.73 3695.92 2440.09 3698.33 2438.37C3700.09 2437.11 3702.88 2436.38 3704.31 2434.8" stroke="#6F432E" stroke-width="8" stroke-linecap="round"/>
<path d="M3658.84 2456.41C3658.01 2456.29 3657.9 2455.88 3658.84 2456.41C3658.85 2456.41 3658.86 2456.41 3658.87 2456.41C3659.82 2456.54 3660.43 2456.88 3661.31 2457.17C3661.57 2457.25 3661.83 2457.33 3662.09 2457.39C3664.47 2457.97 3667.22 2457.76 3669.59 2457.64C3671.65 2457.54 3673.71 2457.94 3675.73 2457.38C3676.39 2457.2 3678.59 2456.37 3677.94 2455.21C3677.08 2453.7 3673.77 2454.17 3672.42 2454.23C3669.83 2454.37 3667.01 2454.84 3664.76 2456.25C3663.98 2456.75 3663.03 2457.16 3662.09 2457.39C3661.83 2457.33 3661.57 2457.25 3661.31 2457.17C3660.43 2456.88 3659.82 2456.54 3658.87 2456.41C3658.86 2456.41 3658.85 2456.41 3658.84 2456.41Z" fill="#6F432E"/>
<path d="M3659.25 2456.66C3657.87 2455.76 3657.91 2456.29 3658.87 2456.41C3659.82 2456.54 3660.43 2456.88 3661.31 2457.17C3663.86 2458.01 3666.95 2457.77 3669.59 2457.64C3671.65 2457.54 3673.71 2457.94 3675.73 2457.38C3676.39 2457.2 3678.59 2456.37 3677.94 2455.21C3677.08 2453.7 3673.77 2454.17 3672.42 2454.23C3669.83 2454.37 3667.01 2454.84 3664.76 2456.25C3663.64 2456.96 3662.15 2457.52 3660.86 2457.58C3659.75 2457.64 3656.44 2457.81 3657.55 2457.75" stroke="#6F432E" stroke-width="8" stroke-linecap="round"/>
<path d="M3621.1 2462.66C3621.1 2459.42 3618.1 2458.1 3615.37 2458.47C3614.46 2460 3612.01 2458.52 3610.3 2458.8C3607.06 2459.33 3602.2 2460.53 3599.72 2462.86C3593.2 2468.96 3585.68 2473.77 3579.57 2480.34C3578.14 2481.88 3576.37 2483.12 3575.03 2484.79C3573.51 2486.68 3571.98 2488.68 3570.19 2490.3C3567.34 2492.87 3563.75 2495.68 3562.06 2499.13C3561.27 2500.73 3563.16 2503.72 3564.18 2504.85C3565.88 2506.72 3567.7 2507.98 3569.22 2510.12C3571.66 2513.56 3575.86 2515.3 3579.27 2517.53C3581.5 2518.99 3583.95 2522.27 3585.88 2519.6C3586.31 2518.99 3586.59 2517.33 3586.9 2516.52C3587.58 2514.73 3589.22 2513.47 3590.11 2511.82C3592.12 2508.13 3595.07 2504.17 3597.79 2500.97C3599.18 2499.33 3600.14 2496.4 3601.05 2494.4C3602.19 2491.92 3603.23 2489.43 3604.33 2486.92C3606.67 2481.58 3609.69 2475.78 3613.58 2471.38C3614.96 2469.81 3616.08 2468.3 3617.66 2466.94C3618.76 2466.01 3621.1 2464.22 3621.1 2462.66Z" fill="#6F432E"/>
<path d="M3614.68 2458.6C3617.56 2457.88 3621.1 2459.14 3621.1 2462.66C3621.1 2464.22 3618.76 2466.01 3617.66 2466.94C3616.08 2468.3 3614.96 2469.81 3613.58 2471.38C3609.69 2475.78 3606.67 2481.58 3604.33 2486.92C3603.23 2489.43 3602.19 2491.92 3601.05 2494.4C3600.14 2496.4 3599.18 2499.33 3597.79 2500.97C3595.07 2504.17 3592.12 2508.13 3590.11 2511.82C3589.22 2513.47 3587.58 2514.73 3586.9 2516.52C3586.59 2517.33 3586.31 2518.99 3585.88 2519.6C3583.95 2522.27 3581.5 2518.99 3579.27 2517.53C3575.86 2515.3 3571.66 2513.56 3569.22 2510.12C3567.7 2507.98 3565.88 2506.72 3564.18 2504.85C3563.16 2503.72 3561.27 2500.73 3562.06 2499.13C3563.75 2495.68 3567.34 2492.87 3570.19 2490.3C3571.98 2488.68 3573.51 2486.68 3575.03 2484.79C3576.37 2483.12 3578.14 2481.88 3579.57 2480.34C3585.68 2473.77 3593.2 2468.96 3599.72 2462.86C3602.2 2460.53 3607.06 2459.33 3610.3 2458.8C3612.01 2458.52 3614.46 2460 3615.37 2458.47" stroke="#6F432E" stroke-width="8" stroke-linecap="round"/>
<path d="M3588.56 2411.7C3588.51 2411.53 3588.45 2411.37 3588.37 2411.22C3587.45 2408.78 3586.65 2406.26 3584.6 2406.37C3580.55 2406.57 3576.81 2406.07 3572.94 2407.24C3570.56 2407.97 3568.6 2409.25 3566.52 2410.58C3564.19 2412.07 3562.49 2414.83 3559.93 2415.95C3556.36 2417.51 3552.55 2419.46 3549.15 2421.33C3547.55 2422.21 3545.55 2423.66 3544.29 2424.95C3542.23 2427.09 3539.86 2428.59 3537.54 2430.42C3536.14 2431.53 3533.66 2433.91 3531.89 2434.28C3530.46 2434.58 3531.94 2436.29 3532.31 2436.98C3536.5 2444.79 3538.47 2453.09 3540.79 2461.62C3541.08 2462.69 3543.21 2472.34 3544.61 2472.02C3547.15 2471.42 3548.41 2467.57 3549.95 2465.87C3553.07 2462.42 3556.18 2459.01 3559.3 2455.56C3561.85 2452.73 3564.16 2449.8 3566.73 2446.96C3572.33 2440.75 3575.28 2432.77 3580.53 2426.3C3583.29 2422.9 3585.46 2418.74 3587.76 2415.01C3588.29 2414.14 3588.83 2412.79 3588.56 2411.7Z" fill="#6F432E"/>
<path d="M3584.36 2408.94C3586.39 2409.49 3587.27 2409.44 3588.31 2411.12C3589.03 2412.27 3588.39 2413.98 3587.76 2415.01C3585.46 2418.74 3583.29 2422.9 3580.53 2426.3C3575.28 2432.77 3572.33 2440.75 3566.73 2446.96C3564.16 2449.8 3561.85 2452.73 3559.3 2455.56C3556.18 2459.01 3553.07 2462.42 3549.95 2465.87C3548.41 2467.57 3547.15 2471.42 3544.61 2472.02C3543.21 2472.34 3541.08 2462.69 3540.79 2461.62C3538.47 2453.09 3536.5 2444.79 3532.31 2436.98C3531.94 2436.29 3530.46 2434.58 3531.89 2434.28C3533.66 2433.91 3536.14 2431.53 3537.54 2430.42C3539.86 2428.59 3542.23 2427.09 3544.29 2424.95C3545.55 2423.66 3547.55 2422.21 3549.15 2421.33C3552.55 2419.46 3556.36 2417.51 3559.93 2415.95C3562.49 2414.83 3564.19 2412.07 3566.52 2410.58C3568.6 2409.25 3570.56 2407.97 3572.94 2407.24C3576.81 2406.07 3580.55 2406.57 3584.6 2406.37C3586.79 2406.26 3587.55 2409.13 3588.56 2411.7" stroke="#6F432E" stroke-width="8" stroke-linecap="round"/>
<path d="M3569.43 2338.18C3568.36 2335.64 3565.32 2335.71 3562.93 2335.13C3562.16 2334.61 3557.11 2334.84 3556.09 2335.22C3551.78 2336.81 3547.37 2338.35 3542.88 2339.44C3538.72 2340.46 3534.5 2341.5 3530.53 2343.12C3526.58 2344.73 3523.12 2347.5 3519.14 2348.9C3517.35 2349.53 3517.36 2349.95 3517.46 2351.79L3517.78 2358.17C3517.95 2361.49 3518 2365.23 3518.75 2368.46C3519.62 2372.23 3520.17 2376.51 3520.37 2380.37C3520.7 2386.9 3521.4 2393.36 3521.73 2399.89C3521.83 2401.9 3521.77 2405.97 3524.63 2403.38C3527.24 2401.01 3529.37 2398.08 3532.51 2396.21C3536.98 2393.55 3540.72 2389.05 3544.19 2385.22C3546.21 2382.98 3548.57 2381.02 3550.65 2378.83C3553.15 2376.2 3554.96 2373.54 3557.1 2370.62C3560.33 2366.22 3562.94 2361.45 3565.79 2356.83C3567.99 2353.25 3569.3 2349.49 3570.62 2345.63C3571.41 2343.34 3570.32 2340.3 3569.43 2338.18Z" fill="#6F432E"/>
<path d="M3562.69 2335.07C3565.11 2335.72 3568.32 2335.55 3569.43 2338.18C3570.32 2340.3 3571.41 2343.34 3570.62 2345.63C3569.3 2349.49 3567.99 2353.25 3565.79 2356.83C3562.94 2361.45 3560.33 2366.22 3557.1 2370.62C3554.96 2373.54 3553.15 2376.2 3550.65 2378.83C3548.57 2381.02 3546.21 2382.98 3544.19 2385.22C3540.72 2389.05 3536.98 2393.55 3532.51 2396.21C3529.37 2398.08 3527.24 2401.01 3524.63 2403.38C3521.77 2405.97 3521.83 2401.9 3521.73 2399.89C3521.4 2393.36 3520.7 2386.9 3520.37 2380.37C3520.17 2376.51 3519.62 2372.23 3518.75 2368.46C3518 2365.23 3517.95 2361.49 3517.78 2358.17C3517.67 2356.04 3517.56 2353.92 3517.46 2351.79C3517.36 2349.95 3517.35 2349.53 3519.14 2348.9C3523.12 2347.5 3526.58 2344.73 3530.53 2343.12C3534.5 2341.5 3538.72 2340.46 3542.88 2339.44C3547.37 2338.35 3551.78 2336.81 3556.09 2335.22C3557.11 2334.84 3562.16 2334.61 3562.93 2335.13" stroke="#6F432E" stroke-width="8" stroke-linecap="round"/>
<path d="M3687.36 1893.31C3687.93 1887.59 3688.32 1881.27 3687.11 1875.61C3687.89 1873.14 3682.83 1881.2 3682.49 1881.71C3681.41 1883.31 3679.26 1884.91 3677.76 1886.16C3673.41 1889.78 3669.79 1894.22 3664.8 1897.04C3660.59 1899.42 3657.42 1904.24 3654.21 1907.8C3651.12 1911.21 3649.09 1915.43 3645.78 1918.69C3642.48 1921.94 3640.72 1925.56 3639.24 1929.89C3637.82 1934.02 3634.71 1939.51 3637.62 1943.67C3639.71 1946.65 3643.29 1947.14 3645.95 1949.3C3648.38 1951.27 3652.02 1950.15 3654.65 1949.39C3658 1948.42 3662.28 1948.92 3665.78 1948.74C3670.5 1948.5 3676.45 1949.07 3680.91 1947.42C3684.64 1946.04 3688.37 1944.63 3692.24 1943.72C3694.84 1943.11 3695.07 1940.44 3693.77 1938.36C3693.27 1937.55 3693.53 1936.2 3693.44 1935.27C3693.27 1933.71 3692.81 1931.98 3692.54 1930.39C3692.28 1928.86 3692.66 1926.85 3692.12 1925.38C3691.31 1923.16 3690.95 1920.47 3690.74 1918.13C3690.32 1913.62 3688.31 1909.69 3687.61 1905.29C3687 1901.54 3686.99 1897.1 3687.36 1893.31Z" fill="#6F432E" stroke="#6F432E" stroke-width="8" stroke-linecap="round"/>
<path d="M3711.59 1990.3C3711.39 1984.3 3711.39 1977.98 3710.3 1972.08C3710.93 1971.03 3704.82 1974.03 3704.38 1974.41C3702.98 1975.62 3700.92 1976.63 3699.28 1977.56C3695.56 1979.66 3692.6 1983.21 3688.72 1984.96C3686.99 1985.75 3685.44 1987.52 3683.66 1988.06C3681.82 1988.62 3680 1990.04 3678.37 1991.07C3675.55 1992.85 3673.1 1995.18 3670.26 1996.97C3669.11 1997.7 3668.18 1999.09 3667 1999.6C3665.4 2000.28 3663.62 2001.66 3662.19 2002.68C3659.68 2004.49 3655.3 2007.56 3654.87 2010.9C3654.27 2015.55 3655.61 2020.78 3660.46 2022.07C3663.64 2022.92 3666.69 2024.21 3669.84 2025.15C3673.58 2026.28 3677.24 2026.42 3681.1 2026.88C3685.66 2027.42 3690.08 2027.97 3694.68 2027.73C3697.46 2027.59 3700.27 2027.81 3703.08 2027.67C3706.1 2027.52 3709.31 2027.44 3712.25 2028.1C3713.9 2028.47 3716.5 2029.37 3716.39 2027.2C3716.31 2025.64 3716.28 2024.14 3715.87 2022.63C3715.32 2020.58 3715 2018.54 3714.38 2016.51C3713.7 2014.28 3713.05 2012.04 3712.42 2009.78C3711.52 2006.59 3711.86 2002.75 3711.69 1999.44C3711.53 1996.38 3711.69 1993.34 3711.59 1990.3Z" fill="#6F432E" stroke="#6F432E" stroke-width="8" stroke-linecap="round"/>
<path d="M3550.95 1997.44C3547.16 1987.75 3542.44 1978.53 3538.64 1968.82C3538.89 1968.33 3540.94 1969.55 3541.58 1969.84C3545.96 1971.75 3550.28 1974.67 3554.37 1977.23C3562.42 1982.28 3570.54 1987.17 3579.07 1991.36C3580.56 1992.09 3582.2 1992.25 3583.79 1992.69C3586.43 1993.42 3588.9 1994.71 3591.53 1995.46C3594.48 1996.31 3597.37 1998.05 3600.34 1998.59C3602.73 1999.02 3606.4 2000.16 3608.49 2001.45C3611.54 2003.33 3614.51 2006.25 3616.92 2008.92C3618.14 2010.28 3619.2 2011.28 3620.02 2012.89C3621.55 2015.86 3620.53 2017.76 3618.76 2020.05C3617.13 2022.16 3612.19 2022.41 3609.83 2022.53L3609.73 2022.54C3605.53 2022.75 3601.3 2022.68 3597.29 2022.44C3592.09 2022.13 3586.95 2019.49 3581.7 2019.57C3580.34 2019.59 3578.48 2019.28 3577.17 2018.87C3574.34 2017.98 3571.35 2017.09 3568.56 2016.05C3565.34 2014.86 3561.95 2014.11 3558.78 2012.87C3557.02 2012.18 3556.76 2012.19 3556.08 2010.47C3554.38 2006.11 3552.65 2001.8 3550.95 1997.44Z" fill="#6F432E"/>
<path d="M3538.6 1968.73C3542.41 1978.47 3547.15 1987.72 3550.95 1997.44C3552.65 2001.8 3554.38 2006.11 3556.08 2010.47C3556.76 2012.19 3557.02 2012.18 3558.78 2012.87C3561.95 2014.11 3565.34 2014.86 3568.56 2016.05C3571.35 2017.09 3574.34 2017.98 3577.17 2018.87C3578.48 2019.28 3580.34 2019.59 3581.7 2019.57C3586.95 2019.49 3592.09 2022.13 3597.29 2022.44C3601.3 2022.68 3605.53 2022.75 3609.73 2022.54C3612.04 2022.42 3617.1 2022.2 3618.76 2020.05C3620.53 2017.76 3621.55 2015.86 3620.02 2012.89C3619.2 2011.28 3618.14 2010.28 3616.92 2008.92C3614.51 2006.25 3611.54 2003.33 3608.49 2001.45C3606.4 2000.16 3602.73 1999.02 3600.34 1998.59C3597.37 1998.05 3594.48 1996.31 3591.53 1995.46C3588.9 1994.71 3586.43 1993.42 3583.79 1992.69C3582.2 1992.25 3580.56 1992.09 3579.07 1991.36C3570.54 1987.17 3562.42 1982.28 3554.37 1977.23C3550.28 1974.67 3545.96 1971.75 3541.58 1969.84C3540.72 1969.46 3537.38 1967.42 3539.09 1969.96" stroke="#6F432E" stroke-width="8" stroke-linecap="round"/>
<path d="M3609.03 2001.73C3608.84 1999.15 3606.95 1998.17 3604.78 1997.11C3601.89 1995.69 3599.06 1994.01 3596.15 1992.51C3589.6 1989.12 3582.1 1987.13 3575.17 1984.63C3572.44 1983.65 3569.97 1982.01 3567.38 1980.8C3565.27 1979.82 3563.07 1979.05 3561 1978.02C3558.25 1976.65 3554.96 1975.76 3552.04 1974.79C3550.31 1974.22 3548.04 1974 3546.5 1973.08" stroke="#6F432E" stroke-width="8" stroke-linecap="round"/>
<path d="M3521.18 1987.37C3518.79 1981.9 3515.17 1968.28 3515.25 1969.92C3511.67 1978.1 3507.45 1990.79 3503.27 1998.77C3502.02 2001.15 3500.93 2003.52 3499.52 2005.82C3497.76 2008.73 3496.7 2011.92 3495.04 2014.85C3493.63 2017.35 3493.05 2020.26 3491.61 2022.77C3490.08 2025.41 3489.97 2028.16 3488.91 2030.89C3486.74 2036.46 3485.64 2042.09 3485.94 2048.05C3486.16 2052.38 3485.96 2057.71 3488.17 2061.63C3490 2064.85 3492.89 2065.78 3496.34 2065.6C3499.26 2065.45 3503.64 2063.93 3505.85 2062.03C3508.75 2059.53 3511.88 2057.05 3514.49 2054.15C3516.83 2051.56 3518.25 2049.02 3519.66 2045.8C3522.77 2038.69 3527.1 2031.79 3530.76 2024.8C3531.84 2022.75 3532.7 2020.28 3533.43 2018.08C3533.95 2016.5 3533.3 2016.28 3532.92 2014.92C3531.9 2011.2 3530.25 2007.61 3528.87 2003.97C3526.73 1998.32 3523.6 1992.92 3521.18 1987.37Z" fill="#6F432E" stroke="#6F432E" stroke-width="8" stroke-linecap="round"/>
<path d="M3513.86 1915.33C3512.6 1910.12 3509.72 1903.52 3506.72 1899.12C3506.68 1898.18 3511.24 1901.77 3512 1902.24C3513.6 1903.23 3515.46 1903.94 3517.24 1904.53C3521.88 1906.08 3526.92 1906.94 3531.66 1908.15C3539.64 1910.19 3547.95 1910.89 3555.91 1913.17C3559.84 1914.3 3563.59 1914.9 3567.66 1915.14C3569.31 1915.23 3571.04 1915.06 3572.67 1915.43C3574.76 1915.91 3576.77 1917.39 3578.63 1918.42C3582.45 1920.53 3586.05 1923.22 3587.88 1927.28C3589.2 1930.21 3590.09 1932.17 3588.09 1934.95C3587.55 1935.7 3584.52 1936.44 3583.63 1936.82C3582.09 1937.47 3580.49 1938.1 3578.84 1938.49C3576.87 1938.95 3574.56 1938.74 3572.56 1938.84C3571.25 1938.91 3569.76 1939.18 3568.46 1938.97C3565.31 1938.48 3562.3 1938.65 3559.26 1937.77C3557.15 1937.16 3555.06 1936.61 3552.95 1936.1C3551.4 1935.73 3549.78 1935.98 3548.18 1935.77C3545.39 1935.42 3542.77 1935.65 3540.04 1934.73C3537.84 1933.98 3535.06 1934.18 3532.73 1934C3530.11 1933.8 3525.22 1934.73 3523.16 1932.66C3521.61 1931.11 3520.92 1928.83 3519.31 1927.29C3516.46 1924.56 3514.75 1918.99 3513.86 1915.33Z" fill="#6F432E" stroke="#6F432E" stroke-width="8" stroke-linecap="round"/>
<path d="M3484.26 1902.95C3483.56 1901.01 3483.72 1899.89 3481.35 1899.95C3480.49 1898.44 3478.53 1901.61 3478.11 1902.68C3477.56 1904.11 3476.74 1905.43 3476.21 1906.88C3474.59 1911.34 3472.23 1915.52 3470.85 1920.07C3468.07 1929.23 3463.57 1937.67 3459.75 1946.4C3457.41 1951.75 3455.76 1957.07 3453.97 1962.62C3452.6 1966.87 3450.35 1972.12 3450.5 1976.66C3450.57 1978.76 3450.49 1981.02 3451.11 1983.05C3451.61 1984.69 3451.98 1984.81 3453.16 1985.87C3455.23 1987.74 3456.7 1987.52 3459.37 1987.38C3463.4 1987.18 3467.18 1983.83 3469.74 1981C3470.77 1979.86 3471.67 1979.23 3472.59 1977.93C3474.19 1975.66 3475.85 1973.67 3477.08 1971.14C3478.73 1967.75 3481.22 1964.44 3483.75 1961.64C3487.09 1957.94 3489.19 1953.42 3491.5 1949.03C3492.66 1946.84 3493.92 1944.67 3495.01 1942.44C3495.77 1940.86 3497.58 1938.79 3497.49 1936.99C3497.37 1934.66 3497.24 1932.17 3496.24 1930.04C3494.94 1927.26 3492.93 1924.93 3491.7 1922.1C3490.29 1918.87 3489.3 1915.47 3487.82 1912.26C3486.44 1909.24 3485.39 1906.08 3484.26 1902.95Z" fill="#6F432E" stroke="#6F432E" stroke-width="8" stroke-linecap="round"/>
<path d="M3375.78 2033.77C3373.92 2032.02 3373.93 2029.41 3374.46 2026.43C3373.25 2026.1 3380.63 2025.41 3381.45 2025.35C3386.29 2025.02 3391.08 2023.87 3395.9 2023.52C3399.13 2023.28 3402.11 2021.49 3405.3 2021.21C3407.08 2021.06 3408.81 2020.3 3410.63 2020.21C3412.19 2020.13 3413.83 2020.18 3415.37 2019.95C3421.07 2019.09 3426.54 2018.92 3432.33 2019.09C3436.67 2019.22 3440.37 2019.54 3444.09 2021.8C3449.68 2025.19 3446.91 2032.24 3444.96 2036.94C3444.27 2038.61 3442.68 2039.7 3441.23 2040.68C3439.21 2042.06 3437.65 2043.83 3436.04 2045.62C3433.51 2048.42 3429.51 2051.39 3426.23 2053.25C3418.77 2057.46 3411.35 2061.44 3404.51 2066.6C3403.41 2067.44 3402.75 2068.88 3402.06 2067.11C3401.65 2066.07 3400.9 2065.16 3400.52 2064.04C3399.32 2060.52 3395.95 2057.26 3393.75 2054.35C3391.67 2051.6 3389.72 2048.63 3387.38 2046.1C3385.21 2043.76 3382.65 2041.62 3380.7 2039.1C3379.23 2037.2 3377.54 2035.41 3375.78 2033.77Z" fill="#6F432E" stroke="#6F432E" stroke-width="8" stroke-linecap="round"/>
<path d="M3421.24 2106C3419.83 2103.66 3418.21 2097.61 3416.18 2095.63C3416.22 2095.6 3416.26 2095.58 3416.3 2095.55C3417.64 2094.68 3418.78 2093.67 3420.19 2092.87C3423.87 2090.79 3427.89 2089.89 3431.83 2088.44C3433.9 2087.68 3435.89 2086.7 3437.94 2085.96C3439.87 2085.26 3441.54 2083.93 3443.48 2083.3C3446.29 2082.37 3449.64 2081.64 3452.26 2080.27C3456.2 2078.22 3459.5 2076.83 3464.09 2077.19C3467.93 2077.5 3470.47 2079.06 3473.04 2081.78C3476.37 2085.27 3474.07 2091.78 3472.35 2095.71C3471.23 2098.27 3469.86 2101.63 3468 2103.69C3465.33 2106.65 3462.62 2109.48 3459.93 2112.45C3457.13 2115.56 3453.55 2118.71 3450.17 2121.16C3448.37 2122.46 3446.97 2124.07 3445.08 2125.26C3443.51 2126.24 3442.09 2127.16 3440.64 2128.33C3439.91 2128.91 3436.52 2131.93 3435.93 2130.76C3435.23 2129.36 3433.85 2128.2 3432.97 2126.89C3432.05 2125.52 3431.71 2123.83 3431.01 2122.35C3429.3 2118.71 3427.33 2115.13 3425.35 2111.63C3424.2 2109.6 3422.44 2108 3421.24 2106Z" fill="#6F432E"/>
<path d="M3416.11 2095.56C3418.17 2097.46 3419.82 2103.63 3421.24 2106C3422.44 2108 3424.2 2109.6 3425.35 2111.63C3427.33 2115.13 3429.3 2118.71 3431.01 2122.35C3431.71 2123.83 3432.05 2125.52 3432.97 2126.89C3433.85 2128.2 3435.23 2129.36 3435.93 2130.76C3436.52 2131.93 3439.91 2128.91 3440.64 2128.33C3442.09 2127.16 3443.51 2126.24 3445.08 2125.26C3446.97 2124.07 3448.37 2122.46 3450.17 2121.16C3453.55 2118.71 3457.13 2115.56 3459.93 2112.45C3462.62 2109.48 3465.33 2106.65 3468 2103.69C3469.86 2101.63 3471.23 2098.27 3472.35 2095.71C3474.07 2091.78 3476.37 2085.27 3473.04 2081.78C3470.47 2079.06 3467.93 2077.5 3464.09 2077.19C3459.5 2076.83 3456.2 2078.22 3452.26 2080.27C3449.64 2081.64 3446.29 2082.37 3443.48 2083.3C3441.54 2083.93 3439.87 2085.26 3437.94 2085.96C3435.89 2086.7 3433.9 2087.68 3431.83 2088.44C3427.89 2089.89 3423.87 2090.79 3420.19 2092.87C3418.78 2093.67 3417.64 2094.68 3416.3 2095.55C3414.86 2096.48 3416.19 2095.5 3417 2094.86" stroke="#6F432E" stroke-width="8" stroke-linecap="round"/>
<path d="M3326.84 1957.92C3323.63 1953.49 3320.75 1948.68 3317.2 1944.5C3316.14 1943.25 3325.68 1944.43 3329.07 1944.26C3331.22 1944.15 3333.76 1944.14 3335.86 1944.56C3337.74 1944.95 3339.85 1945.85 3341.77 1945.81C3345.14 1945.73 3348.47 1947.02 3351.89 1947.1C3355.39 1947.18 3358.97 1946.76 3362.47 1946.59C3367.38 1946.34 3371.44 1947.11 3376 1948.38C3378.4 1949.05 3380.86 1949.6 3383.31 1950.08C3386.73 1950.75 3390.25 1951.02 3393.61 1951.95C3396.73 1952.82 3399.78 1953.34 3402.84 1954.41C3405.01 1955.17 3406.8 1956.93 3408.45 1958.51C3412.01 1961.92 3411.59 1971.78 3407.24 1974.75C3404.14 1976.87 3401.7 1980.09 3398.64 1982.26C3396.09 1984.07 3392.95 1985.84 3389.93 1986.8C3387.15 1987.69 3384.21 1988.72 3381.32 1989.13C3378.5 1989.53 3375.92 1991.13 3373.19 1991.94C3370.06 1992.87 3366.87 1993.73 3363.71 1994.51C3360.92 1995.21 3358.15 1995.32 3355.38 1996.24C3350.66 1997.8 3348.65 1991.92 3346.13 1988.95C3342.41 1984.54 3338.58 1979.46 3336.62 1973.95C3334.51 1968.03 3330.48 1962.94 3326.84 1957.92Z" fill="#6F432E" stroke="#6F432E" stroke-width="8" stroke-linecap="round"/>
<path d="M3461.05 1856.73C3459.3 1852.11 3456.7 1847.84 3455.06 1843.14C3453.89 1839.8 3448.07 1852.15 3446.14 1854.85C3443.71 1858.25 3441.34 1861.66 3439.07 1865.16C3436.43 1869.23 3435.61 1874.4 3433.37 1878.7C3431.35 1882.59 3428.38 1885.67 3425.86 1889.24C3423.24 1892.96 3419.5 1897.11 3419.65 1902.07C3419.78 1906.67 3419.01 1911.18 3419.25 1915.83C3419.4 1918.81 3420.68 1921.43 3423.67 1922.19C3424.31 1922.35 3424.97 1922.12 3425.61 1922.19C3426.45 1922.28 3427.12 1922.8 3428.01 1922.78C3429.09 1922.75 3430.44 1922.87 3431.48 1922.58C3434.46 1921.76 3437.09 1918.5 3438.85 1916.19C3440.69 1913.78 3442.71 1911.55 3444.32 1908.97C3446.19 1905.95 3447.37 1903.28 3449.77 1900.62C3452.88 1897.17 3456.2 1892.65 3458.27 1888.51C3458.8 1887.45 3459.55 1886.53 3460.13 1885.51C3460.85 1884.26 3461.05 1882.82 3461.76 1881.57C3463.09 1879.22 3463.66 1875.95 3464.64 1873.37C3465.29 1871.63 3466.76 1870.18 3465.85 1868.37C3465.56 1867.81 3465.23 1866 3464.8 1865.68C3464.42 1865.41 3463.48 1862.8 3463.36 1862.3C3462.89 1860.29 3461.77 1858.65 3461.05 1856.73Z" fill="#6F432E" stroke="#6F432E" stroke-width="8" stroke-linecap="round"/>
<path d="M3491.88 1862.44C3488.96 1853.89 3484.01 1846.07 3480.39 1837.83C3478.22 1835.3 3492.14 1842.13 3495.33 1843.7L3495.4 1843.73C3497.45 1844.74 3499.66 1845.41 3501.84 1846.09C3503.69 1846.66 3505.4 1847.75 3507.27 1848.35C3512.19 1849.91 3517.29 1850.96 3522.27 1852.34C3525.2 1853.16 3528.19 1853.62 3531.16 1854.27C3532.88 1854.64 3534.57 1855.64 3536.26 1856.2C3538.45 1856.93 3540.75 1857.76 3542.72 1858.98C3544.31 1859.97 3545.27 1860.85 3547.2 1861.21C3549.79 1861.71 3552.38 1862.28 3554.98 1862.73C3557.39 1863.15 3558.77 1863.93 3560.89 1865.14L3560.94 1865.17C3562.7 1866.18 3564.83 1867.08 3565.01 1869.37C3565.09 1870.35 3565.44 1871.91 3564.65 1872.66C3562.62 1874.59 3561.42 1874.67 3558.54 1874.82C3554.35 1875.03 3550.13 1874.88 3545.92 1875.1C3542.86 1875.25 3539.3 1875.63 3536.34 1874.65C3532.36 1873.33 3527.69 1873.83 3523.56 1873.47C3518.15 1872.99 3512.37 1872.67 3507.21 1870.76C3503.39 1869.35 3499.67 1867.77 3496.08 1866C3495.06 1865.5 3494.54 1864.36 3493.59 1863.69C3492.97 1863.26 3492.15 1863.25 3491.88 1862.44Z" fill="#6F432E" stroke="#6F432E" stroke-width="8" stroke-linecap="round"/>
<path d="M3449.46 1767.35C3447.75 1765.24 3449.33 1764.77 3450.96 1762.52C3450.85 1760.39 3466.24 1766.89 3474.26 1768.47C3477.21 1769.05 3480.2 1770.6 3482.91 1771.87C3485.9 1773.26 3489.06 1773.92 3491.99 1775.43C3496.5 1777.75 3502.19 1779.96 3505.61 1783.88C3506.83 1785.29 3508.95 1786.37 3510.72 1786.91C3512.72 1787.53 3514.85 1789.1 3516.73 1790.08C3518.81 1791.18 3520.73 1792.52 3522.78 1793.62L3522.81 1793.63C3524.22 1794.38 3526.63 1795.67 3527.51 1797.05C3528.34 1798.37 3529.23 1799.74 3529.91 1801.14C3530.71 1802.76 3530.21 1803.49 3530.29 1805.1C3530.43 1807.75 3524.2 1807.81 3522.35 1807.9L3505.85 1808.74C3503.46 1808.86 3501.24 1808.5 3498.91 1808C3496.34 1807.44 3493.47 1807.91 3490.86 1808.04C3485.04 1808.33 3479.24 1808.99 3473.45 1809.29C3470.41 1809.44 3467.88 1810.5 3466.07 1807.92C3464.48 1805.66 3463.48 1803.01 3462.04 1800.64C3459.74 1796.87 3459.45 1792.84 3458.59 1788.67C3457.54 1783.57 3456.64 1779.24 3454.14 1774.59C3452.71 1771.95 3451.38 1769.72 3449.46 1767.35Z" fill="#6F432E" stroke="#6F432E" stroke-width="8" stroke-linecap="round"/>
<path d="M3425.08 1785.78C3423.7 1783.34 3422.79 1777.45 3421.41 1778.28C3416.13 1782.1 3409.68 1790.29 3406.27 1797.17C3403.76 1802.26 3402.07 1807.23 3400.48 1812.63C3399.8 1814.9 3398.56 1816.94 3397.72 1819.15C3396.97 1821.11 3396.69 1823.02 3395.61 1824.86C3393.75 1828.04 3392.39 1833.47 3392.58 1837.17C3392.77 1840.99 3393.22 1844.36 3394.23 1848.01C3394.91 1850.49 3397.27 1852.55 3399.7 1853.34C3402.9 1854.39 3405.46 1853.14 3408.73 1852.8C3411.67 1852.5 3414.67 1849.74 3416.33 1847.5C3418.42 1844.66 3421.65 1842.8 3423.24 1839.61C3424.54 1837 3426.88 1833.81 3429.17 1832.02C3431.75 1830 3433.6 1824.76 3434.96 1821.85C3435.74 1820.17 3437.27 1818.74 3438.47 1817.36C3439.43 1816.26 3438.95 1815.33 3438.58 1813.98C3437.75 1810.96 3435.35 1808.54 3434.49 1805.41C3433.85 1803.12 3433.25 1800.71 3432.15 1798.6C3431.04 1796.47 3429.63 1794.4 3428.7 1792.18C3427.76 1789.95 3426.27 1787.89 3425.08 1785.78Z" fill="#6F432E" stroke="#6F432E" stroke-width="8" stroke-linecap="round"/>
<path d="M3411.85 1698.47C3408.84 1694.54 3408.7 1693.02 3409.73 1692.09C3411.82 1690.54 3414.07 1693.3 3415.68 1694.37C3418.53 1696.27 3421.71 1698.42 3424.89 1699.64C3426.29 1700.17 3427.3 1701.07 3428.37 1702.04C3429.14 1702.74 3430.45 1702.76 3431.32 1703.37C3433.93 1705.2 3436.7 1706.42 3439.68 1707.5C3443.68 1708.96 3447.25 1711.38 3451.28 1712.76C3454.65 1713.92 3457.91 1715.47 3461.05 1717.18C3464.16 1718.87 3466.1 1720.58 3467.82 1723.63C3468.68 1725.14 3469.1 1728.44 3468.04 1729.91C3467.39 1730.82 3468.04 1731.3 3466.57 1731.37C3464.62 1731.47 3462.72 1731.93 3460.75 1732.03C3456.77 1732.23 3452.93 1730.96 3448.9 1731.17C3443.96 1731.42 3439.07 1730.21 3434.16 1730.46C3432.61 1730.53 3428.69 1731.02 3427.78 1729.32C3427.29 1728.41 3426.76 1727.31 3426.01 1726.56C3425.26 1725.8 3425.36 1724.9 3424.87 1723.98C3423.01 1720.52 3421.35 1716.57 3419.92 1712.89C3417.97 1707.92 3415.11 1702.72 3411.85 1698.47Z" fill="#6F432E" stroke="#6F432E" stroke-width="8" stroke-linecap="round"/>
<path d="M3386.51 1712.03C3385.7 1708.28 3385.56 1700.41 3384.92 1700.77C3383.17 1701.76 3380.43 1711.07 3380.39 1712.87C3380.33 1716.41 3378.94 1719.82 3379.12 1723.38C3379.39 1728.76 3377.24 1733.85 3376.71 1739.14C3376.3 1743.23 3375.29 1747.54 3375.43 1751.64C3375.6 1756.45 3374.53 1764.71 3379 1767.84C3382.14 1770.03 3386.84 1765.73 3389.64 1764.52C3392.9 1763.1 3394.87 1759.12 3397.18 1756.55C3398.68 1754.89 3402.53 1752.17 3402.4 1749.63C3402.32 1748.03 3401 1746.35 3400.15 1745.01C3398.88 1742.99 3397.4 1741.07 3396.21 1738.97C3393.2 1733.65 3390.89 1727.59 3388.99 1721.78C3387.95 1718.57 3387.22 1715.33 3386.51 1712.03Z" fill="#6F432E" stroke="#6F432E" stroke-width="8" stroke-linecap="round"/>
<path d="M3293.57 1868.08C3291.62 1863.84 3289.26 1859.27 3286.71 1855.34C3285.33 1853.24 3297.94 1858.79 3299.34 1859.25C3302.87 1860.42 3306.72 1862.34 3310.48 1862.55C3314.47 1862.76 3318.71 1864.84 3322.53 1865.8C3328.39 1867.26 3334.39 1868.57 3340.07 1870.64C3343.49 1871.88 3346.42 1873.28 3350.03 1873.99C3354.05 1874.78 3356.67 1876.51 3360.29 1878.29C3364.48 1880.34 3372.26 1883.92 3372.92 1889.45C3373.27 1892.37 3373.75 1895.85 3372.08 1898.39C3370.03 1901.5 3365.95 1903.6 3362.33 1904.19C3357.17 1905.03 3351.89 1906.01 3346.75 1907.07C3340.78 1908.31 3334.43 1908.15 3328.35 1908.45C3323.65 1908.69 3318.93 1908.57 3314.21 1908.81C3312.87 1908.87 3311.49 1909.31 3310.53 1908.34C3309.68 1907.49 3309.35 1906.31 3308.81 1905.26C3307.18 1902.11 3305.4 1898.67 3304.02 1895.35C3302.39 1891.42 3301.37 1887.19 3300.01 1883.15C3298.99 1880.13 3298.27 1876.93 3297 1874.04C3296.06 1871.89 3294.54 1870.18 3293.57 1868.08Z" fill="#6F432E" stroke="#6F432E" stroke-width="8" stroke-linecap="round"/>
<path d="M3279.22 1805.07C3275.69 1797.23 3278.03 1787.7 3276.27 1779.44C3275.66 1776.54 3284.8 1784.36 3286.13 1784.79C3290.2 1786.09 3294.2 1786.58 3298.34 1787.46C3303.62 1788.58 3309.26 1788.66 3314.41 1790.3C3319.74 1791.99 3324.91 1793.39 3330.36 1794.61C3338.33 1796.39 3351.2 1800.2 3351.7 1810.06C3352.04 1816.58 3341.39 1818.28 3337 1819.33C3332.03 1820.51 3327.27 1821.46 3322.12 1821.73C3316.9 1821.99 3311.38 1821.95 3306.16 1821.79C3301.69 1821.64 3297.22 1820.76 3292.79 1820.64C3292.1 1820.61 3282.93 1821.26 3282.77 1820.94C3281.72 1818.87 3281.41 1815.83 3281.3 1813.56C3281.15 1810.68 3280.41 1807.71 3279.22 1805.07Z" fill="#6F432E" stroke="#6F432E" stroke-width="8" stroke-linecap="round"/>
<path d="M3654.73 1792.4C3651.66 1786.26 3646.35 1781.35 3644.68 1774.63C3644.58 1772.65 3640.52 1778.96 3639.47 1780.01C3637.55 1781.92 3635.23 1783.93 3633.15 1785.65C3630.29 1788.04 3627.87 1790.89 3624.96 1793.18C3621.99 1795.53 3619.08 1798.45 3616.49 1801.21C3614.29 1803.56 3612.39 1807.06 3611.08 1809.98C3609.39 1813.77 3608.14 1817.97 3606.1 1821.57C3603.27 1826.57 3600.83 1832.97 3601.13 1838.81C3601.26 1841.39 3601.72 1844.05 3602.33 1846.55C3602.76 1848.28 3603.3 1850.13 3604.51 1851.48C3606.8 1854 3606.94 1857.53 3610.2 1859.11C3613.58 1860.75 3617.13 1862.34 3620.94 1862.14C3622.74 1862.05 3624.41 1861.6 3626.22 1861.51C3628 1861.42 3630.43 1861.12 3632.14 1860.56C3633.99 1859.95 3636.36 1859.61 3638.3 1859.43C3640.11 1859.27 3641.77 1857.79 3643.6 1857.7C3645.31 1857.61 3647.43 1856.36 3649.14 1855.96L3649.3 1855.92C3651.01 1855.52 3653.04 1855.04 3654.58 1854.3C3662.57 1850.45 3671.97 1847.85 3678.13 1841.03C3679.73 1839.26 3674.29 1831.67 3673.82 1829.81C3672.41 1824.25 3668.63 1819.49 3666.72 1814.1C3666.08 1812.29 3664.64 1810.6 3663.69 1808.93C3662.51 1806.84 3661.53 1804.58 3660.44 1802.43C3658.7 1798.99 3656.46 1795.86 3654.73 1792.4Z" fill="#6F432E" stroke="#6F432E" stroke-width="8" stroke-linecap="round"/>
<path d="M3608.42 1726.73C3601.03 1717.52 3594.33 1707.66 3586.69 1698.57C3586.38 1698.19 3581.45 1706.3 3580.21 1707.68C3578.14 1709.97 3575.74 1711.88 3574.05 1714.49C3571.74 1718.06 3570.04 1721.37 3568.59 1725.38C3567.11 1729.45 3565.58 1733.18 3563.24 1736.84C3561.65 1739.33 3560.03 1741.98 3558.7 1744.61C3555.87 1750.2 3555.91 1756.48 3555.58 1762.53C3555.24 1768.79 3556.5 1780.35 3563.62 1782.68C3569.57 1784.63 3575.41 1782.7 3581.39 1781.31C3585.85 1780.28 3590.87 1779.25 3594.59 1776.44C3598.45 1773.52 3601.33 1769.07 3604.33 1765.34C3607.28 1761.66 3610.27 1758.08 3613.48 1754.63C3615.28 1752.69 3617.44 1751.12 3619.26 1749.22C3620.3 1748.12 3624.21 1745.94 3624.12 1744.22C3624 1741.91 3620.86 1739.56 3619.42 1738.03C3615.84 1734.26 3611.69 1730.79 3608.42 1726.73Z" fill="#6F432E" stroke="#6F432E" stroke-width="8" stroke-linecap="round"/>
<path d="M3538.47 1656.4C3535.62 1653.83 3533.3 1651.85 3529.75 1650.26C3528.05 1649.5 3527.23 1652.22 3526.88 1652.97C3525.38 1656.13 3523.87 1659.12 3522.6 1662.41C3519.98 1669.21 3515.29 1674.86 3511.98 1681.3C3507.14 1690.69 3501.53 1699.52 3502.08 1710.47C3502.25 1713.83 3503.63 1717.16 3506.2 1719.48C3508.19 1721.29 3510.55 1721.09 3513.04 1720.96C3515.89 1720.82 3518.63 1720.08 3521.15 1718.72C3523.56 1717.44 3525.49 1715.52 3527.87 1714.18C3531.62 1712.06 3533.77 1708.61 3536.57 1705.51C3539.67 1702.08 3543.17 1698.76 3546.6 1695.65C3550.23 1692.35 3553.09 1688.1 3555.59 1683.9C3557.02 1681.49 3558.62 1679.09 3559.9 1676.61C3560.49 1675.45 3560.26 1675.04 3559.31 1674.36C3557.54 1673.09 3555.94 1671.14 3554.28 1669.64C3552.95 1668.44 3551.48 1667.51 3549.98 1666.59C3548.7 1665.8 3547.87 1664.23 3546.78 1663.21C3545.31 1661.83 3544.05 1659.83 3542.33 1658.77C3541.09 1658 3539.52 1657.35 3538.47 1656.4Z" fill="#6F432E" stroke="#6F432E" stroke-width="8" stroke-linecap="round"/>
<path d="M3477.67 1654.65C3487.12 1647.6 3496.75 1640.85 3505.45 1632.84C3509.86 1630.56 3497.43 1628.8 3496.82 1627.98C3495.32 1625.96 3492.43 1625.45 3490.31 1624.39C3487.78 1623.11 3485.33 1621.89 3482.73 1620.75C3478.52 1618.9 3474.11 1617.81 3469.84 1616.16C3464.3 1614.02 3458.87 1611.51 3453.16 1609.82C3448.23 1608.35 3443.32 1606.48 3438.88 1603.88C3435.06 1601.63 3430.94 1600.74 3426.74 1599.54C3421.52 1598.05 3416.04 1596.91 3410.69 1596.04C3400.17 1594.34 3389.19 1592.33 3378.51 1592.5C3369.08 1592.64 3358.73 1597.46 3351.05 1602.65C3340.63 1609.69 3332.96 1619.41 3324.65 1628.61L3324.37 1628.92C3320.89 1632.78 3317.28 1636.77 3314.44 1641.12C3312.28 1644.41 3310.19 1647.49 3307.55 1650.41C3304.16 1654.16 3302.43 1658.65 3300.19 1663.1C3298.14 1667.17 3296.16 1671.2 3294.31 1675.38C3292.59 1679.26 3290.89 1683.24 3289.05 1687.07C3288.11 1689.03 3287.49 1691.07 3286.7 1693.1C3286.24 1694.28 3285.42 1695.45 3285.24 1696.71C3284.59 1701.09 3284.16 1705.04 3284.03 1709.43C3283.98 1711.1 3283.46 1712.7 3283.29 1714.34C3283.11 1715.99 3283.36 1717.59 3282.9 1719.22C3282.33 1721.3 3281.18 1723.75 3279.83 1725.41C3277.53 1728.22 3276.46 1732.8 3276.64 1736.34C3276.73 1738.12 3277.04 1737.37 3278.46 1737.71C3280.5 1738.21 3282.84 1737.77 3284.94 1737.67C3292.14 1737.3 3300.36 1738.9 3307.23 1740.92C3314.6 1743.09 3323.2 1741.58 3330.83 1741.19C3333.92 1741.03 3336.32 1738.28 3337.23 1735.46C3338.86 1730.38 3340.3 1725.64 3341.3 1720.38C3341.74 1718.05 3341.78 1715.36 3341.94 1712.99C3342.07 1710.93 3341.49 1708.79 3341.91 1706.76C3342.87 1702.06 3343.4 1696.98 3343.16 1692.2C3342.93 1687.65 3343.96 1682.71 3345.96 1678.59C3348.92 1672.5 3353.08 1668.08 3357.42 1662.99C3362.48 1657.06 3368.94 1651.51 3376.03 1648.19C3380.7 1646.01 3384.87 1644.82 3390.03 1644.56C3393.78 1644.36 3397.57 1644.61 3401.32 1644.75C3404.64 1644.88 3407.86 1645.84 3411.22 1645.67C3413.95 1645.54 3417.03 1645.67 3419.73 1646.05C3425.05 1646.82 3430.75 1649.02 3434.77 1652.52C3439.49 1656.63 3445.24 1659.38 3449.59 1663.8C3451.59 1665.84 3455.34 1665.18 3457.68 1663.98C3464.16 1660.66 3471.72 1659.09 3477.67 1654.65Z" fill="#6F432E" stroke="#6F432E" stroke-width="8" stroke-linecap="round"/>
<path d="M3504.71 1632.52C3504.56 1629.62 3503.41 1628.56 3500.79 1627.41C3498.2 1626.28 3495.54 1625.29 3492.94 1624.15C3490.8 1623.21 3488.21 1621.61 3486.59 1619.9C3485.61 1618.87 3484.22 1618.32 3482.95 1617.73C3480.9 1616.78 3479.13 1615.37 3477.01 1614.54C3470.02 1611.78 3462.33 1610.68 3455.08 1609.07C3448.54 1607.62 3444.09 1602.38 3437.7 1600.52C3429.28 1598.08 3420.77 1596.91 3412.16 1595.36C3410.36 1595.03 3408.58 1595.2 3406.77 1594.78C3404.28 1594.21 3401.78 1593.72 3399.29 1593.17C3394.97 1592.21 3390.71 1591.95 3386.32 1591.51C3381.66 1591.04 3376.58 1591.84 3371.9 1592.08C3366.54 1592.35 3361.43 1593.2 3356.15 1593.98C3348.88 1595.04 3342.32 1599.48 3335.62 1602.17C3329.35 1604.69 3325.43 1610.5 3320.19 1614.46C3317.62 1616.4 3314.94 1619.24 3312.9 1621.77C3311.4 1623.65 3309.85 1625.51 3308.56 1627.54C3302.29 1637.42 3294.85 1646.96 3291.89 1658.52C3290.5 1663.96 3289.53 1669.52 3286.95 1674.54C3285.58 1677.23 3285.23 1680.45 3284.72 1683.37C3284.15 1686.64 3283.76 1689.16 3283.93 1692.55C3284.29 1699.73 3283.5 1706.63 3282.73 1713.72C3282.28 1717.79 3281.42 1722.11 3280.51 1726.11C3280.18 1727.58 3279.92 1729.04 3279.72 1730.54C3279.56 1731.74 3279.43 1731.81 3280.39 1730.95" stroke="#6F432E" stroke-width="8" stroke-linecap="round"/>
<path d="M3296.89 1652.58C3291.87 1658.3 3290.28 1666.23 3289.26 1673.52C3288.42 1679.54 3287.56 1685.52 3286.64 1691.52C3286.21 1694.27 3285.69 1696.98 3284.81 1699.64C3284.03 1702.01 3284.17 1704.63 3283.73 1707.09C3283.35 1709.17 3283.13 1711.16 3283.13 1713.27C3283.13 1715.11 3282.39 1716.8 3282.34 1718.6C3282.3 1720.47 3282.15 1722.31 3282.24 1724.19C3282.33 1725.86 3282.11 1726.47 3283.78 1725.66" stroke="#6F432E" stroke-width="8" stroke-linecap="round"/>
</svg>
