<svg width="1556" height="668" viewBox="0 0 1556 668" fill="none" xmlns="http://www.w3.org/2000/svg">
<path d="M357.199 0.3125H0V667.999H1555.27L1270.02 440.008C1270.02 440.008 1003.75 622.435 710.468 484.237C389.843 333.153 357.199 0.3125 357.199 0.3125Z" fill="#74AE94"/>
<path d="M199.775 394.534C207.301 388.139 214.154 383.406 220.334 380.337C226.637 377.123 233.84 375.171 241.944 374.48C250.048 373.789 257.301 375.913 263.704 380.854C270.107 385.794 273.692 393.183 274.458 403.02C275.214 412.724 268.306 423.616 253.734 435.698C267.557 441.477 274.93 450.283 275.851 462.113C276.763 473.811 273.129 483.823 264.951 492.147C256.773 500.472 248.3 505.008 239.532 505.756C230.764 506.503 222.618 505.793 215.093 503.624L209.798 481.997C214.562 483.063 220.331 483.307 227.107 482.729C233.882 482.151 239.813 480.173 244.899 476.796C249.975 473.285 252.358 469.536 252.047 465.548C251.726 461.427 249.801 458.179 246.273 455.804C242.734 453.295 238.374 452.262 233.193 452.704C228.012 453.146 222.505 454.552 216.671 456.923L208.296 436.963C221.883 431.121 232.194 425.29 239.23 419.472C246.388 413.509 249.802 408.401 249.471 404.147C249.098 399.361 246.321 397.189 241.14 397.631C234.231 398.22 225.186 403.14 214.005 412.39L199.775 394.534Z" fill="black" fill-opacity="0.2"/>
</svg>
