<svg width="271" height="409" viewBox="0 0 271 409" fill="none" xmlns="http://www.w3.org/2000/svg">
<rect x="131.891" y="40" width="100" height="320" transform="rotate(24.3405 131.891 40)" fill="#A9A9A9"/>
<path d="M142.215 64.1982C126.898 58.9243 115.652 52.5142 108.478 44.9676C101.23 37.2685 98.8359 29.8449 101.297 22.6967C103.797 15.435 109.379 11.2017 118.044 9.99666C126.634 8.63909 137.339 10.1675 150.161 14.5819L143.009 29.824C130.301 25.4487 123.264 25.2467 121.896 29.2179C120.724 32.6218 129.783 37.6443 149.071 44.2854L154.007 45.9847C156.057 38.1873 157.903 31.9059 159.543 27.1405L175.371 32.5901C172.676 40.4191 170.85 46.6437 169.894 51.2641C187.254 57.2411 206.757 63.2582 228.405 69.3153L219.506 88.5249C203.536 84.0416 185.621 78.5715 165.761 72.1145C165.199 75.2208 164.893 77.3999 164.843 78.6517L148.295 76.952C148.345 75.7001 148.815 72.3083 149.704 66.7765L142.215 64.1982Z" fill="#8A8A8A"/>
</svg>
