<svg width="332" height="369" viewBox="0 0 332 369" fill="none" xmlns="http://www.w3.org/2000/svg">
<rect x="238.726" y="66.2676" width="101.046" height="330.933" transform="rotate(46.1679 238.726 66.2676)" fill="#A9A9A9"/>
<path d="M291.834 150.168C294.134 147.244 292.971 142.512 288.344 135.972C283.811 129.506 277.112 122.786 268.246 115.813C273.274 127.86 273.674 136.571 269.445 141.947C265.291 147.229 260.123 150.111 253.942 150.593C247.742 150.907 240.963 148.17 233.606 142.383C226.155 136.522 219.799 129.462 214.54 121.203C209.186 112.87 205.786 105.158 204.341 98.0668C202.876 90.8071 203.478 85.4796 206.149 82.0841C210.823 76.142 217.531 72.5633 226.273 71.348L235.478 62.5573C240.644 68.6057 249.594 76.6376 262.327 86.653C274.966 96.5942 284.006 104.316 289.449 109.819C294.872 115.153 299.83 120.884 304.322 127.013C308.814 133.142 311.534 139.098 312.481 144.882C313.428 150.665 311.899 156.103 307.893 161.196C303.887 166.29 297.991 169.515 290.206 170.872C282.515 172.304 274.68 172.172 266.701 170.476L270.955 154.585C281.017 156.545 287.976 155.073 291.834 150.168ZM223.362 89.8979C221.507 92.2559 223.011 97.3318 227.873 105.126C232.809 112.825 239.097 119.68 246.737 125.689C249.661 127.989 252.174 129.355 254.277 129.787C256.454 130.125 257.913 129.823 258.655 128.88C259.471 127.842 259.566 125.78 258.941 122.693C258.316 119.605 256.633 115.534 253.893 110.477C251.226 105.327 247.728 100.361 243.397 95.5801L232.867 86.8397C227.791 87.2751 224.623 88.2945 223.362 89.8979Z" fill="#8A8A8A"/>
</svg>
