<svg width="361" height="311" viewBox="0 0 361 311" fill="none" xmlns="http://www.w3.org/2000/svg">
<rect y="82.8633" width="100" height="320" transform="rotate(-55.0976 0 82.8633)" fill="#D9873C"/>
<path d="M247.222 190.179C253.511 183.017 260.469 177.917 268.095 174.879C275.782 171.737 283.145 172.231 290.183 176.36C297.221 180.49 300.665 186.476 300.515 194.319C300.53 202.119 297.38 211.401 291.064 222.164C284.748 232.928 275.413 247.416 263.057 265.628L250.654 256.889L252.327 251.193C245.823 251.133 240.035 249.615 234.964 246.639C229.892 243.664 226.672 239.548 225.304 234.293C223.996 228.934 225.194 223.098 228.898 216.785C232.603 210.471 238.896 206.859 247.778 205.949C256.763 205.099 265.405 206.97 273.703 211.561L276.162 207.369C280.96 199.192 281.392 193.95 277.459 191.643C275.493 190.489 272.862 190.823 269.566 192.646C266.435 194.426 263.474 196.863 260.685 199.957L247.222 190.179ZM244.187 227.008C242.244 230.319 243.239 233.129 247.172 235.437C249.863 237.016 253.073 238.065 256.803 238.584L264.766 225.725C259.658 223.285 255.255 222.371 251.557 222.984C247.919 223.493 245.462 224.834 244.187 227.008Z" fill="#B55D0D"/>
</svg>
