<svg width="826" height="368" viewBox="0 0 826 368" fill="none" xmlns="http://www.w3.org/2000/svg">
<rect x="7.5" y="7.5" width="811" height="353" rx="47.5" fill="#D9873C"/>
<path d="M105.35 238.55C104.95 227.25 104.75 213.7 104.75 197.9C104.75 182 105.25 160.8 106.25 134.3C114.65 131.2 123.25 129.65 132.05 129.65C140.95 129.65 148.85 132.95 155.75 139.55C162.75 146.05 166.25 154.3 166.25 164.3C166.25 174.2 162.45 182.8 154.85 190.1C147.35 197.3 137.5 202.6 125.3 206C125.3 217.2 125.45 228.7 125.75 240.5L105.35 238.55ZM140.15 179.45C143.85 175.15 145.7 170.35 145.7 165.05C145.7 159.75 144.3 155.45 141.5 152.15C138.8 148.85 135.75 147.2 132.35 147.2C131.45 147.2 129.4 147.45 126.2 147.95C125.7 162.05 125.4 175.7 125.3 188.9C131.6 186.9 136.55 183.75 140.15 179.45ZM194.127 127.7C192.627 153 191.877 175.8 191.877 196.1C191.877 216.4 192.127 230.65 192.627 238.85L174.927 237.2C174.527 226.8 174.327 212.05 174.327 192.95C174.327 173.75 175.077 151.55 176.577 126.35L194.127 127.7ZM207.076 191.75C208.576 183.95 211.426 177.35 215.626 171.95C219.826 166.45 225.326 163.7 232.126 163.7C238.926 163.7 243.926 166.55 247.126 172.25C250.426 177.85 252.076 185.85 252.076 196.25C252.076 206.65 251.476 221 250.276 239.3L237.676 238.25L236.476 233.45C231.776 236.15 226.976 237.5 222.076 237.5C217.176 237.5 213.126 235.9 209.926 232.7C206.726 229.4 205.126 224.7 205.126 218.6C205.126 212.5 208.126 207.25 214.126 202.85C220.226 198.45 227.226 196.15 235.126 195.95V191.9C235.126 184 233.226 180.05 229.426 180.05C227.526 180.05 225.776 181.4 224.176 184.1C222.676 186.7 221.576 189.7 220.876 193.1L207.076 191.75ZM220.426 219.5C220.426 222.7 222.326 224.3 226.126 224.3C228.726 224.3 231.476 223.7 234.376 222.5L234.676 209.9C229.976 210.3 226.426 211.5 224.026 213.5C221.626 215.4 220.426 217.4 220.426 219.5ZM301.673 160.85L316.073 169.25C307.773 194.95 299.273 229.05 290.573 271.55L274.073 270.05C275.673 262.15 278.323 251.25 282.023 237.35C272.423 218.95 266.373 195.75 263.873 167.75L280.673 169.4C282.173 187.8 284.573 203.5 287.873 216.5C292.473 195.1 297.073 176.55 301.673 160.85ZM394.098 173.3V187.55C389.298 187.55 385.598 187.6 382.998 187.7C382.698 197.7 382.548 214.5 382.548 238.1L364.848 236.45C364.848 218.95 364.998 203.1 365.298 188.9C363.798 188.9 360.948 189.15 356.748 189.65L354.498 177.35C356.898 176.85 360.648 176.2 365.748 175.4C365.948 168 366.348 157.2 366.948 143L384.798 144.65C384.198 154.55 383.748 164.15 383.448 173.45C385.948 173.35 389.498 173.3 394.098 173.3ZM451.114 165.65L450.814 189.35C450.814 211.65 451.214 228.05 452.014 238.55L437.164 237.05C436.864 232.85 436.214 228.6 435.214 224.3C429.714 232.4 424.164 236.45 418.564 236.45C413.064 236.45 408.664 234.55 405.364 230.75C402.064 226.95 400.414 221.7 400.414 215C400.414 202 401.364 186.5 403.264 168.5L420.664 170.15C418.864 187.25 417.964 201.45 417.964 212.75C417.964 217.85 419.564 220.4 422.764 220.4C424.264 220.4 426.064 218.35 428.164 214.25C430.364 210.15 432.114 205.2 433.414 199.4C433.314 197.2 433.264 194.6 433.264 191.6C433.264 188.6 433.414 179.45 433.714 164.15L451.114 165.65ZM500.152 173.3V187.55C495.352 187.55 491.652 187.6 489.052 187.7C488.752 197.7 488.602 214.5 488.602 238.1L470.902 236.45C470.902 218.95 471.052 203.1 471.352 188.9C469.852 188.9 467.002 189.15 462.802 189.65L460.552 177.35C462.952 176.85 466.702 176.2 471.802 175.4C472.002 168 472.402 157.2 473.002 143L490.852 144.65C490.252 154.55 489.802 164.15 489.502 173.45C492.002 173.35 495.552 173.3 500.152 173.3ZM521.619 209C521.619 220.3 524.119 225.95 529.119 225.95C531.319 225.95 533.169 222.8 534.669 216.5C536.169 210.1 536.919 204 536.919 198.2C536.919 185.4 534.819 179 530.619 179C527.919 179 525.719 182.45 524.019 189.35C522.419 196.15 521.619 202.7 521.619 209ZM504.069 207.65C504.069 198.35 505.969 189.25 509.769 180.35C511.769 175.85 514.569 172.2 518.169 169.4C521.869 166.5 525.969 165.05 530.469 165.05C534.969 165.05 538.819 166.1 542.019 168.2C545.319 170.2 547.819 172.9 549.519 176.3C552.819 183 554.469 190.3 554.469 198.2C554.469 209.1 552.219 218.8 547.719 227.3C543.319 235.7 537.119 239.9 529.119 239.9C512.419 239.9 504.069 229.15 504.069 207.65ZM591.543 181.85C587.343 181.85 584.193 187.15 582.093 197.75C582.293 204.75 582.393 211.45 582.393 217.85C582.393 224.25 582.193 231.45 581.793 239.45L564.393 237.95C564.693 223.25 564.843 215.15 564.843 213.65C564.843 195.15 563.943 181 562.143 171.2L573.393 172.4C574.093 175.3 574.893 177.85 575.793 180.05C580.693 169.55 585.643 164.3 590.643 164.3C594.743 164.3 598.343 166.1 601.443 169.7L597.543 183.5C595.943 182.4 593.943 181.85 591.543 181.85ZM611.161 164.45L628.261 166.1V238.1L611.161 236.45V164.45ZM612.361 138.05L629.161 140L627.661 156.8L610.861 154.7L612.361 138.05ZM643.16 191.75C644.66 183.95 647.51 177.35 651.71 171.95C655.91 166.45 661.41 163.7 668.21 163.7C675.01 163.7 680.01 166.55 683.21 172.25C686.51 177.85 688.16 185.85 688.16 196.25C688.16 206.65 687.56 221 686.36 239.3L673.76 238.25L672.56 233.45C667.86 236.15 663.06 237.5 658.16 237.5C653.26 237.5 649.21 235.9 646.01 232.7C642.81 229.4 641.21 224.7 641.21 218.6C641.21 212.5 644.21 207.25 650.21 202.85C656.31 198.45 663.31 196.15 671.21 195.95V191.9C671.21 184 669.31 180.05 665.51 180.05C663.61 180.05 661.86 181.4 660.26 184.1C658.76 186.7 657.66 189.7 656.96 193.1L643.16 191.75ZM656.51 219.5C656.51 222.7 658.41 224.3 662.21 224.3C664.81 224.3 667.56 223.7 670.46 222.5L670.76 209.9C666.06 210.3 662.51 211.5 660.11 213.5C657.71 215.4 656.51 217.4 656.51 219.5ZM724.107 127.7C722.607 153 721.857 175.8 721.857 196.1C721.857 216.4 722.107 230.65 722.607 238.85L704.907 237.2C704.507 226.8 704.307 212.05 704.307 192.95C704.307 173.75 705.057 151.55 706.557 126.35L724.107 127.7Z" fill="black"/>
<rect x="7.5" y="7.5" width="811" height="353" rx="47.5" stroke="black" stroke-width="15"/>
</svg>
