<svg width="425" height="215" viewBox="0 0 425 215" fill="none" xmlns="http://www.w3.org/2000/svg">
<rect width="100" height="330" transform="matrix(0.11102 -0.993818 -0.993818 -0.11102 401.464 174.416)" fill="#A9A9A9"/>
<path d="M395.518 88.5034L395.664 66.1831C395.652 57.9032 395.458 48.4834 395.082 37.924L416.144 39.6923C416.397 48.2119 416.541 63.6917 416.574 86.1317C416.608 108.452 415.691 137.253 413.824 172.536L397.802 171.12C397.435 166.321 397.066 160.681 396.697 154.202C391.552 164.529 385.98 169.698 379.98 169.707C370.74 169.721 364.316 166.85 360.707 161.096C357.098 155.341 355.286 147.004 355.269 136.084C355.253 125.044 357.576 113.641 362.238 101.873C367.02 90.1063 372.411 84.2181 378.411 84.2091C383.811 84.201 389.513 85.6324 395.518 88.5034ZM396.083 105.243C393.08 102.967 390.078 101.832 387.078 101.836C384.198 101.84 381.684 105.744 379.535 113.547C377.387 121.231 376.319 129.272 376.332 137.672C376.344 146.072 378.391 150.269 382.471 150.263C384.031 150.261 386.127 147.678 388.759 142.514C391.391 137.23 393.781 130.566 395.929 122.523L396.083 105.243Z" fill="#8A8A8A"/>
<path d="M395.518 88.5034L395.664 66.1831C395.652 57.9032 395.458 48.4834 395.082 37.924L416.144 39.6923C416.397 48.2119 416.541 63.6917 416.574 86.1317C416.608 108.452 415.691 137.253 413.824 172.536L397.802 171.12C397.435 166.321 397.066 160.681 396.697 154.202C391.552 164.529 385.98 169.698 379.98 169.707C370.74 169.721 364.316 166.85 360.707 161.096C357.098 155.341 355.286 147.004 355.269 136.084C355.253 125.044 357.576 113.641 362.238 101.873C367.02 90.1063 372.411 84.2181 378.411 84.2091C383.811 84.201 389.513 85.6324 395.518 88.5034ZM396.083 105.243C393.08 102.967 390.078 101.832 387.078 101.836C384.198 101.84 381.684 105.744 379.535 113.547C377.387 121.231 376.319 129.272 376.332 137.672C376.344 146.072 378.391 150.269 382.471 150.263C384.031 150.261 386.127 147.678 388.759 142.514C391.391 137.23 393.781 130.566 395.929 122.523L396.083 105.243Z" fill="#8A8A8A"/>
</svg>
