<svg width="361" height="311" viewBox="0 0 361 311" fill="none" xmlns="http://www.w3.org/2000/svg">
<rect y="82.5342" width="100" height="320" transform="rotate(-55.0976 0 82.5342)" fill="#A9A9A9"/>
<path d="M247.222 189.85C253.511 182.688 260.469 177.588 268.095 174.55C275.782 171.408 283.145 171.902 290.183 176.031C297.221 180.161 300.665 186.147 300.515 193.99C300.53 201.789 297.38 211.071 291.064 221.835C284.748 232.599 275.413 247.087 263.057 265.299L250.654 256.56L252.327 250.863C245.823 250.804 240.035 249.286 234.964 246.31C229.892 243.335 226.672 239.219 225.304 233.964C223.996 228.605 225.194 222.769 228.898 216.456C232.603 210.142 238.896 206.53 247.778 205.62C256.763 204.77 265.405 206.641 273.703 211.231L276.162 207.04C280.96 198.863 281.392 193.621 277.459 191.314C275.493 190.16 272.862 190.494 269.566 192.317C266.435 194.097 263.474 196.534 260.685 199.628L247.222 189.85ZM244.187 226.678C242.244 229.99 243.239 232.8 247.172 235.108C249.863 236.687 253.073 237.736 256.803 238.255L264.766 225.396C259.658 222.956 255.255 222.042 251.557 222.655C247.919 223.164 245.462 224.505 244.187 226.678Z" fill="#8A8A8A"/>
</svg>
