<svg width="396" height="371" viewBox="0 0 396 371" fill="none" xmlns="http://www.w3.org/2000/svg">
<rect x="279.707" y="33.6934" width="100" height="310" transform="rotate(44.8705 279.707 33.6934)" fill="#A9A9A9"/>
<path d="M125.964 306.183C129.219 302.988 129.619 296.458 127.165 286.592L142.602 282.79C143.749 287.213 144.518 291.166 144.91 294.649C145.387 298.048 145.01 302.117 143.778 306.858C142.546 311.598 140.088 315.776 136.406 319.39C131.011 324.686 124.244 326.872 116.106 325.947C107.885 324.937 99.9493 320.535 92.3 312.742C83.5579 303.836 76.9886 293.974 72.592 283.156C70.3541 277.45 69.6006 271.8 70.3316 266.206C71.0642 260.442 73.1004 255.922 76.4404 252.643C79.866 249.281 83.1529 247.148 86.301 246.244C89.365 245.254 92.169 244.856 94.7129 245.049C97.2584 245.073 100.263 245.907 103.727 247.552C107.191 249.196 109.892 250.664 111.832 251.955C113.857 253.162 116.511 255.181 119.794 258.011C124.172 261.786 128 265.343 131.278 268.683C126.276 277.292 119.093 287.705 109.73 299.922C113.349 303.095 116.639 305.247 119.598 306.378C122.558 307.509 124.68 307.444 125.964 306.183ZM90.0816 263.972C88.1975 265.821 88.334 269.386 90.491 274.667C92.7337 279.864 96.1643 285.073 100.783 290.292C104.397 284.895 107.454 280.129 109.953 275.994C99.4459 265.289 92.8221 261.282 90.0816 263.972Z" fill="#8A8A8A"/>
</svg>
