<svg width="122" height="329" viewBox="0 0 122 329" fill="none" xmlns="http://www.w3.org/2000/svg">
<rect x="10.9573" y="3.96973" width="100" height="320" transform="rotate(-1.82289 10.9573 3.96973)" fill="#A9A9A9"/>
<path d="M52.3686 240.25C58.1286 240.241 62.3933 243.415 65.1629 249.77C68.0525 256.126 69.5038 263.684 69.517 272.444C69.53 281.084 68.5829 289.665 66.6758 298.188C64.8886 306.711 61.9595 313.975 57.8885 319.981C53.9374 325.867 49.3818 328.814 44.2218 328.822C36.6618 328.833 30.4168 325.483 25.4867 318.77C25.4892 320.45 25.6128 322.85 25.8575 325.97L10.0151 324.374C9.27342 309.975 8.88435 290.655 8.84788 266.415C8.81123 242.055 9.43449 217.634 10.7177 193.152L31.2403 194.921C29.8359 218.564 29.1482 240.045 29.1773 259.365C37.1982 246.633 44.9286 240.261 52.3686 240.25ZM29.2236 290.145L29.4247 304.184C30.8678 306.222 32.13 307.66 33.2112 308.499C34.2923 309.217 35.9128 309.575 38.0728 309.571C41.0728 309.567 43.7079 306.263 45.9779 299.659C48.2478 292.936 49.3783 286.574 49.3692 280.574C49.3602 274.574 48.9937 270.255 48.2697 267.616C47.6658 264.977 46.2838 263.659 44.1238 263.662C39.5638 263.669 34.5971 272.496 29.2236 290.145Z" fill="#8A8A8A"/>
</svg>
