<svg width="396" height="371" viewBox="0 0 396 371" fill="none" xmlns="http://www.w3.org/2000/svg">
<rect x="279.707" y="33.3867" width="100" height="310" transform="rotate(44.8705 279.707 33.3867)" fill="#614294"/>
<path d="M125.964 305.876C129.219 302.682 129.619 296.152 127.165 286.285L142.602 282.483C143.749 286.907 144.518 290.86 144.91 294.342C145.387 297.741 145.01 301.811 143.778 306.551C142.546 311.292 140.088 315.469 136.406 319.084C131.011 324.379 124.244 326.565 116.106 325.641C107.885 324.63 99.9493 320.229 92.3 312.436C83.5579 303.529 76.9886 293.667 72.592 282.849C70.3541 277.143 69.6006 271.493 70.3316 265.899C71.0642 260.136 73.1004 255.615 76.4404 252.337C79.866 248.974 83.1529 246.841 86.301 245.937C89.365 244.947 92.169 244.549 94.7129 244.743C97.2584 244.766 100.263 245.6 103.727 247.245C107.191 248.89 109.892 250.357 111.832 251.648C113.857 252.855 116.511 254.874 119.794 257.705C124.172 261.479 128 265.037 131.278 268.377C126.276 276.985 119.093 287.398 109.73 299.615C113.349 302.788 116.639 304.941 119.598 306.071C122.558 307.202 124.68 307.137 125.964 305.876ZM90.0816 263.665C88.1975 265.514 88.334 269.079 90.491 274.361C92.7337 279.558 96.1643 284.766 100.783 289.985C104.397 284.588 107.454 279.822 109.953 275.688C99.4459 264.983 92.8221 260.975 90.0816 263.665Z" fill="#270560"/>
</svg>
