<svg width="329" height="344" viewBox="0 0 329 344" fill="none" xmlns="http://www.w3.org/2000/svg">
<rect x="50.6768" y="134.396" width="100" height="294.053" transform="rotate(-44.6572 50.6768 134.396)" fill="#614294"/>
<path d="M98.3084 113.411C99.7273 112.48 101.427 111.141 103.407 109.396C105.388 107.65 107.056 105.459 108.412 102.824C109.768 100.189 109.891 98.2408 108.78 96.9806C106.558 94.4602 102.006 95.1939 95.1229 99.1818C88.4097 103.18 82.6227 107.322 77.7619 111.607C69.5705 118.829 66.9429 124.105 69.8791 127.435C72.2597 130.136 80.3581 129.795 94.1743 126.414L95.8265 142.714C87.1128 146.077 79.1939 147.619 72.0696 147.34C65.0248 147.152 59.2407 144.493 54.7174 139.362C50.1942 134.231 48.1327 127.81 48.533 120.098C49.0127 112.476 53.3933 105.015 61.6746 97.7143C70.4961 89.9375 80.5423 83.6406 91.8131 78.8236C98.0123 76.238 104.031 75.1715 109.869 75.6239C115.786 76.1664 120.927 78.913 125.292 83.8638C129.656 88.8147 130.746 95.1323 128.562 102.817C126.458 110.591 122.345 117.177 116.224 122.573C113.613 124.874 111.006 126.453 108.401 127.309L98.3084 113.411Z" fill="#270560"/>
</svg>
