<svg width="425" height="215" viewBox="0 0 425 215" fill="none" xmlns="http://www.w3.org/2000/svg">
<rect width="100" height="330" transform="matrix(0.11102 -0.993818 -0.993818 -0.11102 401.464 174.639)" fill="#D9873C"/>
<path d="M395.518 88.726L395.664 66.4058C395.652 58.1258 395.458 48.7061 395.082 38.1466L416.144 39.915C416.397 48.4346 416.541 63.9144 416.574 86.3544C416.608 108.674 415.691 137.476 413.824 172.759L397.802 171.343C397.435 166.543 397.066 160.904 396.697 154.424C391.552 164.752 385.98 169.92 379.98 169.93C370.74 169.943 364.316 167.073 360.707 161.319C357.098 155.564 355.286 147.227 355.269 136.307C355.253 125.267 357.576 113.863 362.238 102.096C367.02 90.3289 372.411 84.4408 378.411 84.4318C383.811 84.4237 389.513 85.8551 395.518 88.726ZM396.083 105.465C393.08 103.19 390.078 102.054 387.078 102.059C384.198 102.063 381.684 105.967 379.535 113.77C377.387 121.453 376.319 129.495 376.332 137.895C376.344 146.295 378.391 150.492 382.471 150.486C384.031 150.483 386.127 147.9 388.759 142.736C391.391 137.452 393.781 130.789 395.929 122.745L396.083 105.465Z" fill="#B55D0D"/>
</svg>
