<svg width="329" height="344" viewBox="0 0 329 344" fill="none" xmlns="http://www.w3.org/2000/svg">
<rect x="50.6768" y="134.521" width="100" height="294.053" transform="rotate(-44.6572 50.6768 134.521)" fill="#D9873C"/>
<path d="M97.3084 111.411C98.7273 110.48 100.427 109.141 102.407 107.396C104.388 105.65 106.056 103.459 107.412 100.824C108.768 98.1885 108.891 96.2408 107.78 94.9806C105.558 92.4602 101.006 93.1939 94.1229 97.1818C87.4097 101.18 81.6227 105.322 76.7619 109.607C68.5705 116.829 65.9429 122.105 68.8791 125.435C71.2597 128.136 79.3581 127.795 93.1743 124.414L94.8265 140.714C86.1128 144.077 78.1939 145.619 71.0696 145.34C64.0248 145.152 58.2407 142.493 53.7174 137.362C49.1942 132.231 47.1327 125.81 47.533 118.098C48.0127 110.476 52.3933 103.015 60.6746 95.7143C69.4961 87.9375 79.5423 81.6406 90.8131 76.8236C97.0123 74.238 103.031 73.1715 108.869 73.6239C114.786 74.1664 119.927 76.913 124.292 81.8638C128.656 86.8147 129.746 93.1323 127.562 100.817C125.458 108.591 121.345 115.177 115.224 120.573C112.613 122.874 110.006 124.453 107.401 125.309L97.3084 111.411Z" fill="#B55D0D"/>
</svg>
