<svg width="329" height="345" viewBox="0 0 329 345" fill="none" xmlns="http://www.w3.org/2000/svg">
<rect x="50.6768" y="134.958" width="100" height="294.053" transform="rotate(-44.6572 50.6768 134.958)" fill="#A9A9A9"/>
<path d="M97.3084 112.411C98.7273 111.48 100.427 110.141 102.407 108.396C104.388 106.65 106.056 104.459 107.412 101.824C108.768 99.1885 108.891 97.2408 107.78 95.9806C105.558 93.4602 101.006 94.1939 94.1229 98.1818C87.4097 102.18 81.6227 106.322 76.7619 110.607C68.5705 117.829 65.9429 123.105 68.8791 126.435C71.2597 129.136 79.3581 128.795 93.1743 125.414L94.8265 141.714C86.1128 145.077 78.1939 146.619 71.0696 146.34C64.0248 146.152 58.2407 143.493 53.7174 138.362C49.1942 133.231 47.1327 126.81 47.533 119.098C48.0127 111.476 52.3933 104.015 60.6746 96.7143C69.4961 88.9375 79.5423 82.6406 90.8131 77.8236C97.0123 75.238 103.031 74.1715 108.869 74.6239C114.786 75.1664 119.927 77.913 124.292 82.8638C128.656 87.8147 129.746 94.1323 127.562 101.817C125.458 109.591 121.345 116.177 115.224 121.573C112.613 123.874 110.006 125.453 107.401 126.309L97.3084 112.411Z" fill="#8A8A8A"/>
</svg>
