<svg width="332" height="369" viewBox="0 0 332 369" fill="none" xmlns="http://www.w3.org/2000/svg">
<rect x="238.726" y="66.0947" width="101.046" height="330.933" transform="rotate(46.1679 238.726 66.0947)" fill="#614294"/>
<path d="M291.834 149.995C294.134 147.072 292.971 142.339 288.344 135.799C283.811 129.333 277.112 122.614 268.246 115.64C273.274 127.687 273.674 136.398 269.445 141.774C265.291 147.056 260.123 149.938 253.942 150.42C247.742 150.734 240.963 147.997 233.606 142.211C226.155 136.35 219.799 129.29 214.54 121.031C209.186 112.697 205.786 104.985 204.341 97.8939C202.876 90.6343 203.478 85.3067 206.149 81.9112C210.823 75.9691 217.531 72.3904 226.273 71.1751L235.478 62.3844C240.644 68.4328 249.594 76.4647 262.327 86.4801C274.966 96.4214 284.006 104.143 289.449 109.646C294.872 114.98 299.83 120.711 304.322 126.84C308.814 132.969 311.534 138.925 312.481 144.709C313.428 150.492 311.899 155.93 307.893 161.024C303.887 166.117 297.991 169.342 290.206 170.699C282.515 172.131 274.68 171.999 266.701 170.303L270.955 154.412C281.017 156.372 287.976 154.9 291.834 149.995ZM223.362 89.7251C221.507 92.0831 223.011 97.159 227.873 104.953C232.809 112.652 239.097 119.507 246.737 125.516C249.661 127.816 252.174 129.182 254.277 129.614C256.454 129.953 257.913 129.65 258.655 128.707C259.471 127.669 259.566 125.607 258.941 122.52C258.316 119.433 256.633 115.361 253.893 110.305C251.226 105.154 247.728 100.188 243.397 95.4072L232.867 86.6668C227.791 87.1022 224.623 88.1217 223.362 89.7251Z" fill="#270560"/>
</svg>
