<svg width="1556" height="668" viewBox="0 0 1556 668" fill="none" xmlns="http://www.w3.org/2000/svg">
<path d="M357.199 0.313477H0V668H1555.27L1270.02 440.009C1270.02 440.009 1003.75 622.436 710.468 484.238C389.843 333.154 357.199 0.313477 357.199 0.313477Z" fill="#74AE94"/>
<path d="M199.775 394.535C207.301 388.14 214.154 383.407 220.334 380.338C226.637 377.124 233.84 375.172 241.944 374.481C250.048 373.79 257.301 375.914 263.704 380.855C270.107 385.795 273.692 393.184 274.458 403.021C275.214 412.725 268.306 423.617 253.734 435.699C267.557 441.478 274.93 450.284 275.851 462.114C276.763 473.812 273.129 483.824 264.951 492.148C256.773 500.473 248.3 505.009 239.532 505.757C230.764 506.504 222.618 505.794 215.093 503.625L209.798 481.998C214.562 483.064 220.331 483.308 227.107 482.73C233.882 482.152 239.813 480.174 244.899 476.797C249.975 473.286 252.358 469.537 252.047 465.549C251.726 461.428 249.801 458.18 246.273 455.805C242.734 453.296 238.374 452.263 233.193 452.705C228.012 453.147 222.505 454.553 216.671 456.924L208.296 436.964C221.883 431.122 232.194 425.291 239.23 419.473C246.388 413.51 249.802 408.401 249.471 404.148C249.098 399.362 246.321 397.19 241.14 397.632C234.231 398.221 225.186 403.141 214.005 412.391L199.775 394.535Z" fill="black"/>
</svg>
