<svg width="1556" height="668" viewBox="0 0 1556 668" fill="none" xmlns="http://www.w3.org/2000/svg">
<path d="M357.199 0.294922H0V667.981H1555.27L1270.02 439.991C1270.02 439.991 1003.75 622.417 710.468 484.219C389.843 333.135 357.199 0.294922 357.199 0.294922Z" fill="#2F9366"/>
<path d="M199.775 394.517C207.301 388.121 214.154 383.389 220.334 380.319C226.637 377.106 233.84 375.153 241.944 374.462C250.048 373.771 257.301 375.896 263.704 380.836C270.107 385.777 273.692 393.165 274.458 403.002C275.214 412.706 268.306 423.599 253.734 435.68C267.557 441.46 274.93 450.265 275.851 462.096C276.763 473.794 273.129 483.805 264.951 492.13C256.773 500.454 248.3 504.991 239.532 505.738C230.764 506.486 222.618 505.775 215.093 503.607L209.798 481.979C214.562 483.045 220.331 483.289 227.107 482.711C233.882 482.134 239.813 480.156 244.899 476.778C249.975 473.268 252.358 469.519 252.047 465.531C251.726 461.41 249.801 458.162 246.273 455.786C242.734 453.278 238.374 452.245 233.193 452.686C228.012 453.128 222.505 454.534 216.671 456.905L208.296 436.945C221.883 431.103 232.194 425.273 239.23 419.454C246.388 413.491 249.802 408.383 249.471 404.129C249.098 399.344 246.321 397.172 241.14 397.614C234.231 398.203 225.186 403.122 214.005 412.372L199.775 394.517Z" fill="black" fill-opacity="0.2"/>
</svg>
