<svg width="722" height="1536" viewBox="0 0 722 1536" fill="none" xmlns="http://www.w3.org/2000/svg">
<path d="M29.4776 399.466L491.615 0H722V1535.82H384.797L0.594238 1227.19C0.594238 1227.19 180.219 1089.15 180.219 776.584C180.219 543.947 29.4776 399.466 29.4776 399.466Z" fill="#74AE94"/>
<path d="M446.195 814.626C441.536 814.896 432.46 816.224 418.968 818.61L394.35 803.811C394.181 800.616 399.759 787.471 411.086 764.376C422.539 741.14 431.651 725.386 438.422 717.114L471.536 718.397C469.668 743.614 468.953 767.896 469.389 791.243L482.231 791.7L480.548 812.833L470.165 813.435C470.97 828.614 471.98 841.377 473.196 851.724L449.13 851.117C447.964 841.702 446.985 829.538 446.195 814.626ZM423.73 795.095C430.336 793.776 437.499 792.893 445.219 792.445C445.219 774.816 445.945 758.28 447.396 742.837C437.119 763.066 429.231 780.485 423.73 795.095Z" fill="black"/>
</svg>
