<svg width="5655" height="4239" viewBox="0 0 5655 4239" fill="none" xmlns="http://www.w3.org/2000/svg">
<g clip-path="url(#clip0_15_334)">
<rect width="5655" height="4239" fill="#C3DDEC"/>
<g clip-path="url(#clip1_15_334)">
<rect y="4239" width="4239" height="5655" rx="22.7459" transform="rotate(-90 0 4239)" fill="#74AE94"/>
<ellipse cx="2761.9" cy="2211.33" rx="1753.06" ry="1683.94" fill="#6FD8F9"/>
<rect x="-720" y="2102.3" width="1944.05" height="343.486" fill="#6FD8F9"/>
<rect x="3709.69" y="950.408" width="1944.05" height="343.486" transform="rotate(-39.4558 3709.69 950.408)" fill="#6FD8F9"/>
<rect x="3659.37" y="3174.09" width="1944.05" height="343.486" transform="rotate(36.8967 3659.37 3174.09)" fill="#6FD8F9"/>
<ellipse cx="2701.32" cy="2048.85" rx="1226.43" ry="1183.67" fill="#74AE94"/>
<path d="M615.4 775.918C667.893 771.64 709.447 784.975 740.062 815.924C771.341 846.819 789.039 887.516 793.155 938.015C795.917 971.902 781.319 1022.59 749.362 1090.07C717.35 1156.9 675.426 1225.19 623.59 1294.97C637.775 1288.46 667.459 1283.37 712.642 1279.68C758.49 1275.95 793.896 1275.4 818.861 1278.05L816.079 1391.65C774.612 1391.69 739.924 1392.84 712.017 1395.12C635.603 1401.34 551.852 1424.22 460.762 1463.75L410.837 1380.53C478.335 1314.16 539.74 1234.58 595.052 1141.78C650.363 1048.98 676.53 984.308 673.551 947.762C670.519 910.552 654.384 893.139 625.148 895.522C601.227 897.471 577.447 913.456 553.807 943.475C530.778 972.776 506.649 1013.2 481.42 1064.76L376.064 1003.11C451.235 858.526 531.013 782.796 615.4 775.918Z" fill="#5C977C"/>
<path d="M2601.1 1722.58C2596.69 1832.64 2599.11 1944.48 2608.37 2058.1C2617.58 2171.06 2630.52 2272.34 2647.18 2361.95L2512.57 2359.88C2501.58 2282.52 2493.08 2206.96 2487.07 2133.2C2481.01 2058.78 2477.93 1988.13 2477.83 1921.25L2428.1 2000.55L2347.16 1942.94C2384.03 1878.4 2422.1 1799.71 2461.36 1706.88L2601.1 1722.58Z" fill="#5C977C"/>
<path d="M5184.77 2397.62C5161.51 2399.51 5116.32 2407.21 5049.2 2420.71L4924.01 2349.64C4922.71 2333.69 4948.74 2267.36 5002.1 2150.64C5056.07 2033.2 5099.4 1953.42 5132.09 1911.29L5297.84 1913.83C5292.08 2040.05 5291.94 2161.47 5297.43 2278.07L5361.71 2278.85L5356.28 2384.64L5304.45 2388.87C5310.63 2464.62 5317.49 2528.27 5325.03 2579.83L5204.62 2579.61C5197.45 2532.7 5190.83 2472.04 5184.77 2397.62ZM5069.67 2302.65C5102.52 2295.29 5138.21 2290.04 5176.75 2286.9C5174.25 2198.82 5175.54 2116.1 5180.61 2038.77C5132.09 2141.05 5095.11 2229.01 5069.67 2302.65Z" fill="#5C977C"/>
<path d="M493.136 3367.07C530.675 3335.25 564.878 3311.73 595.743 3296.5C627.219 3280.56 663.223 3270.94 703.755 3267.64C744.287 3264.33 780.614 3275.08 812.735 3299.89C844.856 3324.7 862.92 3361.68 866.928 3410.85C870.881 3459.36 836.512 3513.66 763.82 3573.77C833.083 3602.9 870.124 3647.04 874.943 3706.18C879.709 3764.65 861.707 3814.61 820.94 3856.06C780.172 3897.51 737.861 3920.02 694.006 3923.6C650.151 3927.17 609.383 3923.47 571.7 3912.49L544.824 3804.32C568.676 3809.73 597.546 3811.06 631.433 3808.3C665.321 3805.53 694.959 3795.76 720.346 3778.98C745.679 3761.53 757.533 3742.84 755.908 3722.9C754.23 3702.31 744.543 3686.04 726.848 3674.1C709.099 3661.5 687.268 3656.26 661.354 3658.37C635.44 3660.48 607.911 3667.41 578.769 3679.15L536.514 3579.25C604.388 3550.31 655.873 3521.36 690.971 3492.42C726.68 3462.75 743.667 3437.29 741.935 3416.02C739.985 3392.1 726.053 3381.2 700.139 3383.31C665.587 3386.13 620.421 3410.54 564.641 3456.56L493.136 3367.07Z" fill="#5C977C"/>
<rect x="4334.12" y="3501.9" width="200.961" height="658.164" transform="rotate(46.1679 4334.12 3501.9)" fill="#D9873C"/>
<path d="M4481.26 3685.76C4486.37 3679.26 4483.79 3668.74 4473.51 3654.21C4463.43 3639.84 4448.55 3624.91 4428.84 3609.41C4440.02 3636.18 4440.91 3655.54 4431.51 3667.49C4422.28 3679.22 4410.79 3685.63 4397.06 3686.7C4383.28 3687.4 4368.22 3681.31 4351.87 3668.46C4335.31 3655.43 4321.19 3639.74 4309.5 3621.39C4297.6 3602.87 4290.05 3585.73 4286.83 3569.97C4283.58 3553.84 4284.92 3542 4290.85 3534.46C4301.24 3521.25 4316.14 3513.3 4335.57 3510.6L4356.03 3491.06C4367.51 3504.5 4387.4 3522.35 4415.69 3544.61C4443.78 3566.7 4463.87 3583.86 4475.96 3596.09C4488.01 3607.94 4499.03 3620.68 4509.01 3634.3C4519 3647.92 4525.04 3661.16 4527.15 3674.01C4529.25 3686.86 4525.85 3698.94 4516.95 3710.26C4508.05 3721.58 4494.94 3728.75 4477.64 3731.76C4460.55 3734.95 4443.14 3734.65 4425.41 3730.88L4434.87 3695.57C4457.22 3699.93 4472.69 3696.65 4481.26 3685.76ZM4329.1 3551.82C4324.98 3557.06 4328.32 3568.34 4339.13 3585.66C4350.1 3602.77 4364.07 3618 4381.05 3631.36C4387.55 3636.47 4393.13 3639.5 4397.8 3640.46C4402.64 3641.22 4405.88 3640.54 4407.53 3638.45C4409.34 3636.14 4409.56 3631.56 4408.17 3624.7C4406.78 3617.84 4403.04 3608.79 4396.95 3597.55C4391.02 3586.11 4383.25 3575.07 4373.62 3564.45L4350.22 3545.02C4338.95 3545.99 4331.91 3548.26 4329.1 3551.82Z" fill="#B55D0D"/>
<rect x="2219.27" y="2993.09" width="200.961" height="900.052" transform="rotate(24.3405 2219.27 2993.09)" fill="#D9873C"/>
<path d="M2218.43 3043.59C2184.39 3031.87 2159.4 3017.63 2143.46 3000.86C2127.35 2983.75 2122.03 2967.25 2127.5 2951.37C2133.06 2935.23 2145.46 2925.82 2164.72 2923.15C2183.8 2920.13 2207.59 2923.52 2236.09 2933.33L2220.19 2967.21C2191.95 2957.48 2176.32 2957.03 2173.28 2965.86C2170.67 2973.42 2190.8 2984.58 2233.67 2999.34L2244.63 3003.12C2249.19 2985.79 2253.29 2971.83 2256.94 2961.24L2292.11 2973.35C2286.12 2990.75 2282.06 3004.58 2279.94 3014.85C2318.52 3028.13 2361.86 3041.5 2409.96 3054.96L2390.19 3097.65C2354.7 3087.69 2314.89 3075.53 2270.75 3061.18C2269.51 3068.09 2268.83 3072.93 2268.71 3075.71L2231.94 3071.93C2232.05 3069.15 2233.1 3061.62 2235.07 3049.32L2218.43 3043.59Z" fill="#B55D0D"/>
<rect x="1795.91" y="2655.99" width="188.275" height="878.52" transform="rotate(44.8705 1795.91 2655.99)" fill="#D9873C"/>
<path d="M1301.48 3370.87C1308.71 3363.77 1309.6 3349.26 1304.15 3327.34L1338.45 3318.89C1341 3328.72 1342.71 3337.5 1343.58 3345.24C1344.64 3352.79 1343.8 3361.84 1341.07 3372.37C1338.33 3382.91 1332.87 3392.19 1324.68 3400.22C1312.69 3411.99 1297.66 3416.85 1279.57 3414.79C1261.3 3412.55 1243.67 3402.77 1226.67 3385.45C1207.24 3365.66 1192.64 3343.74 1182.87 3319.7C1177.9 3307.02 1176.23 3294.46 1177.85 3282.03C1179.48 3269.23 1184 3259.18 1191.43 3251.89C1199.04 3244.42 1206.34 3239.68 1213.34 3237.67C1220.15 3235.47 1226.38 3234.59 1232.03 3235.02C1237.69 3235.07 1244.37 3236.93 1252.06 3240.58C1259.76 3244.23 1265.76 3247.5 1270.07 3250.36C1274.57 3253.05 1280.47 3257.53 1287.77 3263.82C1297.5 3272.21 1306 3280.12 1313.29 3287.54C1302.17 3306.67 1286.21 3329.81 1265.4 3356.96C1273.45 3364.01 1280.76 3368.79 1287.33 3371.3C1293.91 3373.82 1298.62 3373.67 1301.48 3370.87ZM1221.74 3277.07C1217.55 3281.18 1217.86 3289.1 1222.65 3300.84C1227.63 3312.39 1235.26 3323.96 1245.52 3335.56C1253.55 3323.56 1260.35 3312.97 1265.9 3303.79C1242.55 3280 1227.83 3271.09 1221.74 3277.07Z" fill="#B55D0D"/>
<rect x="4683.5" y="2225.03" width="200.961" height="900.052" transform="rotate(96.3741 4683.5 2225.03)" fill="#D9873C"/>
<path d="M4628.76 2231.9L4629.09 2182.3C4629.06 2163.9 4628.63 2142.96 4627.79 2119.5L4674.6 2123.43C4675.16 2142.36 4675.48 2176.76 4675.56 2226.63C4675.63 2276.23 4673.59 2340.23 4669.44 2418.64L4633.84 2415.49C4633.02 2404.82 4632.2 2392.29 4631.38 2377.89C4619.95 2400.84 4607.57 2412.33 4594.23 2412.35C4573.7 2412.38 4559.43 2406 4551.41 2393.21C4543.39 2380.43 4539.36 2361.9 4539.32 2337.63C4539.29 2313.1 4544.45 2287.76 4554.81 2261.61C4565.44 2235.46 4577.42 2222.37 4590.75 2222.35C4602.75 2222.34 4615.42 2225.52 4628.76 2231.9ZM4630.02 2269.1C4623.34 2264.04 4616.67 2261.52 4610.01 2261.53C4603.61 2261.54 4598.02 2270.21 4593.25 2287.55C4588.47 2304.62 4586.1 2322.49 4586.13 2341.16C4586.16 2359.83 4590.7 2369.15 4599.77 2369.14C4603.24 2369.14 4607.89 2363.4 4613.74 2351.92C4619.59 2340.18 4624.9 2325.37 4629.68 2307.5L4630.02 2269.1Z" fill="#B55D0D"/>
<rect x="3920" y="644.409" width="175.581" height="608.421" transform="rotate(-44.6572 3920 644.409)" fill="#D9873C"/>
<path d="M4021.64 609.427C4024.79 607.358 4028.57 604.384 4032.97 600.504C4037.37 596.624 4041.08 591.757 4044.09 585.9C4047.11 580.044 4047.38 575.716 4044.91 572.915C4039.97 567.314 4029.86 568.945 4014.56 577.807C3999.64 586.693 3986.78 595.897 3975.98 605.419C3957.78 621.467 3951.94 633.191 3958.46 640.592C3963.75 646.593 3981.75 645.837 4012.45 638.322L4016.12 674.545C3996.76 682.018 3979.16 685.445 3963.33 684.826C3947.68 684.408 3934.82 678.497 3924.77 667.096C3914.72 655.694 3910.14 641.424 3911.03 624.287C3912.09 607.35 3921.83 590.77 3940.23 574.546C3959.83 557.264 3982.16 543.271 4007.21 532.566C4020.98 526.821 4034.36 524.45 4047.33 525.456C4060.48 526.661 4071.9 532.765 4081.6 543.767C4091.3 554.769 4093.72 568.808 4088.87 585.884C4084.19 603.161 4075.05 617.795 4061.45 629.787C4055.65 634.901 4049.86 638.409 4044.07 640.312L4021.64 609.427Z" fill="#B55D0D"/>
<rect x="2499.65" y="412.642" width="200.961" height="608.421" transform="rotate(-1.82289 2499.65 412.642)" fill="#D9873C"/>
<path d="M2589.65 844.676C2602.45 844.657 2611.93 851.71 2618.08 865.834C2624.5 879.957 2627.73 896.753 2627.76 916.219C2627.79 935.419 2625.68 954.489 2621.44 973.429C2617.47 992.368 2610.96 1008.51 2601.92 1021.86C2593.14 1034.94 2583.01 1041.49 2571.55 1041.5C2554.75 1041.53 2540.87 1034.08 2529.91 1019.17C2529.92 1022.9 2530.19 1028.23 2530.74 1035.17L2495.53 1031.62C2493.88 999.621 2493.02 956.689 2492.94 902.822C2492.86 848.689 2494.24 794.42 2497.09 740.016L2542.7 743.947C2539.58 796.485 2538.05 844.221 2538.11 887.154C2555.94 858.86 2573.12 844.701 2589.65 844.676ZM2538.22 955.554L2538.66 986.753C2541.87 991.282 2544.68 994.478 2547.08 996.341C2549.48 997.937 2553.08 998.732 2557.88 998.724C2564.55 998.714 2570.4 991.372 2575.45 976.698C2580.49 961.757 2583.01 947.62 2582.99 934.287C2582.97 920.953 2582.15 911.354 2580.54 905.49C2579.2 899.626 2576.13 896.697 2571.33 896.704C2561.2 896.719 2550.16 916.336 2538.22 955.554Z" fill="#B55D0D"/>
<rect x="1128.83" y="1274.72" width="200.961" height="668.444" transform="rotate(-55.0976 1128.83 1274.72)" fill="#D9873C"/>
<path d="M1676.75 1510.73C1690.72 1494.82 1706.19 1483.48 1723.13 1476.73C1740.21 1469.75 1756.58 1470.85 1772.22 1480.02C1787.86 1489.2 1795.51 1502.5 1795.18 1519.93C1795.21 1537.26 1788.21 1557.89 1774.17 1581.81C1760.14 1605.73 1739.39 1637.93 1711.94 1678.4L1684.37 1658.98L1688.09 1646.32C1673.64 1646.19 1660.78 1642.81 1649.51 1636.2C1638.24 1629.59 1631.08 1620.44 1628.04 1608.76C1625.13 1596.85 1627.8 1583.89 1636.03 1569.86C1644.26 1555.83 1658.24 1547.8 1677.98 1545.78C1697.95 1543.89 1717.15 1548.05 1735.59 1558.25L1741.06 1548.93C1751.72 1530.76 1752.68 1519.11 1743.94 1513.98C1739.57 1511.42 1733.72 1512.16 1726.4 1516.21C1719.44 1520.17 1712.86 1525.59 1706.67 1532.46L1676.75 1510.73ZM1670 1592.57C1665.68 1599.93 1667.9 1606.18 1676.63 1611.31C1682.61 1614.81 1689.75 1617.15 1698.04 1618.3L1715.73 1589.72C1704.38 1584.3 1694.6 1582.27 1686.38 1583.63C1678.3 1584.76 1672.84 1587.74 1670 1592.57Z" fill="#B55D0D"/>
<g filter="url(#filter0_b_15_334)">
<path fill-rule="evenodd" clip-rule="evenodd" d="M4861.5 -1.5L3815 860.5C3815 860.5 2872 155.441 1841 779.5C1010 1282.5 1010 2101 1010 2101H-8V-79H-40V4343H5792V-79H23.2147L4861.5 -1.5Z" fill="black" fill-opacity="0.5"/>
</g>
</g>
<rect x="1.1373" y="4237.86" width="4236.73" height="5652.73" rx="21.6086" transform="rotate(-90 1.1373 4237.86)" stroke="#262626" stroke-width="2.27459"/>
<g filter="url(#filter1_d_15_334)">
<path d="M215.85 159.1L230.85 160.45C231.55 168.45 232.6 179.05 234 192.25C235.5 205.35 236.55 214.65 237.15 220.15L237.9 220C245 189.4 249.6 165.45 251.7 148.15L271.35 149.8C265.75 182.9 257.55 216.9 246.75 251.8L232.35 250.6C228.95 238.8 225.15 223.35 220.95 204.25C216.65 224.85 212.55 241.3 208.65 253.6L194.25 252.4C185.75 210 180 175.6 177 149.2L196.35 150.85C197.95 167.75 200.45 190.85 203.85 220.15L204.6 220C210.4 193.3 214.15 173 215.85 159.1ZM271.943 208.75C273.443 200.95 276.293 194.35 280.493 188.95C284.693 183.45 290.193 180.7 296.993 180.7C303.793 180.7 308.793 183.55 311.993 189.25C315.293 194.85 316.943 202.85 316.943 213.25C316.943 223.65 316.343 238 315.143 256.3L302.543 255.25L301.343 250.45C296.643 253.15 291.843 254.5 286.943 254.5C282.043 254.5 277.993 252.9 274.793 249.7C271.593 246.4 269.993 241.7 269.993 235.6C269.993 229.5 272.993 224.25 278.993 219.85C285.093 215.45 292.093 213.15 299.993 212.95V208.9C299.993 201 298.093 197.05 294.293 197.05C292.393 197.05 290.643 198.4 289.043 201.1C287.543 203.7 286.443 206.7 285.743 210.1L271.943 208.75ZM285.293 236.5C285.293 239.7 287.193 241.3 290.993 241.3C293.593 241.3 296.343 240.7 299.243 239.5L299.543 226.9C294.843 227.3 291.293 228.5 288.893 230.5C286.493 232.4 285.293 234.4 285.293 236.5ZM352.89 144.7C351.39 170 350.64 192.8 350.64 213.1C350.64 233.4 350.89 247.65 351.39 255.85L333.69 254.2C333.29 243.8 333.09 229.05 333.09 209.95C333.09 190.75 333.84 168.55 335.34 143.35L352.89 144.7ZM368.389 254.2C367.989 243.8 367.789 228.4 367.789 208C367.789 187.6 368.539 166.05 370.039 143.35L387.589 144.7C386.089 169.2 385.339 192.8 385.339 215.5C395.739 202.8 403.539 190.45 408.739 178.45L420.739 188.95C416.239 199.45 410.239 209.85 402.739 220.15C410.539 229.25 416.739 237.75 421.339 245.65L409.939 256.45C404.539 248.05 396.339 238.1 385.339 226.6C385.339 237.7 385.539 247.45 385.939 255.85L368.389 254.2ZM430.813 181.45L447.913 183.1V255.1L430.813 253.45V181.45ZM432.013 155.05L448.813 157L447.313 173.8L430.513 171.7L432.013 155.05ZM494.462 181.6C507.662 181.6 514.262 192.6 514.262 214.6C514.262 226.2 513.612 238.5 512.312 251.5L494.762 249.85C495.862 238.45 496.412 226.95 496.412 215.35C496.412 203.65 494.762 197.8 491.462 197.8C489.862 197.8 487.812 201.85 485.312 209.95C482.812 217.95 481.262 225.8 480.662 233.5C480.862 237.6 481.262 245 481.862 255.7L464.312 254.05C463.212 239.95 462.662 227.55 462.662 216.85C462.662 206.15 462.962 196.55 463.562 188.05L474.662 189.25C474.862 190.05 475.612 193.3 476.912 199C482.712 187.4 488.562 181.6 494.462 181.6ZM548.436 273.1C551.536 273.1 554.036 269.9 555.936 263.5C557.836 257.2 558.786 249.35 558.786 239.95C553.486 249.45 547.986 254.2 542.286 254.2C536.686 254.2 532.136 252.3 528.636 248.5C525.236 244.6 523.536 238.75 523.536 230.95C523.536 223.05 524.886 215.25 527.586 207.55C530.286 199.75 533.586 193.55 537.486 188.95C541.486 184.25 545.286 181.9 548.886 181.9C555.186 181.9 560.986 184.45 566.286 189.55L576.786 191.05C575.486 197.55 574.836 207.55 574.836 221.05C574.836 234.45 574.436 244.35 573.636 250.75C572.936 257.05 571.736 263.25 570.036 269.35C568.336 275.45 565.836 280.3 562.536 283.9C559.236 287.5 554.886 289.3 549.486 289.3C544.086 289.3 538.936 287.1 534.036 282.7C529.136 278.4 525.186 273.2 522.186 267.1L534.786 261.7C538.686 269.3 543.236 273.1 548.436 273.1ZM552.636 197.2C550.136 197.2 547.586 200.8 544.986 208C542.486 215.2 541.236 222.85 541.236 230.95C541.236 234.05 541.636 236.4 542.436 238C543.336 239.6 544.286 240.4 545.286 240.4C546.386 240.4 547.786 239.4 549.486 237.4C551.186 235.4 552.986 232.2 554.886 227.8C556.886 223.4 558.336 218.55 559.236 213.25L559.536 201.85C556.636 198.75 554.336 197.2 552.636 197.2Z" fill="black"/>
<path d="M231.6 432.72C237.627 432.72 240.64 431.387 240.64 428.72C240.64 427.547 238.96 426.56 235.6 425.76C232.187 424.96 228.933 424.56 225.84 424.56C219.013 424.56 215.6 425.68 215.6 427.92C215.6 429.36 217.44 430.533 221.12 431.44C224.747 432.293 228.24 432.72 231.6 432.72ZM230.88 442.08C225.92 442.08 221.067 441.067 216.32 439.04C213.92 437.973 211.973 436.48 210.48 434.56C208.933 432.587 208.16 430.4 208.16 428C208.16 425.6 208.72 423.547 209.84 421.84C210.907 420.08 212.347 418.747 214.16 417.84C217.733 416.08 221.627 415.2 225.84 415.2C231.653 415.2 236.827 416.4 241.36 418.8C245.84 421.147 248.08 424.453 248.08 428.72C248.08 437.627 242.347 442.08 230.88 442.08ZM207.92 393.987C207.92 386.947 213.787 383.427 225.52 383.427C231.707 383.427 238.267 383.774 245.2 384.467L244.32 393.827C238.24 393.24 232.107 392.947 225.92 392.947C219.68 392.947 216.56 393.827 216.56 395.587C216.56 396.44 218.72 397.534 223.04 398.867C227.307 400.2 231.493 401.027 235.6 401.347C237.787 401.24 241.733 401.027 247.44 400.707L246.56 410.067C239.04 410.654 232.427 410.947 226.72 410.947C221.013 410.947 215.893 410.787 211.36 410.467L212 404.547C212.427 404.44 214.16 404.04 217.2 403.347C211.013 400.254 207.92 397.134 207.92 393.987ZM212.56 338.466H220.16C220.16 341.026 220.187 342.999 220.24 344.386C225.573 344.546 234.533 344.626 247.12 344.626L246.24 354.066C236.907 354.066 228.453 353.986 220.88 353.826C220.88 354.626 221.013 356.146 221.28 358.386L214.72 359.586C214.453 358.306 214.107 356.306 213.68 353.586C209.733 353.479 203.973 353.266 196.4 352.946L197.28 343.426C202.56 343.746 207.68 343.986 212.64 344.146C212.587 342.812 212.56 340.919 212.56 338.466ZM213.44 323.817C210.4 321.364 208.88 318.964 208.88 316.617C208.88 314.217 209.68 312.27 211.28 310.777C214.053 308.164 217.573 306.857 221.84 306.857C229.573 306.857 237.653 307.15 246.08 307.737L245.2 317.017C237.36 316.644 229.653 316.457 222.08 316.457C219.253 316.457 217.84 317.177 217.84 318.617C217.84 320.324 221.573 322.164 229.04 324.137C234.373 324.244 240.427 324.51 247.2 324.937L246.32 334.297C237.147 333.604 226.907 333.257 215.6 333.257C204.293 333.257 195.2 333.444 188.32 333.817L189.2 324.457C196.72 324.03 204.8 323.817 213.44 323.817ZM240.24 289.592C240.24 287.566 238.293 285.406 234.4 283.112L238 277.032C239.76 278.046 241.253 279.032 242.48 279.992C243.707 280.899 244.88 282.286 246 284.152C247.12 286.019 247.68 288.099 247.68 290.392C247.68 293.752 246.267 296.579 243.44 298.872C240.56 301.166 236.693 302.312 231.84 302.312C226.293 302.312 221.12 301.326 216.32 299.352C213.813 298.286 211.787 296.766 210.24 294.792C208.64 292.766 207.84 290.712 207.84 288.632C207.84 286.499 208.187 284.792 208.88 283.512C209.52 282.232 210.267 281.219 211.12 280.472C211.92 279.672 213.12 278.979 214.72 278.392C216.32 277.806 217.627 277.406 218.64 277.192C219.653 276.926 221.12 276.712 223.04 276.552C225.6 276.339 227.92 276.232 230 276.232C231.173 280.499 232.24 286.019 233.2 292.792C235.333 292.632 237.04 292.259 238.32 291.672C239.6 291.086 240.24 290.392 240.24 289.592ZM215.68 287.832C215.68 289.006 216.853 290.072 219.2 291.032C221.547 291.939 224.267 292.472 227.36 292.632C226.773 289.806 226.213 287.352 225.68 285.272C219.013 285.272 215.68 286.126 215.68 287.832Z" fill="black"/>
<path d="M310.419 379.586H342.411C342.177 384.391 342.001 389.107 341.884 393.736C341.825 398.365 341.796 402.789 341.796 407.008C341.796 411.227 341.796 415.094 341.796 418.609C341.854 422.066 341.942 425.055 342.059 427.574C342.177 430.562 342.294 433.229 342.411 435.572C339.423 437.096 335.79 438.385 331.512 439.439C327.235 440.494 322.05 441.021 315.956 441.021C309.862 441.021 304.208 439.762 298.993 437.242C293.778 434.723 289.237 430.914 285.37 425.816C281.503 420.66 278.456 414.186 276.229 406.393C274.061 398.541 272.977 389.312 272.977 378.707C272.977 368.102 274.12 358.902 276.405 351.109C278.749 343.258 281.913 336.783 285.897 331.686C289.882 326.529 294.51 322.691 299.784 320.172C305.116 317.652 310.77 316.393 316.747 316.393C319.208 316.393 321.434 316.51 323.427 316.744C325.419 316.92 327.264 317.184 328.964 317.535C330.721 317.887 332.362 318.326 333.885 318.854C335.409 319.381 336.903 319.938 338.368 320.523V338.277C334.559 334 330.956 331.012 327.557 329.312C324.218 327.555 320.585 326.676 316.659 326.676C312.147 326.676 308.134 327.936 304.618 330.455C301.102 332.916 298.114 336.432 295.653 341.002C293.251 345.572 291.405 351.051 290.116 357.438C288.885 363.766 288.27 370.797 288.27 378.531C288.27 386.031 288.856 392.975 290.028 399.361C291.2 405.689 292.958 411.197 295.302 415.885C297.645 420.514 300.575 424.146 304.091 426.783C307.665 429.42 311.825 430.738 316.571 430.738C318.622 430.738 320.409 430.592 321.932 430.299C323.514 429.947 325.067 429.361 326.591 428.541C326.649 427.252 326.708 425.758 326.766 424.059C326.825 422.594 326.884 420.836 326.942 418.785C327.001 416.676 327.03 414.244 327.03 411.49C327.03 408.502 326.971 405.191 326.854 401.559C326.796 397.926 326.649 394 326.415 389.781H310.419V379.586ZM406.923 332.213C399.188 332.213 392.45 333.297 386.708 335.465C380.966 337.633 376.747 340.914 374.052 345.309C373.7 356.676 373.524 368.131 373.524 379.674C373.524 385.123 373.553 390.309 373.612 395.23C373.671 400.152 373.759 404.986 373.876 409.732C373.993 414.479 374.169 419.254 374.403 424.059C374.637 428.805 374.901 433.785 375.194 439H358.934C359.227 433.785 359.462 428.805 359.637 424.059C359.872 419.254 360.048 414.479 360.165 409.732C360.341 404.986 360.458 400.152 360.516 395.23C360.575 390.309 360.604 385.123 360.604 379.674C360.604 374.225 360.575 368.951 360.516 363.854C360.458 358.697 360.341 353.629 360.165 348.648C360.048 343.609 359.872 338.6 359.637 333.619C359.462 328.58 359.227 323.453 358.934 318.238H375.282C375.106 320.992 374.93 323.453 374.755 325.621C374.637 327.789 374.52 330.221 374.403 332.916C376.278 330.748 378.563 328.639 381.259 326.588C384.012 324.537 386.884 322.75 389.872 321.227C392.86 319.645 395.848 318.385 398.837 317.447C401.825 316.51 404.52 316.041 406.923 316.041V332.213ZM457.723 439L458.163 428.365C456.757 429.947 455.321 431.529 453.856 433.111C452.391 434.635 450.751 436.012 448.934 437.242C447.118 438.414 445.038 439.352 442.694 440.055C440.409 440.816 437.684 441.197 434.52 441.197C430.887 441.197 427.489 440.465 424.325 439C421.219 437.477 418.495 435.279 416.151 432.408C413.866 429.537 412.05 425.992 410.702 421.773C409.354 417.496 408.68 412.574 408.68 407.008C408.68 399.918 409.764 393.854 411.932 388.814C414.1 383.775 417.294 379.498 421.512 375.982C425.79 372.467 431.063 369.625 437.333 367.457C443.661 365.289 450.956 363.531 459.218 362.184C459.218 355.094 458.837 349.234 458.075 344.605C457.372 339.977 456.317 336.314 454.911 333.619C453.505 330.865 451.747 328.961 449.637 327.906C447.587 326.852 445.214 326.324 442.518 326.324C440.175 326.324 437.831 326.705 435.487 327.467C433.143 328.17 430.8 329.137 428.456 330.367C426.171 331.598 423.856 333.033 421.512 334.674C419.227 336.256 416.971 337.926 414.745 339.684V322.633C417.206 321.695 419.55 320.846 421.776 320.084C424.003 319.264 426.229 318.561 428.456 317.975C430.741 317.389 433.026 316.92 435.311 316.568C437.596 316.217 440.028 316.041 442.606 316.041C447.762 316.041 452.245 316.744 456.053 318.15C459.921 319.557 463.114 321.783 465.634 324.83C468.212 327.877 470.116 331.803 471.346 336.607C472.635 341.412 473.28 347.184 473.28 353.922C473.28 354.566 473.251 355.65 473.192 357.174C473.192 358.697 473.163 360.484 473.104 362.535C473.104 364.586 473.075 366.783 473.016 369.127C473.016 371.471 472.987 373.785 472.928 376.07C472.928 378.355 472.899 380.523 472.841 382.574C472.841 384.566 472.841 386.236 472.841 387.584C472.841 390.689 472.87 394.205 472.928 398.131C472.987 401.998 473.075 406.129 473.192 410.523C473.368 414.918 473.544 419.518 473.719 424.322C473.954 429.127 474.218 434.02 474.51 439H457.723ZM458.778 415.006C458.954 409.029 459.1 402.643 459.218 395.846C459.335 388.99 459.393 381.168 459.393 372.379C451.952 373.258 445.946 374.693 441.376 376.686C436.805 378.678 433.26 381.139 430.741 384.068C428.221 386.939 426.522 390.221 425.643 393.912C424.764 397.604 424.325 401.617 424.325 405.953C424.325 409.645 424.647 412.984 425.292 415.973C425.995 418.961 426.991 421.51 428.28 423.619C429.569 425.67 431.093 427.252 432.85 428.365C434.608 429.479 436.6 430.035 438.827 430.035C441.346 430.035 443.544 429.596 445.419 428.717C447.352 427.779 449.081 426.607 450.604 425.201C452.186 423.736 453.622 422.125 454.911 420.367C456.2 418.551 457.489 416.764 458.778 415.006ZM520.653 318.238C525.575 318.238 529.969 319.088 533.837 320.787C537.704 322.428 540.956 324.859 543.593 328.082C546.288 331.305 548.309 335.23 549.657 339.859C551.063 344.488 551.766 349.732 551.766 355.592C551.766 358.111 551.532 360.807 551.063 363.678C550.594 366.49 549.833 369.273 548.778 372.027C547.723 374.781 546.376 377.447 544.735 380.025C543.094 382.545 541.073 384.771 538.671 386.705C536.327 388.639 533.573 390.191 530.409 391.363C527.303 392.477 523.759 393.033 519.774 393.033H506.239C506.356 400.533 506.503 408.209 506.678 416.061C506.913 423.854 507.264 431.5 507.733 439H491.298C491.649 434.02 491.913 428.922 492.089 423.707C492.323 418.434 492.499 413.219 492.616 408.062C492.733 402.848 492.821 397.75 492.88 392.77C492.938 387.789 492.968 383.043 492.968 378.531C492.968 374.02 492.938 369.273 492.88 364.293C492.821 359.312 492.733 354.244 492.616 349.088C492.499 343.932 492.323 338.746 492.089 333.531C491.913 328.316 491.649 323.219 491.298 318.238H520.653ZM507.294 328.082C506.884 336.754 506.591 345.426 506.415 354.098C506.298 362.77 506.239 370.914 506.239 378.531V383.277H519.774C525.048 383.277 529.149 380.875 532.079 376.07C535.009 371.207 536.473 364.381 536.473 355.592C536.473 346.627 535.096 339.801 532.343 335.113C529.589 330.426 525.399 328.082 519.774 328.082H507.294ZM631.044 318.238C630.751 323.219 630.487 328.316 630.253 333.531C630.077 338.746 629.93 343.932 629.813 349.088C629.696 354.244 629.608 359.312 629.55 364.293C629.491 369.273 629.462 374.02 629.462 378.531C629.462 383.043 629.491 387.789 629.55 392.77C629.608 397.75 629.667 402.848 629.725 408.062C629.843 413.219 629.989 418.434 630.165 423.707C630.341 428.922 630.575 434.02 630.868 439H614.52C614.813 434.02 615.048 428.922 615.223 423.707C615.458 418.434 615.634 413.219 615.751 408.062C615.868 402.848 615.956 397.75 616.014 392.77C616.073 387.789 616.102 383.043 616.102 378.531H579.891C579.891 383.043 579.921 387.789 579.979 392.77C580.038 397.75 580.126 402.848 580.243 408.062C580.36 413.219 580.507 418.434 580.682 423.707C580.858 428.922 581.093 434.02 581.385 439H564.95C565.302 434.02 565.565 428.922 565.741 423.707C565.975 418.434 566.151 413.219 566.268 408.062C566.385 402.848 566.473 397.75 566.532 392.77C566.591 387.789 566.62 383.043 566.62 378.531C566.62 374.02 566.591 369.273 566.532 364.293C566.473 359.312 566.385 354.244 566.268 349.088C566.151 343.932 565.975 338.746 565.741 333.531C565.565 328.316 565.302 323.219 564.95 318.238H581.561C580.975 326.441 580.565 334.85 580.331 343.463C580.155 352.018 580.009 360.279 579.891 368.248H616.014C615.956 360.279 615.809 352.018 615.575 343.463C615.341 334.85 614.989 326.441 614.52 318.238H631.044Z" fill="#614294"/>
<path d="M778.509 341.661C778.337 341.108 778.137 340.585 777.975 340.033C777.762 339.876 777.636 340.141 777.213 340.258C777.021 340.311 776.785 340.369 776.653 340.553C776.479 340.794 775.777 340.965 775.531 341.104C774.99 341.41 774.446 341.606 773.836 341.794C772.288 342.271 771.065 343.067 769.66 343.829C768.733 344.332 767.696 344.921 766.91 345.595C766.258 346.153 765.598 346.633 764.979 347.249C764.61 347.617 764.113 347.916 763.834 348.369C763.314 349.216 762.975 350.402 763.326 351.397C763.862 352.92 765.889 354.284 767.5 354.239C768.623 354.209 769.806 354.163 770.919 354.327C772.264 354.526 773.708 354.865 775.077 354.795C777.417 354.677 779.643 354.179 781.925 353.821C782.76 353.69 782.482 353.087 782.229 352.597C781.593 351.367 781.211 350 780.828 348.674C780.533 347.653 779.973 346.718 779.683 345.689C779.475 344.949 779.169 344.248 778.946 343.514C778.76 342.906 778.699 342.273 778.509 341.661Z" fill="#6F432E"/>
<path d="M777.859 339.604C778.033 340.319 778.293 340.966 778.509 341.661C778.699 342.273 778.76 342.906 778.946 343.514C779.169 344.248 779.475 344.949 779.683 345.689C779.973 346.718 780.533 347.653 780.828 348.674C781.211 350 781.593 351.367 782.229 352.597C782.482 353.087 782.76 353.69 781.925 353.821C779.643 354.179 777.417 354.677 775.077 354.795C773.708 354.865 772.264 354.526 770.919 354.327C769.806 354.163 768.623 354.209 767.5 354.239C765.889 354.284 763.862 352.92 763.326 351.397C762.975 350.402 763.314 349.216 763.834 348.369C764.113 347.916 764.61 347.617 764.979 347.249C765.598 346.633 766.258 346.153 766.91 345.595C767.696 344.921 768.733 344.332 769.66 343.829C771.065 343.067 772.288 342.271 773.836 341.794C774.446 341.606 774.99 341.41 775.531 341.104C775.777 340.965 776.479 340.794 776.653 340.553C776.785 340.369 777.021 340.311 777.213 340.258C777.767 340.105 777.811 339.698 778.209 340.318" stroke="#6F432E" stroke-width="5" stroke-linecap="round"/>
<path d="M787.212 371.488C787.112 369.522 786.754 367.065 785.578 365.386C785.418 365.381 785.211 365.461 784.927 365.606C784.549 365.8 784.182 366.02 783.803 366.215C782.782 366.738 781.572 366.88 780.572 367.43C780.099 367.69 779.569 367.799 779.095 368.074C778.57 368.378 778.068 368.6 777.508 368.834C776.453 369.275 775.446 369.71 774.418 370.193C773.289 370.723 772.004 371.256 770.742 371.32C770.152 371.35 768.739 371.514 768.757 372.361C768.77 372.97 768.85 374.129 769.54 374.406C770.288 374.706 771.103 374.867 771.827 375.184C772.243 375.367 772.713 375.403 773.148 375.477C773.766 375.582 774.406 375.532 775.013 375.725C775.35 375.832 775.67 375.994 776.017 376.069C777.466 376.382 779.039 376.647 780.525 376.572L785.24 376.332C785.869 376.3 786.48 376.46 787.104 376.447C787.452 376.439 787.346 376.194 787.332 375.912C787.257 374.443 787.287 372.972 787.212 371.488Z" fill="#6F432E"/>
<path d="M785.578 365.386C786.754 367.065 787.112 369.522 787.212 371.488C787.287 372.972 787.257 374.443 787.332 375.912C787.346 376.194 787.452 376.439 787.104 376.447C786.48 376.46 785.869 376.3 785.24 376.332C783.668 376.412 782.097 376.492 780.525 376.572C779.039 376.647 777.466 376.382 776.017 376.069C775.67 375.994 775.35 375.832 775.013 375.725C774.406 375.532 773.766 375.582 773.148 375.477C772.713 375.403 772.243 375.367 771.827 375.184C771.103 374.867 770.288 374.706 769.54 374.406C768.85 374.129 768.77 372.97 768.757 372.361C768.739 371.514 770.152 371.35 770.742 371.32C772.004 371.256 773.289 370.723 774.418 370.193C775.446 369.71 776.453 369.275 777.508 368.834C778.068 368.6 778.57 368.378 779.095 368.074C779.569 367.799 780.099 367.69 780.572 367.43C781.572 366.88 782.782 366.738 783.803 366.215C784.182 366.02 784.549 365.8 784.927 365.606C785.652 365.235 785.874 365.291 786.091 366.099" stroke="#6F432E" stroke-width="5" stroke-linecap="round"/>
<path d="M788.877 391.929C788.83 390.517 789.051 389.14 788.965 387.743C788.946 387.482 787.508 385.779 787.097 386.144C786.982 386.246 786.412 386.27 786.246 386.309C785.69 386.439 784.991 386.587 784.426 386.616C782.599 386.709 780.856 387.529 779.043 387.621C776.523 387.749 774.096 388.444 771.592 388.627C770.685 388.693 769.522 388.509 769.323 389.682C769.183 390.505 769.316 391.166 769.906 391.795C770.394 392.316 771.25 392.39 771.873 392.683C772.555 393.003 773.365 393.059 774.082 393.308C775.259 393.715 776.277 394.334 777.557 394.38C779.059 394.434 780.364 394.919 781.668 395.64C782.79 396.26 784.318 396.012 785.538 396.152C786.051 396.211 787.774 396.521 787.978 395.842C788.106 395.416 788.179 394.973 788.283 394.526C788.342 394.272 788.512 393.965 788.607 393.714C788.824 393.143 788.897 392.543 788.877 391.929Z" fill="#6F432E"/>
<path d="M788.815 386.602C789.191 388.396 788.818 390.134 788.877 391.929C788.897 392.543 788.824 393.143 788.607 393.714C788.512 393.965 788.342 394.272 788.283 394.526C788.179 394.973 788.106 395.416 787.978 395.842C787.774 396.521 786.051 396.211 785.538 396.152C784.318 396.012 782.79 396.26 781.668 395.64C780.364 394.919 779.059 394.434 777.557 394.38C776.277 394.334 775.259 393.715 774.082 393.308C773.365 393.059 772.555 393.003 771.873 392.683C771.25 392.39 770.394 392.316 769.906 391.795C769.316 391.166 769.183 390.505 769.323 389.682C769.522 388.509 770.685 388.693 771.592 388.627C774.096 388.444 776.523 387.749 779.043 387.621C780.856 387.529 782.599 386.709 784.426 386.616C784.991 386.587 785.69 386.439 786.246 386.309C786.412 386.27 786.982 386.246 787.097 386.144C787.509 385.778 788.952 387.489 788.965 387.744" stroke="#6F432E" stroke-width="5" stroke-linecap="round"/>
<path d="M752.796 356.949C752.274 355.877 751.833 354.653 751.088 353.714C750.699 353.225 749.444 354.703 749.262 354.806C748.894 355.013 748.619 355.275 748.201 355.405C747.341 355.673 746.819 356.278 746.067 356.733C745.246 357.23 744.448 357.748 743.718 358.374C742.341 359.553 740.34 360.028 739.146 361.428C738.8 361.833 738.874 362.241 738.9 362.741C738.926 363.262 739.318 363.485 739.738 363.697C741.087 364.379 743.509 364.443 744.963 363.797C745.476 363.57 746.178 363.721 746.73 363.603C747.16 363.511 747.639 363.455 748.043 363.275C748.92 362.884 749.827 362.588 750.686 362.148C751.607 361.676 752.738 361.663 753.61 361.088C753.866 360.92 753.482 359.712 753.472 359.498C753.426 358.603 753.192 357.759 752.796 356.949Z" fill="#6F432E" stroke="#6F432E" stroke-width="5" stroke-linecap="round"/>
<path d="M721.123 368.742C720.759 367.908 720.595 366.921 720.359 366.04C720.159 365.686 724.584 364.628 724.894 364.555C725.851 364.331 726.917 364.107 727.824 363.727C728.816 363.312 729.766 362.949 730.848 362.894C732.097 362.831 733.235 363.068 732.592 364.536C732.201 365.429 731.309 366.274 730.563 366.88C730.074 367.277 729.719 367.959 729.253 368.41C728.68 368.965 727.95 369.354 727.358 369.865C726.806 370.341 726.229 370.765 725.687 371.256C725.068 371.817 724.398 372.544 723.64 372.922C723.178 373.153 722.163 371.184 722.041 370.82C721.922 370.461 721.634 370.193 721.516 369.848C721.387 369.472 721.283 369.108 721.123 368.742Z" fill="#6F432E" stroke="#6F432E" stroke-width="5" stroke-linecap="round"/>
<path d="M757.31 373.465C757.133 372.374 756.763 371.287 756.318 370.276C756.291 369.732 753.285 370.873 752.902 371.03C752.427 371.223 751.935 371.431 751.483 371.671C750.457 372.214 749.283 372.588 748.317 373.248C747.431 373.854 746.532 374.505 745.698 375.181C744.77 375.933 743.215 377.461 743.588 378.813C743.883 379.881 744.846 379.847 745.781 379.799L747.339 379.72C747.97 379.688 748.594 379.364 749.229 379.31C751.16 379.148 752.977 378.328 754.891 378.076C756.285 377.893 757.477 377.506 757.443 375.967C757.424 375.113 757.451 374.332 757.31 373.465Z" fill="#6F432E" stroke="#6F432E" stroke-width="5" stroke-linecap="round"/>
<path d="M726.143 384.245C725.799 383.637 725.407 383.062 724.958 382.529C724.855 382.406 726.516 382.378 726.701 382.312C727.51 382.027 728.323 381.84 729.109 381.482C730.672 380.769 732.567 379.634 734.318 379.545C734.863 379.517 737.658 379.205 737.125 380.291C736.781 380.993 736.57 381.966 735.908 382.495C735.404 382.898 734.877 383.358 734.431 383.824C733.974 384.302 733.398 384.683 733.039 385.231C732.7 385.747 731.747 386.135 731.245 386.495C730.653 386.919 730.068 387.322 729.505 387.791C729.188 388.054 728.626 388.856 728.385 388.149C728.149 387.458 727.752 386.903 727.396 386.272C727.005 385.581 726.536 384.941 726.143 384.245Z" fill="#6F432E" stroke="#6F432E" stroke-width="5" stroke-linecap="round"/>
<path d="M758.645 391.525C758.749 390.262 758.636 388.64 758.338 387.418C758.421 387.111 756.591 388.171 756.29 388.254C755.571 388.453 754.943 389.025 754.252 389.275C753.099 389.692 751.988 390.545 750.984 391.241C750.072 391.873 748.761 392.2 748.486 393.504C748.301 394.38 748.689 394.806 749.566 394.762C750.637 394.707 751.567 394.604 752.59 394.393C753.737 394.157 754.852 393.484 755.963 393.131C757.06 392.782 758.53 392.937 758.645 391.525Z" fill="#6F432E" stroke="#6F432E" stroke-width="5" stroke-linecap="round"/>
<path d="M734.788 400.018C734.034 398.913 733.127 397.911 732.272 396.894C732.049 396.796 733.602 396.124 733.744 396.035C734.179 395.764 734.973 395.899 735.475 395.709C736.817 395.201 738.458 394.699 739.891 394.626C740.551 394.592 742.909 394.37 742.376 395.754C742.139 396.369 742.254 397.186 741.773 397.718C741.034 398.536 740.045 399.24 739.387 400.133C739.205 400.38 738.849 400.828 738.536 400.861C737.989 400.918 737.443 401.004 736.896 401.049C736.423 401.088 736.424 401.286 736.115 401.553C735.708 401.903 735.468 401.674 735.419 401.228C735.381 400.885 735 400.327 734.797 400.03L734.788 400.018Z" fill="#6F432E" stroke="#6F432E" stroke-width="5" stroke-linecap="round"/>
<path d="M785.47 407.011C784.735 406.961 783.987 406.935 783.26 406.906C782.247 406.865 781.271 406.62 780.249 406.653C779.81 406.667 779.364 406.529 778.924 406.495C778.366 406.451 777.788 406.453 777.228 406.482C776.677 406.51 776.22 406.439 775.68 406.362C775.191 406.292 774.684 406.349 774.189 406.293C772.973 406.157 771.773 406.191 770.57 406.252C769.69 406.296 768.909 406.424 768.064 406.622C767.827 406.678 767.525 406.669 767.3 406.751C767.091 406.827 766.941 407.004 766.713 407.016C766.356 407.034 765.673 407.298 765.4 407.533C765.082 407.808 764.844 408.052 764.738 408.433C764.6 408.929 764.277 409.571 764.025 410.011C763.45 411.013 763.252 412.176 762.808 413.22C762.361 414.272 761.8 415.249 761.341 416.297C760.799 417.534 760.171 418.47 759.137 419.331C757.525 420.673 755.201 421.381 753.223 421.945C751.54 422.424 749.844 423.185 748.106 423.386C746.532 423.568 744.85 423.458 743.296 423.77C742.239 423.982 741.206 424.034 740.144 424.029C739.787 424.027 739.42 423.985 739.047 424.004C738.657 424.023 738.262 424.303 737.937 424.506C737.058 425.054 736.52 426.026 735.993 426.909C735.679 427.438 735.407 428.027 734.996 428.493C734.516 429.037 733.92 429.426 733.449 429.987C733.198 430.285 733.123 430.733 732.833 430.993C732.327 431.443 731.811 431.851 731.28 432.27L731.279 432.271C730.532 432.86 729.795 433.519 729.155 434.227C728.56 434.886 727.732 435.468 727.291 436.225C727.135 436.492 726.813 436.75 726.77 437.081C726.728 437.404 727.518 437.519 727.687 437.648C727.816 437.745 728.087 437.797 728.248 437.845C728.721 437.986 729.061 438.102 729.474 438.369C729.966 438.686 730.487 438.847 731.041 439.017L731.049 439.019C732.441 439.447 734.027 439.189 735.453 439.363C736.033 439.434 736.683 439.689 737.218 439.923C738.031 440.279 739.072 440.26 739.94 440.434C740.465 440.54 741.014 440.529 741.545 440.596C742.542 440.723 743.429 441.188 744.446 441.256C745.585 441.332 746.654 441.392 747.796 441.334C749.433 441.251 751.161 441.315 752.776 441.036C754.373 440.761 755.974 440.301 757.511 439.786C759.637 439.072 761.838 438.558 763.968 437.834C765.7 437.246 767.291 436.169 768.863 435.241C770.039 434.548 771.246 433.781 772.313 432.929C772.852 432.498 773.383 432.026 773.884 431.55C774.391 431.069 774.769 430.478 775.266 429.992C775.722 429.545 776.044 428.953 776.46 428.466C776.984 427.853 777.49 427.234 777.998 426.607C778.556 425.918 779.089 425.219 779.679 424.556C780.161 424.014 780.432 423.344 780.822 422.739C781.229 422.11 781.588 421.589 781.718 420.845C781.808 420.33 781.986 419.819 782.091 419.302C782.347 418.045 782.468 416.769 782.892 415.546C783.309 414.342 784.042 413.272 784.549 412.116C784.716 411.735 784.847 411.365 784.951 410.977C785.071 410.526 785.518 410.108 785.592 409.669C785.688 409.105 786.058 408.615 786.228 408.072C786.292 407.867 786.328 407.673 786.414 407.476C786.493 407.296 786.125 407.114 785.818 407.036C785.668 406.999 785.533 406.986 785.47 407.011Z" fill="#6F432E"/>
<path d="M786.277 407.077C785.288 406.979 784.255 406.946 783.26 406.906C782.247 406.865 781.271 406.62 780.249 406.653C779.81 406.667 779.364 406.529 778.924 406.495C778.366 406.451 777.788 406.453 777.228 406.482C776.677 406.51 776.22 406.439 775.68 406.362C775.191 406.292 774.684 406.349 774.189 406.293C772.973 406.157 771.773 406.191 770.57 406.252C769.69 406.296 768.909 406.424 768.064 406.622C767.827 406.678 767.525 406.669 767.3 406.751C767.091 406.827 766.941 407.004 766.713 407.016C766.356 407.034 765.673 407.298 765.4 407.533C765.082 407.808 764.844 408.052 764.738 408.433C764.6 408.929 764.277 409.571 764.025 410.011C763.45 411.013 763.252 412.176 762.808 413.22C762.361 414.272 761.8 415.249 761.341 416.297C760.799 417.534 760.171 418.47 759.137 419.331C757.525 420.673 755.201 421.381 753.223 421.945C751.54 422.424 749.844 423.185 748.106 423.386C746.532 423.568 744.85 423.458 743.296 423.77C742.239 423.982 741.206 424.034 740.144 424.029C739.787 424.027 739.42 423.985 739.047 424.004C738.657 424.023 738.262 424.303 737.937 424.506C737.058 425.054 736.52 426.026 735.993 426.909C735.679 427.438 735.407 428.027 734.996 428.493C734.516 429.037 733.92 429.426 733.449 429.987C733.198 430.285 733.123 430.733 732.833 430.993C732.327 431.444 731.81 431.852 731.279 432.271C730.532 432.86 729.795 433.519 729.155 434.227C728.56 434.886 727.732 435.468 727.291 436.225C727.135 436.492 726.813 436.75 726.77 437.081C726.728 437.404 727.518 437.519 727.687 437.648C727.816 437.745 728.087 437.797 728.248 437.845C728.721 437.986 729.061 438.102 729.474 438.369C729.968 438.688 730.492 438.848 731.049 439.019C732.441 439.447 734.027 439.189 735.453 439.363C736.033 439.434 736.683 439.689 737.218 439.923C738.031 440.279 739.072 440.26 739.94 440.434C740.465 440.54 741.014 440.529 741.545 440.596C742.542 440.723 743.429 441.188 744.446 441.256C745.585 441.332 746.654 441.392 747.796 441.334C749.433 441.251 751.161 441.315 752.776 441.036C754.373 440.761 755.974 440.301 757.511 439.786C759.637 439.072 761.838 438.558 763.968 437.834C765.7 437.246 767.291 436.169 768.863 435.241C770.039 434.548 771.246 433.781 772.313 432.929C772.852 432.498 773.383 432.026 773.884 431.55C774.391 431.069 774.769 430.478 775.266 429.992C775.722 429.545 776.044 428.953 776.46 428.466C776.984 427.853 777.49 427.234 777.998 426.607C778.556 425.918 779.089 425.219 779.679 424.556C780.161 424.014 780.432 423.344 780.822 422.739C781.229 422.11 781.588 421.589 781.718 420.845C781.808 420.33 781.986 419.819 782.091 419.302C782.347 418.045 782.468 416.769 782.892 415.546C783.309 414.342 784.042 413.272 784.549 412.116C784.716 411.735 784.847 411.365 784.951 410.977C785.071 410.526 785.518 410.108 785.592 409.669C785.688 409.105 786.058 408.615 786.228 408.072C786.292 407.867 786.328 407.673 786.414 407.476C786.558 407.148 785.219 406.812 785.463 407.119" stroke="#6F432E" stroke-width="5" stroke-linecap="round"/>
<path d="M757.736 402.845C756.847 404.152 756.545 405.874 755.479 407.054C754.737 407.876 753.923 409.027 752.649 408.862C752.426 408.833 752.22 408.676 752.059 408.531C751.816 408.311 751.851 408.11 751.723 407.858C751.393 407.206 752.018 406.5 752.424 406.037C753.059 405.314 753.734 404.785 754.515 404.226C755.084 403.819 755.988 403.583 756.449 403.073" stroke="#6F432E" stroke-width="5" stroke-linecap="round"/>
<path d="M741.741 410.062C741.474 410.024 741.438 409.891 741.741 410.062C741.745 410.063 741.749 410.063 741.753 410.064C742.06 410.104 742.257 410.214 742.541 410.308C742.623 410.335 742.708 410.359 742.794 410.38C743.565 410.566 744.451 410.5 745.218 410.461C745.887 410.427 746.551 410.559 747.207 410.378C747.417 410.319 748.131 410.049 747.919 409.674C747.643 409.185 746.571 409.337 746.136 409.359C745.298 409.401 744.384 409.554 743.657 410.012C743.406 410.171 743.098 410.305 742.794 410.38C742.708 410.359 742.623 410.335 742.541 410.308C742.257 410.214 742.06 410.104 741.753 410.064C741.749 410.063 741.745 410.063 741.741 410.062Z" fill="#6F432E"/>
<path d="M741.874 410.143C741.427 409.852 741.44 410.023 741.753 410.064C742.06 410.104 742.257 410.214 742.541 410.308C743.365 410.581 744.366 410.504 745.218 410.461C745.887 410.427 746.551 410.559 747.207 410.378C747.417 410.319 748.131 410.049 747.919 409.674C747.643 409.185 746.571 409.337 746.136 409.359C745.298 409.401 744.384 409.554 743.657 410.012C743.294 410.242 742.812 410.42 742.394 410.442C742.037 410.46 740.967 410.514 741.324 410.496" stroke="#6F432E" stroke-width="5" stroke-linecap="round"/>
<path d="M729.535 412.086C729.534 411.038 728.565 410.61 727.683 410.729C727.388 411.224 726.595 410.748 726.041 410.838C724.993 411.008 723.42 411.397 722.618 412.149C720.51 414.124 718.079 415.678 716.103 417.803C715.64 418.301 715.066 418.703 714.632 419.244C714.142 419.855 713.647 420.502 713.066 421.026C712.145 421.855 710.985 422.766 710.438 423.88C710.184 424.397 710.793 425.367 711.123 425.732C711.672 426.337 712.263 426.745 712.754 427.436C713.543 428.548 714.9 429.112 716.004 429.834C716.724 430.306 717.519 431.365 718.141 430.501C718.282 430.305 718.371 429.767 718.472 429.505C718.694 428.929 719.222 428.52 719.512 427.987C720.16 426.793 721.116 425.51 721.995 424.476C722.444 423.947 722.756 422.997 723.05 422.353C723.418 421.548 723.755 420.745 724.111 419.933C724.868 418.204 725.844 416.33 727.102 414.905C727.548 414.399 727.91 413.909 728.422 413.471C728.776 413.167 729.535 412.589 729.535 412.086Z" fill="#6F432E"/>
<path d="M727.457 410.772C728.391 410.541 729.534 410.948 729.535 412.086C729.535 412.589 728.776 413.167 728.422 413.471C727.91 413.909 727.548 414.399 727.102 414.905C725.844 416.33 724.868 418.204 724.111 419.933C723.755 420.745 723.418 421.548 723.05 422.353C722.756 422.997 722.444 423.947 721.995 424.476C721.116 425.51 720.16 426.793 719.512 427.987C719.222 428.52 718.694 428.929 718.472 429.505C718.371 429.767 718.282 430.305 718.141 430.501C717.519 431.365 716.724 430.306 716.004 429.834C714.9 429.112 713.543 428.548 712.754 427.436C712.263 426.745 711.672 426.337 711.123 425.732C710.793 425.367 710.184 424.397 710.438 423.88C710.985 422.766 712.145 421.855 713.066 421.026C713.647 420.502 714.142 419.855 714.632 419.244C715.066 418.703 715.64 418.301 716.103 417.803C718.079 415.678 720.51 414.124 722.618 412.149C723.42 411.397 724.993 411.008 726.041 410.838C726.595 410.748 727.388 411.224 727.683 410.729" stroke="#6F432E" stroke-width="5" stroke-linecap="round"/>
<path d="M719.008 395.601C718.994 395.547 718.975 395.495 718.948 395.446C718.65 394.658 718.392 393.843 717.727 393.877C716.417 393.943 715.207 393.779 713.956 394.16C713.188 394.394 712.554 394.81 711.882 395.238C711.126 395.72 710.576 396.614 709.749 396.977C708.595 397.482 707.362 398.113 706.262 398.718C705.745 399.002 705.096 399.471 704.691 399.888C704.022 400.58 703.256 401.064 702.507 401.655C702.052 402.015 701.25 402.785 700.678 402.905C700.215 403.002 700.694 403.555 700.814 403.779C702.172 406.305 702.807 408.99 703.559 411.749C703.653 412.096 704.34 415.217 704.794 415.111C705.615 414.918 706.023 413.674 706.52 413.124C707.53 412.006 708.537 410.905 709.545 409.789C710.371 408.874 711.116 407.925 711.947 407.006C713.759 404.999 714.713 402.417 716.412 400.325C717.304 399.226 718.006 397.879 718.75 396.671C718.922 396.391 719.096 395.954 719.008 395.601Z" fill="#6F432E"/>
<path d="M717.651 394.709C718.308 394.887 718.591 394.871 718.929 395.413C719.161 395.784 718.954 396.338 718.75 396.671C718.006 397.879 717.304 399.226 716.412 400.325C714.713 402.417 713.759 404.999 711.947 407.006C711.116 407.925 710.371 408.874 709.545 409.789C708.537 410.905 707.53 412.006 706.52 413.124C706.023 413.674 705.615 414.918 704.794 415.111C704.34 415.217 703.653 412.096 703.559 411.749C702.807 408.99 702.172 406.305 700.814 403.779C700.694 403.555 700.215 403.002 700.678 402.905C701.25 402.785 702.052 402.015 702.507 401.655C703.256 401.064 704.022 400.58 704.691 399.888C705.096 399.471 705.745 399.002 706.262 398.718C707.362 398.113 708.595 397.482 709.749 396.977C710.576 396.614 711.126 395.72 711.882 395.238C712.554 394.81 713.188 394.394 713.956 394.16C715.207 393.779 716.417 393.943 717.727 393.877C718.436 393.841 718.683 394.769 719.008 395.601" stroke="#6F432E" stroke-width="5" stroke-linecap="round"/>
<path d="M712.822 371.821C712.475 370.999 711.491 371.024 710.719 370.834C710.47 370.665 708.837 370.742 708.508 370.863C707.111 371.379 705.686 371.875 704.233 372.23C702.889 372.559 701.524 372.895 700.239 373.419C698.962 373.94 697.844 374.837 696.555 375.288C695.975 375.491 695.98 375.628 696.011 376.223L696.116 378.288C696.17 379.363 696.188 380.571 696.429 381.617C696.71 382.834 696.89 384.218 696.953 385.468C697.061 387.581 697.285 389.67 697.392 391.781C697.425 392.432 697.406 393.747 698.33 392.91C699.176 392.143 699.864 391.196 700.881 390.592C702.327 389.732 703.535 388.277 704.656 387.035C705.31 386.312 706.073 385.678 706.747 384.971C707.557 384.12 708.14 383.26 708.833 382.315C709.878 380.891 710.723 379.349 711.643 377.854C712.356 376.696 712.78 375.479 713.207 374.233C713.462 373.489 713.111 372.506 712.822 371.821Z" fill="#6F432E"/>
<path d="M710.641 370.814C711.424 371.026 712.463 370.971 712.822 371.821C713.111 372.506 713.462 373.489 713.207 374.233C712.78 375.479 712.356 376.696 711.643 377.854C710.723 379.349 709.878 380.891 708.833 382.315C708.14 383.26 707.557 384.12 706.747 384.971C706.073 385.678 705.31 386.312 704.656 387.035C703.535 388.277 702.327 389.732 700.881 390.592C699.864 391.196 699.176 392.143 698.33 392.91C697.406 393.747 697.425 392.432 697.392 391.781C697.285 389.67 697.061 387.581 696.953 385.468C696.89 384.218 696.71 382.834 696.429 381.617C696.188 380.571 696.17 379.363 696.116 378.288C696.081 377.6 696.046 376.911 696.011 376.223C695.98 375.628 695.975 375.491 696.555 375.288C697.844 374.837 698.962 373.94 700.239 373.419C701.524 372.895 702.889 372.559 704.233 372.23C705.686 371.875 707.111 371.379 708.508 370.863C708.837 370.742 710.471 370.665 710.719 370.834" stroke="#6F432E" stroke-width="5" stroke-linecap="round"/>
<path d="M750.967 227.929C751.151 226.08 751.276 224.035 750.887 222.202C751.138 221.405 749.502 224.012 749.39 224.177C749.041 224.695 748.345 225.211 747.86 225.616C746.453 226.787 745.283 228.222 743.668 229.134C742.306 229.904 741.283 231.463 740.243 232.614C739.245 233.719 738.587 235.084 737.517 236.137C736.448 237.189 735.88 238.361 735.401 239.76C734.944 241.095 733.936 242.872 734.878 244.216C735.554 245.18 736.713 245.34 737.573 246.038C738.358 246.675 739.536 246.312 740.387 246.066C741.471 245.752 742.853 245.914 743.985 245.857C745.513 245.779 747.438 245.963 748.879 245.431C750.087 244.985 751.292 244.527 752.544 244.233C753.386 244.035 753.461 243.172 753.041 242.499C752.877 242.236 752.964 241.8 752.931 241.499C752.878 240.996 752.728 240.437 752.641 239.923C752.557 239.427 752.68 238.777 752.506 238.3C752.245 237.583 752.128 236.715 752.059 235.957C751.924 234.496 751.275 233.227 751.046 231.802C750.851 230.591 750.846 229.153 750.967 227.929Z" fill="#6F432E" stroke="#6F432E" stroke-width="5" stroke-linecap="round"/>
<path d="M758.804 259.3C758.741 257.36 758.74 255.316 758.386 253.406C758.589 253.066 756.615 254.037 756.473 254.161C756.021 254.551 755.352 254.878 754.822 255.178C753.619 255.858 752.66 257.006 751.408 257.572C750.847 257.826 750.347 258.4 749.77 258.576C749.176 258.757 748.585 259.217 748.058 259.55C747.145 260.126 746.353 260.877 745.434 261.458C745.063 261.692 744.762 262.142 744.38 262.306C743.864 262.528 743.288 262.975 742.827 263.305C742.012 263.889 740.598 264.882 740.458 265.962C740.263 267.467 740.697 269.16 742.265 269.577C743.295 269.852 744.28 270.267 745.299 270.573C746.511 270.938 747.695 270.984 748.942 271.131C750.417 271.305 751.848 271.483 753.333 271.407C754.234 271.362 755.143 271.434 756.053 271.388C757.027 271.338 758.066 271.311 759.017 271.526C759.552 271.647 760.392 271.936 760.356 271.235C760.33 270.729 760.321 270.247 760.189 269.758C760.01 269.094 759.908 268.435 759.707 267.778C759.487 267.055 759.275 266.331 759.071 265.602C758.782 264.57 758.89 263.327 758.836 262.256C758.785 261.265 758.836 260.283 758.804 259.3Z" fill="#6F432E" stroke="#6F432E" stroke-width="5" stroke-linecap="round"/>
<path d="M706.845 261.61C705.619 258.474 704.091 255.493 702.862 252.352C702.944 252.195 703.605 252.589 703.815 252.681C705.23 253.301 706.629 254.244 707.952 255.073C710.555 256.706 713.18 258.288 715.939 259.643C716.421 259.88 716.954 259.929 717.466 260.071C718.319 260.309 719.119 260.725 719.969 260.97C720.924 261.244 721.86 261.808 722.82 261.981C723.594 262.122 724.779 262.488 725.457 262.906C726.441 263.513 727.402 264.459 728.182 265.324C728.577 265.761 728.919 266.085 729.187 266.607C729.679 267.567 729.351 268.181 728.779 268.921C728.25 269.606 726.652 269.687 725.89 269.725L725.856 269.727C724.498 269.796 723.131 269.773 721.832 269.695C720.151 269.594 718.489 268.74 716.79 268.768C716.35 268.775 715.75 268.672 715.326 268.54C714.41 268.254 713.444 267.966 712.539 267.63C711.5 267.244 710.404 267.001 709.379 266.601C708.809 266.378 708.722 266.381 708.504 265.823C707.954 264.415 707.395 263.018 706.845 261.61Z" fill="#6F432E"/>
<path d="M702.851 252.323C704.082 255.474 705.615 258.464 706.845 261.61C707.395 263.018 707.954 264.415 708.504 265.823C708.722 266.381 708.809 266.378 709.379 266.601C710.404 267.001 711.5 267.244 712.539 267.63C713.444 267.966 714.41 268.254 715.326 268.54C715.75 268.672 716.35 268.775 716.79 268.768C718.489 268.74 720.151 269.594 721.832 269.695C723.131 269.773 724.498 269.796 725.856 269.727C726.603 269.689 728.242 269.616 728.779 268.921C729.351 268.181 729.679 267.567 729.187 266.607C728.919 266.085 728.577 265.761 728.182 265.324C727.402 264.459 726.441 263.513 725.457 262.906C724.779 262.488 723.594 262.122 722.82 261.981C721.86 261.808 720.924 261.244 719.969 260.97C719.119 260.725 718.319 260.309 717.466 260.071C716.954 259.929 716.421 259.88 715.939 259.643C713.18 258.288 710.555 256.706 707.952 255.073C706.629 254.244 705.23 253.301 703.815 252.681C703.536 252.559 702.456 251.899 703.008 252.722" stroke="#6F432E" stroke-width="5" stroke-linecap="round"/>
<path d="M725.632 262.995C725.569 262.161 724.957 261.846 724.255 261.501C723.322 261.043 722.404 260.499 721.465 260.013C719.347 258.918 716.92 258.273 714.678 257.466C713.796 257.148 712.997 256.618 712.157 256.227C711.476 255.909 710.766 255.66 710.094 255.326C709.206 254.884 708.142 254.597 707.195 254.284C706.639 254.099 705.902 254.026 705.406 253.731" stroke="#6F432E" stroke-width="5" stroke-linecap="round"/>
<path d="M697.215 258.353C696.443 256.581 695.272 252.178 695.299 252.706C694.139 255.355 692.775 259.457 691.422 262.038C691.017 262.81 690.664 263.574 690.21 264.321C689.64 265.26 689.297 266.292 688.762 267.24C688.305 268.049 688.116 268.991 687.65 269.801C687.157 270.657 687.122 271.545 686.777 272.428C686.074 274.23 685.719 276.052 685.817 277.977C685.888 279.38 685.824 281.103 686.54 282.37C687.129 283.413 688.065 283.712 689.181 283.655C690.125 283.608 691.543 283.117 692.257 282.5C693.194 281.692 694.207 280.889 695.053 279.953C695.809 279.115 696.268 278.291 696.723 277.253C697.731 274.952 699.129 272.719 700.314 270.459C700.663 269.794 700.942 268.998 701.177 268.286C701.346 267.772 701.134 267.701 701.013 267.262C700.681 266.061 700.148 264.899 699.703 263.721C699.011 261.894 697.998 260.147 697.215 258.353Z" fill="#6F432E" stroke="#6F432E" stroke-width="5" stroke-linecap="round"/>
<path d="M694.85 235.051C694.442 233.366 693.51 231.229 692.54 229.807C692.525 229.505 694 230.663 694.247 230.816C694.765 231.137 695.365 231.366 695.941 231.558C697.443 232.06 699.074 232.336 700.607 232.727C703.188 233.387 705.873 233.615 708.451 234.353C709.721 234.717 710.933 234.913 712.249 234.989C712.785 235.019 713.344 234.963 713.871 235.084C714.546 235.239 715.196 235.717 715.799 236.05C717.034 236.732 718.198 237.603 718.79 238.915C719.219 239.865 719.503 240.498 718.857 241.396C718.683 241.638 717.704 241.88 717.416 242.001C716.916 242.212 716.399 242.415 715.866 242.54C715.229 242.69 714.482 242.624 713.834 242.656C713.412 242.678 712.93 242.764 712.509 242.697C711.489 242.537 710.517 242.594 709.532 242.31C708.85 242.113 708.174 241.934 707.493 241.769C706.992 241.648 706.465 241.728 705.95 241.664C705.047 241.55 704.199 241.623 703.317 241.324C702.606 241.083 701.704 241.146 700.953 241.089C700.106 241.025 698.522 241.325 697.855 240.655C697.356 240.155 697.132 239.417 696.61 238.918C695.689 238.036 695.136 236.234 694.85 235.051Z" fill="#6F432E" stroke="#6F432E" stroke-width="5" stroke-linecap="round"/>
<path d="M685.275 231.048C685.048 230.418 685.1 230.057 684.331 230.077C684.055 229.588 683.419 230.612 683.285 230.958C683.107 231.421 682.842 231.847 682.671 232.317C682.146 233.759 681.383 235.112 680.936 236.585C680.036 239.548 678.582 242.278 677.346 245.1C676.587 246.832 676.055 248.553 675.476 250.348C675.034 251.72 674.306 253.42 674.353 254.887C674.375 255.569 674.351 256.299 674.55 256.953C674.712 257.486 674.834 257.523 675.214 257.866C675.883 258.471 676.358 258.399 677.224 258.356C678.525 258.289 679.75 257.207 680.576 256.293C680.909 255.924 681.203 255.719 681.498 255.299C682.016 254.565 682.553 253.922 682.951 253.103C683.483 252.007 684.291 250.934 685.108 250.029C686.19 248.832 686.869 247.371 687.615 245.952C687.989 245.242 688.398 244.54 688.749 243.818C688.997 243.307 689.583 242.637 689.553 242.055C689.515 241.303 689.473 240.496 689.15 239.808C688.728 238.91 688.076 238.157 687.679 237.241C687.225 236.196 686.903 235.094 686.426 234.058C685.977 233.082 685.639 232.059 685.275 231.048Z" fill="#6F432E" stroke="#6F432E" stroke-width="5" stroke-linecap="round"/>
<path d="M650.186 273.359C649.584 272.794 649.586 271.948 649.758 270.987C649.366 270.878 651.753 270.655 652.019 270.637C653.587 270.529 655.135 270.159 656.695 270.044C657.737 269.968 658.701 269.388 659.733 269.299C660.311 269.249 660.87 269.004 661.458 268.975C661.963 268.949 662.492 268.966 662.991 268.89C664.836 268.611 666.604 268.557 668.478 268.612C669.881 268.652 671.076 268.758 672.282 269.49C674.088 270.586 673.191 272.864 672.563 274.385C672.339 274.927 671.823 275.278 671.356 275.596C670.701 276.042 670.199 276.614 669.676 277.193C668.857 278.099 667.565 279.06 666.502 279.661C664.09 281.024 661.69 282.31 659.479 283.98C659.121 284.251 658.909 284.717 658.686 284.145C658.553 283.806 658.311 283.512 658.188 283.152C657.799 282.013 656.711 280.957 655.999 280.017C655.326 279.128 654.695 278.165 653.937 277.348C653.237 276.592 652.409 275.898 651.779 275.085C651.301 274.469 650.754 273.89 650.186 273.359Z" fill="#6F432E" stroke="#6F432E" stroke-width="5" stroke-linecap="round"/>
<path d="M663.254 293.368C663.246 293.361 663.238 293.353 663.23 293.346C663.074 293.468 662.996 293.534 663.254 293.368C663.909 294.009 664.435 295.966 664.891 296.725C665.278 297.369 665.848 297.887 666.219 298.544C666.86 299.677 667.497 300.833 668.051 302.013C668.275 302.49 668.388 303.037 668.684 303.479C668.969 303.902 669.415 304.28 669.642 304.732C669.832 305.11 670.93 304.134 671.166 303.944C671.634 303.569 672.094 303.27 672.601 302.951C673.213 302.567 673.666 302.048 674.249 301.626C675.341 300.834 676.498 299.814 677.405 298.81C678.273 297.849 679.15 296.934 680.015 295.977C680.618 295.309 681.058 294.224 681.421 293.395C681.978 292.125 682.72 290.02 681.646 288.888C680.813 288.01 679.991 287.504 678.751 287.405C677.267 287.287 676.198 287.736 674.924 288.401C674.075 288.845 672.993 289.081 672.082 289.38C671.455 289.586 670.916 290.015 670.293 290.24C669.628 290.48 668.984 290.798 668.316 291.044C667.042 291.511 665.741 291.804 664.551 292.477C664.095 292.734 663.726 293.062 663.293 293.343C663.279 293.352 663.266 293.36 663.254 293.368Z" fill="#6F432E"/>
<path d="M663.23 293.346C663.896 293.962 664.43 295.957 664.891 296.725C665.278 297.369 665.848 297.887 666.219 298.544C666.86 299.677 667.497 300.833 668.051 302.013C668.275 302.49 668.388 303.037 668.684 303.479C668.969 303.902 669.415 304.28 669.642 304.732C669.832 305.11 670.93 304.134 671.166 303.944C671.634 303.569 672.094 303.27 672.601 302.951C673.213 302.567 673.666 302.048 674.249 301.626C675.341 300.834 676.498 299.814 677.405 298.81C678.273 297.849 679.15 296.934 680.015 295.977C680.618 295.309 681.058 294.224 681.421 293.395C681.978 292.125 682.72 290.02 681.646 288.888C680.813 288.01 679.991 287.504 678.751 287.405C677.267 287.287 676.198 287.736 674.924 288.401C674.075 288.845 672.993 289.081 672.082 289.38C671.455 289.586 670.916 290.015 670.293 290.24C669.628 290.48 668.984 290.798 668.316 291.044C667.042 291.511 665.741 291.804 664.551 292.477C664.095 292.734 663.726 293.062 663.293 293.343C662.826 293.645 663.257 293.328 663.519 293.121" stroke="#6F432E" stroke-width="5" stroke-linecap="round"/>
<path d="M634.357 248.827C633.317 247.392 632.386 245.836 631.238 244.484C630.897 244.082 633.982 244.463 635.079 244.407C635.773 244.372 636.593 244.368 637.273 244.506C637.882 244.63 638.565 244.922 639.186 244.908C640.277 244.884 641.352 245.301 642.46 245.327C643.593 245.353 644.751 245.217 645.882 245.16C647.47 245.079 648.783 245.33 650.256 245.74C651.035 245.956 651.829 246.134 652.623 246.29C653.727 246.507 654.867 246.594 655.953 246.896C656.962 247.176 657.949 247.344 658.938 247.691C659.64 247.938 660.22 248.507 660.753 249.018C661.905 250.122 661.771 253.308 660.363 254.269C659.359 254.955 658.57 255.996 657.581 256.698C656.755 257.285 655.74 257.856 654.764 258.168C653.863 258.457 652.913 258.788 651.977 258.921C651.066 259.051 650.232 259.567 649.348 259.83C648.337 260.131 647.303 260.408 646.282 260.663C645.38 260.887 644.485 260.923 643.589 261.22C642.061 261.726 641.41 259.823 640.598 258.861C639.393 257.436 638.154 255.793 637.519 254.01C636.837 252.095 635.532 250.449 634.357 248.827Z" fill="#6F432E" stroke="#6F432E" stroke-width="5" stroke-linecap="round"/>
<path d="M677.766 216.097C677.2 214.602 676.358 213.221 675.827 211.7C675.451 210.621 673.569 214.614 672.944 215.487C672.157 216.586 671.39 217.69 670.656 218.823C669.803 220.14 669.538 221.813 668.814 223.202C668.16 224.459 667.198 225.458 666.385 226.611C665.536 227.816 664.328 229.156 664.374 230.762C664.417 232.249 664.169 233.709 664.245 235.211C664.294 236.177 664.707 237.022 665.677 237.267C665.882 237.319 666.095 237.248 666.302 237.269C666.576 237.297 666.791 237.466 667.08 237.459C667.427 237.451 667.866 237.488 668.201 237.396C669.165 237.13 670.017 236.076 670.587 235.329C671.182 234.548 671.835 233.829 672.354 232.992C672.958 232.017 673.34 231.153 674.116 230.293C675.124 229.178 676.198 227.716 676.868 226.375C677.04 226.032 677.28 225.736 677.47 225.404C677.702 224.999 677.767 224.534 677.996 224.129C678.427 223.369 678.612 222.311 678.926 221.479C679.139 220.917 679.614 220.447 679.318 219.862C679.226 219.681 679.118 219.093 678.978 218.992C678.856 218.905 678.553 218.061 678.515 217.899C678.362 217.247 678 216.716 677.766 216.097Z" fill="#6F432E" stroke="#6F432E" stroke-width="5" stroke-linecap="round"/>
<path d="M687.737 217.943C686.793 215.178 685.195 212.648 684.021 209.982C683.321 209.164 687.821 211.374 688.853 211.88L688.876 211.892C689.54 212.218 690.254 212.434 690.959 212.653C691.557 212.84 692.111 213.192 692.718 213.385C694.309 213.892 695.957 214.23 697.568 214.677C698.517 214.941 699.484 215.091 700.445 215.3C701.001 215.421 701.548 215.744 702.093 215.926C702.801 216.162 703.544 216.429 704.183 216.825C704.697 217.144 705.008 217.428 705.632 217.547C706.471 217.706 707.307 217.891 708.148 218.037C708.927 218.172 709.373 218.426 710.059 218.818L710.074 218.826C710.645 219.152 711.333 219.443 711.392 220.186C711.417 220.502 711.532 221.006 711.275 221.25C710.618 221.873 710.233 221.901 709.3 221.948C707.943 222.017 706.58 221.968 705.216 222.037C704.226 222.087 703.075 222.209 702.12 221.892C700.832 221.465 699.32 221.629 697.987 221.51C696.236 221.355 694.365 221.252 692.698 220.635C691.46 220.178 690.258 219.666 689.097 219.096C688.766 218.934 688.6 218.565 688.29 218.349C688.092 218.21 687.827 218.206 687.737 217.943Z" fill="#6F432E" stroke="#6F432E" stroke-width="5" stroke-linecap="round"/>
<path d="M674.017 187.186C673.464 186.504 673.975 186.353 674.503 185.624C674.468 184.935 679.446 187.038 682.04 187.548C682.995 187.736 683.959 188.239 684.837 188.648C685.803 189.099 686.826 189.312 687.774 189.8C689.233 190.551 691.072 191.265 692.178 192.534C692.575 192.989 693.259 193.339 693.831 193.515C694.478 193.714 695.166 194.22 695.776 194.54C696.45 194.893 697.07 195.329 697.733 195.683L697.743 195.688C698.199 195.931 698.979 196.346 699.262 196.794C699.531 197.221 699.817 197.664 700.039 198.115C700.296 198.641 700.137 198.877 700.163 199.397C700.207 200.253 698.193 200.273 697.593 200.303L692.258 200.574C691.483 200.613 690.765 200.496 690.011 200.333C689.18 200.154 688.252 200.304 687.409 200.347C685.526 200.443 683.649 200.656 681.778 200.751C680.795 200.801 679.977 201.144 679.389 200.307C678.877 199.578 678.552 198.72 678.087 197.955C677.343 196.733 677.248 195.431 676.97 194.082C676.63 192.433 676.339 191.034 675.53 189.528C675.07 188.673 674.639 187.953 674.017 187.186Z" fill="#6F432E" stroke="#6F432E" stroke-width="5" stroke-linecap="round"/>
<path d="M666.131 193.147C665.686 192.359 665.392 190.455 664.944 190.723C663.237 191.957 661.151 194.608 660.049 196.833C659.235 198.477 658.69 200.085 658.173 201.831C657.956 202.565 657.553 203.227 657.281 203.94C657.039 204.577 656.949 205.192 656.6 205.789C655.999 206.816 655.558 208.573 655.619 209.769C655.682 211.006 655.826 212.095 656.152 213.277C656.373 214.078 657.137 214.744 657.922 215.001C658.958 215.34 659.785 214.936 660.844 214.827C661.795 214.728 662.766 213.837 663.3 213.111C663.977 212.193 665.024 211.591 665.537 210.56C665.957 209.714 666.715 208.683 667.456 208.103C668.289 207.451 668.888 205.757 669.326 204.814C669.578 204.271 670.075 203.808 670.462 203.363C670.772 203.006 670.619 202.707 670.498 202.27C670.228 201.292 669.454 200.51 669.175 199.498C668.97 198.756 668.774 197.978 668.419 197.296C668.058 196.604 667.604 195.935 667.301 195.216C666.997 194.496 666.518 193.831 666.131 193.147Z" fill="#6F432E" stroke="#6F432E" stroke-width="5" stroke-linecap="round"/>
<path d="M661.852 164.907C660.878 163.638 660.834 163.144 661.167 162.844C661.844 162.341 662.57 163.234 663.092 163.583C664.012 164.196 665.042 164.893 666.07 165.285C666.524 165.457 666.849 165.75 667.194 166.062C667.444 166.288 667.868 166.297 668.149 166.493C668.993 167.083 669.89 167.478 670.853 167.828C672.149 168.3 673.303 169.084 674.606 169.53C675.697 169.904 676.75 170.407 677.768 170.96C678.771 171.506 679.4 172.059 679.957 173.044C680.234 173.535 680.37 174.601 680.027 175.078C679.817 175.37 680.027 175.525 679.552 175.549C678.92 175.581 678.305 175.731 677.67 175.763C676.383 175.828 675.141 175.418 673.837 175.484C672.238 175.565 670.657 175.173 669.067 175.253C668.568 175.279 667.3 175.435 667.005 174.885C666.847 174.59 666.674 174.234 666.434 173.994C666.19 173.749 666.222 173.456 666.063 173.158C665.463 172.039 664.926 170.761 664.461 169.572C663.832 167.963 662.907 166.283 661.852 164.907Z" fill="#6F432E" stroke="#6F432E" stroke-width="5" stroke-linecap="round"/>
<path d="M653.656 169.293C653.394 168.081 653.348 165.535 653.142 165.652C652.577 165.971 651.689 168.984 651.678 169.564C651.657 170.711 651.207 171.813 651.266 172.963C651.354 174.706 650.658 176.35 650.486 178.063C650.354 179.384 650.027 180.777 650.074 182.106C650.129 183.661 649.781 186.333 651.227 187.344C652.241 188.054 653.763 186.662 654.669 186.269C655.723 185.812 656.359 184.523 657.108 183.694C657.594 183.156 658.836 182.276 658.795 181.453C658.769 180.938 658.344 180.395 658.068 179.958C657.657 179.307 657.177 178.686 656.793 178.006C655.821 176.286 655.071 174.324 654.46 172.446C654.122 171.409 653.886 170.359 653.656 169.293Z" fill="#6F432E" stroke="#6F432E" stroke-width="5" stroke-linecap="round"/>
<path d="M623.595 219.767C622.964 218.395 622.202 216.916 621.375 215.647C620.931 214.966 625.008 216.762 625.461 216.912C626.602 217.29 627.85 217.912 629.064 217.978C630.354 218.048 631.725 218.72 632.962 219.029C634.856 219.501 636.798 219.927 638.635 220.594C639.74 220.995 640.689 221.449 641.857 221.679C643.158 221.935 644.006 222.494 645.174 223.068C646.531 223.734 649.047 224.891 649.262 226.679C649.375 227.623 649.529 228.748 648.988 229.571C648.326 230.577 647.008 231.256 645.836 231.447C644.167 231.718 642.457 232.035 640.797 232.379C638.865 232.78 636.812 232.726 634.846 232.826C633.325 232.903 631.798 232.863 630.271 232.94C629.837 232.962 629.391 233.102 629.08 232.79C628.806 232.515 628.699 232.133 628.524 231.793C627.996 230.773 627.421 229.66 626.974 228.586C626.447 227.317 626.116 225.949 625.677 224.643C625.347 223.666 625.116 222.631 624.705 221.695C624.4 221 623.908 220.447 623.595 219.767Z" fill="#6F432E" stroke="#6F432E" stroke-width="5" stroke-linecap="round"/>
<path d="M618.953 199.387C617.809 196.853 618.568 193.77 617.999 191.095C617.8 190.159 620.757 192.688 621.189 192.826C622.503 193.248 623.799 193.407 625.137 193.69C626.844 194.052 628.669 194.079 630.336 194.609C632.057 195.157 633.731 195.611 635.493 196.004C638.072 196.579 642.236 197.811 642.398 201.003C642.505 203.111 639.061 203.659 637.641 203.998C636.033 204.381 634.495 204.69 632.83 204.774C631.142 204.86 629.356 204.848 627.665 204.793C626.22 204.747 624.776 204.463 623.342 204.422C623.118 204.415 620.152 204.623 620.1 204.52C619.761 203.851 619.662 202.868 619.624 202.133C619.577 201.201 619.338 200.242 618.953 199.387Z" fill="#6F432E" stroke="#6F432E" stroke-width="5" stroke-linecap="round"/>
<path d="M740.412 195.289C739.42 193.304 737.702 191.714 737.162 189.54C737.13 188.902 735.817 190.942 735.476 191.281C734.857 191.899 734.104 192.548 733.433 193.107C732.508 193.877 731.725 194.799 730.783 195.542C729.822 196.3 728.883 197.244 728.043 198.139C727.33 198.899 726.716 200.032 726.295 200.975C725.747 202.2 725.344 203.561 724.684 204.724C723.767 206.341 722.979 208.412 723.075 210.3C723.117 211.135 723.268 211.994 723.465 212.803C723.601 213.365 723.776 213.963 724.17 214.397C724.91 215.214 724.954 216.354 726.011 216.867C727.101 217.397 728.25 217.91 729.484 217.847C730.065 217.818 730.606 217.672 731.189 217.642C731.768 217.613 732.554 217.518 733.106 217.335C733.705 217.136 734.47 217.027 735.098 216.971C735.684 216.918 736.221 216.441 736.811 216.411C737.367 216.382 738.051 215.976 738.603 215.846L738.655 215.834C739.21 215.704 739.865 215.55 740.364 215.31C742.948 214.064 745.988 213.224 747.98 211.02C748.499 210.445 746.738 207.989 746.586 207.39C746.13 205.591 744.907 204.051 744.291 202.309C744.084 201.723 743.617 201.176 743.312 200.636C742.93 199.961 742.61 199.228 742.259 198.534C741.695 197.422 740.97 196.408 740.412 195.289Z" fill="#6F432E" stroke="#6F432E" stroke-width="5" stroke-linecap="round"/>
<path d="M725.433 174.047C723.043 171.068 720.877 167.88 718.405 164.941C718.303 164.818 716.711 167.44 716.307 167.886C715.639 168.626 714.864 169.244 714.316 170.09C713.569 171.245 713.02 172.316 712.55 173.611C712.071 174.929 711.578 176.135 710.819 177.32C710.304 178.125 709.781 178.98 709.35 179.832C708.435 181.64 708.449 183.67 708.343 185.628C708.233 187.651 708.638 191.392 710.941 192.146C712.866 192.777 714.756 192.151 716.689 191.703C718.132 191.369 719.756 191.035 720.959 190.126C722.21 189.182 723.139 187.745 724.109 186.536C725.063 185.346 726.03 184.189 727.068 183.073C727.653 182.445 728.351 181.938 728.938 181.322C729.274 180.968 730.54 180.261 730.512 179.704C730.474 178.958 729.458 178.197 728.99 177.705C727.832 176.484 726.489 175.363 725.433 174.047Z" fill="#6F432E" stroke="#6F432E" stroke-width="5" stroke-linecap="round"/>
<path d="M702.808 151.3C701.887 150.469 701.136 149.829 699.986 149.314C699.439 149.069 699.172 149.947 699.058 150.19C698.574 151.211 698.084 152.181 697.675 153.243C696.828 155.443 695.311 157.271 694.239 159.352C692.675 162.392 690.858 165.247 691.038 168.788C691.093 169.877 691.539 170.954 692.369 171.704C693.014 172.287 693.777 172.224 694.582 172.183C695.504 172.136 696.389 171.896 697.207 171.459C697.984 171.042 698.61 170.423 699.38 169.988C700.591 169.303 701.286 168.189 702.195 167.183C703.195 166.076 704.328 165.001 705.437 163.995C706.613 162.929 707.535 161.555 708.346 160.194C708.809 159.417 709.325 158.638 709.738 157.836C709.93 157.463 709.854 157.329 709.55 157.109C708.977 156.697 708.459 156.068 707.921 155.582C707.492 155.195 707.016 154.893 706.53 154.595C706.117 154.34 705.848 153.834 705.496 153.504C705.019 153.057 704.613 152.41 704.056 152.065C703.656 151.818 703.147 151.607 702.808 151.3Z" fill="#6F432E" stroke="#6F432E" stroke-width="5" stroke-linecap="round"/>
<path d="M683.142 150.735C686.198 148.453 689.314 146.269 692.129 143.68C693.555 142.941 689.533 142.373 689.335 142.107C688.85 141.453 687.915 141.288 687.232 140.945C686.414 140.533 685.62 140.136 684.78 139.768C683.417 139.171 681.992 138.819 680.61 138.284C678.816 137.59 677.06 136.779 675.216 136.232C673.62 135.758 672.03 135.155 670.597 134.311C669.361 133.583 668.029 133.296 666.668 132.907C664.981 132.425 663.208 132.057 661.477 131.777C658.076 131.227 654.524 130.575 651.068 130.63C648.018 130.677 644.67 132.234 642.185 133.913C638.817 136.19 636.337 139.335 633.648 142.312L633.557 142.413C632.431 143.659 631.265 144.949 630.344 146.357C629.647 147.422 628.972 148.416 628.117 149.362C627.021 150.575 626.461 152.026 625.736 153.465C625.073 154.783 624.434 156.088 623.835 157.439C623.278 158.695 622.729 159.981 622.134 161.219C621.829 161.855 621.629 162.515 621.372 163.17C621.223 163.552 620.96 163.929 620.899 164.338C620.69 165.754 620.551 167.032 620.51 168.452C620.494 168.991 620.325 169.508 620.269 170.042C620.212 170.574 620.292 171.09 620.145 171.619C619.958 172.293 619.588 173.082 619.149 173.621C618.408 174.53 618.061 176.01 618.12 177.156C618.149 177.731 618.25 177.489 618.707 177.6C619.368 177.76 620.125 177.62 620.803 177.585C623.132 177.467 625.79 177.985 628.013 178.639C630.398 179.34 633.18 178.85 635.648 178.724C636.645 178.674 637.421 177.785 637.716 176.871C638.245 175.23 638.709 173.696 639.032 171.994C639.175 171.241 639.19 170.372 639.24 169.604C639.283 168.938 639.094 168.244 639.229 167.587C639.541 166.07 639.713 164.426 639.634 162.881C639.559 161.407 639.894 159.81 640.541 158.477C641.498 156.507 642.844 155.078 644.248 153.432C645.884 151.514 647.973 149.717 650.268 148.645C651.778 147.939 653.127 147.553 654.795 147.468C656.008 147.407 657.234 147.487 658.446 147.533C659.521 147.574 660.563 147.885 661.649 147.83C662.531 147.785 663.527 147.828 664.402 147.953C666.121 148.2 667.964 148.912 669.266 150.046C670.792 151.374 672.653 152.265 674.058 153.693C674.707 154.352 675.92 154.139 676.677 153.751C678.771 152.678 681.219 152.17 683.142 150.735Z" fill="#6F432E" stroke="#6F432E" stroke-width="5" stroke-linecap="round"/>
<path d="M691.887 143.574C691.839 142.637 691.468 142.295 690.62 141.923C689.783 141.556 688.923 141.237 688.082 140.869C687.388 140.565 686.552 140.047 686.028 139.495C685.712 139.162 685.26 138.983 684.849 138.792C684.186 138.484 683.613 138.029 682.93 137.759C680.669 136.867 678.181 136.511 675.834 135.99C673.718 135.52 672.28 133.826 670.213 133.226C667.492 132.436 664.737 132.058 661.953 131.556C661.37 131.451 660.796 131.503 660.208 131.368C659.404 131.183 658.594 131.025 657.789 130.847C656.391 130.537 655.016 130.454 653.595 130.311C652.087 130.159 650.445 130.418 648.932 130.495C647.199 130.583 645.545 130.858 643.837 131.109C641.485 131.454 639.365 132.888 637.196 133.759C635.169 134.573 633.899 136.452 632.206 137.732C631.375 138.36 630.507 139.279 629.848 140.1C629.363 140.705 628.862 141.308 628.445 141.965C626.416 145.161 624.008 148.245 623.052 151.985C622.603 153.743 622.287 155.542 621.455 157.166C621.01 158.036 620.896 159.077 620.733 160.022C620.549 161.081 620.42 161.897 620.476 162.992C620.594 165.315 620.339 167.547 620.088 169.84C619.943 171.157 619.665 172.552 619.371 173.846C619.263 174.322 619.18 174.795 619.115 175.279C619.063 175.669 619.02 175.689 619.332 175.412" stroke="#6F432E" stroke-width="5" stroke-linecap="round"/>
<path d="M624.67 150.063C623.046 151.914 622.53 154.481 622.201 156.839C621.93 158.786 621.651 160.718 621.353 162.659C621.216 163.549 621.048 164.426 620.763 165.285C620.508 166.054 620.556 166.901 620.413 167.695C620.291 168.369 620.22 169.013 620.218 169.696C620.217 170.289 619.978 170.835 619.964 171.418C619.95 172.023 619.9 172.62 619.931 173.227C619.959 173.768 619.888 173.966 620.428 173.701" stroke="#6F432E" stroke-width="5" stroke-linecap="round"/>
</g>
</g>
<defs>
<filter id="filter0_b_15_334" x="-70" y="-109" width="5892" height="4482" filterUnits="userSpaceOnUse" color-interpolation-filters="sRGB">
<feFlood flood-opacity="0" result="BackgroundImageFix"/>
<feGaussianBlur in="BackgroundImage" stdDeviation="15"/>
<feComposite in2="SourceAlpha" operator="in" result="effect1_backgroundBlur_15_334"/>
<feBlend mode="normal" in="SourceGraphic" in2="effect1_backgroundBlur_15_334" result="shape"/>
</filter>
<filter id="filter1_d_15_334" x="157" y="111.764" width="654.485" height="356.093" filterUnits="userSpaceOnUse" color-interpolation-filters="sRGB">
<feFlood flood-opacity="0" result="BackgroundImageFix"/>
<feColorMatrix in="SourceAlpha" type="matrix" values="0 0 0 0 0 0 0 0 0 0 0 0 0 0 0 0 0 0 127 0" result="hardAlpha"/>
<feOffset dy="4"/>
<feGaussianBlur stdDeviation="10"/>
<feComposite in2="hardAlpha" operator="out"/>
<feColorMatrix type="matrix" values="0 0 0 0 0 0 0 0 0 0 0 0 0 0 0 0 0 0 0.25 0"/>
<feBlend mode="normal" in2="BackgroundImageFix" result="effect1_dropShadow_15_334"/>
<feBlend mode="normal" in="SourceGraphic" in2="effect1_dropShadow_15_334" result="shape"/>
</filter>
<clipPath id="clip0_15_334">
<rect width="5655" height="4239" fill="white"/>
</clipPath>
<clipPath id="clip1_15_334">
<rect y="4239" width="4239" height="5655" rx="22.7459" transform="rotate(-90 0 4239)" fill="white"/>
</clipPath>
</defs>
</svg>
