<svg width="722" height="1537" viewBox="0 0 722 1537" fill="none" xmlns="http://www.w3.org/2000/svg">
<path d="M29.4776 400.449L491.615 0.982422H722V1536.8H384.797L0.594238 1228.17C0.594238 1228.17 180.219 1090.13 180.219 777.567C180.219 544.929 29.4776 400.449 29.4776 400.449Z" fill="#2F9366"/>
<path d="M446.195 815.607C441.536 815.878 432.46 817.206 418.968 819.591L394.35 804.793C394.181 801.597 399.759 788.452 411.086 765.357C422.539 742.122 431.651 726.368 438.422 718.095L471.536 719.379C469.668 744.596 468.953 768.878 469.389 792.225L482.231 792.682L480.548 813.814L470.165 814.417C470.97 829.595 471.98 842.358 473.196 852.705L449.13 852.098C447.964 842.683 446.985 830.52 446.195 815.607ZM423.73 796.076C430.336 794.758 437.499 793.875 445.219 793.427C445.219 775.797 445.945 759.261 447.396 743.818C437.119 764.047 429.231 781.466 423.73 796.076Z" fill="black" fill-opacity="0.2"/>
</svg>
