<svg width="5655" height="4239" viewBox="0 0 5655 4239" fill="none" xmlns="http://www.w3.org/2000/svg">
<g clip-path="url(#clip0_13_58)">
<rect width="5655" height="4239" fill="#C3DDEC"/>
<g clip-path="url(#clip1_13_58)">
<rect y="4239" width="4239" height="5655" rx="22.7459" transform="rotate(-90 0 4239)" fill="#74AE94"/>
<ellipse cx="2761.9" cy="2211.33" rx="1753.06" ry="1683.94" fill="#6FD8F9"/>
<ellipse cx="2701.32" cy="2048.85" rx="1226.43" ry="1183.67" fill="#74AE94"/>
<rect x="-720" y="2102.3" width="1944.05" height="343.486" fill="#6FD8F9"/>
<rect x="3709.69" y="950.408" width="1944.05" height="343.486" transform="rotate(-39.4558 3709.69 950.408)" fill="#6FD8F9"/>
<rect x="3659.37" y="3174.09" width="1944.05" height="343.486" transform="rotate(36.8967 3659.37 3174.09)" fill="#6FD8F9"/>
<rect x="1128.83" y="1274.72" width="200.961" height="668.444" transform="rotate(-55.0976 1128.83 1274.72)" fill="#D9873C"/>
<rect x="2499.65" y="412.642" width="200.961" height="608.421" transform="rotate(-1.82289 2499.65 412.642)" fill="#D9873C"/>
<rect x="3920" y="644.409" width="175.581" height="608.421" transform="rotate(-44.6572 3920 644.409)" fill="#D9873C"/>
<rect x="1795.91" y="2655.99" width="188.275" height="878.52" transform="rotate(44.8705 1795.91 2655.99)" fill="#D9873C"/>
<rect x="2219.27" y="2993.09" width="200.961" height="900.052" transform="rotate(24.3405 2219.27 2993.09)" fill="#D9873C"/>
<rect x="4334.12" y="3501.9" width="200.961" height="658.164" transform="rotate(46.1679 4334.12 3501.9)" fill="#D9873C"/>
<rect x="4683.5" y="2225.03" width="200.961" height="900.052" transform="rotate(96.3741 4683.5 2225.03)" fill="#D9873C"/>
<path d="M1676.75 1510.73C1690.72 1494.82 1706.19 1483.48 1723.13 1476.73C1740.21 1469.75 1756.58 1470.85 1772.22 1480.02C1787.86 1489.2 1795.51 1502.5 1795.18 1519.93C1795.21 1537.27 1788.21 1557.89 1774.17 1581.81C1760.14 1605.73 1739.39 1637.93 1711.94 1678.4L1684.37 1658.98L1688.09 1646.32C1673.64 1646.19 1660.78 1642.81 1649.51 1636.2C1638.24 1629.59 1631.08 1620.44 1628.04 1608.76C1625.13 1596.86 1627.8 1583.89 1636.03 1569.86C1644.26 1555.83 1658.24 1547.8 1677.98 1545.78C1697.95 1543.89 1717.15 1548.05 1735.59 1558.25L1741.06 1548.93C1751.72 1530.76 1752.68 1519.11 1743.94 1513.99C1739.57 1511.42 1733.72 1512.16 1726.4 1516.22C1719.44 1520.17 1712.86 1525.59 1706.67 1532.46L1676.75 1510.73ZM1670 1592.57C1665.68 1599.93 1667.9 1606.18 1676.64 1611.31C1682.62 1614.81 1689.75 1617.15 1698.04 1618.3L1715.73 1589.72C1704.38 1584.3 1694.6 1582.27 1686.38 1583.63C1678.3 1584.76 1672.84 1587.74 1670 1592.57Z" fill="#B55D0D"/>
<path d="M615.4 775.918C667.893 771.64 709.447 784.975 740.062 815.924C771.342 846.819 789.039 887.516 793.155 938.015C795.917 971.902 781.319 1022.59 749.362 1090.07C717.351 1156.9 675.427 1225.19 623.59 1294.97C637.775 1288.46 667.459 1283.37 712.642 1279.68C758.49 1275.95 793.897 1275.4 818.861 1278.05L816.079 1391.65C774.612 1391.69 739.924 1392.84 712.017 1395.12C635.604 1401.34 551.852 1424.22 460.762 1463.75L410.837 1380.53C478.336 1314.16 539.741 1234.58 595.052 1141.78C650.363 1048.98 676.53 984.308 673.551 947.762C670.519 910.552 654.384 893.139 625.148 895.522C601.227 897.471 577.447 913.456 553.807 943.475C530.778 972.776 506.649 1013.2 481.42 1064.76L376.064 1003.11C451.235 858.526 531.014 782.796 615.4 775.918Z" fill="#5C977C"/>
<path d="M2601.1 1722.58C2596.69 1832.64 2599.11 1944.48 2608.37 2058.1C2617.58 2171.06 2630.52 2272.34 2647.18 2361.95L2512.57 2359.88C2501.58 2282.52 2493.08 2206.96 2487.07 2133.2C2481.01 2058.78 2477.93 1988.13 2477.83 1921.25L2428.1 2000.55L2347.16 1942.94C2384.03 1878.4 2422.1 1799.71 2461.36 1706.88L2601.1 1722.58Z" fill="#5C977C"/>
<path d="M5184.77 2397.62C5161.51 2399.51 5116.32 2407.21 5049.2 2420.71L4924.01 2349.64C4922.71 2333.69 4948.74 2267.36 5002.1 2150.64C5056.07 2033.2 5099.4 1953.42 5132.09 1911.29L5297.84 1913.83C5292.08 2040.05 5291.94 2161.47 5297.43 2278.07L5361.71 2278.85L5356.28 2384.64L5304.45 2388.87C5310.63 2464.62 5317.49 2528.27 5325.03 2579.83L5204.62 2579.61C5197.45 2532.7 5190.83 2472.04 5184.77 2397.62ZM5069.67 2302.65C5102.52 2295.29 5138.21 2290.04 5176.75 2286.9C5174.25 2198.82 5175.54 2116.1 5180.61 2038.77C5132.09 2141.05 5095.11 2229.01 5069.67 2302.65Z" fill="#5C977C"/>
<path d="M493.136 3367.07C530.676 3335.25 564.878 3311.73 595.743 3296.5C627.219 3280.56 663.223 3270.94 703.755 3267.64C744.287 3264.33 780.614 3275.08 812.735 3299.89C844.856 3324.7 862.921 3361.68 866.928 3410.85C870.881 3459.36 836.512 3513.66 763.821 3573.77C833.083 3602.9 870.124 3647.04 874.943 3706.18C879.709 3764.65 861.708 3814.61 820.94 3856.06C780.172 3897.51 737.861 3920.02 694.006 3923.6C650.152 3927.17 609.383 3923.47 571.7 3912.49L544.824 3804.32C568.676 3809.73 597.546 3811.06 631.434 3808.3C665.321 3805.53 694.959 3795.76 720.346 3778.98C745.679 3761.53 757.533 3742.84 755.909 3722.9C754.23 3702.31 744.543 3686.04 726.849 3674.1C709.1 3661.5 687.268 3656.26 661.354 3658.37C635.44 3660.48 607.912 3667.41 578.769 3679.15L536.515 3579.25C604.388 3550.31 655.874 3521.36 690.972 3492.42C726.68 3462.75 743.668 3437.29 741.935 3416.02C739.985 3392.1 726.054 3381.2 700.139 3383.31C665.587 3386.13 620.421 3410.54 564.642 3456.56L493.136 3367.07Z" fill="#5C977C"/>
<path d="M2589.65 844.676C2602.45 844.657 2611.93 851.71 2618.08 865.834C2624.5 879.957 2627.73 896.753 2627.76 916.219C2627.79 935.419 2625.68 954.489 2621.44 973.429C2617.47 992.368 2610.96 1008.51 2601.92 1021.86C2593.14 1034.94 2583.01 1041.49 2571.55 1041.5C2554.75 1041.53 2540.87 1034.08 2529.91 1019.17C2529.92 1022.9 2530.19 1028.23 2530.74 1035.17L2495.53 1031.62C2493.88 999.621 2493.02 956.689 2492.94 902.822C2492.86 848.689 2494.24 794.42 2497.09 740.016L2542.7 743.947C2539.58 796.485 2538.05 844.221 2538.11 887.154C2555.94 858.86 2573.12 844.701 2589.65 844.676ZM2538.22 955.554L2538.66 986.753C2541.87 991.282 2544.68 994.478 2547.08 996.341C2549.48 997.937 2553.08 998.732 2557.88 998.724C2564.55 998.714 2570.4 991.372 2575.45 976.698C2580.49 961.757 2583.01 947.62 2582.99 934.287C2582.97 920.953 2582.15 911.354 2580.54 905.49C2579.2 899.626 2576.13 896.697 2571.33 896.704C2561.2 896.719 2550.16 916.336 2538.22 955.554Z" fill="#B55D0D"/>
<path d="M2218.43 3043.59C2184.39 3031.87 2159.4 3017.63 2143.46 3000.86C2127.35 2983.75 2122.03 2967.25 2127.5 2951.37C2133.06 2935.23 2145.46 2925.82 2164.72 2923.15C2183.8 2920.13 2207.59 2923.52 2236.09 2933.33L2220.19 2967.21C2191.95 2957.48 2176.32 2957.03 2173.28 2965.86C2170.67 2973.42 2190.8 2984.58 2233.67 2999.34L2244.63 3003.12C2249.19 2985.79 2253.29 2971.83 2256.94 2961.24L2292.11 2973.35C2286.12 2990.75 2282.06 3004.58 2279.94 3014.85C2318.52 3028.13 2361.86 3041.5 2409.96 3054.96L2390.19 3097.65C2354.7 3087.69 2314.89 3075.53 2270.75 3061.18C2269.51 3068.09 2268.83 3072.93 2268.71 3075.71L2231.94 3071.93C2232.05 3069.15 2233.1 3061.62 2235.07 3049.32L2218.43 3043.59Z" fill="#B55D0D"/>
<path d="M1301.48 3370.87C1308.71 3363.77 1309.6 3349.26 1304.15 3327.34L1338.45 3318.89C1341 3328.72 1342.71 3337.5 1343.58 3345.24C1344.64 3352.79 1343.8 3361.84 1341.07 3372.37C1338.33 3382.91 1332.87 3392.19 1324.68 3400.22C1312.69 3411.99 1297.66 3416.85 1279.57 3414.79C1261.3 3412.55 1243.67 3402.77 1226.67 3385.45C1207.24 3365.66 1192.64 3343.74 1182.87 3319.7C1177.9 3307.02 1176.23 3294.46 1177.85 3282.03C1179.48 3269.23 1184 3259.18 1191.43 3251.89C1199.04 3244.42 1206.34 3239.68 1213.34 3237.67C1220.15 3235.47 1226.38 3234.59 1232.03 3235.02C1237.69 3235.07 1244.37 3236.93 1252.06 3240.58C1259.76 3244.23 1265.76 3247.5 1270.07 3250.36C1274.58 3253.05 1280.47 3257.53 1287.77 3263.82C1297.5 3272.21 1306 3280.12 1313.29 3287.54C1302.17 3306.67 1286.21 3329.81 1265.4 3356.96C1273.45 3364.01 1280.76 3368.79 1287.33 3371.3C1293.91 3373.82 1298.62 3373.67 1301.48 3370.87ZM1221.74 3277.07C1217.55 3281.18 1217.86 3289.1 1222.65 3300.84C1227.63 3312.39 1235.26 3323.96 1245.52 3335.56C1253.55 3323.56 1260.35 3312.97 1265.9 3303.79C1242.55 3280 1227.83 3271.09 1221.74 3277.07Z" fill="#B55D0D"/>
<path d="M4481.26 3685.76C4486.37 3679.26 4483.79 3668.74 4473.51 3654.21C4463.43 3639.84 4448.55 3624.91 4428.84 3609.41C4440.02 3636.18 4440.91 3655.54 4431.51 3667.49C4422.28 3679.22 4410.79 3685.63 4397.06 3686.7C4383.28 3687.4 4368.21 3681.31 4351.87 3668.46C4335.31 3655.43 4321.19 3639.74 4309.5 3621.39C4297.6 3602.87 4290.05 3585.73 4286.83 3569.97C4283.58 3553.84 4284.92 3542 4290.85 3534.46C4301.24 3521.25 4316.14 3513.3 4335.57 3510.6L4356.03 3491.06C4367.51 3504.5 4387.39 3522.35 4415.69 3544.61C4443.78 3566.7 4463.87 3583.86 4475.96 3596.09C4488.01 3607.94 4499.03 3620.68 4509.01 3634.3C4519 3647.92 4525.04 3661.16 4527.14 3674.01C4529.25 3686.86 4525.85 3698.94 4516.95 3710.26C4508.05 3721.58 4494.94 3728.75 4477.64 3731.76C4460.55 3734.95 4443.14 3734.65 4425.41 3730.88L4434.86 3695.57C4457.22 3699.93 4472.69 3696.65 4481.26 3685.76ZM4329.1 3551.82C4324.98 3557.06 4328.32 3568.34 4339.13 3585.66C4350.1 3602.77 4364.07 3618 4381.05 3631.36C4387.54 3636.47 4393.13 3639.5 4397.8 3640.46C4402.64 3641.22 4405.88 3640.54 4407.53 3638.45C4409.34 3636.14 4409.56 3631.56 4408.17 3624.7C4406.78 3617.84 4403.04 3608.79 4396.95 3597.55C4391.02 3586.11 4383.25 3575.07 4373.62 3564.45L4350.22 3545.02C4338.95 3545.99 4331.9 3548.26 4329.1 3551.82Z" fill="#B55D0D"/>
<path d="M4021.64 609.426C4024.79 607.357 4028.57 604.383 4032.97 600.504C4037.37 596.624 4041.08 591.756 4044.09 585.9C4047.11 580.044 4047.38 575.715 4044.91 572.915C4039.97 567.314 4029.86 568.944 4014.56 577.806C3999.64 586.692 3986.78 595.896 3975.98 605.419C3957.78 621.466 3951.94 633.191 3958.46 640.592C3963.75 646.593 3981.75 645.836 4012.45 638.322L4016.12 674.545C3996.76 682.017 3979.16 685.444 3963.33 684.826C3947.68 684.407 3934.82 678.497 3924.77 667.095C3914.72 655.693 3910.14 641.424 3911.03 624.287C3912.09 607.35 3921.83 590.769 3940.23 574.545C3959.83 557.263 3982.16 543.27 4007.21 532.566C4020.98 526.82 4034.36 524.45 4047.33 525.455C4060.48 526.661 4071.9 532.765 4081.6 543.766C4091.3 554.768 4093.72 568.807 4088.87 585.884C4084.19 603.161 4075.05 617.795 4061.45 629.786C4055.65 634.9 4049.86 638.409 4044.07 640.312L4021.64 609.426Z" fill="#B55D0D"/>
<path d="M4628.76 2231.9L4629.09 2182.3C4629.06 2163.9 4628.63 2142.96 4627.79 2119.5L4674.6 2123.43C4675.16 2142.36 4675.48 2176.76 4675.56 2226.63C4675.63 2276.23 4673.59 2340.23 4669.44 2418.64L4633.84 2415.49C4633.02 2404.82 4632.2 2392.29 4631.38 2377.89C4619.95 2400.84 4607.57 2412.33 4594.23 2412.35C4573.7 2412.38 4559.43 2406 4551.41 2393.21C4543.39 2380.43 4539.36 2361.9 4539.32 2337.63C4539.29 2313.1 4544.45 2287.76 4554.81 2261.61C4565.44 2235.46 4577.42 2222.37 4590.75 2222.35C4602.75 2222.34 4615.42 2225.52 4628.76 2231.9ZM4630.02 2269.1C4623.34 2264.04 4616.67 2261.52 4610.01 2261.53C4603.61 2261.54 4598.02 2270.21 4593.25 2287.55C4588.47 2304.62 4586.1 2322.49 4586.13 2341.16C4586.16 2359.83 4590.7 2369.15 4599.77 2369.14C4603.24 2369.14 4607.89 2363.4 4613.74 2351.92C4619.59 2340.18 4624.9 2325.37 4629.68 2307.5L4630.02 2269.1Z" fill="#B55D0D"/>
<rect x="2736" y="134" width="2719" height="378" rx="100" fill="white"/>
<path d="M2899.94 271.8V290.25C2888.74 290.25 2878.24 290.6 2868.44 291.3C2868.24 294.2 2868.04 299.35 2867.84 306.75C2867.74 314.05 2867.64 318.55 2867.54 320.25C2878.74 318.75 2887.74 318 2894.54 318L2897.54 334.5C2886.34 334.8 2876.29 335.5 2867.39 336.6C2867.39 352.2 2867.59 365.95 2867.99 377.85L2847.74 375.6C2847.54 359.4 2847.44 344.35 2847.44 330.45C2847.44 316.55 2848.24 298.3 2849.84 275.7C2866.94 273.1 2883.64 271.8 2899.94 271.8ZM2913.2 303.45L2930.3 305.1V377.1L2913.2 375.45V303.45ZM2914.4 277.05L2931.2 279L2929.7 295.8L2912.9 293.7L2914.4 277.05ZM2974.15 320.85C2969.95 320.85 2966.8 326.15 2964.7 336.75C2964.9 343.75 2965 350.45 2965 356.85C2965 363.25 2964.8 370.45 2964.4 378.45L2947 376.95C2947.3 362.25 2947.45 354.15 2947.45 352.65C2947.45 334.15 2946.55 320 2944.75 310.2L2956 311.4C2956.7 314.3 2957.5 316.85 2958.4 319.05C2963.3 308.55 2968.25 303.3 2973.25 303.3C2977.35 303.3 2980.95 305.1 2984.05 308.7L2980.15 322.5C2978.55 321.4 2976.55 320.85 2974.15 320.85ZM3018.97 327.75C3018.97 321.75 3017.47 318.75 3014.47 318.75C3012.97 318.75 3011.57 319.5 3010.27 321C3009.07 322.4 3008.47 324.35 3008.47 326.85C3008.47 329.25 3008.92 331.25 3009.82 332.85C3010.82 334.45 3012.57 336.05 3015.07 337.65C3017.67 339.15 3019.67 340.4 3021.07 341.4C3022.57 342.3 3024.32 343.6 3026.32 345.3C3030.42 348.9 3032.47 353.55 3032.47 359.25C3032.47 364.85 3030.32 369.4 3026.02 372.9C3021.82 376.4 3017.07 378.15 3011.77 378.15C3006.47 378.15 3001.67 376.75 2997.37 373.95C2993.17 371.05 2989.77 367.45 2987.17 363.15L2995.27 354C2999.27 360.9 3003.47 364.35 3007.87 364.35C3009.37 364.35 3010.67 363.95 3011.77 363.15C3012.87 362.25 3013.42 361.05 3013.42 359.55C3013.42 356.35 3011.12 353.4 3006.52 350.7C3001.62 348 2997.77 345 2994.97 341.7C2992.17 338.4 2990.77 333.75 2990.77 327.75C2990.77 321.65 2993.27 316.2 2998.27 311.4C3003.27 306.5 3008.62 304.05 3014.32 304.05C3020.12 304.05 3024.67 306.05 3027.97 310.05C3031.37 313.95 3033.07 319.25 3033.07 325.95C3033.07 328.65 3032.77 331.55 3032.17 334.65L3018.52 333.45C3018.82 331.15 3018.97 329.25 3018.97 327.75ZM3078.17 312.3V326.55C3073.37 326.55 3069.67 326.6 3067.07 326.7C3066.77 336.7 3066.62 353.5 3066.62 377.1L3048.92 375.45C3048.92 357.95 3049.07 342.1 3049.37 327.9C3047.87 327.9 3045.02 328.15 3040.82 328.65L3038.57 316.35C3040.97 315.85 3044.72 315.2 3049.82 314.4C3050.02 307 3050.42 296.2 3051.02 282L3068.87 283.65C3068.27 293.55 3067.82 303.15 3067.52 312.45C3070.02 312.35 3073.57 312.3 3078.17 312.3ZM3157.86 299.85L3172.26 308.25C3163.96 333.95 3155.46 368.05 3146.76 410.55L3130.26 409.05C3131.86 401.15 3134.51 390.25 3138.21 376.35C3128.61 357.95 3122.56 334.75 3120.06 306.75L3136.86 308.4C3138.36 326.8 3140.76 342.5 3144.06 355.5C3148.66 334.1 3153.26 315.55 3157.86 299.85ZM3192.36 348C3192.36 359.3 3194.86 364.95 3199.86 364.95C3202.06 364.95 3203.91 361.8 3205.41 355.5C3206.91 349.1 3207.66 343 3207.66 337.2C3207.66 324.4 3205.56 318 3201.36 318C3198.66 318 3196.46 321.45 3194.76 328.35C3193.16 335.15 3192.36 341.7 3192.36 348ZM3174.81 346.65C3174.81 337.35 3176.71 328.25 3180.51 319.35C3182.51 314.85 3185.31 311.2 3188.91 308.4C3192.61 305.5 3196.71 304.05 3201.21 304.05C3205.71 304.05 3209.56 305.1 3212.76 307.2C3216.06 309.2 3218.56 311.9 3220.26 315.3C3223.56 322 3225.21 329.3 3225.21 337.2C3225.21 348.1 3222.96 357.8 3218.46 366.3C3214.06 374.7 3207.86 378.9 3199.86 378.9C3183.16 378.9 3174.81 368.15 3174.81 346.65ZM3283.14 304.65L3282.84 328.35C3282.84 350.65 3283.24 367.05 3284.04 377.55L3269.19 376.05C3268.89 371.85 3268.24 367.6 3267.24 363.3C3261.74 371.4 3256.19 375.45 3250.59 375.45C3245.09 375.45 3240.69 373.55 3237.39 369.75C3234.09 365.95 3232.44 360.7 3232.44 354C3232.44 341 3233.39 325.5 3235.29 307.5L3252.69 309.15C3250.89 326.25 3249.99 340.45 3249.99 351.75C3249.99 356.85 3251.59 359.4 3254.79 359.4C3256.29 359.4 3258.09 357.35 3260.19 353.25C3262.39 349.15 3264.14 344.2 3265.44 338.4C3265.34 336.2 3265.29 333.6 3265.29 330.6C3265.29 327.6 3265.44 318.45 3265.74 303.15L3283.14 304.65ZM3385.6 376.8L3371.5 375.6C3369 364.6 3366.75 354.4 3364.75 345C3362.25 353.9 3358.95 364.65 3354.85 377.25L3339.25 375.6C3333.15 345.8 3329.4 322.45 3328 305.55L3345.1 307.2C3346.7 329.1 3348.3 345.8 3349.9 357.3C3353.5 343.1 3357.1 326.8 3360.7 308.4L3372.25 309.45C3373.45 325.55 3375.3 340.25 3377.8 353.55C3381.3 339.85 3385.15 322.05 3389.35 300.15L3405.55 301.65C3401.15 322.75 3394.5 347.8 3385.6 376.8ZM3413.45 303.45L3430.55 305.1V377.1L3413.45 375.45V303.45ZM3414.65 277.05L3431.45 279L3429.95 295.8L3413.15 293.7L3414.65 277.05ZM3467.94 266.7C3466.44 292 3465.69 314.8 3465.69 335.1C3465.69 355.4 3465.94 369.65 3466.44 377.85L3448.74 376.2C3448.34 365.8 3448.14 351.05 3448.14 331.95C3448.14 312.75 3448.89 290.55 3450.39 265.35L3467.94 266.7ZM3503.39 266.7C3501.89 292 3501.14 314.8 3501.14 335.1C3501.14 355.4 3501.39 369.65 3501.89 377.85L3484.19 376.2C3483.79 365.8 3483.59 351.05 3483.59 331.95C3483.59 312.75 3484.34 290.55 3485.84 265.35L3503.39 266.7ZM3580.57 336.6C3580.77 335.2 3580.87 333.4 3580.87 331.2C3580.87 329 3580.42 326.75 3579.52 324.45C3578.62 322.15 3577.47 321 3576.07 321C3573.27 321 3571.22 324.25 3569.92 330.75C3568.72 337.15 3568.12 343.05 3568.12 348.45C3568.12 357.55 3569.97 362.1 3573.67 362.1C3576.67 362.1 3580.92 356.85 3586.42 346.35L3597.52 354.3C3594.82 361.6 3591.42 367.4 3587.32 371.7C3583.32 376 3578.47 378.15 3572.77 378.15C3567.07 378.15 3561.92 375.9 3557.32 371.4C3552.82 366.9 3550.57 360.05 3550.57 350.85C3550.57 341.05 3552.17 331.3 3555.37 321.6C3557.17 316.3 3559.82 311.95 3563.32 308.55C3566.92 305.15 3571.47 303.45 3576.97 303.45C3582.47 303.45 3587.02 306.25 3590.62 311.85C3594.32 317.45 3596.17 323.65 3596.17 330.45C3596.17 333.35 3595.72 335.85 3594.82 337.95L3580.57 336.6ZM3625.95 313.95C3630.55 308.25 3635.05 305.4 3639.45 305.4C3643.95 305.4 3647.6 306.9 3650.4 309.9C3655.3 315.1 3657.75 321.7 3657.75 329.7C3657.75 344.2 3657.2 359.35 3656.1 375.15L3638.7 373.5C3639.4 358.8 3639.75 344.35 3639.75 330.15C3639.75 324.85 3638.4 322.2 3635.7 322.2C3632.5 322.2 3629.05 329.2 3625.35 343.2C3625.15 353.2 3624.65 364.55 3623.85 377.25L3606.3 375.6C3607.6 358.4 3608.25 339.2 3608.25 318C3608.25 296.8 3607.9 279.75 3607.2 266.85L3624.75 268.5C3625.55 282.6 3625.95 297.75 3625.95 313.95ZM3683.67 348C3683.67 359.3 3686.17 364.95 3691.17 364.95C3693.37 364.95 3695.22 361.8 3696.72 355.5C3698.22 349.1 3698.97 343 3698.97 337.2C3698.97 324.4 3696.87 318 3692.67 318C3689.97 318 3687.77 321.45 3686.07 328.35C3684.47 335.15 3683.67 341.7 3683.67 348ZM3666.12 346.65C3666.12 337.35 3668.02 328.25 3671.82 319.35C3673.82 314.85 3676.62 311.2 3680.22 308.4C3683.92 305.5 3688.02 304.05 3692.52 304.05C3697.02 304.05 3700.87 305.1 3704.07 307.2C3707.37 309.2 3709.87 311.9 3711.57 315.3C3714.87 322 3716.52 329.3 3716.52 337.2C3716.52 348.1 3714.27 357.8 3709.77 366.3C3705.37 374.7 3699.17 378.9 3691.17 378.9C3674.47 378.9 3666.12 368.15 3666.12 346.65ZM3738.89 348C3738.89 359.3 3741.39 364.95 3746.39 364.95C3748.59 364.95 3750.44 361.8 3751.94 355.5C3753.44 349.1 3754.19 343 3754.19 337.2C3754.19 324.4 3752.09 318 3747.89 318C3745.19 318 3742.99 321.45 3741.29 328.35C3739.69 335.15 3738.89 341.7 3738.89 348ZM3721.34 346.65C3721.34 337.35 3723.24 328.25 3727.04 319.35C3729.04 314.85 3731.84 311.2 3735.44 308.4C3739.14 305.5 3743.24 304.05 3747.74 304.05C3752.24 304.05 3756.09 305.1 3759.29 307.2C3762.59 309.2 3765.09 311.9 3766.79 315.3C3770.09 322 3771.74 329.3 3771.74 337.2C3771.74 348.1 3769.49 357.8 3764.99 366.3C3760.59 374.7 3754.39 378.9 3746.39 378.9C3729.69 378.9 3721.34 368.15 3721.34 346.65ZM3808.52 327.75C3808.52 321.75 3807.02 318.75 3804.02 318.75C3802.52 318.75 3801.12 319.5 3799.82 321C3798.62 322.4 3798.02 324.35 3798.02 326.85C3798.02 329.25 3798.47 331.25 3799.37 332.85C3800.37 334.45 3802.12 336.05 3804.62 337.65C3807.22 339.15 3809.22 340.4 3810.62 341.4C3812.12 342.3 3813.87 343.6 3815.87 345.3C3819.97 348.9 3822.02 353.55 3822.02 359.25C3822.02 364.85 3819.87 369.4 3815.57 372.9C3811.37 376.4 3806.62 378.15 3801.32 378.15C3796.02 378.15 3791.22 376.75 3786.92 373.95C3782.72 371.05 3779.32 367.45 3776.72 363.15L3784.82 354C3788.82 360.9 3793.02 364.35 3797.42 364.35C3798.92 364.35 3800.22 363.95 3801.32 363.15C3802.42 362.25 3802.97 361.05 3802.97 359.55C3802.97 356.35 3800.67 353.4 3796.07 350.7C3791.17 348 3787.32 345 3784.52 341.7C3781.72 338.4 3780.32 333.75 3780.32 327.75C3780.32 321.65 3782.82 316.2 3787.82 311.4C3792.82 306.5 3798.17 304.05 3803.87 304.05C3809.67 304.05 3814.22 306.05 3817.52 310.05C3820.92 313.95 3822.62 319.25 3822.62 325.95C3822.62 328.65 3822.32 331.55 3821.72 334.65L3808.07 333.45C3808.37 331.15 3808.52 329.25 3808.52 327.75ZM3852.57 364.2C3856.37 364.2 3860.42 360.55 3864.72 353.25L3876.12 360C3874.22 363.3 3872.37 366.1 3870.57 368.4C3868.87 370.7 3866.27 372.9 3862.77 375C3859.27 377.1 3855.37 378.15 3851.07 378.15C3844.77 378.15 3839.47 375.5 3835.17 370.2C3830.87 364.8 3828.72 357.55 3828.72 348.45C3828.72 338.05 3830.57 328.35 3834.27 319.35C3836.27 314.65 3839.12 310.85 3842.82 307.95C3846.62 304.95 3850.47 303.45 3854.37 303.45C3858.37 303.45 3861.57 304.1 3863.97 305.4C3866.37 306.6 3868.27 308 3869.67 309.6C3871.17 311.1 3872.47 313.35 3873.57 316.35C3874.67 319.35 3875.42 321.8 3875.82 323.7C3876.32 325.6 3876.72 328.35 3877.02 331.95C3877.42 336.75 3877.62 341.1 3877.62 345C3869.62 347.2 3859.27 349.2 3846.57 351C3846.87 355 3847.57 358.2 3848.67 360.6C3849.77 363 3851.07 364.2 3852.57 364.2ZM3855.87 318.15C3853.67 318.15 3851.67 320.35 3849.87 324.75C3848.17 329.15 3847.17 334.25 3846.87 340.05C3852.17 338.95 3856.77 337.9 3860.67 336.9C3860.67 324.4 3859.07 318.15 3855.87 318.15ZM3923.28 330.75C3924.78 322.95 3927.63 316.35 3931.83 310.95C3936.03 305.45 3941.53 302.7 3948.33 302.7C3955.13 302.7 3960.13 305.55 3963.33 311.25C3966.63 316.85 3968.28 324.85 3968.28 335.25C3968.28 345.65 3967.68 360 3966.48 378.3L3953.88 377.25L3952.68 372.45C3947.98 375.15 3943.18 376.5 3938.28 376.5C3933.38 376.5 3929.33 374.9 3926.13 371.7C3922.93 368.4 3921.33 363.7 3921.33 357.6C3921.33 351.5 3924.33 346.25 3930.33 341.85C3936.43 337.45 3943.43 335.15 3951.33 334.95V330.9C3951.33 323 3949.43 319.05 3945.63 319.05C3943.73 319.05 3941.98 320.4 3940.38 323.1C3938.88 325.7 3937.78 328.7 3937.08 332.1L3923.28 330.75ZM3936.63 358.5C3936.63 361.7 3938.53 363.3 3942.33 363.3C3944.93 363.3 3947.68 362.7 3950.58 361.5L3950.88 348.9C3946.18 349.3 3942.63 350.5 3940.23 352.5C3937.83 354.4 3936.63 356.4 3936.63 358.5ZM4013.37 303.6C4026.57 303.6 4033.17 314.6 4033.17 336.6C4033.17 348.2 4032.52 360.5 4031.22 373.5L4013.67 371.85C4014.77 360.45 4015.32 348.95 4015.32 337.35C4015.32 325.65 4013.67 319.8 4010.37 319.8C4008.77 319.8 4006.72 323.85 4004.22 331.95C4001.72 339.95 4000.17 347.8 3999.57 355.5C3999.77 359.6 4000.17 367 4000.77 377.7L3983.22 376.05C3982.12 361.95 3981.57 349.55 3981.57 338.85C3981.57 328.15 3981.87 318.55 3982.47 310.05L3993.57 311.25C3993.77 312.05 3994.52 315.3 3995.82 321C4001.62 309.4 4007.47 303.6 4013.37 303.6ZM4081.63 330.75C4083.13 322.95 4085.98 316.35 4090.18 310.95C4094.38 305.45 4099.88 302.7 4106.68 302.7C4113.48 302.7 4118.48 305.55 4121.68 311.25C4124.98 316.85 4126.63 324.85 4126.63 335.25C4126.63 345.65 4126.03 360 4124.83 378.3L4112.23 377.25L4111.03 372.45C4106.33 375.15 4101.53 376.5 4096.63 376.5C4091.73 376.5 4087.68 374.9 4084.48 371.7C4081.28 368.4 4079.68 363.7 4079.68 357.6C4079.68 351.5 4082.68 346.25 4088.68 341.85C4094.78 337.45 4101.78 335.15 4109.68 334.95V330.9C4109.68 323 4107.78 319.05 4103.98 319.05C4102.08 319.05 4100.33 320.4 4098.73 323.1C4097.23 325.7 4096.13 328.7 4095.43 332.1L4081.63 330.75ZM4094.98 358.5C4094.98 361.7 4096.88 363.3 4100.68 363.3C4103.28 363.3 4106.03 362.7 4108.93 361.5L4109.23 348.9C4104.53 349.3 4100.98 350.5 4098.58 352.5C4096.18 354.4 4094.98 356.4 4094.98 358.5ZM4169.02 320.85C4164.82 320.85 4161.67 326.15 4159.57 336.75C4159.77 343.75 4159.87 350.45 4159.87 356.85C4159.87 363.25 4159.67 370.45 4159.27 378.45L4141.87 376.95C4142.17 362.25 4142.32 354.15 4142.32 352.65C4142.32 334.15 4141.42 320 4139.62 310.2L4150.87 311.4C4151.57 314.3 4152.37 316.85 4153.27 319.05C4158.17 308.55 4163.12 303.3 4168.12 303.3C4172.22 303.3 4175.82 305.1 4178.92 308.7L4175.02 322.5C4173.42 321.4 4171.42 320.85 4169.02 320.85ZM4205.89 364.2C4209.69 364.2 4213.74 360.55 4218.04 353.25L4229.44 360C4227.54 363.3 4225.69 366.1 4223.89 368.4C4222.19 370.7 4219.59 372.9 4216.09 375C4212.59 377.1 4208.69 378.15 4204.39 378.15C4198.09 378.15 4192.79 375.5 4188.49 370.2C4184.19 364.8 4182.04 357.55 4182.04 348.45C4182.04 338.05 4183.89 328.35 4187.59 319.35C4189.59 314.65 4192.44 310.85 4196.14 307.95C4199.94 304.95 4203.79 303.45 4207.69 303.45C4211.69 303.45 4214.89 304.1 4217.29 305.4C4219.69 306.6 4221.59 308 4222.99 309.6C4224.49 311.1 4225.79 313.35 4226.89 316.35C4227.99 319.35 4228.74 321.8 4229.14 323.7C4229.64 325.6 4230.04 328.35 4230.34 331.95C4230.74 336.75 4230.94 341.1 4230.94 345C4222.94 347.2 4212.59 349.2 4199.89 351C4200.19 355 4200.89 358.2 4201.99 360.6C4203.09 363 4204.39 364.2 4205.89 364.2ZM4209.19 318.15C4206.99 318.15 4204.99 320.35 4203.19 324.75C4201.49 329.15 4200.49 334.25 4200.19 340.05C4205.49 338.95 4210.09 337.9 4213.99 336.9C4213.99 324.4 4212.39 318.15 4209.19 318.15ZM4240.27 330.75C4241.77 322.95 4244.62 316.35 4248.82 310.95C4253.02 305.45 4258.52 302.7 4265.32 302.7C4272.12 302.7 4277.12 305.55 4280.32 311.25C4283.62 316.85 4285.27 324.85 4285.27 335.25C4285.27 345.65 4284.67 360 4283.47 378.3L4270.87 377.25L4269.67 372.45C4264.97 375.15 4260.17 376.5 4255.27 376.5C4250.37 376.5 4246.32 374.9 4243.12 371.7C4239.92 368.4 4238.32 363.7 4238.32 357.6C4238.32 351.5 4241.32 346.25 4247.32 341.85C4253.42 337.45 4260.42 335.15 4268.32 334.95V330.9C4268.32 323 4266.42 319.05 4262.62 319.05C4260.72 319.05 4258.97 320.4 4257.37 323.1C4255.87 325.7 4254.77 328.7 4254.07 332.1L4240.27 330.75ZM4253.62 358.5C4253.62 361.7 4255.52 363.3 4259.32 363.3C4261.92 363.3 4264.67 362.7 4267.57 361.5L4267.87 348.9C4263.17 349.3 4259.62 350.5 4257.22 352.5C4254.82 354.4 4253.62 356.4 4253.62 358.5ZM4370.89 312.3V326.55C4366.09 326.55 4362.39 326.6 4359.79 326.7C4359.49 336.7 4359.34 353.5 4359.34 377.1L4341.64 375.45C4341.64 357.95 4341.79 342.1 4342.09 327.9C4340.59 327.9 4337.74 328.15 4333.54 328.65L4331.29 316.35C4333.69 315.85 4337.44 315.2 4342.54 314.4C4342.74 307 4343.14 296.2 4343.74 282L4361.59 283.65C4360.99 293.55 4360.54 303.15 4360.24 312.45C4362.74 312.35 4366.29 312.3 4370.89 312.3ZM4392.36 348C4392.36 359.3 4394.86 364.95 4399.86 364.95C4402.06 364.95 4403.91 361.8 4405.41 355.5C4406.91 349.1 4407.66 343 4407.66 337.2C4407.66 324.4 4405.56 318 4401.36 318C4398.66 318 4396.46 321.45 4394.76 328.35C4393.16 335.15 4392.36 341.7 4392.36 348ZM4374.81 346.65C4374.81 337.35 4376.71 328.25 4380.51 319.35C4382.51 314.85 4385.31 311.2 4388.91 308.4C4392.61 305.5 4396.71 304.05 4401.21 304.05C4405.71 304.05 4409.56 305.1 4412.76 307.2C4416.06 309.2 4418.56 311.9 4420.26 315.3C4423.56 322 4425.21 329.3 4425.21 337.2C4425.21 348.1 4422.96 357.8 4418.46 366.3C4414.06 374.7 4407.86 378.9 4399.86 378.9C4383.16 378.9 4374.81 368.15 4374.81 346.65ZM4498.31 327.75C4498.31 321.75 4496.81 318.75 4493.81 318.75C4492.31 318.75 4490.91 319.5 4489.61 321C4488.41 322.4 4487.81 324.35 4487.81 326.85C4487.81 329.25 4488.26 331.25 4489.16 332.85C4490.16 334.45 4491.91 336.05 4494.41 337.65C4497.01 339.15 4499.01 340.4 4500.41 341.4C4501.91 342.3 4503.66 343.6 4505.66 345.3C4509.76 348.9 4511.81 353.55 4511.81 359.25C4511.81 364.85 4509.66 369.4 4505.36 372.9C4501.16 376.4 4496.41 378.15 4491.11 378.15C4485.81 378.15 4481.01 376.75 4476.71 373.95C4472.51 371.05 4469.11 367.45 4466.51 363.15L4474.61 354C4478.61 360.9 4482.81 364.35 4487.21 364.35C4488.71 364.35 4490.01 363.95 4491.11 363.15C4492.21 362.25 4492.76 361.05 4492.76 359.55C4492.76 356.35 4490.46 353.4 4485.86 350.7C4480.96 348 4477.11 345 4474.31 341.7C4471.51 338.4 4470.11 333.75 4470.11 327.75C4470.11 321.65 4472.61 316.2 4477.61 311.4C4482.61 306.5 4487.96 304.05 4493.66 304.05C4499.46 304.05 4504.01 306.05 4507.31 310.05C4510.71 313.95 4512.41 319.25 4512.41 325.95C4512.41 328.65 4512.11 331.55 4511.51 334.65L4497.86 333.45C4498.16 331.15 4498.31 329.25 4498.31 327.75ZM4557.52 312.3V326.55C4552.72 326.55 4549.02 326.6 4546.42 326.7C4546.12 336.7 4545.97 353.5 4545.97 377.1L4528.27 375.45C4528.27 357.95 4528.42 342.1 4528.72 327.9C4527.22 327.9 4524.37 328.15 4520.17 328.65L4517.92 316.35C4520.32 315.85 4524.07 315.2 4529.17 314.4C4529.37 307 4529.77 296.2 4530.37 282L4548.22 283.65C4547.62 293.55 4547.17 303.15 4546.87 312.45C4549.37 312.35 4552.92 312.3 4557.52 312.3ZM4564.73 330.75C4566.23 322.95 4569.08 316.35 4573.28 310.95C4577.48 305.45 4582.98 302.7 4589.78 302.7C4596.58 302.7 4601.58 305.55 4604.78 311.25C4608.08 316.85 4609.73 324.85 4609.73 335.25C4609.73 345.65 4609.13 360 4607.93 378.3L4595.33 377.25L4594.13 372.45C4589.43 375.15 4584.63 376.5 4579.73 376.5C4574.83 376.5 4570.78 374.9 4567.58 371.7C4564.38 368.4 4562.78 363.7 4562.78 357.6C4562.78 351.5 4565.78 346.25 4571.78 341.85C4577.88 337.45 4584.88 335.15 4592.78 334.95V330.9C4592.78 323 4590.88 319.05 4587.08 319.05C4585.18 319.05 4583.43 320.4 4581.83 323.1C4580.33 325.7 4579.23 328.7 4578.53 332.1L4564.73 330.75ZM4578.08 358.5C4578.08 361.7 4579.98 363.3 4583.78 363.3C4586.38 363.3 4589.13 362.7 4592.03 361.5L4592.33 348.9C4587.63 349.3 4584.08 350.5 4581.68 352.5C4579.28 354.4 4578.08 356.4 4578.08 358.5ZM4652.13 320.85C4647.93 320.85 4644.78 326.15 4642.68 336.75C4642.88 343.75 4642.98 350.45 4642.98 356.85C4642.98 363.25 4642.78 370.45 4642.38 378.45L4624.98 376.95C4625.28 362.25 4625.43 354.15 4625.43 352.65C4625.43 334.15 4624.53 320 4622.73 310.2L4633.98 311.4C4634.68 314.3 4635.48 316.85 4636.38 319.05C4641.28 308.55 4646.23 303.3 4651.23 303.3C4655.33 303.3 4658.93 305.1 4662.03 308.7L4658.13 322.5C4656.53 321.4 4654.53 320.85 4652.13 320.85ZM4704.15 312.3V326.55C4699.35 326.55 4695.65 326.6 4693.05 326.7C4692.75 336.7 4692.6 353.5 4692.6 377.1L4674.9 375.45C4674.9 357.95 4675.05 342.1 4675.35 327.9C4673.85 327.9 4671 328.15 4666.8 328.65L4664.55 316.35C4666.95 315.85 4670.7 315.2 4675.8 314.4C4676 307 4676.4 296.2 4677 282L4694.85 283.65C4694.25 293.55 4693.8 303.15 4693.5 312.45C4696 312.35 4699.55 312.3 4704.15 312.3ZM4795.69 281.55C4793.69 297.95 4792.69 314.7 4792.69 331.8C4792.69 348.8 4793.39 364.1 4794.79 377.7L4774.69 375.75C4773.99 364.05 4773.64 352.65 4773.64 341.55C4773.64 330.35 4774.04 319.75 4774.84 309.75L4766.44 321L4755.04 311.4C4761.34 302.2 4767.99 290.9 4774.99 277.5L4795.69 281.55ZM4824.7 345.45L4844.65 352.05C4843.65 361.15 4839.75 374.8 4832.95 393L4819.15 391.95C4821.85 375.55 4823.7 360.05 4824.7 345.45ZM4932.09 277.95C4939.99 277.95 4946.04 280.45 4950.24 285.45C4954.54 290.45 4956.69 296.75 4956.69 304.35C4956.69 309.45 4953.89 316.85 4948.29 326.55C4942.69 336.15 4935.59 345.85 4926.99 355.65C4929.19 354.85 4933.69 354.45 4940.49 354.45C4947.39 354.45 4952.69 354.8 4956.39 355.5L4954.59 372.45C4948.39 371.95 4943.19 371.7 4938.99 371.7C4927.49 371.7 4914.69 374.1 4900.59 378.9L4894.14 365.85C4905.04 356.75 4915.19 345.6 4924.59 332.4C4933.99 319.2 4938.69 309.85 4938.69 304.35C4938.69 298.75 4936.49 295.95 4932.09 295.95C4928.49 295.95 4924.74 298.05 4920.84 302.25C4917.04 306.35 4912.94 312.1 4908.54 319.5L4893.54 309C4906.54 288.3 4919.39 277.95 4932.09 277.95ZM4972.65 345.45L4992.6 352.05C4991.6 361.15 4987.7 374.8 4980.9 393L4967.1 391.95C4969.8 375.55 4971.65 360.05 4972.65 345.45ZM5045.99 290.85C5051.99 286.55 5057.39 283.45 5062.19 281.55C5067.09 279.55 5072.59 278.55 5078.69 278.55C5084.79 278.55 5090.09 280.6 5094.59 284.7C5099.09 288.8 5101.34 294.55 5101.34 301.95C5101.34 309.25 5095.54 316.95 5083.94 325.05C5093.94 330.25 5098.94 337.3 5098.94 346.2C5098.94 355 5095.64 362.25 5089.04 367.95C5082.44 373.65 5075.84 376.5 5069.24 376.5C5062.64 376.5 5056.59 375.45 5051.09 373.35L5048.39 356.85C5051.89 357.95 5056.19 358.5 5061.29 358.5C5066.39 358.5 5070.94 357.4 5074.94 355.2C5078.94 352.9 5080.94 350.25 5080.94 347.25C5080.94 344.15 5079.69 341.6 5077.19 339.6C5074.69 337.5 5071.49 336.45 5067.59 336.45C5063.69 336.45 5059.49 337.15 5054.99 338.55L5049.89 323.1C5060.39 319.6 5068.44 315.9 5074.04 312C5079.74 308 5082.59 304.4 5082.59 301.2C5082.59 297.6 5080.64 295.8 5076.74 295.8C5071.54 295.8 5064.49 298.9 5055.59 305.1L5045.99 290.85ZM5166.82 348C5166.82 359.3 5169.32 364.95 5174.32 364.95C5176.52 364.95 5178.37 361.8 5179.87 355.5C5181.37 349.1 5182.12 343 5182.12 337.2C5182.12 324.4 5180.02 318 5175.82 318C5173.12 318 5170.92 321.45 5169.22 328.35C5167.62 335.15 5166.82 341.7 5166.82 348ZM5149.27 346.65C5149.27 337.35 5151.17 328.25 5154.97 319.35C5156.97 314.85 5159.77 311.2 5163.37 308.4C5167.07 305.5 5171.17 304.05 5175.67 304.05C5180.17 304.05 5184.02 305.1 5187.22 307.2C5190.52 309.2 5193.02 311.9 5194.72 315.3C5198.02 322 5199.67 329.3 5199.67 337.2C5199.67 348.1 5197.42 357.8 5192.92 366.3C5188.52 374.7 5182.32 378.9 5174.32 378.9C5157.62 378.9 5149.27 368.15 5149.27 346.65ZM5236.75 320.85C5232.55 320.85 5229.4 326.15 5227.3 336.75C5227.5 343.75 5227.6 350.45 5227.6 356.85C5227.6 363.25 5227.4 370.45 5227 378.45L5209.6 376.95C5209.9 362.25 5210.05 354.15 5210.05 352.65C5210.05 334.15 5209.15 320 5207.35 310.2L5218.6 311.4C5219.3 314.3 5220.1 316.85 5221 319.05C5225.9 308.55 5230.85 303.3 5235.85 303.3C5239.95 303.3 5243.55 305.1 5246.65 308.7L5242.75 322.5C5241.15 321.4 5239.15 320.85 5236.75 320.85ZM5323.29 350.55C5319.79 350.55 5312.94 351.15 5302.74 352.35L5284.89 340.2C5284.89 337.8 5289.59 328.2 5298.99 311.4C5308.49 294.5 5315.94 283.1 5321.34 277.2L5346.09 279.6C5343.69 298.4 5342.19 316.55 5341.59 334.05L5351.19 334.95L5349.09 350.7H5341.29C5341.29 362.1 5341.54 371.7 5342.04 379.5L5324.04 378C5323.54 370.9 5323.29 361.75 5323.29 350.55ZM5307.24 334.95C5312.24 334.25 5317.64 333.9 5323.44 333.9C5324.14 320.7 5325.34 308.35 5327.04 296.85C5318.54 311.55 5311.94 324.25 5307.24 334.95Z" fill="black"/>
<path d="M5159.88 511.048C5170.91 444.327 5411.94 423.333 5374.81 479.854C5292.9 604.525 5452.59 745.412 5432.22 743.84C5366.16 738.743 5145.84 595.943 5159.88 511.048Z" fill="white"/>
</g>
<g filter="url(#filter0_d_13_58)">
<path d="M215.85 159.1L230.85 160.45C231.55 168.45 232.6 179.05 234 192.25C235.5 205.35 236.55 214.65 237.15 220.15L237.9 220C245 189.4 249.6 165.45 251.7 148.15L271.35 149.8C265.75 182.9 257.55 216.9 246.75 251.8L232.35 250.6C228.95 238.8 225.15 223.35 220.95 204.25C216.65 224.85 212.55 241.3 208.65 253.6L194.25 252.4C185.75 210 180 175.6 177 149.2L196.35 150.85C197.95 167.75 200.45 190.85 203.85 220.15L204.6 220C210.4 193.3 214.15 173 215.85 159.1ZM271.943 208.75C273.443 200.95 276.293 194.35 280.493 188.95C284.693 183.45 290.193 180.7 296.993 180.7C303.793 180.7 308.793 183.55 311.993 189.25C315.293 194.85 316.943 202.85 316.943 213.25C316.943 223.65 316.343 238 315.143 256.3L302.543 255.25L301.343 250.45C296.643 253.15 291.843 254.5 286.943 254.5C282.043 254.5 277.993 252.9 274.793 249.7C271.593 246.4 269.993 241.7 269.993 235.6C269.993 229.5 272.993 224.25 278.993 219.85C285.093 215.45 292.093 213.15 299.993 212.95V208.9C299.993 201 298.093 197.05 294.293 197.05C292.393 197.05 290.643 198.4 289.043 201.1C287.543 203.7 286.443 206.7 285.743 210.1L271.943 208.75ZM285.293 236.5C285.293 239.7 287.193 241.3 290.993 241.3C293.593 241.3 296.343 240.7 299.243 239.5L299.543 226.9C294.843 227.3 291.293 228.5 288.893 230.5C286.493 232.4 285.293 234.4 285.293 236.5ZM352.89 144.7C351.39 170 350.64 192.8 350.64 213.1C350.64 233.4 350.89 247.65 351.39 255.85L333.69 254.2C333.29 243.8 333.09 229.05 333.09 209.95C333.09 190.75 333.84 168.55 335.34 143.35L352.89 144.7ZM368.389 254.2C367.989 243.8 367.789 228.4 367.789 208C367.789 187.6 368.539 166.05 370.039 143.35L387.589 144.7C386.089 169.2 385.339 192.8 385.339 215.5C395.739 202.8 403.539 190.45 408.739 178.45L420.739 188.95C416.239 199.45 410.239 209.85 402.739 220.15C410.539 229.25 416.739 237.75 421.339 245.65L409.939 256.45C404.539 248.05 396.339 238.1 385.339 226.6C385.339 237.7 385.539 247.45 385.939 255.85L368.389 254.2ZM430.813 181.45L447.913 183.1V255.1L430.813 253.45V181.45ZM432.013 155.05L448.813 157L447.313 173.8L430.513 171.7L432.013 155.05ZM494.462 181.6C507.662 181.6 514.262 192.6 514.262 214.6C514.262 226.2 513.612 238.5 512.312 251.5L494.762 249.85C495.862 238.45 496.412 226.95 496.412 215.35C496.412 203.65 494.762 197.8 491.462 197.8C489.862 197.8 487.812 201.85 485.312 209.95C482.812 217.95 481.262 225.8 480.662 233.5C480.862 237.6 481.262 245 481.862 255.7L464.312 254.05C463.212 239.95 462.662 227.55 462.662 216.85C462.662 206.15 462.962 196.55 463.562 188.05L474.662 189.25C474.862 190.05 475.612 193.3 476.912 199C482.712 187.4 488.562 181.6 494.462 181.6ZM548.436 273.1C551.536 273.1 554.036 269.9 555.936 263.5C557.836 257.2 558.786 249.35 558.786 239.95C553.486 249.45 547.986 254.2 542.286 254.2C536.686 254.2 532.136 252.3 528.636 248.5C525.236 244.6 523.536 238.75 523.536 230.95C523.536 223.05 524.886 215.25 527.586 207.55C530.286 199.75 533.586 193.55 537.486 188.95C541.486 184.25 545.286 181.9 548.886 181.9C555.186 181.9 560.986 184.45 566.286 189.55L576.786 191.05C575.486 197.55 574.836 207.55 574.836 221.05C574.836 234.45 574.436 244.35 573.636 250.75C572.936 257.05 571.736 263.25 570.036 269.35C568.336 275.45 565.836 280.3 562.536 283.9C559.236 287.5 554.886 289.3 549.486 289.3C544.086 289.3 538.936 287.1 534.036 282.7C529.136 278.4 525.186 273.2 522.186 267.1L534.786 261.7C538.686 269.3 543.236 273.1 548.436 273.1ZM552.636 197.2C550.136 197.2 547.586 200.8 544.986 208C542.486 215.2 541.236 222.85 541.236 230.95C541.236 234.05 541.636 236.4 542.436 238C543.336 239.6 544.286 240.4 545.286 240.4C546.386 240.4 547.786 239.4 549.486 237.4C551.186 235.4 552.986 232.2 554.886 227.8C556.886 223.4 558.336 218.55 559.236 213.25L559.536 201.85C556.636 198.75 554.336 197.2 552.636 197.2Z" fill="black"/>
<path d="M231.6 432.72C237.627 432.72 240.64 431.387 240.64 428.72C240.64 427.547 238.96 426.56 235.6 425.76C232.187 424.96 228.933 424.56 225.84 424.56C219.013 424.56 215.6 425.68 215.6 427.92C215.6 429.36 217.44 430.533 221.12 431.44C224.747 432.293 228.24 432.72 231.6 432.72ZM230.88 442.08C225.92 442.08 221.067 441.067 216.32 439.04C213.92 437.973 211.973 436.48 210.48 434.56C208.933 432.587 208.16 430.4 208.16 428C208.16 425.6 208.72 423.547 209.84 421.84C210.907 420.08 212.347 418.747 214.16 417.84C217.733 416.08 221.627 415.2 225.84 415.2C231.653 415.2 236.827 416.4 241.36 418.8C245.84 421.147 248.08 424.453 248.08 428.72C248.08 437.627 242.347 442.08 230.88 442.08ZM207.92 393.987C207.92 386.947 213.787 383.427 225.52 383.427C231.707 383.427 238.267 383.774 245.2 384.467L244.32 393.827C238.24 393.24 232.107 392.947 225.92 392.947C219.68 392.947 216.56 393.827 216.56 395.587C216.56 396.44 218.72 397.534 223.04 398.867C227.307 400.2 231.493 401.027 235.6 401.347C237.787 401.24 241.733 401.027 247.44 400.707L246.56 410.067C239.04 410.654 232.427 410.947 226.72 410.947C221.013 410.947 215.893 410.787 211.36 410.467L212 404.547C212.427 404.44 214.16 404.04 217.2 403.347C211.013 400.254 207.92 397.134 207.92 393.987ZM212.56 338.466H220.16C220.16 341.026 220.187 342.999 220.24 344.386C225.573 344.546 234.533 344.626 247.12 344.626L246.24 354.066C236.907 354.066 228.453 353.986 220.88 353.826C220.88 354.626 221.013 356.146 221.28 358.386L214.72 359.586C214.453 358.306 214.107 356.306 213.68 353.586C209.733 353.479 203.973 353.266 196.4 352.946L197.28 343.426C202.56 343.746 207.68 343.986 212.64 344.146C212.587 342.812 212.56 340.919 212.56 338.466ZM213.44 323.817C210.4 321.364 208.88 318.964 208.88 316.617C208.88 314.217 209.68 312.27 211.28 310.777C214.053 308.164 217.573 306.857 221.84 306.857C229.573 306.857 237.653 307.15 246.08 307.737L245.2 317.017C237.36 316.644 229.653 316.457 222.08 316.457C219.253 316.457 217.84 317.177 217.84 318.617C217.84 320.324 221.573 322.164 229.04 324.137C234.373 324.244 240.427 324.51 247.2 324.937L246.32 334.297C237.147 333.604 226.907 333.257 215.6 333.257C204.293 333.257 195.2 333.444 188.32 333.817L189.2 324.457C196.72 324.03 204.8 323.817 213.44 323.817ZM240.24 289.592C240.24 287.566 238.293 285.406 234.4 283.112L238 277.032C239.76 278.046 241.253 279.032 242.48 279.992C243.707 280.899 244.88 282.286 246 284.152C247.12 286.019 247.68 288.099 247.68 290.392C247.68 293.752 246.267 296.579 243.44 298.872C240.56 301.166 236.693 302.312 231.84 302.312C226.293 302.312 221.12 301.326 216.32 299.352C213.813 298.286 211.787 296.766 210.24 294.792C208.64 292.766 207.84 290.712 207.84 288.632C207.84 286.499 208.187 284.792 208.88 283.512C209.52 282.232 210.267 281.219 211.12 280.472C211.92 279.672 213.12 278.979 214.72 278.392C216.32 277.806 217.627 277.406 218.64 277.192C219.653 276.926 221.12 276.712 223.04 276.552C225.6 276.339 227.92 276.232 230 276.232C231.173 280.499 232.24 286.019 233.2 292.792C235.333 292.632 237.04 292.259 238.32 291.672C239.6 291.086 240.24 290.392 240.24 289.592ZM215.68 287.832C215.68 289.006 216.853 290.072 219.2 291.032C221.547 291.939 224.267 292.472 227.36 292.632C226.773 289.806 226.213 287.352 225.68 285.272C219.013 285.272 215.68 286.126 215.68 287.832Z" fill="black"/>
<path d="M310.419 379.586H342.411C342.177 384.391 342.001 389.107 341.884 393.736C341.825 398.365 341.796 402.789 341.796 407.008C341.796 411.227 341.796 415.094 341.796 418.609C341.854 422.066 341.942 425.055 342.06 427.574C342.177 430.562 342.294 433.229 342.411 435.572C339.423 437.096 335.79 438.385 331.513 439.439C327.235 440.494 322.05 441.021 315.956 441.021C309.862 441.021 304.208 439.762 298.993 437.242C293.778 434.723 289.237 430.914 285.37 425.816C281.503 420.66 278.456 414.186 276.229 406.393C274.062 398.541 272.978 389.312 272.978 378.707C272.978 368.102 274.12 358.902 276.405 351.109C278.749 343.258 281.913 336.783 285.897 331.686C289.882 326.529 294.511 322.691 299.784 320.172C305.116 317.652 310.771 316.393 316.747 316.393C319.208 316.393 321.435 316.51 323.427 316.744C325.419 316.92 327.265 317.184 328.964 317.535C330.722 317.887 332.362 318.326 333.886 318.854C335.409 319.381 336.903 319.938 338.368 320.523V338.277C334.56 334 330.956 331.012 327.558 329.312C324.218 327.555 320.585 326.676 316.659 326.676C312.147 326.676 308.134 327.936 304.618 330.455C301.103 332.916 298.114 336.432 295.653 341.002C293.251 345.572 291.405 351.051 290.116 357.438C288.886 363.766 288.271 370.797 288.271 378.531C288.271 386.031 288.856 392.975 290.028 399.361C291.2 405.689 292.958 411.197 295.302 415.885C297.646 420.514 300.575 424.146 304.091 426.783C307.665 429.42 311.825 430.738 316.571 430.738C318.622 430.738 320.409 430.592 321.933 430.299C323.515 429.947 325.067 429.361 326.591 428.541C326.649 427.252 326.708 425.758 326.767 424.059C326.825 422.594 326.884 420.836 326.942 418.785C327.001 416.676 327.03 414.244 327.03 411.49C327.03 408.502 326.972 405.191 326.854 401.559C326.796 397.926 326.649 394 326.415 389.781H310.419V379.586ZM406.923 332.213C399.188 332.213 392.45 333.297 386.708 335.465C380.966 337.633 376.747 340.914 374.052 345.309C373.7 356.676 373.524 368.131 373.524 379.674C373.524 385.123 373.554 390.309 373.612 395.23C373.671 400.152 373.759 404.986 373.876 409.732C373.993 414.479 374.169 419.254 374.403 424.059C374.638 428.805 374.901 433.785 375.194 439H358.935C359.228 433.785 359.462 428.805 359.638 424.059C359.872 419.254 360.048 414.479 360.165 409.732C360.341 404.986 360.458 400.152 360.517 395.23C360.575 390.309 360.604 385.123 360.604 379.674C360.604 374.225 360.575 368.951 360.517 363.854C360.458 358.697 360.341 353.629 360.165 348.648C360.048 343.609 359.872 338.6 359.638 333.619C359.462 328.58 359.228 323.453 358.935 318.238H375.282C375.106 320.992 374.931 323.453 374.755 325.621C374.638 327.789 374.521 330.221 374.403 332.916C376.278 330.748 378.563 328.639 381.259 326.588C384.013 324.537 386.884 322.75 389.872 321.227C392.86 319.645 395.849 318.385 398.837 317.447C401.825 316.51 404.521 316.041 406.923 316.041V332.213ZM457.724 439L458.163 428.365C456.757 429.947 455.321 431.529 453.856 433.111C452.392 434.635 450.751 436.012 448.935 437.242C447.118 438.414 445.038 439.352 442.694 440.055C440.409 440.816 437.685 441.197 434.521 441.197C430.888 441.197 427.489 440.465 424.325 439C421.22 437.477 418.495 435.279 416.151 432.408C413.866 429.537 412.05 425.992 410.702 421.773C409.354 417.496 408.681 412.574 408.681 407.008C408.681 399.918 409.765 393.854 411.933 388.814C414.101 383.775 417.294 379.498 421.513 375.982C425.79 372.467 431.063 369.625 437.333 367.457C443.661 365.289 450.956 363.531 459.218 362.184C459.218 355.094 458.837 349.234 458.075 344.605C457.372 339.977 456.317 336.314 454.911 333.619C453.505 330.865 451.747 328.961 449.638 327.906C447.587 326.852 445.214 326.324 442.519 326.324C440.175 326.324 437.831 326.705 435.487 327.467C433.144 328.17 430.8 329.137 428.456 330.367C426.171 331.598 423.856 333.033 421.513 334.674C419.228 336.256 416.972 337.926 414.745 339.684V322.633C417.206 321.695 419.55 320.846 421.776 320.084C424.003 319.264 426.229 318.561 428.456 317.975C430.741 317.389 433.026 316.92 435.312 316.568C437.597 316.217 440.028 316.041 442.606 316.041C447.763 316.041 452.245 316.744 456.054 318.15C459.921 319.557 463.114 321.783 465.634 324.83C468.212 327.877 470.116 331.803 471.347 336.607C472.636 341.412 473.28 347.184 473.28 353.922C473.28 354.566 473.251 355.65 473.192 357.174C473.192 358.697 473.163 360.484 473.104 362.535C473.104 364.586 473.075 366.783 473.017 369.127C473.017 371.471 472.987 373.785 472.929 376.07C472.929 378.355 472.899 380.523 472.841 382.574C472.841 384.566 472.841 386.236 472.841 387.584C472.841 390.689 472.87 394.205 472.929 398.131C472.987 401.998 473.075 406.129 473.192 410.523C473.368 414.918 473.544 419.518 473.72 424.322C473.954 429.127 474.218 434.02 474.511 439H457.724ZM458.778 415.006C458.954 409.029 459.101 402.643 459.218 395.846C459.335 388.99 459.394 381.168 459.394 372.379C451.952 373.258 445.946 374.693 441.376 376.686C436.806 378.678 433.261 381.139 430.741 384.068C428.222 386.939 426.522 390.221 425.644 393.912C424.765 397.604 424.325 401.617 424.325 405.953C424.325 409.645 424.647 412.984 425.292 415.973C425.995 418.961 426.991 421.51 428.28 423.619C429.569 425.67 431.093 427.252 432.851 428.365C434.608 429.479 436.601 430.035 438.827 430.035C441.347 430.035 443.544 429.596 445.419 428.717C447.353 427.779 449.081 426.607 450.604 425.201C452.187 423.736 453.622 422.125 454.911 420.367C456.2 418.551 457.489 416.764 458.778 415.006ZM520.653 318.238C525.575 318.238 529.97 319.088 533.837 320.787C537.704 322.428 540.956 324.859 543.593 328.082C546.288 331.305 548.31 335.23 549.657 339.859C551.063 344.488 551.767 349.732 551.767 355.592C551.767 358.111 551.532 360.807 551.063 363.678C550.595 366.49 549.833 369.273 548.778 372.027C547.724 374.781 546.376 377.447 544.735 380.025C543.095 382.545 541.073 384.771 538.671 386.705C536.327 388.639 533.573 390.191 530.409 391.363C527.304 392.477 523.759 393.033 519.774 393.033H506.239C506.356 400.533 506.503 408.209 506.679 416.061C506.913 423.854 507.265 431.5 507.733 439H491.298C491.649 434.02 491.913 428.922 492.089 423.707C492.323 418.434 492.499 413.219 492.616 408.062C492.733 402.848 492.821 397.75 492.88 392.77C492.938 387.789 492.968 383.043 492.968 378.531C492.968 374.02 492.938 369.273 492.88 364.293C492.821 359.312 492.733 354.244 492.616 349.088C492.499 343.932 492.323 338.746 492.089 333.531C491.913 328.316 491.649 323.219 491.298 318.238H520.653ZM507.294 328.082C506.884 336.754 506.591 345.426 506.415 354.098C506.298 362.77 506.239 370.914 506.239 378.531V383.277H519.774C525.048 383.277 529.149 380.875 532.079 376.07C535.009 371.207 536.474 364.381 536.474 355.592C536.474 346.627 535.097 339.801 532.343 335.113C529.589 330.426 525.399 328.082 519.774 328.082H507.294ZM631.044 318.238C630.751 323.219 630.487 328.316 630.253 333.531C630.077 338.746 629.931 343.932 629.813 349.088C629.696 354.244 629.608 359.312 629.55 364.293C629.491 369.273 629.462 374.02 629.462 378.531C629.462 383.043 629.491 387.789 629.55 392.77C629.608 397.75 629.667 402.848 629.726 408.062C629.843 413.219 629.989 418.434 630.165 423.707C630.341 428.922 630.575 434.02 630.868 439H614.521C614.813 434.02 615.048 428.922 615.224 423.707C615.458 418.434 615.634 413.219 615.751 408.062C615.868 402.848 615.956 397.75 616.015 392.77C616.073 387.789 616.103 383.043 616.103 378.531H579.892C579.892 383.043 579.921 387.789 579.979 392.77C580.038 397.75 580.126 402.848 580.243 408.062C580.36 413.219 580.507 418.434 580.683 423.707C580.858 428.922 581.093 434.02 581.386 439H564.95C565.302 434.02 565.565 428.922 565.741 423.707C565.976 418.434 566.151 413.219 566.269 408.062C566.386 402.848 566.474 397.75 566.532 392.77C566.591 387.789 566.62 383.043 566.62 378.531C566.62 374.02 566.591 369.273 566.532 364.293C566.474 359.312 566.386 354.244 566.269 349.088C566.151 343.932 565.976 338.746 565.741 333.531C565.565 328.316 565.302 323.219 564.95 318.238H581.562C580.976 326.441 580.565 334.85 580.331 343.463C580.155 352.018 580.009 360.279 579.892 368.248H616.015C615.956 360.279 615.81 352.018 615.575 343.463C615.341 334.85 614.989 326.441 614.521 318.238H631.044Z" fill="#614294"/>
<path d="M778.51 341.661C778.338 341.108 778.138 340.585 777.976 340.033C777.763 339.876 777.637 340.141 777.213 340.258C777.021 340.311 776.786 340.369 776.653 340.553C776.48 340.794 775.778 340.965 775.532 341.104C774.99 341.41 774.447 341.606 773.836 341.794C772.289 342.271 771.065 343.067 769.66 343.829C768.734 344.332 767.697 344.921 766.911 345.595C766.259 346.153 765.598 346.633 764.98 347.249C764.61 347.617 764.114 347.916 763.835 348.369C763.314 349.216 762.976 350.402 763.327 351.397C763.863 352.92 765.89 354.284 767.501 354.239C768.624 354.209 769.807 354.163 770.919 354.327C772.265 354.526 773.709 354.865 775.077 354.795C777.418 354.677 779.644 354.179 781.926 353.821C782.761 353.69 782.483 353.087 782.23 352.597C781.593 351.367 781.211 350 780.828 348.674C780.534 347.653 779.973 346.718 779.684 345.689C779.476 344.949 779.17 344.248 778.946 343.514C778.761 342.906 778.7 342.273 778.51 341.661Z" fill="#6F432E"/>
<path d="M777.859 339.604C778.034 340.319 778.294 340.966 778.51 341.661C778.7 342.273 778.761 342.906 778.946 343.514C779.17 344.248 779.476 344.949 779.684 345.689C779.973 346.718 780.534 347.653 780.828 348.674C781.211 350 781.593 351.367 782.23 352.597C782.483 353.087 782.761 353.69 781.926 353.821C779.644 354.179 777.418 354.677 775.077 354.795C773.709 354.865 772.265 354.526 770.919 354.327C769.807 354.163 768.624 354.209 767.501 354.239C765.89 354.284 763.863 352.92 763.327 351.397C762.976 350.402 763.314 349.216 763.835 348.369C764.114 347.916 764.61 347.617 764.98 347.249C765.598 346.633 766.259 346.153 766.911 345.595C767.697 344.921 768.734 344.332 769.66 343.829C771.065 343.067 772.289 342.271 773.836 341.794C774.447 341.606 774.99 341.41 775.532 341.104C775.778 340.965 776.48 340.794 776.653 340.553C776.786 340.369 777.021 340.311 777.213 340.258C777.768 340.105 777.812 339.698 778.209 340.318" stroke="#6F432E" stroke-width="5" stroke-linecap="round"/>
<path d="M787.213 371.488C787.113 369.522 786.755 367.065 785.579 365.386C785.419 365.381 785.212 365.461 784.928 365.606C784.55 365.8 784.183 366.02 783.804 366.215C782.783 366.738 781.573 366.88 780.573 367.43C780.1 367.69 779.57 367.799 779.096 368.074C778.571 368.378 778.069 368.6 777.509 368.834C776.454 369.275 775.447 369.71 774.419 370.193C773.29 370.723 772.005 371.256 770.743 371.32C770.153 371.35 768.74 371.514 768.758 372.361C768.771 372.97 768.851 374.129 769.541 374.406C770.289 374.706 771.104 374.867 771.828 375.184C772.244 375.367 772.714 375.403 773.149 375.477C773.767 375.582 774.407 375.532 775.014 375.725C775.351 375.832 775.671 375.994 776.018 376.069C777.467 376.382 779.04 376.647 780.526 376.572L785.241 376.332C785.87 376.3 786.481 376.46 787.105 376.447C787.453 376.439 787.347 376.194 787.333 375.912C787.258 374.443 787.288 372.972 787.213 371.488Z" fill="#6F432E"/>
<path d="M785.579 365.386C786.755 367.065 787.113 369.522 787.213 371.488C787.288 372.972 787.258 374.443 787.333 375.912C787.347 376.194 787.453 376.439 787.105 376.447C786.481 376.46 785.87 376.3 785.241 376.332C783.669 376.412 782.098 376.492 780.526 376.572C779.04 376.647 777.467 376.382 776.018 376.069C775.671 375.994 775.351 375.832 775.014 375.725C774.407 375.532 773.767 375.582 773.149 375.477C772.714 375.403 772.244 375.367 771.828 375.184C771.104 374.867 770.289 374.706 769.541 374.406C768.851 374.129 768.771 372.97 768.758 372.361C768.74 371.514 770.153 371.35 770.743 371.32C772.005 371.256 773.29 370.723 774.419 370.193C775.447 369.71 776.454 369.275 777.509 368.834C778.069 368.6 778.571 368.378 779.096 368.074C779.57 367.799 780.1 367.69 780.573 367.43C781.573 366.88 782.783 366.738 783.804 366.215C784.183 366.02 784.55 365.8 784.928 365.606C785.653 365.235 785.875 365.291 786.092 366.099" stroke="#6F432E" stroke-width="5" stroke-linecap="round"/>
<path d="M788.877 391.929C788.831 390.517 789.052 389.14 788.965 387.743C788.946 387.482 787.509 385.779 787.097 386.144C786.982 386.246 786.412 386.27 786.246 386.309C785.69 386.439 784.991 386.587 784.427 386.616C782.599 386.709 780.857 387.529 779.043 387.621C776.524 387.749 774.096 388.444 771.592 388.627C770.685 388.693 769.522 388.509 769.323 389.682C769.184 390.505 769.317 391.166 769.907 391.795C770.395 392.316 771.251 392.39 771.874 392.683C772.555 393.003 773.365 393.059 774.083 393.308C775.259 393.715 776.278 394.334 777.557 394.38C779.06 394.434 780.364 394.919 781.668 395.64C782.791 396.26 784.319 396.012 785.538 396.152C786.052 396.211 787.774 396.521 787.979 395.842C788.107 395.416 788.18 394.973 788.283 394.526C788.342 394.272 788.513 393.965 788.608 393.714C788.824 393.143 788.898 392.543 788.877 391.929Z" fill="#6F432E"/>
<path d="M788.816 386.602C789.191 388.396 788.818 390.134 788.877 391.929C788.898 392.543 788.824 393.143 788.608 393.714C788.513 393.965 788.342 394.272 788.283 394.526C788.18 394.973 788.107 395.416 787.979 395.842C787.774 396.521 786.052 396.211 785.538 396.152C784.319 396.012 782.791 396.26 781.668 395.64C780.364 394.919 779.06 394.434 777.557 394.38C776.278 394.334 775.259 393.715 774.083 393.308C773.365 393.059 772.555 393.003 771.874 392.683C771.251 392.39 770.395 392.316 769.907 391.795C769.317 391.166 769.184 390.505 769.323 389.682C769.522 388.509 770.685 388.693 771.592 388.627C774.096 388.444 776.524 387.749 779.043 387.621C780.857 387.529 782.599 386.709 784.427 386.616C784.991 386.587 785.69 386.439 786.246 386.309C786.412 386.27 786.982 386.246 787.097 386.144C787.51 385.778 788.952 387.489 788.965 387.744" stroke="#6F432E" stroke-width="5" stroke-linecap="round"/>
<path d="M752.797 356.949C752.274 355.877 751.834 354.653 751.088 353.714C750.7 353.225 749.444 354.703 749.262 354.806C748.895 355.013 748.619 355.275 748.201 355.405C747.342 355.673 746.82 356.278 746.068 356.733C745.247 357.23 744.448 357.748 743.718 358.374C742.342 359.553 740.341 360.028 739.147 361.428C738.801 361.833 738.875 362.241 738.9 362.741C738.926 363.262 739.319 363.485 739.738 363.697C741.087 364.379 743.51 364.443 744.963 363.797C745.476 363.57 746.179 363.721 746.73 363.603C747.161 363.511 747.64 363.455 748.043 363.275C748.921 362.884 749.827 362.588 750.686 362.148C751.607 361.676 752.738 361.663 753.611 361.088C753.866 360.92 753.483 359.712 753.472 359.498C753.427 358.603 753.192 357.759 752.797 356.949Z" fill="#6F432E" stroke="#6F432E" stroke-width="5" stroke-linecap="round"/>
<path d="M721.123 368.742C720.759 367.908 720.595 366.921 720.359 366.04C720.159 365.686 724.584 364.628 724.894 364.555C725.852 364.331 726.918 364.107 727.825 363.727C728.817 363.312 729.767 362.949 730.848 362.894C732.097 362.831 733.236 363.068 732.592 364.536C732.201 365.429 731.31 366.274 730.563 366.88C730.074 367.277 729.719 367.959 729.253 368.41C728.68 368.965 727.951 369.354 727.359 369.865C726.806 370.341 726.229 370.765 725.687 371.256C725.069 371.817 724.398 372.544 723.641 372.922C723.179 373.153 722.163 371.184 722.042 370.82C721.922 370.461 721.634 370.193 721.516 369.848C721.388 369.472 721.283 369.108 721.123 368.742Z" fill="#6F432E" stroke="#6F432E" stroke-width="5" stroke-linecap="round"/>
<path d="M757.311 373.465C757.133 372.374 756.764 371.287 756.319 370.276C756.291 369.732 753.285 370.873 752.902 371.03C752.428 371.223 751.935 371.431 751.483 371.671C750.457 372.214 749.284 372.588 748.317 373.248C747.431 373.854 746.532 374.505 745.698 375.181C744.771 375.933 743.216 377.461 743.589 378.813C743.884 379.881 744.846 379.847 745.782 379.799L747.339 379.72C747.97 379.688 748.595 379.364 749.229 379.31C751.161 379.148 752.978 378.328 754.891 378.076C756.286 377.893 757.478 377.506 757.444 375.967C757.425 375.113 757.452 374.332 757.311 373.465Z" fill="#6F432E" stroke="#6F432E" stroke-width="5" stroke-linecap="round"/>
<path d="M726.144 384.245C725.8 383.637 725.408 383.062 724.959 382.529C724.856 382.406 726.517 382.378 726.702 382.312C727.511 382.027 728.324 381.84 729.11 381.482C730.673 380.769 732.568 379.634 734.319 379.545C734.864 379.517 737.659 379.205 737.126 380.291C736.782 380.993 736.571 381.966 735.909 382.495C735.405 382.898 734.878 383.358 734.432 383.824C733.975 384.302 733.399 384.683 733.04 385.231C732.701 385.747 731.748 386.135 731.246 386.495C730.654 386.919 730.069 387.322 729.506 387.791C729.189 388.054 728.627 388.856 728.386 388.149C728.15 387.458 727.753 386.903 727.397 386.272C727.006 385.581 726.537 384.941 726.144 384.245Z" fill="#6F432E" stroke="#6F432E" stroke-width="5" stroke-linecap="round"/>
<path d="M758.646 391.525C758.75 390.262 758.637 388.64 758.339 387.418C758.422 387.111 756.592 388.171 756.291 388.254C755.571 388.453 754.943 389.025 754.253 389.275C753.1 389.692 751.989 390.545 750.985 391.241C750.072 391.873 748.762 392.2 748.487 393.504C748.302 394.38 748.69 394.806 749.567 394.762C750.638 394.707 751.568 394.604 752.591 394.393C753.738 394.157 754.852 393.484 755.964 393.131C757.061 392.782 758.53 392.937 758.646 391.525Z" fill="#6F432E" stroke="#6F432E" stroke-width="5" stroke-linecap="round"/>
<path d="M734.789 400.018C734.035 398.913 733.128 397.911 732.273 396.894C732.05 396.796 733.603 396.124 733.745 396.035C734.18 395.764 734.974 395.899 735.476 395.709C736.818 395.201 738.459 394.699 739.892 394.626C740.551 394.592 742.91 394.37 742.377 395.754C742.14 396.369 742.255 397.186 741.774 397.718C741.035 398.536 740.046 399.24 739.388 400.133C739.206 400.38 738.85 400.828 738.537 400.861C737.99 400.918 737.444 401.004 736.897 401.049C736.424 401.088 736.425 401.286 736.116 401.553C735.709 401.903 735.469 401.674 735.42 401.228C735.382 400.885 735 400.327 734.798 400.03L734.789 400.018Z" fill="#6F432E" stroke="#6F432E" stroke-width="5" stroke-linecap="round"/>
<path d="M785.47 407.011C784.735 406.961 783.988 406.935 783.261 406.906C782.247 406.865 781.271 406.62 780.249 406.653C779.81 406.667 779.364 406.529 778.925 406.495C778.366 406.451 777.788 406.453 777.229 406.482C776.677 406.51 776.22 406.439 775.68 406.362C775.191 406.292 774.685 406.349 774.189 406.293C772.973 406.157 771.773 406.191 770.571 406.252C769.69 406.296 768.91 406.424 768.064 406.622C767.827 406.678 767.525 406.669 767.3 406.751C767.091 406.827 766.941 407.004 766.714 407.016C766.357 407.034 765.673 407.298 765.401 407.533C765.082 407.808 764.844 408.052 764.738 408.433C764.6 408.929 764.277 409.571 764.025 410.011C763.45 411.013 763.252 412.176 762.808 413.22C762.361 414.272 761.8 415.249 761.341 416.297C760.8 417.534 760.171 418.47 759.137 419.331C757.525 420.673 755.202 421.381 753.223 421.945C751.54 422.424 749.845 423.185 748.106 423.386C746.533 423.568 744.85 423.458 743.297 423.77C742.239 423.982 741.207 424.034 740.145 424.029C739.787 424.027 739.42 423.985 739.048 424.004C738.657 424.023 738.263 424.303 737.937 424.506C737.059 425.054 736.52 426.026 735.994 426.909C735.679 427.438 735.407 428.027 734.996 428.493C734.516 429.037 733.921 429.426 733.449 429.987C733.199 430.285 733.123 430.733 732.833 430.993C732.328 431.443 731.811 431.851 731.28 432.27L731.279 432.271C730.532 432.86 729.795 433.519 729.155 434.227C728.561 434.886 727.733 435.468 727.291 436.225C727.135 436.492 726.814 436.75 726.771 437.081C726.729 437.404 727.518 437.519 727.688 437.648C727.816 437.745 728.087 437.797 728.248 437.845C728.721 437.986 729.061 438.102 729.474 438.369C729.966 438.686 730.487 438.847 731.041 439.017L731.049 439.019C732.441 439.447 734.028 439.189 735.454 439.363C736.033 439.434 736.683 439.689 737.218 439.923C738.031 440.279 739.072 440.26 739.94 440.434C740.465 440.54 741.014 440.529 741.545 440.596C742.542 440.723 743.429 441.188 744.446 441.256C745.585 441.332 746.654 441.392 747.796 441.334C749.433 441.251 751.161 441.315 752.777 441.036C754.373 440.761 755.975 440.301 757.511 439.786C759.637 439.072 761.838 438.558 763.968 437.834C765.7 437.246 767.291 436.169 768.864 435.241C770.039 434.548 771.246 433.781 772.313 432.929C772.852 432.498 773.383 432.026 773.884 431.55C774.391 431.069 774.77 430.478 775.266 429.992C775.723 429.545 776.044 428.953 776.46 428.466C776.984 427.853 777.49 427.234 777.998 426.607C778.557 425.918 779.089 425.219 779.679 424.556C780.161 424.014 780.432 423.344 780.823 422.739C781.229 422.11 781.589 421.589 781.718 420.845C781.808 420.33 781.986 419.819 782.091 419.302C782.347 418.045 782.469 416.769 782.892 415.546C783.309 414.342 784.043 413.272 784.549 412.116C784.716 411.735 784.848 411.365 784.951 410.977C785.071 410.526 785.518 410.108 785.592 409.669C785.688 409.105 786.058 408.615 786.228 408.072C786.292 407.867 786.328 407.673 786.414 407.476C786.493 407.296 786.126 407.114 785.818 407.036C785.669 406.999 785.533 406.986 785.47 407.011Z" fill="#6F432E"/>
<path d="M786.277 407.077C785.289 406.979 784.256 406.946 783.261 406.906C782.247 406.865 781.271 406.62 780.249 406.653C779.81 406.667 779.364 406.529 778.925 406.495C778.366 406.451 777.788 406.453 777.229 406.482C776.677 406.51 776.22 406.439 775.68 406.362C775.191 406.292 774.685 406.349 774.189 406.293C772.973 406.157 771.773 406.191 770.571 406.252C769.69 406.296 768.91 406.424 768.064 406.622C767.827 406.678 767.525 406.669 767.3 406.751C767.091 406.827 766.941 407.004 766.714 407.016C766.357 407.034 765.673 407.298 765.401 407.533C765.082 407.808 764.844 408.052 764.738 408.433C764.6 408.929 764.277 409.571 764.025 410.011C763.45 411.013 763.252 412.176 762.808 413.22C762.361 414.272 761.8 415.249 761.341 416.297C760.8 417.534 760.171 418.47 759.137 419.331C757.525 420.673 755.202 421.381 753.223 421.945C751.54 422.424 749.845 423.185 748.106 423.386C746.533 423.568 744.85 423.458 743.297 423.77C742.239 423.982 741.207 424.034 740.145 424.029C739.787 424.027 739.42 423.985 739.048 424.004C738.657 424.023 738.263 424.303 737.937 424.506C737.059 425.054 736.52 426.026 735.994 426.909C735.679 427.438 735.407 428.027 734.996 428.493C734.516 429.037 733.921 429.426 733.449 429.987C733.199 430.285 733.123 430.733 732.833 430.993C732.327 431.444 731.81 431.852 731.279 432.271C730.532 432.86 729.795 433.519 729.155 434.227C728.561 434.886 727.733 435.468 727.291 436.225C727.135 436.492 726.814 436.75 726.771 437.081C726.729 437.404 727.518 437.519 727.688 437.648C727.816 437.745 728.087 437.797 728.248 437.845C728.721 437.986 729.061 438.102 729.474 438.369C729.969 438.688 730.492 438.848 731.049 439.019C732.441 439.447 734.028 439.189 735.454 439.363C736.033 439.434 736.683 439.689 737.218 439.923C738.031 440.279 739.072 440.26 739.94 440.434C740.465 440.54 741.014 440.529 741.545 440.596C742.542 440.723 743.429 441.188 744.446 441.256C745.585 441.332 746.654 441.392 747.796 441.334C749.433 441.251 751.161 441.315 752.777 441.036C754.373 440.761 755.975 440.301 757.511 439.786C759.637 439.072 761.838 438.558 763.968 437.834C765.7 437.246 767.291 436.169 768.864 435.241C770.039 434.548 771.246 433.781 772.313 432.929C772.852 432.498 773.383 432.026 773.884 431.55C774.391 431.069 774.77 430.478 775.266 429.992C775.723 429.545 776.044 428.953 776.46 428.466C776.984 427.853 777.49 427.234 777.998 426.607C778.557 425.918 779.089 425.219 779.679 424.556C780.161 424.014 780.432 423.344 780.823 422.739C781.229 422.11 781.589 421.589 781.718 420.845C781.808 420.33 781.986 419.819 782.091 419.302C782.347 418.045 782.469 416.769 782.892 415.546C783.309 414.342 784.043 413.272 784.549 412.116C784.716 411.735 784.848 411.365 784.951 410.977C785.071 410.526 785.518 410.108 785.592 409.669C785.688 409.105 786.058 408.615 786.228 408.072C786.292 407.867 786.328 407.673 786.414 407.476C786.558 407.148 785.22 406.812 785.463 407.119" stroke="#6F432E" stroke-width="5" stroke-linecap="round"/>
<path d="M757.736 402.845C756.847 404.152 756.545 405.874 755.479 407.054C754.737 407.876 753.924 409.027 752.649 408.862C752.426 408.833 752.22 408.676 752.06 408.531C751.816 408.311 751.851 408.11 751.723 407.858C751.393 407.206 752.018 406.5 752.424 406.037C753.059 405.314 753.735 404.785 754.515 404.226C755.084 403.819 755.988 403.583 756.449 403.073" stroke="#6F432E" stroke-width="5" stroke-linecap="round"/>
<path d="M741.742 410.062C741.474 410.024 741.438 409.891 741.742 410.062C741.745 410.063 741.749 410.063 741.753 410.064C742.06 410.104 742.257 410.214 742.541 410.308C742.624 410.335 742.708 410.359 742.794 410.38C743.565 410.566 744.452 410.5 745.218 410.461C745.887 410.427 746.551 410.559 747.207 410.378C747.418 410.319 748.131 410.049 747.92 409.674C747.643 409.185 746.572 409.337 746.136 409.359C745.298 409.401 744.384 409.554 743.658 410.012C743.406 410.171 743.098 410.305 742.794 410.38C742.708 410.359 742.624 410.335 742.541 410.308C742.257 410.214 742.06 410.104 741.753 410.064C741.749 410.063 741.745 410.063 741.742 410.062Z" fill="#6F432E"/>
<path d="M741.874 410.143C741.427 409.852 741.441 410.023 741.753 410.064C742.06 410.104 742.257 410.214 742.541 410.308C743.365 410.581 744.366 410.504 745.218 410.461C745.887 410.427 746.551 410.559 747.207 410.378C747.418 410.319 748.131 410.049 747.92 409.674C747.643 409.185 746.572 409.337 746.136 409.359C745.298 409.401 744.384 409.554 743.658 410.012C743.294 410.242 742.812 410.42 742.394 410.442C742.038 410.46 740.967 410.514 741.324 410.496" stroke="#6F432E" stroke-width="5" stroke-linecap="round"/>
<path d="M729.536 412.086C729.535 411.038 728.566 410.61 727.683 410.729C727.389 411.224 726.596 410.748 726.042 410.838C724.994 411.008 723.42 411.397 722.619 412.149C720.51 414.124 718.08 415.678 716.104 417.803C715.641 418.301 715.067 418.703 714.632 419.244C714.143 419.855 713.648 420.502 713.067 421.026C712.145 421.855 710.985 422.766 710.438 423.88C710.184 424.397 710.794 425.367 711.124 425.732C711.673 426.337 712.264 426.745 712.755 427.436C713.544 428.548 714.901 429.112 716.005 429.834C716.725 430.306 717.52 431.365 718.142 430.501C718.283 430.305 718.372 429.767 718.472 429.505C718.694 428.929 719.223 428.52 719.512 427.987C720.161 426.793 721.117 425.51 721.996 424.476C722.445 423.947 722.757 422.997 723.051 422.353C723.418 421.548 723.756 420.745 724.111 419.933C724.869 418.204 725.845 416.33 727.103 414.905C727.549 414.399 727.91 413.909 728.423 413.471C728.777 413.167 729.536 412.589 729.536 412.086Z" fill="#6F432E"/>
<path d="M727.458 410.772C728.391 410.541 729.535 410.948 729.536 412.086C729.536 412.589 728.777 413.167 728.423 413.471C727.91 413.909 727.549 414.399 727.103 414.905C725.845 416.33 724.869 418.204 724.111 419.933C723.756 420.745 723.418 421.548 723.051 422.353C722.757 422.997 722.445 423.947 721.996 424.476C721.117 425.51 720.161 426.793 719.512 427.987C719.223 428.52 718.694 428.929 718.472 429.505C718.372 429.767 718.283 430.305 718.142 430.501C717.52 431.365 716.725 430.306 716.005 429.834C714.901 429.112 713.544 428.548 712.755 427.436C712.264 426.745 711.673 426.337 711.124 425.732C710.794 425.367 710.184 424.397 710.438 423.88C710.985 422.766 712.145 421.855 713.067 421.026C713.648 420.502 714.143 419.855 714.632 419.244C715.067 418.703 715.641 418.301 716.104 417.803C718.08 415.678 720.51 414.124 722.619 412.149C723.42 411.397 724.994 411.008 726.042 410.838C726.596 410.748 727.389 411.224 727.683 410.729" stroke="#6F432E" stroke-width="5" stroke-linecap="round"/>
<path d="M719.009 395.601C718.995 395.547 718.976 395.495 718.949 395.446C718.651 394.658 718.393 393.843 717.728 393.877C716.418 393.943 715.208 393.779 713.957 394.16C713.189 394.394 712.555 394.81 711.883 395.238C711.127 395.72 710.577 396.614 709.749 396.977C708.596 397.482 707.363 398.113 706.263 398.718C705.746 399.002 705.097 399.471 704.692 399.888C704.023 400.58 703.257 401.064 702.508 401.655C702.053 402.015 701.251 402.785 700.679 402.905C700.216 403.002 700.695 403.555 700.815 403.779C702.173 406.305 702.807 408.99 703.56 411.749C703.654 412.096 704.341 415.217 704.795 415.111C705.616 414.918 706.024 413.674 706.521 413.124C707.531 412.006 708.538 410.905 709.546 409.789C710.372 408.874 711.117 407.925 711.948 407.006C713.76 404.999 714.714 402.417 716.413 400.325C717.305 399.226 718.007 397.879 718.751 396.671C718.923 396.391 719.097 395.954 719.009 395.601Z" fill="#6F432E"/>
<path d="M717.652 394.709C718.309 394.887 718.592 394.871 718.93 395.413C719.162 395.784 718.955 396.338 718.751 396.671C718.007 397.879 717.305 399.226 716.413 400.325C714.714 402.417 713.76 404.999 711.948 407.006C711.117 407.925 710.372 408.874 709.546 409.789C708.538 410.905 707.531 412.006 706.521 413.124C706.024 413.674 705.616 414.918 704.795 415.111C704.341 415.217 703.654 412.096 703.56 411.749C702.807 408.99 702.173 406.305 700.815 403.779C700.695 403.555 700.216 403.002 700.679 402.905C701.251 402.785 702.053 402.015 702.508 401.655C703.257 401.064 704.023 400.58 704.692 399.888C705.097 399.471 705.746 399.002 706.263 398.718C707.363 398.113 708.596 397.482 709.749 396.977C710.577 396.614 711.127 395.72 711.883 395.238C712.555 394.81 713.189 394.394 713.957 394.16C715.208 393.779 716.418 393.943 717.728 393.877C718.437 393.841 718.684 394.769 719.009 395.601" stroke="#6F432E" stroke-width="5" stroke-linecap="round"/>
<path d="M712.822 371.821C712.475 370.999 711.492 371.024 710.72 370.834C710.471 370.665 708.838 370.742 708.509 370.863C707.112 371.379 705.686 371.875 704.234 372.23C702.89 372.559 701.525 372.895 700.239 373.419C698.963 373.94 697.845 374.837 696.555 375.288C695.976 375.491 695.981 375.628 696.011 376.223L696.116 378.288C696.171 379.363 696.189 380.571 696.43 381.617C696.711 382.834 696.891 384.218 696.954 385.468C697.061 387.581 697.286 389.67 697.393 391.781C697.426 392.432 697.407 393.747 698.331 392.91C699.177 392.143 699.864 391.196 700.881 390.592C702.328 389.732 703.536 388.277 704.657 387.035C705.311 386.312 706.074 385.678 706.747 384.971C707.558 384.12 708.141 383.26 708.834 382.315C709.879 380.891 710.724 379.349 711.644 377.854C712.356 376.696 712.781 375.479 713.208 374.233C713.462 373.489 713.112 372.506 712.822 371.821Z" fill="#6F432E"/>
<path d="M710.642 370.814C711.425 371.026 712.464 370.971 712.822 371.821C713.112 372.506 713.462 373.489 713.208 374.233C712.781 375.479 712.356 376.696 711.644 377.854C710.724 379.349 709.879 380.891 708.834 382.315C708.141 383.26 707.558 384.12 706.747 384.971C706.074 385.678 705.311 386.312 704.657 387.035C703.536 388.277 702.328 389.732 700.881 390.592C699.864 391.196 699.177 392.143 698.331 392.91C697.407 393.747 697.426 392.432 697.393 391.781C697.286 389.67 697.061 387.581 696.954 385.468C696.891 384.218 696.711 382.834 696.43 381.617C696.189 380.571 696.171 379.363 696.116 378.288C696.081 377.6 696.046 376.911 696.011 376.223C695.981 375.628 695.976 375.491 696.555 375.288C697.845 374.837 698.963 373.94 700.239 373.419C701.525 372.895 702.89 372.559 704.234 372.23C705.686 371.875 707.112 371.379 708.509 370.863C708.838 370.742 710.471 370.665 710.72 370.834" stroke="#6F432E" stroke-width="5" stroke-linecap="round"/>
<path d="M750.968 227.929C751.152 226.08 751.277 224.035 750.887 222.202C751.138 221.405 749.502 224.012 749.391 224.177C749.042 224.695 748.346 225.211 747.86 225.616C746.453 226.787 745.283 228.222 743.668 229.134C742.307 229.904 741.283 231.463 740.244 232.614C739.246 233.719 738.587 235.084 737.518 236.137C736.449 237.189 735.881 238.361 735.402 239.76C734.945 241.095 733.936 242.872 734.879 244.216C735.554 245.18 736.714 245.34 737.574 246.038C738.358 246.675 739.537 246.312 740.388 246.066C741.472 245.752 742.853 245.914 743.985 245.857C745.514 245.779 747.439 245.963 748.879 245.431C750.088 244.985 751.292 244.527 752.545 244.233C753.387 244.035 753.462 243.172 753.042 242.499C752.878 242.236 752.964 241.8 752.932 241.499C752.878 240.996 752.729 240.437 752.642 239.923C752.558 239.427 752.68 238.777 752.507 238.3C752.246 237.583 752.129 236.715 752.059 235.957C751.925 234.496 751.275 233.227 751.046 231.802C750.852 230.591 750.846 229.153 750.968 227.929Z" fill="#6F432E" stroke="#6F432E" stroke-width="5" stroke-linecap="round"/>
<path d="M758.804 259.3C758.741 257.36 758.74 255.316 758.386 253.406C758.589 253.066 756.616 254.037 756.473 254.161C756.021 254.551 755.352 254.878 754.822 255.178C753.619 255.858 752.66 257.006 751.408 257.572C750.847 257.826 750.347 258.4 749.77 258.576C749.176 258.757 748.585 259.217 748.058 259.55C747.146 260.126 746.354 260.877 745.434 261.458C745.063 261.692 744.762 262.142 744.38 262.306C743.864 262.528 743.288 262.975 742.827 263.305C742.012 263.889 740.598 264.882 740.458 265.962C740.263 267.467 740.697 269.16 742.265 269.577C743.296 269.852 744.28 270.267 745.299 270.573C746.511 270.938 747.695 270.984 748.942 271.131C750.417 271.305 751.848 271.483 753.333 271.407C754.235 271.362 755.143 271.434 756.053 271.388C757.028 271.338 758.066 271.311 759.017 271.526C759.552 271.647 760.392 271.936 760.356 271.235C760.331 270.729 760.321 270.247 760.189 269.758C760.01 269.094 759.908 268.435 759.708 267.778C759.487 267.055 759.275 266.331 759.071 265.602C758.783 264.57 758.89 263.327 758.836 262.256C758.785 261.265 758.836 260.283 758.804 259.3Z" fill="#6F432E" stroke="#6F432E" stroke-width="5" stroke-linecap="round"/>
<path d="M706.845 261.61C705.62 258.474 704.092 255.493 702.863 252.352C702.945 252.195 703.606 252.589 703.816 252.681C705.231 253.301 706.629 254.244 707.953 255.073C710.556 256.706 713.18 258.288 715.939 259.643C716.422 259.88 716.954 259.929 717.466 260.071C718.32 260.309 719.12 260.725 719.97 260.97C720.925 261.244 721.861 261.808 722.821 261.981C723.595 262.122 724.78 262.488 725.457 262.906C726.442 263.513 727.402 264.459 728.182 265.324C728.577 265.761 728.92 266.085 729.187 266.607C729.679 267.567 729.351 268.181 728.779 268.921C728.25 269.606 726.653 269.687 725.89 269.725L725.856 269.727C724.498 269.796 723.132 269.773 721.832 269.695C720.151 269.594 718.49 268.74 716.791 268.768C716.35 268.775 715.75 268.672 715.327 268.54C714.411 268.254 713.444 267.966 712.54 267.63C711.501 267.244 710.404 267.001 709.379 266.601C708.809 266.378 708.723 266.381 708.505 265.823C707.955 264.415 707.395 263.018 706.845 261.61Z" fill="#6F432E"/>
<path d="M702.851 252.323C704.082 255.474 705.616 258.464 706.845 261.61C707.396 263.018 707.955 264.415 708.505 265.823C708.723 266.381 708.809 266.378 709.379 266.601C710.404 267.001 711.501 267.244 712.54 267.63C713.444 267.966 714.411 268.254 715.327 268.54C715.75 268.672 716.35 268.775 716.791 268.768C718.49 268.74 720.151 269.594 721.832 269.695C723.132 269.773 724.498 269.796 725.856 269.727C726.604 269.689 728.242 269.616 728.779 268.921C729.351 268.181 729.679 267.567 729.187 266.607C728.92 266.085 728.577 265.761 728.182 265.324C727.402 264.459 726.442 263.513 725.457 262.906C724.78 262.488 723.595 262.122 722.821 261.981C721.861 261.808 720.925 261.244 719.97 260.97C719.12 260.725 718.32 260.309 717.466 260.071C716.954 259.929 716.422 259.88 715.939 259.643C713.18 258.288 710.556 256.706 707.953 255.073C706.629 254.244 705.231 253.301 703.816 252.681C703.536 252.559 702.457 251.899 703.009 252.722" stroke="#6F432E" stroke-width="5" stroke-linecap="round"/>
<path d="M725.633 262.995C725.57 262.161 724.957 261.846 724.255 261.501C723.322 261.043 722.405 260.499 721.466 260.013C719.348 258.918 716.921 258.273 714.679 257.466C713.796 257.148 712.998 256.618 712.158 256.227C711.477 255.909 710.766 255.66 710.095 255.326C709.207 254.884 708.142 254.597 707.196 254.284C706.639 254.099 705.902 254.026 705.407 253.731" stroke="#6F432E" stroke-width="5" stroke-linecap="round"/>
<path d="M697.216 258.353C696.444 256.581 695.273 252.178 695.299 252.706C694.139 255.355 692.776 259.457 691.423 262.038C691.018 262.81 690.665 263.574 690.211 264.321C689.64 265.26 689.297 266.292 688.762 267.24C688.306 268.049 688.116 268.991 687.65 269.801C687.157 270.657 687.122 271.545 686.778 272.428C686.075 274.23 685.72 276.052 685.818 277.977C685.889 279.38 685.824 281.103 686.54 282.37C687.13 283.413 688.066 283.712 689.182 283.655C690.126 283.608 691.543 283.117 692.258 282.5C693.195 281.692 694.207 280.889 695.053 279.953C695.81 279.115 696.268 278.291 696.723 277.253C697.731 274.952 699.13 272.719 700.315 270.459C700.663 269.794 700.943 268.998 701.177 268.286C701.346 267.772 701.135 267.701 701.013 267.262C700.682 266.061 700.149 264.899 699.703 263.721C699.012 261.894 697.998 260.147 697.216 258.353Z" fill="#6F432E" stroke="#6F432E" stroke-width="5" stroke-linecap="round"/>
<path d="M694.85 235.051C694.442 233.366 693.51 231.229 692.54 229.807C692.525 229.505 694 230.663 694.247 230.816C694.765 231.137 695.365 231.366 695.941 231.558C697.443 232.06 699.074 232.336 700.607 232.727C703.188 233.387 705.873 233.615 708.451 234.353C709.721 234.717 710.933 234.913 712.249 234.989C712.785 235.019 713.344 234.963 713.871 235.084C714.546 235.239 715.196 235.717 715.799 236.05C717.034 236.732 718.198 237.603 718.79 238.915C719.219 239.865 719.503 240.498 718.857 241.396C718.683 241.638 717.704 241.88 717.416 242.001C716.916 242.212 716.399 242.415 715.866 242.54C715.229 242.69 714.482 242.624 713.834 242.656C713.412 242.678 712.93 242.764 712.509 242.697C711.489 242.537 710.517 242.594 709.532 242.31C708.85 242.113 708.174 241.934 707.493 241.769C706.992 241.648 706.465 241.728 705.95 241.664C705.047 241.55 704.199 241.623 703.317 241.324C702.606 241.083 701.704 241.146 700.953 241.089C700.106 241.025 698.522 241.325 697.855 240.655C697.356 240.155 697.132 239.417 696.61 238.918C695.689 238.036 695.136 236.234 694.85 235.051Z" fill="#6F432E" stroke="#6F432E" stroke-width="5" stroke-linecap="round"/>
<path d="M685.275 231.048C685.048 230.418 685.1 230.057 684.332 230.077C684.056 229.588 683.419 230.612 683.286 230.958C683.108 231.421 682.842 231.847 682.671 232.317C682.147 233.759 681.384 235.112 680.936 236.585C680.036 239.548 678.583 242.278 677.347 245.1C676.588 246.832 676.056 248.553 675.477 250.348C675.035 251.72 674.307 253.42 674.354 254.887C674.376 255.569 674.351 256.299 674.551 256.953C674.713 257.486 674.835 257.523 675.215 257.866C675.884 258.471 676.359 258.399 677.224 258.356C678.526 258.289 679.751 257.207 680.577 256.293C680.91 255.924 681.203 255.719 681.499 255.299C682.017 254.565 682.554 253.922 682.951 253.103C683.484 252.007 684.291 250.934 685.109 250.029C686.19 248.832 686.87 247.371 687.616 245.952C687.99 245.242 688.399 244.54 688.75 243.818C688.998 243.307 689.583 242.637 689.554 242.055C689.516 241.303 689.474 240.496 689.151 239.808C688.729 238.91 688.077 238.157 687.68 237.241C687.226 236.196 686.904 235.094 686.427 234.058C685.978 233.082 685.64 232.059 685.275 231.048Z" fill="#6F432E" stroke="#6F432E" stroke-width="5" stroke-linecap="round"/>
<path d="M650.186 273.359C649.584 272.794 649.587 271.948 649.758 270.987C649.367 270.878 651.754 270.655 652.02 270.637C653.587 270.529 655.136 270.159 656.695 270.044C657.738 269.968 658.702 269.388 659.733 269.299C660.312 269.249 660.871 269.004 661.458 268.975C661.964 268.949 662.492 268.966 662.992 268.89C664.836 268.611 666.605 268.557 668.478 268.612C669.882 268.652 671.077 268.758 672.282 269.49C674.088 270.586 673.192 272.864 672.564 274.385C672.34 274.927 671.824 275.278 671.357 275.596C670.702 276.042 670.199 276.614 669.677 277.193C668.858 278.099 667.565 279.06 666.503 279.661C664.09 281.024 661.69 282.31 659.48 283.98C659.122 284.251 658.91 284.717 658.686 284.145C658.554 283.806 658.312 283.512 658.189 283.152C657.8 282.013 656.711 280.957 655.999 280.017C655.326 279.128 654.695 278.165 653.938 277.348C653.237 276.592 652.409 275.898 651.779 275.085C651.301 274.469 650.754 273.89 650.186 273.359Z" fill="#6F432E" stroke="#6F432E" stroke-width="5" stroke-linecap="round"/>
<path d="M663.254 293.368C663.246 293.361 663.238 293.353 663.23 293.346C663.074 293.468 662.996 293.534 663.254 293.368C663.909 294.009 664.435 295.966 664.891 296.725C665.278 297.369 665.848 297.887 666.219 298.544C666.86 299.677 667.497 300.833 668.051 302.013C668.275 302.49 668.388 303.037 668.685 303.479C668.969 303.902 669.415 304.28 669.642 304.732C669.832 305.11 670.93 304.134 671.166 303.944C671.634 303.569 672.095 303.27 672.601 302.951C673.213 302.567 673.666 302.048 674.249 301.626C675.341 300.834 676.498 299.814 677.405 298.81C678.273 297.849 679.15 296.934 680.015 295.977C680.618 295.309 681.058 294.224 681.422 293.395C681.978 292.125 682.72 290.02 681.646 288.888C680.813 288.01 679.992 287.504 678.752 287.405C677.267 287.287 676.198 287.736 674.925 288.401C674.075 288.845 672.994 289.081 672.083 289.38C671.455 289.586 670.916 290.015 670.293 290.24C669.629 290.48 668.985 290.798 668.316 291.044C667.042 291.511 665.741 291.804 664.551 292.477C664.096 292.734 663.727 293.062 663.293 293.343C663.279 293.352 663.266 293.36 663.254 293.368Z" fill="#6F432E"/>
<path d="M663.23 293.346C663.897 293.962 664.43 295.957 664.891 296.725C665.278 297.369 665.848 297.887 666.219 298.544C666.86 299.677 667.497 300.833 668.051 302.013C668.275 302.49 668.388 303.037 668.685 303.479C668.969 303.902 669.415 304.28 669.642 304.732C669.832 305.11 670.93 304.134 671.166 303.944C671.634 303.569 672.095 303.27 672.601 302.951C673.213 302.567 673.666 302.048 674.249 301.626C675.341 300.834 676.498 299.814 677.405 298.81C678.273 297.849 679.15 296.934 680.015 295.977C680.618 295.309 681.058 294.224 681.422 293.395C681.978 292.125 682.72 290.02 681.646 288.888C680.813 288.01 679.992 287.504 678.752 287.405C677.267 287.287 676.198 287.736 674.925 288.401C674.075 288.845 672.994 289.081 672.083 289.38C671.455 289.586 670.916 290.015 670.293 290.24C669.629 290.48 668.985 290.798 668.316 291.044C667.042 291.511 665.741 291.804 664.551 292.477C664.096 292.734 663.727 293.062 663.293 293.343C662.827 293.645 663.257 293.328 663.519 293.121" stroke="#6F432E" stroke-width="5" stroke-linecap="round"/>
<path d="M634.357 248.827C633.317 247.392 632.386 245.836 631.238 244.484C630.897 244.082 633.982 244.463 635.079 244.407C635.773 244.372 636.593 244.368 637.273 244.506C637.882 244.63 638.565 244.922 639.186 244.908C640.277 244.884 641.352 245.301 642.46 245.327C643.593 245.353 644.751 245.217 645.882 245.16C647.47 245.079 648.783 245.33 650.256 245.74C651.035 245.956 651.829 246.134 652.623 246.29C653.727 246.507 654.867 246.594 655.953 246.896C656.962 247.176 657.949 247.344 658.938 247.691C659.64 247.938 660.22 248.507 660.753 249.018C661.905 250.122 661.771 253.308 660.363 254.269C659.359 254.955 658.57 255.996 657.581 256.698C656.755 257.285 655.74 257.856 654.764 258.168C653.863 258.457 652.913 258.788 651.977 258.921C651.066 259.051 650.232 259.567 649.348 259.83C648.337 260.131 647.303 260.408 646.282 260.663C645.38 260.887 644.485 260.923 643.589 261.22C642.061 261.726 641.41 259.823 640.598 258.861C639.393 257.436 638.154 255.793 637.519 254.01C636.837 252.095 635.532 250.449 634.357 248.827Z" fill="#6F432E" stroke="#6F432E" stroke-width="5" stroke-linecap="round"/>
<path d="M677.766 216.097C677.201 214.602 676.359 213.221 675.828 211.7C675.451 210.621 673.569 214.614 672.945 215.487C672.158 216.586 671.39 217.69 670.656 218.823C669.803 220.14 669.538 221.813 668.815 223.202C668.16 224.459 667.199 225.458 666.385 226.611C665.536 227.816 664.329 229.156 664.375 230.762C664.417 232.249 664.17 233.709 664.246 235.211C664.295 236.177 664.708 237.022 665.678 237.267C665.882 237.319 666.096 237.248 666.302 237.269C666.577 237.297 666.792 237.466 667.081 237.459C667.428 237.451 667.866 237.488 668.201 237.396C669.165 237.13 670.018 236.076 670.587 235.329C671.183 234.548 671.836 233.829 672.355 232.992C672.959 232.017 673.341 231.153 674.117 230.293C675.125 229.178 676.198 227.716 676.869 226.375C677.04 226.032 677.281 225.736 677.47 225.404C677.702 224.999 677.767 224.534 677.997 224.129C678.428 223.369 678.612 222.311 678.927 221.479C679.14 220.917 679.614 220.447 679.318 219.862C679.226 219.681 679.118 219.093 678.978 218.992C678.857 218.905 678.553 218.061 678.515 217.899C678.362 217.247 678.001 216.716 677.766 216.097Z" fill="#6F432E" stroke="#6F432E" stroke-width="5" stroke-linecap="round"/>
<path d="M687.738 217.943C686.793 215.178 685.195 212.648 684.021 209.982C683.322 209.164 687.821 211.374 688.854 211.88L688.876 211.892C689.541 212.218 690.254 212.434 690.959 212.653C691.557 212.84 692.111 213.192 692.718 213.385C694.309 213.892 695.958 214.23 697.568 214.677C698.518 214.941 699.484 215.091 700.445 215.3C701.001 215.421 701.548 215.744 702.094 215.926C702.801 216.162 703.544 216.429 704.183 216.825C704.697 217.144 705.009 217.428 705.633 217.547C706.471 217.706 707.307 217.891 708.148 218.037C708.928 218.172 709.373 218.426 710.06 218.818L710.075 218.826C710.645 219.152 711.333 219.443 711.392 220.186C711.417 220.502 711.532 221.006 711.275 221.25C710.619 221.873 710.233 221.901 709.3 221.948C707.943 222.017 706.581 221.968 705.217 222.037C704.227 222.087 703.076 222.209 702.12 221.892C700.832 221.465 699.321 221.629 697.987 221.51C696.237 221.355 694.365 221.252 692.698 220.635C691.461 220.178 690.258 219.666 689.097 219.096C688.766 218.934 688.6 218.565 688.291 218.349C688.092 218.21 687.827 218.206 687.738 217.943Z" fill="#6F432E" stroke="#6F432E" stroke-width="5" stroke-linecap="round"/>
<path d="M674.018 187.186C673.465 186.504 673.976 186.353 674.504 185.624C674.469 184.935 679.446 187.038 682.041 187.548C682.995 187.736 683.96 188.239 684.838 188.648C685.804 189.099 686.827 189.312 687.775 189.8C689.234 190.551 691.073 191.265 692.179 192.534C692.575 192.989 693.259 193.339 693.832 193.515C694.479 193.714 695.167 194.22 695.777 194.54C696.451 194.893 697.07 195.329 697.734 195.683L697.744 195.688C698.2 195.931 698.98 196.346 699.263 196.794C699.532 197.221 699.818 197.664 700.04 198.115C700.297 198.641 700.137 198.877 700.164 199.397C700.207 200.253 698.194 200.273 697.594 200.303L692.258 200.574C691.484 200.613 690.765 200.496 690.012 200.333C689.181 200.154 688.253 200.304 687.41 200.347C685.526 200.443 683.65 200.656 681.778 200.751C680.796 200.801 679.978 201.144 679.39 200.307C678.877 199.578 678.553 198.72 678.088 197.955C677.344 196.733 677.249 195.431 676.971 194.082C676.631 192.433 676.339 191.034 675.53 189.528C675.071 188.673 674.64 187.953 674.018 187.186Z" fill="#6F432E" stroke="#6F432E" stroke-width="5" stroke-linecap="round"/>
<path d="M666.132 193.147C665.687 192.359 665.393 190.455 664.944 190.723C663.237 191.957 661.151 194.608 660.049 196.833C659.236 198.477 658.69 200.085 658.174 201.831C657.957 202.565 657.554 203.227 657.282 203.94C657.04 204.577 656.95 205.192 656.6 205.789C656 206.816 655.559 208.573 655.619 209.769C655.682 211.006 655.826 212.095 656.152 213.277C656.373 214.078 657.138 214.744 657.922 215.001C658.958 215.34 659.786 214.936 660.845 214.827C661.796 214.728 662.767 213.837 663.301 213.111C663.977 212.193 665.024 211.591 665.537 210.56C665.958 209.714 666.715 208.683 667.456 208.103C668.29 207.451 668.889 205.757 669.327 204.814C669.579 204.271 670.075 203.808 670.462 203.363C670.772 203.006 670.619 202.707 670.499 202.27C670.229 201.292 669.455 200.51 669.175 199.498C668.97 198.756 668.775 197.978 668.419 197.296C668.059 196.604 667.605 195.935 667.302 195.216C666.997 194.496 666.518 193.831 666.132 193.147Z" fill="#6F432E" stroke="#6F432E" stroke-width="5" stroke-linecap="round"/>
<path d="M661.852 164.907C660.878 163.638 660.835 163.144 661.168 162.844C661.844 162.341 662.57 163.234 663.093 163.583C664.012 164.196 665.042 164.893 666.071 165.285C666.525 165.457 666.849 165.75 667.195 166.062C667.445 166.288 667.868 166.297 668.15 166.493C668.993 167.083 669.89 167.478 670.853 167.828C672.15 168.3 673.303 169.084 674.607 169.53C675.698 169.904 676.751 170.407 677.768 170.96C678.772 171.506 679.401 172.059 679.957 173.044C680.235 173.535 680.371 174.601 680.028 175.078C679.817 175.37 680.028 175.525 679.552 175.549C678.92 175.581 678.306 175.731 677.67 175.763C676.383 175.828 675.142 175.418 673.838 175.484C672.238 175.565 670.657 175.173 669.068 175.253C668.569 175.279 667.301 175.435 667.005 174.885C666.847 174.59 666.674 174.234 666.434 173.994C666.19 173.749 666.223 173.456 666.063 173.158C665.464 172.039 664.926 170.761 664.462 169.572C663.833 167.963 662.908 166.283 661.852 164.907Z" fill="#6F432E" stroke="#6F432E" stroke-width="5" stroke-linecap="round"/>
<path d="M653.656 169.293C653.394 168.081 653.349 165.535 653.143 165.652C652.577 165.971 651.689 168.984 651.679 169.564C651.658 170.711 651.208 171.813 651.267 172.963C651.355 174.706 650.658 176.35 650.487 178.063C650.355 179.384 650.028 180.777 650.075 182.106C650.129 183.661 649.782 186.333 651.228 187.344C652.242 188.054 653.764 186.662 654.67 186.269C655.724 185.812 656.359 184.523 657.109 183.694C657.595 183.156 658.837 182.276 658.795 181.453C658.769 180.938 658.344 180.395 658.069 179.958C657.657 179.307 657.178 178.686 656.793 178.006C655.822 176.286 655.072 174.324 654.461 172.446C654.123 171.409 653.887 170.359 653.656 169.293Z" fill="#6F432E" stroke="#6F432E" stroke-width="5" stroke-linecap="round"/>
<path d="M623.596 219.767C622.964 218.395 622.202 216.916 621.376 215.647C620.931 214.966 625.009 216.762 625.462 216.912C626.603 217.29 627.85 217.912 629.065 217.978C630.354 218.048 631.725 218.72 632.963 219.029C634.856 219.501 636.798 219.927 638.635 220.594C639.74 220.995 640.69 221.449 641.858 221.679C643.158 221.935 644.007 222.494 645.175 223.068C646.531 223.734 649.047 224.891 649.262 226.679C649.376 227.623 649.53 228.748 648.988 229.571C648.327 230.577 647.008 231.256 645.837 231.447C644.167 231.718 642.458 232.035 640.798 232.379C638.866 232.78 636.813 232.726 634.846 232.826C633.326 232.903 631.798 232.863 630.271 232.94C629.837 232.962 629.391 233.102 629.081 232.79C628.807 232.515 628.7 232.133 628.524 231.793C627.997 230.773 627.421 229.66 626.975 228.586C626.448 227.317 626.117 225.949 625.677 224.643C625.348 223.666 625.116 222.631 624.706 221.695C624.401 221 623.909 220.447 623.596 219.767Z" fill="#6F432E" stroke="#6F432E" stroke-width="5" stroke-linecap="round"/>
<path d="M618.954 199.387C617.81 196.853 618.569 193.77 618 191.095C617.801 190.159 620.758 192.688 621.19 192.826C622.504 193.248 623.8 193.407 625.138 193.69C626.845 194.052 628.67 194.079 630.337 194.609C632.058 195.157 633.732 195.611 635.494 196.004C638.073 196.579 642.237 197.811 642.399 201.003C642.506 203.111 639.062 203.659 637.642 203.998C636.034 204.381 634.496 204.69 632.831 204.774C631.143 204.86 629.357 204.848 627.666 204.793C626.221 204.747 624.777 204.463 623.343 204.422C623.119 204.415 620.153 204.623 620.101 204.52C619.762 203.851 619.663 202.868 619.625 202.133C619.578 201.201 619.339 200.242 618.954 199.387Z" fill="#6F432E" stroke="#6F432E" stroke-width="5" stroke-linecap="round"/>
<path d="M740.412 195.289C739.42 193.304 737.703 191.714 737.163 189.54C737.13 188.902 735.818 190.942 735.477 191.281C734.857 191.899 734.105 192.548 733.434 193.107C732.509 193.877 731.725 194.799 730.784 195.542C729.822 196.3 728.883 197.244 728.044 198.139C727.331 198.899 726.717 200.032 726.295 200.975C725.747 202.2 725.344 203.561 724.685 204.724C723.767 206.341 722.979 208.412 723.075 210.3C723.117 211.135 723.268 211.994 723.465 212.803C723.602 213.365 723.776 213.963 724.17 214.397C724.91 215.214 724.954 216.354 726.011 216.867C727.101 217.397 728.251 217.91 729.485 217.847C730.065 217.818 730.607 217.672 731.19 217.642C731.768 217.613 732.554 217.518 733.106 217.335C733.705 217.136 734.47 217.027 735.099 216.971C735.685 216.918 736.221 216.441 736.812 216.411C737.367 216.382 738.052 215.976 738.604 215.846L738.656 215.834C739.211 215.704 739.866 215.55 740.364 215.31C742.949 214.064 745.989 213.224 747.98 211.02C748.499 210.445 746.738 207.989 746.587 207.39C746.131 205.591 744.907 204.051 744.291 202.309C744.084 201.723 743.618 201.176 743.312 200.636C742.931 199.961 742.611 199.228 742.259 198.534C741.696 197.422 740.971 196.408 740.412 195.289Z" fill="#6F432E" stroke="#6F432E" stroke-width="5" stroke-linecap="round"/>
<path d="M725.434 174.047C723.044 171.068 720.877 167.88 718.406 164.941C718.304 164.818 716.712 167.44 716.308 167.886C715.64 168.626 714.865 169.244 714.317 170.09C713.57 171.245 713.021 172.316 712.551 173.611C712.072 174.929 711.578 176.135 710.82 177.32C710.305 178.125 709.782 178.98 709.351 179.832C708.436 181.64 708.45 183.67 708.344 185.628C708.234 187.651 708.639 191.392 710.942 192.146C712.867 192.777 714.757 192.151 716.69 191.703C718.133 191.369 719.757 191.035 720.96 190.126C722.211 189.182 723.14 187.745 724.11 186.536C725.064 185.346 726.031 184.189 727.069 183.073C727.654 182.445 728.352 181.938 728.938 181.322C729.275 180.968 730.541 180.261 730.512 179.704C730.475 178.958 729.458 178.197 728.991 177.705C727.833 176.484 726.49 175.363 725.434 174.047Z" fill="#6F432E" stroke="#6F432E" stroke-width="5" stroke-linecap="round"/>
<path d="M702.808 151.3C701.888 150.469 701.136 149.829 699.987 149.314C699.44 149.069 699.173 149.947 699.059 150.19C698.575 151.211 698.085 152.181 697.676 153.243C696.829 155.443 695.311 157.271 694.24 159.352C692.675 162.392 690.859 165.247 691.039 168.788C691.094 169.877 691.539 170.954 692.37 171.704C693.015 172.287 693.778 172.224 694.583 172.183C695.505 172.136 696.39 171.896 697.207 171.459C697.984 171.042 698.611 170.423 699.38 169.988C700.591 169.303 701.287 168.189 702.195 167.183C703.196 166.076 704.329 165.001 705.438 163.995C706.614 162.929 707.536 161.555 708.347 160.194C708.809 159.417 709.325 158.638 709.738 157.836C709.931 157.463 709.855 157.329 709.55 157.109C708.978 156.697 708.46 156.068 707.922 155.582C707.493 155.195 707.017 154.893 706.531 154.595C706.117 154.34 705.849 153.834 705.496 153.504C705.02 153.057 704.614 152.41 704.056 152.065C703.657 151.818 703.148 151.607 702.808 151.3Z" fill="#6F432E" stroke="#6F432E" stroke-width="5" stroke-linecap="round"/>
<path d="M683.142 150.735C686.199 148.453 689.314 146.269 692.129 143.68C693.556 142.941 689.533 142.373 689.335 142.107C688.85 141.453 687.915 141.288 687.232 140.945C686.414 140.533 685.621 140.136 684.781 139.768C683.418 139.171 681.992 138.819 680.611 138.284C678.816 137.59 677.06 136.779 675.216 136.232C673.621 135.758 672.031 135.155 670.597 134.311C669.361 133.583 668.029 133.296 666.668 132.907C664.981 132.425 663.209 132.057 661.478 131.777C658.076 131.227 654.525 130.575 651.069 130.63C648.019 130.677 644.67 132.234 642.186 133.913C638.818 136.19 636.337 139.335 633.648 142.312L633.557 142.413C632.431 143.659 631.265 144.949 630.344 146.357C629.648 147.422 628.972 148.416 628.118 149.362C627.022 150.575 626.461 152.026 625.737 153.465C625.073 154.783 624.435 156.088 623.835 157.439C623.279 158.695 622.729 159.981 622.135 161.219C621.829 161.855 621.629 162.515 621.373 163.17C621.223 163.552 620.96 163.929 620.9 164.338C620.69 165.754 620.552 167.032 620.511 168.452C620.495 168.991 620.326 169.508 620.269 170.042C620.213 170.574 620.292 171.09 620.146 171.619C619.958 172.293 619.589 173.082 619.15 173.621C618.409 174.53 618.062 176.01 618.12 177.156C618.149 177.731 618.25 177.489 618.708 177.6C619.369 177.76 620.125 177.62 620.803 177.585C623.133 177.467 625.79 177.985 628.014 178.639C630.398 179.34 633.18 178.85 635.648 178.724C636.646 178.674 637.422 177.785 637.716 176.871C638.245 175.23 638.71 173.696 639.033 171.994C639.176 171.241 639.19 170.372 639.24 169.604C639.283 168.938 639.095 168.244 639.23 167.587C639.542 166.07 639.713 164.426 639.635 162.881C639.56 161.407 639.894 159.81 640.542 158.477C641.498 156.507 642.845 155.078 644.248 153.432C645.884 151.514 647.973 149.717 650.268 148.645C651.779 147.939 653.128 147.553 654.796 147.468C656.008 147.407 657.234 147.487 658.447 147.533C659.522 147.574 660.564 147.885 661.649 147.83C662.531 147.785 663.527 147.828 664.402 147.953C666.121 148.2 667.965 148.912 669.267 150.046C670.792 151.374 672.653 152.265 674.059 153.693C674.707 154.352 675.921 154.139 676.677 153.751C678.771 152.678 681.219 152.17 683.142 150.735Z" fill="#6F432E" stroke="#6F432E" stroke-width="5" stroke-linecap="round"/>
<path d="M691.887 143.574C691.84 142.637 691.469 142.295 690.621 141.923C689.783 141.556 688.923 141.237 688.083 140.869C687.389 140.565 686.553 140.047 686.028 139.495C685.712 139.162 685.26 138.983 684.849 138.792C684.186 138.484 683.614 138.029 682.93 137.759C680.67 136.867 678.181 136.511 675.835 135.99C673.719 135.52 672.281 133.826 670.213 133.226C667.492 132.436 664.738 132.058 661.953 131.556C661.371 131.451 660.796 131.503 660.209 131.368C659.405 131.183 658.595 131.025 657.79 130.847C656.392 130.537 655.017 130.454 653.596 130.311C652.088 130.159 650.446 130.418 648.933 130.495C647.199 130.583 645.545 130.858 643.838 131.109C641.485 131.454 639.365 132.888 637.197 133.759C635.169 134.573 633.899 136.452 632.206 137.732C631.376 138.36 630.507 139.279 629.849 140.1C629.363 140.705 628.863 141.308 628.445 141.965C626.417 145.161 624.008 148.245 623.052 151.985C622.603 153.743 622.287 155.542 621.456 157.166C621.01 158.036 620.897 159.077 620.733 160.022C620.55 161.081 620.421 161.897 620.477 162.992C620.594 165.315 620.34 167.547 620.088 169.84C619.944 171.157 619.665 172.552 619.371 173.846C619.263 174.322 619.18 174.795 619.116 175.279C619.063 175.669 619.02 175.689 619.333 175.412" stroke="#6F432E" stroke-width="5" stroke-linecap="round"/>
<path d="M624.67 150.063C623.046 151.914 622.53 154.481 622.201 156.839C621.93 158.786 621.651 160.718 621.353 162.659C621.216 163.549 621.048 164.426 620.764 165.285C620.509 166.054 620.556 166.901 620.413 167.695C620.291 168.369 620.22 169.013 620.219 169.696C620.218 170.289 619.978 170.835 619.964 171.418C619.95 172.023 619.901 172.62 619.931 173.227C619.959 173.768 619.889 173.966 620.429 173.701" stroke="#6F432E" stroke-width="5" stroke-linecap="round"/>
</g>
</g>
<defs>
<filter id="filter0_d_13_58" x="157" y="111.764" width="654.485" height="356.093" filterUnits="userSpaceOnUse" color-interpolation-filters="sRGB">
<feFlood flood-opacity="0" result="BackgroundImageFix"/>
<feColorMatrix in="SourceAlpha" type="matrix" values="0 0 0 0 0 0 0 0 0 0 0 0 0 0 0 0 0 0 127 0" result="hardAlpha"/>
<feOffset dy="4"/>
<feGaussianBlur stdDeviation="10"/>
<feComposite in2="hardAlpha" operator="out"/>
<feColorMatrix type="matrix" values="0 0 0 0 0 0 0 0 0 0 0 0 0 0 0 0 0 0 0.25 0"/>
<feBlend mode="normal" in2="BackgroundImageFix" result="effect1_dropShadow_13_58"/>
<feBlend mode="normal" in="SourceGraphic" in2="effect1_dropShadow_13_58" result="shape"/>
</filter>
<clipPath id="clip0_13_58">
<rect width="5655" height="4239" fill="white"/>
</clipPath>
<clipPath id="clip1_13_58">
<rect y="4239" width="4239" height="5655" rx="22.7459" transform="rotate(-90 0 4239)" fill="white"/>
</clipPath>
</defs>
</svg>
