<svg width="1665" height="753" viewBox="0 0 1665 753" fill="none" xmlns="http://www.w3.org/2000/svg">
<path d="M1306.77 309.255L1664.48 0.982422H0V752.889H347.97C347.97 752.889 347.97 460.173 632.021 280.288C984.435 57.1085 1306.77 309.255 1306.77 309.255Z" fill="#2F9366"/>
<path d="M249.574 213.65C260.069 212.755 268.366 215.393 274.463 221.564C280.694 227.724 284.202 235.855 284.989 245.957C285.517 252.737 282.564 262.891 276.128 276.419C269.683 289.815 261.255 303.514 250.844 317.515C253.684 316.202 259.621 315.161 268.655 314.391C277.822 313.609 284.899 313.474 289.887 313.985L289.251 336.721C280.962 336.759 274.028 337.015 268.448 337.491C253.171 338.794 236.414 343.434 218.179 351.412L208.259 334.795C221.797 321.464 234.127 305.492 245.248 286.881C256.37 268.269 261.645 255.308 261.076 247.996C260.496 240.552 257.283 237.079 251.438 237.578C246.655 237.986 241.891 241.202 237.145 247.227C232.521 253.107 227.669 261.215 222.59 271.551L201.575 259.292C216.702 230.303 232.702 215.089 249.574 213.65Z" fill="black" fill-opacity="0.2"/>
</svg>
