<svg width="847" height="368" viewBox="0 0 847 368" fill="none" xmlns="http://www.w3.org/2000/svg">
<rect x="7.5" y="7.5" width="832" height="353" rx="47.5" fill="#D9873C"/>
<path d="M130.55 188.75C130.55 182.75 129.05 179.75 126.05 179.75C124.55 179.75 123.15 180.5 121.85 182C120.65 183.4 120.05 185.35 120.05 187.85C120.05 190.25 120.5 192.25 121.4 193.85C122.4 195.45 124.15 197.05 126.65 198.65C129.25 200.15 131.25 201.4 132.65 202.4C134.15 203.3 135.9 204.6 137.9 206.3C142 209.9 144.05 214.55 144.05 220.25C144.05 225.85 141.9 230.4 137.6 233.9C133.4 237.4 128.65 239.15 123.35 239.15C118.05 239.15 113.25 237.75 108.95 234.95C104.75 232.05 101.35 228.45 98.75 224.15L106.85 215C110.85 221.9 115.05 225.35 119.45 225.35C120.95 225.35 122.25 224.95 123.35 224.15C124.45 223.25 125 222.05 125 220.55C125 217.35 122.7 214.4 118.1 211.7C113.2 209 109.35 206 106.55 202.7C103.75 199.4 102.35 194.75 102.35 188.75C102.35 182.65 104.85 177.2 109.85 172.4C114.85 167.5 120.2 165.05 125.9 165.05C131.7 165.05 136.25 167.05 139.55 171.05C142.95 174.95 144.65 180.25 144.65 186.95C144.65 189.65 144.35 192.55 143.75 195.65L130.1 194.45C130.4 192.15 130.55 190.25 130.55 188.75ZM189.752 173.3V187.55C184.952 187.55 181.252 187.6 178.652 187.7C178.352 197.7 178.202 214.5 178.202 238.1L160.502 236.45C160.502 218.95 160.652 203.1 160.952 188.9C159.452 188.9 156.602 189.15 152.402 189.65L150.152 177.35C152.552 176.85 156.302 176.2 161.402 175.4C161.602 168 162.002 157.2 162.602 143L180.452 144.65C179.852 154.55 179.402 164.15 179.102 173.45C181.602 173.35 185.152 173.3 189.752 173.3ZM196.968 191.75C198.468 183.95 201.318 177.35 205.518 171.95C209.718 166.45 215.218 163.7 222.018 163.7C228.818 163.7 233.818 166.55 237.018 172.25C240.318 177.85 241.968 185.85 241.968 196.25C241.968 206.65 241.368 221 240.168 239.3L227.568 238.25L226.368 233.45C221.668 236.15 216.868 237.5 211.968 237.5C207.068 237.5 203.018 235.9 199.818 232.7C196.618 229.4 195.018 224.7 195.018 218.6C195.018 212.5 198.018 207.25 204.018 202.85C210.118 198.45 217.118 196.15 225.018 195.95V191.9C225.018 184 223.118 180.05 219.318 180.05C217.418 180.05 215.668 181.4 214.068 184.1C212.568 186.7 211.468 189.7 210.768 193.1L196.968 191.75ZM210.318 219.5C210.318 222.7 212.218 224.3 216.018 224.3C218.618 224.3 221.368 223.7 224.268 222.5L224.568 209.9C219.868 210.3 216.318 211.5 213.918 213.5C211.518 215.4 210.318 217.4 210.318 219.5ZM284.366 181.85C280.166 181.85 277.016 187.15 274.916 197.75C275.116 204.75 275.216 211.45 275.216 217.85C275.216 224.25 275.016 231.45 274.616 239.45L257.216 237.95C257.516 223.25 257.666 215.15 257.666 213.65C257.666 195.15 256.766 181 254.966 171.2L266.216 172.4C266.916 175.3 267.716 177.85 268.616 180.05C273.516 169.55 278.466 164.3 283.466 164.3C287.566 164.3 291.166 166.1 294.266 169.7L290.366 183.5C288.766 182.4 286.766 181.85 284.366 181.85ZM336.383 173.3V187.55C331.583 187.55 327.883 187.6 325.283 187.7C324.983 197.7 324.833 214.5 324.833 238.1L307.133 236.45C307.133 218.95 307.283 203.1 307.583 188.9C306.083 188.9 303.233 189.15 299.033 189.65L296.783 177.35C299.183 176.85 302.933 176.2 308.033 175.4C308.233 168 308.633 157.2 309.233 143L327.083 144.65C326.483 154.55 326.033 164.15 325.733 173.45C328.233 173.35 331.783 173.3 336.383 173.3ZM415.777 173.3V187.55C410.977 187.55 407.277 187.6 404.677 187.7C404.377 197.7 404.227 214.5 404.227 238.1L386.527 236.45C386.527 218.95 386.677 203.1 386.977 188.9C385.477 188.9 382.627 189.15 378.427 189.65L376.177 177.35C378.577 176.85 382.327 176.2 387.427 175.4C387.627 168 388.027 157.2 388.627 143L406.477 144.65C405.877 154.55 405.427 164.15 405.127 173.45C407.627 173.35 411.177 173.3 415.777 173.3ZM472.794 165.65L472.494 189.35C472.494 211.65 472.894 228.05 473.694 238.55L458.844 237.05C458.544 232.85 457.894 228.6 456.894 224.3C451.394 232.4 445.844 236.45 440.244 236.45C434.744 236.45 430.344 234.55 427.044 230.75C423.744 226.95 422.094 221.7 422.094 215C422.094 202 423.044 186.5 424.944 168.5L442.344 170.15C440.544 187.25 439.644 201.45 439.644 212.75C439.644 217.85 441.244 220.4 444.444 220.4C445.944 220.4 447.744 218.35 449.844 214.25C452.044 210.15 453.794 205.2 455.094 199.4C454.994 197.2 454.944 194.6 454.944 191.6C454.944 188.6 455.094 179.45 455.394 164.15L472.794 165.65ZM521.832 173.3V187.55C517.032 187.55 513.332 187.6 510.732 187.7C510.432 197.7 510.282 214.5 510.282 238.1L492.582 236.45C492.582 218.95 492.732 203.1 493.032 188.9C491.532 188.9 488.682 189.15 484.482 189.65L482.232 177.35C484.632 176.85 488.382 176.2 493.482 175.4C493.682 168 494.082 157.2 494.682 143L512.532 144.65C511.932 154.55 511.482 164.15 511.182 173.45C513.682 173.35 517.232 173.3 521.832 173.3ZM543.298 209C543.298 220.3 545.798 225.95 550.798 225.95C552.998 225.95 554.848 222.8 556.348 216.5C557.848 210.1 558.598 204 558.598 198.2C558.598 185.4 556.498 179 552.298 179C549.598 179 547.398 182.45 545.698 189.35C544.098 196.15 543.298 202.7 543.298 209ZM525.748 207.65C525.748 198.35 527.648 189.25 531.448 180.35C533.448 175.85 536.248 172.2 539.848 169.4C543.548 166.5 547.648 165.05 552.148 165.05C556.648 165.05 560.498 166.1 563.698 168.2C566.998 170.2 569.498 172.9 571.198 176.3C574.498 183 576.148 190.3 576.148 198.2C576.148 209.1 573.898 218.8 569.398 227.3C564.998 235.7 558.798 239.9 550.798 239.9C534.098 239.9 525.748 229.15 525.748 207.65ZM613.223 181.85C609.023 181.85 605.873 187.15 603.773 197.75C603.973 204.75 604.073 211.45 604.073 217.85C604.073 224.25 603.873 231.45 603.473 239.45L586.073 237.95C586.373 223.25 586.523 215.15 586.523 213.65C586.523 195.15 585.623 181 583.823 171.2L595.073 172.4C595.773 175.3 596.573 177.85 597.473 180.05C602.373 169.55 607.323 164.3 612.323 164.3C616.423 164.3 620.023 166.1 623.123 169.7L619.223 183.5C617.623 182.4 615.623 181.85 613.223 181.85ZM632.84 164.45L649.94 166.1V238.1L632.84 236.45V164.45ZM634.04 138.05L650.84 140L649.34 156.8L632.54 154.7L634.04 138.05ZM664.839 191.75C666.339 183.95 669.189 177.35 673.389 171.95C677.589 166.45 683.089 163.7 689.889 163.7C696.689 163.7 701.689 166.55 704.889 172.25C708.189 177.85 709.839 185.85 709.839 196.25C709.839 206.65 709.239 221 708.039 239.3L695.439 238.25L694.239 233.45C689.539 236.15 684.739 237.5 679.839 237.5C674.939 237.5 670.889 235.9 667.689 232.7C664.489 229.4 662.889 224.7 662.889 218.6C662.889 212.5 665.889 207.25 671.889 202.85C677.989 198.45 684.989 196.15 692.889 195.95V191.9C692.889 184 690.989 180.05 687.189 180.05C685.289 180.05 683.539 181.4 681.939 184.1C680.439 186.7 679.339 189.7 678.639 193.1L664.839 191.75ZM678.189 219.5C678.189 222.7 680.089 224.3 683.889 224.3C686.489 224.3 689.239 223.7 692.139 222.5L692.439 209.9C687.739 210.3 684.189 211.5 681.789 213.5C679.389 215.4 678.189 217.4 678.189 219.5ZM745.787 127.7C744.287 153 743.537 175.8 743.537 196.1C743.537 216.4 743.787 230.65 744.287 238.85L726.587 237.2C726.187 226.8 725.987 212.05 725.987 192.95C725.987 173.75 726.737 151.55 728.237 126.35L745.787 127.7Z" fill="black"/>
<rect x="7.5" y="7.5" width="832" height="353" rx="47.5" stroke="black" stroke-width="15"/>
</svg>
