<svg width="332" height="369" viewBox="0 0 332 369" fill="none" xmlns="http://www.w3.org/2000/svg">
<rect x="238.726" y="66.4404" width="101.046" height="330.933" transform="rotate(46.1679 238.726 66.4404)" fill="#D9873C"/>
<path d="M291.834 150.341C294.134 147.417 292.971 142.685 288.344 136.145C283.811 129.679 277.112 122.959 268.246 115.986C273.274 128.032 273.674 136.744 269.445 142.12C265.291 147.402 260.123 150.284 253.942 150.766C247.742 151.079 240.963 148.343 233.606 142.556C226.155 136.695 219.799 129.635 214.54 121.376C209.186 113.043 205.786 105.331 204.341 98.2396C202.876 90.98 203.478 85.6524 206.149 82.257C210.823 76.3148 217.531 72.7361 226.273 71.5208L235.478 62.7301C240.644 68.7785 249.594 76.8104 262.327 86.8258C274.966 96.7671 284.006 104.489 289.449 109.992C294.872 115.326 299.83 121.057 304.322 127.186C308.814 133.315 311.534 139.271 312.481 145.054C313.428 150.838 311.899 156.276 307.893 161.369C303.887 166.462 297.991 169.688 290.206 171.045C282.515 172.477 274.68 172.344 266.701 170.649L270.955 154.758C281.017 156.718 287.976 155.246 291.834 150.341ZM223.362 90.0708C221.507 92.4288 223.011 97.5047 227.873 105.299C232.809 112.998 239.097 119.852 246.737 125.862C249.661 128.162 252.174 129.528 254.277 129.96C256.454 130.298 257.913 129.996 258.655 129.053C259.471 128.015 259.566 125.953 258.941 122.866C258.316 119.778 256.633 115.707 253.893 110.65C251.226 105.5 247.728 100.534 243.397 95.7529L232.867 87.0125C227.791 87.4479 224.623 88.4674 223.362 90.0708Z" fill="#B55D0D"/>
</svg>
