<svg width="655" height="373" viewBox="0 0 655 373" fill="none" xmlns="http://www.w3.org/2000/svg">
<g filter="url(#filter0_d_17_131)">
<path d="M58.85 48.1L73.85 49.45C74.55 57.45 75.6 68.05 77 81.25C78.5 94.35 79.55 103.65 80.15 109.15L80.9 109C88 78.4 92.6 54.45 94.7 37.15L114.35 38.8C108.75 71.9 100.55 105.9 89.75 140.8L75.35 139.6C71.95 127.8 68.15 112.35 63.95 93.25C59.65 113.85 55.55 130.3 51.65 142.6L37.25 141.4C28.75 99 23 64.6 20 38.2L39.35 39.85C40.95 56.75 43.45 79.85 46.85 109.15L47.6 109C53.4 82.3 57.15 62 58.85 48.1ZM114.943 97.75C116.443 89.95 119.293 83.35 123.493 77.95C127.693 72.45 133.193 69.7 139.993 69.7C146.793 69.7 151.793 72.55 154.993 78.25C158.293 83.85 159.943 91.85 159.943 102.25C159.943 112.65 159.343 127 158.143 145.3L145.543 144.25L144.343 139.45C139.643 142.15 134.843 143.5 129.943 143.5C125.043 143.5 120.993 141.9 117.793 138.7C114.593 135.4 112.993 130.7 112.993 124.6C112.993 118.5 115.993 113.25 121.993 108.85C128.093 104.45 135.093 102.15 142.993 101.95V97.9C142.993 90 141.093 86.05 137.293 86.05C135.393 86.05 133.643 87.4 132.043 90.1C130.543 92.7 129.443 95.7 128.743 99.1L114.943 97.75ZM128.293 125.5C128.293 128.7 130.193 130.3 133.993 130.3C136.593 130.3 139.343 129.7 142.243 128.5L142.543 115.9C137.843 116.3 134.293 117.5 131.893 119.5C129.493 121.4 128.293 123.4 128.293 125.5ZM195.89 33.7C194.39 59 193.64 81.8 193.64 102.1C193.64 122.4 193.89 136.65 194.39 144.85L176.69 143.2C176.29 132.8 176.09 118.05 176.09 98.95C176.09 79.75 176.84 57.55 178.34 32.35L195.89 33.7ZM211.389 143.2C210.989 132.8 210.789 117.4 210.789 97C210.789 76.6 211.539 55.05 213.039 32.35L230.589 33.7C229.089 58.2 228.339 81.8 228.339 104.5C238.739 91.8 246.539 79.45 251.739 67.45L263.739 77.95C259.239 88.45 253.239 98.85 245.739 109.15C253.539 118.25 259.739 126.75 264.339 134.65L252.939 145.45C247.539 137.05 239.339 127.1 228.339 115.6C228.339 126.7 228.539 136.45 228.939 144.85L211.389 143.2ZM273.813 70.45L290.913 72.1V144.1L273.813 142.45V70.45ZM275.013 44.05L291.813 46L290.313 62.8L273.513 60.7L275.013 44.05ZM337.462 70.6C350.662 70.6 357.262 81.6 357.262 103.6C357.262 115.2 356.612 127.5 355.312 140.5L337.762 138.85C338.862 127.45 339.412 115.95 339.412 104.35C339.412 92.65 337.762 86.8 334.462 86.8C332.862 86.8 330.812 90.85 328.312 98.95C325.812 106.95 324.262 114.8 323.662 122.5C323.862 126.6 324.262 134 324.862 144.7L307.312 143.05C306.212 128.95 305.662 116.55 305.662 105.85C305.662 95.15 305.962 85.55 306.562 77.05L317.662 78.25C317.862 79.05 318.612 82.3 319.912 88C325.712 76.4 331.562 70.6 337.462 70.6ZM391.436 162.1C394.536 162.1 397.036 158.9 398.936 152.5C400.836 146.2 401.786 138.35 401.786 128.95C396.486 138.45 390.986 143.2 385.286 143.2C379.686 143.2 375.136 141.3 371.636 137.5C368.236 133.6 366.536 127.75 366.536 119.95C366.536 112.05 367.886 104.25 370.586 96.55C373.286 88.75 376.586 82.55 380.486 77.95C384.486 73.25 388.286 70.9 391.886 70.9C398.186 70.9 403.986 73.45 409.286 78.55L419.786 80.05C418.486 86.55 417.836 96.55 417.836 110.05C417.836 123.45 417.436 133.35 416.636 139.75C415.936 146.05 414.736 152.25 413.036 158.35C411.336 164.45 408.836 169.3 405.536 172.9C402.236 176.5 397.886 178.3 392.486 178.3C387.086 178.3 381.936 176.1 377.036 171.7C372.136 167.4 368.186 162.2 365.186 156.1L377.786 150.7C381.686 158.3 386.236 162.1 391.436 162.1ZM395.636 86.2C393.136 86.2 390.586 89.8 387.986 97C385.486 104.2 384.236 111.85 384.236 119.95C384.236 123.05 384.636 125.4 385.436 127C386.336 128.6 387.286 129.4 388.286 129.4C389.386 129.4 390.786 128.4 392.486 126.4C394.186 124.4 395.986 121.2 397.886 116.8C399.886 112.4 401.336 107.55 402.236 102.25L402.536 90.85C399.636 87.75 397.336 86.2 395.636 86.2Z" fill="black"/>
<path d="M74.6 321.72C80.6267 321.72 83.64 320.387 83.64 317.72C83.64 316.547 81.96 315.56 78.6 314.76C75.1867 313.96 71.9333 313.56 68.84 313.56C62.0133 313.56 58.6 314.68 58.6 316.92C58.6 318.36 60.44 319.533 64.12 320.44C67.7467 321.293 71.24 321.72 74.6 321.72ZM73.88 331.08C68.92 331.08 64.0667 330.067 59.32 328.04C56.92 326.973 54.9733 325.48 53.48 323.56C51.9333 321.587 51.16 319.4 51.16 317C51.16 314.6 51.72 312.547 52.84 310.84C53.9067 309.08 55.3467 307.747 57.16 306.84C60.7333 305.08 64.6267 304.2 68.84 304.2C74.6533 304.2 79.8267 305.4 84.36 307.8C88.84 310.147 91.08 313.453 91.08 317.72C91.08 326.627 85.3467 331.08 73.88 331.08ZM50.92 282.987C50.92 275.947 56.7867 272.427 68.52 272.427C74.7067 272.427 81.2667 272.774 88.2 273.467L87.32 282.827C81.24 282.24 75.1067 281.947 68.92 281.947C62.68 281.947 59.56 282.827 59.56 284.587C59.56 285.44 61.72 286.534 66.04 287.867C70.3067 289.2 74.4933 290.027 78.6 290.347C80.7867 290.24 84.7333 290.027 90.44 289.707L89.56 299.067C82.04 299.654 75.4267 299.947 69.72 299.947C64.0133 299.947 58.8933 299.787 54.36 299.467L55 293.547C55.4267 293.44 57.16 293.04 60.2 292.347C54.0133 289.254 50.92 286.134 50.92 282.987ZM55.56 227.466H63.16C63.16 230.026 63.1867 231.999 63.24 233.386C68.5733 233.546 77.5333 233.626 90.12 233.626L89.24 243.066C79.9067 243.066 71.4533 242.986 63.88 242.826C63.88 243.626 64.0133 245.146 64.28 247.386L57.72 248.586C57.4533 247.306 57.1067 245.306 56.68 242.586C52.7333 242.479 46.9733 242.266 39.4 241.946L40.28 232.426C45.56 232.746 50.68 232.986 55.64 233.146C55.5867 231.812 55.56 229.919 55.56 227.466ZM56.44 212.817C53.4 210.364 51.88 207.964 51.88 205.617C51.88 203.217 52.68 201.27 54.28 199.777C57.0533 197.164 60.5733 195.857 64.84 195.857C72.5733 195.857 80.6533 196.15 89.08 196.737L88.2 206.017C80.36 205.644 72.6533 205.457 65.08 205.457C62.2533 205.457 60.84 206.177 60.84 207.617C60.84 209.324 64.5733 211.164 72.04 213.137C77.3733 213.244 83.4267 213.51 90.2 213.937L89.32 223.297C80.1467 222.604 69.9067 222.257 58.6 222.257C47.2933 222.257 38.2 222.444 31.32 222.817L32.2 213.457C39.72 213.03 47.8 212.817 56.44 212.817ZM83.24 178.592C83.24 176.566 81.2933 174.406 77.4 172.112L81 166.032C82.76 167.046 84.2533 168.032 85.48 168.992C86.7067 169.899 87.88 171.286 89 173.152C90.12 175.019 90.68 177.099 90.68 179.392C90.68 182.752 89.2667 185.579 86.44 187.872C83.56 190.166 79.6933 191.312 74.84 191.312C69.2933 191.312 64.12 190.326 59.32 188.352C56.8133 187.286 54.7867 185.766 53.24 183.792C51.64 181.766 50.84 179.712 50.84 177.632C50.84 175.499 51.1867 173.792 51.88 172.512C52.52 171.232 53.2667 170.219 54.12 169.472C54.92 168.672 56.12 167.979 57.72 167.392C59.32 166.806 60.6267 166.406 61.64 166.192C62.6533 165.926 64.12 165.712 66.04 165.552C68.6 165.339 70.92 165.232 73 165.232C74.1733 169.499 75.24 175.019 76.2 181.792C78.3333 181.632 80.04 181.259 81.32 180.672C82.6 180.086 83.24 179.392 83.24 178.592ZM58.68 176.832C58.68 178.006 59.8533 179.072 62.2 180.032C64.5467 180.939 67.2667 181.472 70.36 181.632C69.7733 178.806 69.2133 176.352 68.68 174.272C62.0133 174.272 58.68 175.126 58.68 176.832Z" fill="black"/>
<path d="M153.419 268.586H185.411C185.177 273.391 185.001 278.107 184.884 282.736C184.825 287.365 184.796 291.789 184.796 296.008C184.796 300.227 184.796 304.094 184.796 307.609C184.854 311.066 184.942 314.055 185.06 316.574C185.177 319.562 185.294 322.229 185.411 324.572C182.423 326.096 178.79 327.385 174.513 328.439C170.235 329.494 165.05 330.021 158.956 330.021C152.862 330.021 147.208 328.762 141.993 326.242C136.778 323.723 132.237 319.914 128.37 314.816C124.503 309.66 121.456 303.186 119.229 295.393C117.062 287.541 115.978 278.312 115.978 267.707C115.978 257.102 117.12 247.902 119.405 240.109C121.749 232.258 124.913 225.783 128.897 220.686C132.882 215.529 137.511 211.691 142.784 209.172C148.116 206.652 153.771 205.393 159.747 205.393C162.208 205.393 164.435 205.51 166.427 205.744C168.419 205.92 170.265 206.184 171.964 206.535C173.722 206.887 175.362 207.326 176.886 207.854C178.409 208.381 179.903 208.938 181.368 209.523V227.277C177.56 223 173.956 220.012 170.558 218.312C167.218 216.555 163.585 215.676 159.659 215.676C155.147 215.676 151.134 216.936 147.618 219.455C144.103 221.916 141.114 225.432 138.653 230.002C136.251 234.572 134.405 240.051 133.116 246.438C131.886 252.766 131.271 259.797 131.271 267.531C131.271 275.031 131.856 281.975 133.028 288.361C134.2 294.689 135.958 300.197 138.302 304.885C140.646 309.514 143.575 313.146 147.091 315.783C150.665 318.42 154.825 319.738 159.571 319.738C161.622 319.738 163.409 319.592 164.933 319.299C166.515 318.947 168.067 318.361 169.591 317.541C169.649 316.252 169.708 314.758 169.767 313.059C169.825 311.594 169.884 309.836 169.942 307.785C170.001 305.676 170.03 303.244 170.03 300.49C170.03 297.502 169.972 294.191 169.854 290.559C169.796 286.926 169.649 283 169.415 278.781H153.419V268.586ZM249.923 221.213C242.188 221.213 235.45 222.297 229.708 224.465C223.966 226.633 219.747 229.914 217.052 234.309C216.7 245.676 216.524 257.131 216.524 268.674C216.524 274.123 216.554 279.309 216.612 284.23C216.671 289.152 216.759 293.986 216.876 298.732C216.993 303.479 217.169 308.254 217.403 313.059C217.638 317.805 217.901 322.785 218.194 328H201.935C202.228 322.785 202.462 317.805 202.638 313.059C202.872 308.254 203.048 303.479 203.165 298.732C203.341 293.986 203.458 289.152 203.517 284.23C203.575 279.309 203.604 274.123 203.604 268.674C203.604 263.225 203.575 257.951 203.517 252.854C203.458 247.697 203.341 242.629 203.165 237.648C203.048 232.609 202.872 227.6 202.638 222.619C202.462 217.58 202.228 212.453 201.935 207.238H218.282C218.106 209.992 217.931 212.453 217.755 214.621C217.638 216.789 217.521 219.221 217.403 221.916C219.278 219.748 221.563 217.639 224.259 215.588C227.013 213.537 229.884 211.75 232.872 210.227C235.86 208.645 238.849 207.385 241.837 206.447C244.825 205.51 247.521 205.041 249.923 205.041V221.213ZM300.724 328L301.163 317.365C299.757 318.947 298.321 320.529 296.856 322.111C295.392 323.635 293.751 325.012 291.935 326.242C290.118 327.414 288.038 328.352 285.694 329.055C283.409 329.816 280.685 330.197 277.521 330.197C273.888 330.197 270.489 329.465 267.325 328C264.22 326.477 261.495 324.279 259.151 321.408C256.866 318.537 255.05 314.992 253.702 310.773C252.354 306.496 251.681 301.574 251.681 296.008C251.681 288.918 252.765 282.854 254.933 277.814C257.101 272.775 260.294 268.498 264.513 264.982C268.79 261.467 274.063 258.625 280.333 256.457C286.661 254.289 293.956 252.531 302.218 251.184C302.218 244.094 301.837 238.234 301.075 233.605C300.372 228.977 299.317 225.314 297.911 222.619C296.505 219.865 294.747 217.961 292.638 216.906C290.587 215.852 288.214 215.324 285.519 215.324C283.175 215.324 280.831 215.705 278.487 216.467C276.144 217.17 273.8 218.137 271.456 219.367C269.171 220.598 266.856 222.033 264.513 223.674C262.228 225.256 259.972 226.926 257.745 228.684V211.633C260.206 210.695 262.55 209.846 264.776 209.084C267.003 208.264 269.229 207.561 271.456 206.975C273.741 206.389 276.026 205.92 278.312 205.568C280.597 205.217 283.028 205.041 285.606 205.041C290.763 205.041 295.245 205.744 299.054 207.15C302.921 208.557 306.114 210.783 308.634 213.83C311.212 216.877 313.116 220.803 314.347 225.607C315.636 230.412 316.28 236.184 316.28 242.922C316.28 243.566 316.251 244.65 316.192 246.174C316.192 247.697 316.163 249.484 316.104 251.535C316.104 253.586 316.075 255.783 316.017 258.127C316.017 260.471 315.987 262.785 315.929 265.07C315.929 267.355 315.899 269.523 315.841 271.574C315.841 273.566 315.841 275.236 315.841 276.584C315.841 279.689 315.87 283.205 315.929 287.131C315.987 290.998 316.075 295.129 316.192 299.523C316.368 303.918 316.544 308.518 316.72 313.322C316.954 318.127 317.218 323.02 317.511 328H300.724ZM301.778 304.006C301.954 298.029 302.101 291.643 302.218 284.846C302.335 277.99 302.394 270.168 302.394 261.379C294.952 262.258 288.946 263.693 284.376 265.686C279.806 267.678 276.261 270.139 273.741 273.068C271.222 275.939 269.522 279.221 268.644 282.912C267.765 286.604 267.325 290.617 267.325 294.953C267.325 298.645 267.647 301.984 268.292 304.973C268.995 307.961 269.991 310.51 271.28 312.619C272.569 314.67 274.093 316.252 275.851 317.365C277.608 318.479 279.601 319.035 281.827 319.035C284.347 319.035 286.544 318.596 288.419 317.717C290.353 316.779 292.081 315.607 293.604 314.201C295.187 312.736 296.622 311.125 297.911 309.367C299.2 307.551 300.489 305.764 301.778 304.006ZM363.653 207.238C368.575 207.238 372.97 208.088 376.837 209.787C380.704 211.428 383.956 213.859 386.593 217.082C389.288 220.305 391.31 224.23 392.657 228.859C394.063 233.488 394.767 238.732 394.767 244.592C394.767 247.111 394.532 249.807 394.063 252.678C393.595 255.49 392.833 258.273 391.778 261.027C390.724 263.781 389.376 266.447 387.735 269.025C386.095 271.545 384.073 273.771 381.671 275.705C379.327 277.639 376.573 279.191 373.409 280.363C370.304 281.477 366.759 282.033 362.774 282.033H349.239C349.356 289.533 349.503 297.209 349.679 305.061C349.913 312.854 350.265 320.5 350.733 328H334.298C334.649 323.02 334.913 317.922 335.089 312.707C335.323 307.434 335.499 302.219 335.616 297.062C335.733 291.848 335.821 286.75 335.88 281.77C335.938 276.789 335.968 272.043 335.968 267.531C335.968 263.02 335.938 258.273 335.88 253.293C335.821 248.312 335.733 243.244 335.616 238.088C335.499 232.932 335.323 227.746 335.089 222.531C334.913 217.316 334.649 212.219 334.298 207.238H363.653ZM350.294 217.082C349.884 225.754 349.591 234.426 349.415 243.098C349.298 251.77 349.239 259.914 349.239 267.531V272.277H362.774C368.048 272.277 372.149 269.875 375.079 265.07C378.009 260.207 379.474 253.381 379.474 244.592C379.474 235.627 378.097 228.801 375.343 224.113C372.589 219.426 368.399 217.082 362.774 217.082H350.294ZM474.044 207.238C473.751 212.219 473.487 217.316 473.253 222.531C473.077 227.746 472.931 232.932 472.813 238.088C472.696 243.244 472.608 248.312 472.55 253.293C472.491 258.273 472.462 263.02 472.462 267.531C472.462 272.043 472.491 276.789 472.55 281.77C472.608 286.75 472.667 291.848 472.726 297.062C472.843 302.219 472.989 307.434 473.165 312.707C473.341 317.922 473.575 323.02 473.868 328H457.521C457.813 323.02 458.048 317.922 458.224 312.707C458.458 307.434 458.634 302.219 458.751 297.062C458.868 291.848 458.956 286.75 459.015 281.77C459.073 276.789 459.103 272.043 459.103 267.531H422.892C422.892 272.043 422.921 276.789 422.979 281.77C423.038 286.75 423.126 291.848 423.243 297.062C423.36 302.219 423.507 307.434 423.683 312.707C423.858 317.922 424.093 323.02 424.386 328H407.95C408.302 323.02 408.565 317.922 408.741 312.707C408.976 307.434 409.151 302.219 409.269 297.062C409.386 291.848 409.474 286.75 409.532 281.77C409.591 276.789 409.62 272.043 409.62 267.531C409.62 263.02 409.591 258.273 409.532 253.293C409.474 248.312 409.386 243.244 409.269 238.088C409.151 232.932 408.976 227.746 408.741 222.531C408.565 217.316 408.302 212.219 407.95 207.238H424.562C423.976 215.441 423.565 223.85 423.331 232.463C423.155 241.018 423.009 249.279 422.892 257.248H459.015C458.956 249.279 458.81 241.018 458.575 232.463C458.341 223.85 457.989 215.441 457.521 207.238H474.044Z" fill="#614294"/>
<path d="M621.51 230.662C621.338 230.108 621.138 229.585 620.976 229.034C620.763 228.877 620.637 229.141 620.213 229.258C620.021 229.311 619.786 229.37 619.653 229.554C619.48 229.795 618.778 229.965 618.532 230.104C617.99 230.41 617.447 230.606 616.836 230.794C615.289 231.271 614.065 232.068 612.66 232.83C611.734 233.332 610.697 233.921 609.911 234.595C609.259 235.154 608.598 235.633 607.98 236.249C607.61 236.618 607.114 236.916 606.835 237.37C606.314 238.216 605.976 239.402 606.327 240.398C606.863 241.92 608.89 243.284 610.501 243.24C611.624 243.209 612.807 243.163 613.919 243.328C615.265 243.526 616.709 243.865 618.077 243.796C620.418 243.677 622.644 243.179 624.926 242.821C625.761 242.69 625.483 242.088 625.23 241.598C624.593 240.368 624.211 239 623.828 237.674C623.534 236.654 622.973 235.719 622.684 234.69C622.476 233.949 622.17 233.249 621.946 232.515C621.761 231.906 621.7 231.273 621.51 230.662Z" fill="#6F432E"/>
<path d="M620.859 228.604C621.034 229.32 621.294 229.967 621.51 230.662C621.7 231.273 621.761 231.906 621.946 232.515C622.17 233.249 622.476 233.949 622.684 234.69C622.973 235.719 623.534 236.654 623.828 237.674C624.211 239 624.593 240.368 625.23 241.598C625.483 242.088 625.761 242.69 624.926 242.821C622.644 243.179 620.418 243.677 618.077 243.796C616.709 243.865 615.265 243.526 613.919 243.328C612.807 243.163 611.624 243.209 610.501 243.24C608.89 243.284 606.863 241.92 606.327 240.398C605.976 239.402 606.314 238.216 606.835 237.37C607.114 236.916 607.61 236.618 607.98 236.249C608.598 235.633 609.259 235.154 609.911 234.595C610.697 233.921 611.734 233.332 612.66 232.83C614.065 232.068 615.289 231.271 616.836 230.794C617.447 230.606 617.99 230.41 618.532 230.104C618.778 229.965 619.48 229.795 619.653 229.554C619.786 229.37 620.021 229.311 620.213 229.258C620.768 229.105 620.812 228.698 621.209 229.318" stroke="#6F432E" stroke-width="5" stroke-linecap="round"/>
<path d="M630.213 260.488C630.113 258.522 629.755 256.065 628.579 254.386C628.419 254.381 628.212 254.461 627.928 254.606C627.55 254.8 627.183 255.02 626.804 255.215C625.783 255.738 624.573 255.88 623.573 256.43C623.1 256.69 622.57 256.799 622.096 257.074C621.571 257.378 621.069 257.6 620.509 257.834C619.454 258.275 618.447 258.71 617.419 259.193C616.29 259.723 615.005 260.256 613.743 260.32C613.153 260.35 611.74 260.514 611.758 261.361C611.771 261.97 611.851 263.129 612.541 263.406C613.289 263.706 614.104 263.867 614.828 264.184C615.244 264.367 615.714 264.403 616.149 264.477C616.767 264.582 617.407 264.532 618.014 264.725C618.351 264.832 618.671 264.994 619.018 265.069C620.467 265.382 622.04 265.647 623.526 265.572L628.241 265.332C628.87 265.3 629.481 265.46 630.105 265.447C630.453 265.439 630.347 265.194 630.333 264.912C630.258 263.443 630.288 261.972 630.213 260.488Z" fill="#6F432E"/>
<path d="M628.579 254.386C629.755 256.065 630.113 258.522 630.213 260.488C630.288 261.972 630.258 263.443 630.333 264.912C630.347 265.194 630.453 265.439 630.105 265.447C629.481 265.46 628.87 265.3 628.241 265.332C626.669 265.412 625.098 265.492 623.526 265.572C622.04 265.647 620.467 265.382 619.018 265.069C618.671 264.994 618.351 264.832 618.014 264.725C617.407 264.532 616.767 264.582 616.149 264.477C615.714 264.403 615.244 264.367 614.828 264.184C614.104 263.867 613.289 263.706 612.541 263.406C611.851 263.129 611.771 261.97 611.758 261.361C611.74 260.514 613.153 260.35 613.743 260.32C615.005 260.256 616.29 259.723 617.419 259.193C618.447 258.71 619.454 258.275 620.509 257.834C621.069 257.6 621.571 257.378 622.096 257.074C622.57 256.799 623.1 256.69 623.573 256.43C624.573 255.88 625.783 255.738 626.804 255.215C627.183 255.02 627.55 254.8 627.928 254.606C628.653 254.235 628.875 254.291 629.092 255.099" stroke="#6F432E" stroke-width="5" stroke-linecap="round"/>
<path d="M631.877 280.929C631.831 279.517 632.052 278.139 631.965 276.742C631.946 276.482 630.509 274.778 630.097 275.143C629.982 275.245 629.412 275.269 629.246 275.308C628.69 275.439 627.991 275.587 627.427 275.616C625.599 275.708 623.857 276.529 622.043 276.621C619.524 276.749 617.096 277.443 614.592 277.626C613.685 277.692 612.522 277.509 612.323 278.682C612.184 279.504 612.317 280.166 612.907 280.795C613.395 281.316 614.251 281.389 614.874 281.682C615.555 282.002 616.365 282.059 617.083 282.307C618.259 282.715 619.278 283.333 620.557 283.379C622.06 283.433 623.364 283.919 624.668 284.64C625.791 285.26 627.319 285.011 628.538 285.151C629.052 285.21 630.774 285.521 630.979 284.842C631.107 284.415 631.18 283.972 631.283 283.526C631.342 283.271 631.513 282.965 631.608 282.714C631.824 282.142 631.898 281.543 631.877 280.929Z" fill="#6F432E"/>
<path d="M631.816 275.602C632.191 277.395 631.818 279.134 631.877 280.929C631.898 281.543 631.824 282.142 631.608 282.714C631.513 282.965 631.342 283.271 631.283 283.526C631.18 283.972 631.107 284.415 630.979 284.842C630.774 285.521 629.052 285.21 628.538 285.151C627.319 285.011 625.791 285.26 624.668 284.64C623.364 283.919 622.06 283.433 620.557 283.379C619.278 283.333 618.259 282.715 617.083 282.307C616.365 282.059 615.555 282.002 614.874 281.682C614.251 281.389 613.395 281.316 612.907 280.795C612.317 280.166 612.184 279.504 612.323 278.682C612.522 277.509 613.685 277.692 614.592 277.626C617.096 277.443 619.524 276.749 622.043 276.621C623.857 276.529 625.599 275.708 627.427 275.616C627.991 275.587 628.69 275.439 629.246 275.308C629.412 275.269 629.982 275.245 630.097 275.143C630.51 274.777 631.952 276.489 631.965 276.744" stroke="#6F432E" stroke-width="5" stroke-linecap="round"/>
<path d="M595.797 245.949C595.274 244.877 594.834 243.653 594.088 242.714C593.7 242.225 592.444 243.703 592.262 243.806C591.895 244.013 591.619 244.275 591.201 244.405C590.342 244.673 589.82 245.278 589.068 245.733C588.247 246.23 587.448 246.748 586.718 247.374C585.342 248.553 583.341 249.028 582.147 250.428C581.801 250.833 581.875 251.241 581.9 251.741C581.926 252.262 582.319 252.485 582.738 252.697C584.087 253.379 586.51 253.443 587.963 252.797C588.476 252.57 589.179 252.721 589.73 252.603C590.161 252.511 590.64 252.455 591.043 252.275C591.921 251.884 592.827 251.588 593.686 251.148C594.607 250.676 595.738 250.663 596.611 250.088C596.866 249.92 596.483 248.712 596.472 248.498C596.427 247.603 596.192 246.759 595.797 245.949Z" fill="#6F432E" stroke="#6F432E" stroke-width="5" stroke-linecap="round"/>
<path d="M564.123 257.742C563.759 256.908 563.595 255.921 563.359 255.04C563.159 254.686 567.584 253.628 567.894 253.555C568.852 253.331 569.918 253.107 570.825 252.727C571.817 252.312 572.767 251.949 573.848 251.894C575.097 251.831 576.236 252.068 575.592 253.536C575.201 254.429 574.31 255.274 573.563 255.88C573.074 256.277 572.719 256.959 572.253 257.41C571.68 257.965 570.951 258.354 570.359 258.865C569.806 259.341 569.229 259.765 568.687 260.256C568.069 260.817 567.398 261.544 566.641 261.922C566.179 262.153 565.163 260.184 565.042 259.82C564.922 259.461 564.634 259.193 564.516 258.848C564.388 258.472 564.283 258.108 564.123 257.742Z" fill="#6F432E" stroke="#6F432E" stroke-width="5" stroke-linecap="round"/>
<path d="M600.311 262.465C600.133 261.374 599.764 260.286 599.319 259.275C599.291 258.732 596.285 259.873 595.902 260.029C595.428 260.223 594.935 260.431 594.483 260.67C593.457 261.214 592.284 261.588 591.317 262.248C590.431 262.853 589.532 263.505 588.698 264.181C587.771 264.932 586.216 266.46 586.589 267.812C586.884 268.881 587.846 268.846 588.782 268.799L590.339 268.719C590.97 268.687 591.595 268.363 592.229 268.31C594.161 268.147 595.978 267.327 597.891 267.076C599.286 266.893 600.478 266.506 600.444 264.966C600.425 264.113 600.452 263.331 600.311 262.465Z" fill="#6F432E" stroke="#6F432E" stroke-width="5" stroke-linecap="round"/>
<path d="M569.144 273.245C568.8 272.637 568.408 272.062 567.959 271.529C567.856 271.406 569.517 271.378 569.702 271.312C570.511 271.027 571.324 270.84 572.11 270.482C573.673 269.769 575.568 268.634 577.319 268.545C577.864 268.517 580.659 268.205 580.126 269.291C579.782 269.993 579.571 270.966 578.909 271.495C578.405 271.898 577.878 272.358 577.432 272.824C576.975 273.302 576.399 273.683 576.04 274.231C575.701 274.747 574.748 275.135 574.246 275.495C573.654 275.919 573.069 276.322 572.506 276.791C572.189 277.054 571.627 277.856 571.386 277.149C571.15 276.458 570.753 275.903 570.397 275.272C570.006 274.581 569.537 273.941 569.144 273.245Z" fill="#6F432E" stroke="#6F432E" stroke-width="5" stroke-linecap="round"/>
<path d="M601.646 280.525C601.75 279.262 601.637 277.64 601.339 276.418C601.422 276.111 599.592 277.171 599.291 277.254C598.571 277.453 597.943 278.025 597.253 278.275C596.1 278.692 594.989 279.545 593.985 280.241C593.072 280.873 591.762 281.2 591.487 282.504C591.302 283.38 591.69 283.806 592.567 283.762C593.638 283.707 594.568 283.604 595.591 283.393C596.738 283.157 597.852 282.484 598.964 282.131C600.061 281.782 601.53 281.937 601.646 280.525Z" fill="#6F432E" stroke="#6F432E" stroke-width="5" stroke-linecap="round"/>
<path d="M577.789 289.018C577.035 287.913 576.128 286.911 575.273 285.894C575.05 285.796 576.603 285.124 576.745 285.035C577.18 284.764 577.974 284.899 578.476 284.709C579.818 284.201 581.459 283.699 582.892 283.626C583.551 283.592 585.91 283.37 585.377 284.754C585.14 285.369 585.255 286.186 584.774 286.718C584.035 287.536 583.046 288.24 582.388 289.133C582.206 289.38 581.85 289.828 581.537 289.861C580.99 289.918 580.444 290.004 579.897 290.049C579.424 290.088 579.425 290.286 579.116 290.553C578.709 290.903 578.469 290.674 578.42 290.228C578.382 289.885 578 289.327 577.798 289.03L577.789 289.018Z" fill="#6F432E" stroke="#6F432E" stroke-width="5" stroke-linecap="round"/>
<path d="M628.47 296.011C627.735 295.961 626.988 295.935 626.261 295.906C625.247 295.866 624.271 295.62 623.249 295.653C622.81 295.668 622.364 295.529 621.925 295.495C621.366 295.452 620.788 295.454 620.229 295.482C619.677 295.51 619.22 295.439 618.68 295.362C618.191 295.293 617.685 295.349 617.189 295.294C615.973 295.158 614.773 295.191 613.571 295.252C612.69 295.297 611.91 295.424 611.064 295.623C610.827 295.679 610.525 295.67 610.3 295.752C610.091 295.828 609.941 296.005 609.714 296.016C609.357 296.034 608.673 296.299 608.401 296.534C608.082 296.808 607.844 297.052 607.738 297.433C607.6 297.93 607.277 298.571 607.025 299.011C606.45 300.014 606.252 301.176 605.808 302.22C605.361 303.272 604.8 304.25 604.341 305.298C603.8 306.534 603.171 307.471 602.137 308.332C600.525 309.673 598.202 310.381 596.223 310.945C594.54 311.425 592.845 312.185 591.106 312.386C589.533 312.568 587.85 312.459 586.297 312.77C585.239 312.982 584.207 313.035 583.145 313.03C582.787 313.028 582.42 312.985 582.048 313.004C581.657 313.024 581.263 313.304 580.937 313.507C580.059 314.055 579.52 315.026 578.994 315.91C578.679 316.438 578.407 317.028 577.996 317.493C577.516 318.038 576.921 318.427 576.449 318.988C576.199 319.286 576.123 319.734 575.833 319.993C575.328 320.444 574.811 320.852 574.28 321.271L574.279 321.271C573.532 321.86 572.795 322.519 572.155 323.228C571.561 323.886 570.733 324.468 570.291 325.225C570.135 325.492 569.814 325.75 569.771 326.081C569.729 326.404 570.518 326.519 570.688 326.648C570.816 326.746 571.087 326.797 571.248 326.845C571.721 326.986 572.061 327.103 572.474 327.369C572.966 327.687 573.487 327.847 574.041 328.017L574.049 328.019C575.441 328.447 577.028 328.19 578.454 328.364C579.033 328.435 579.683 328.689 580.218 328.924C581.031 329.28 582.072 329.261 582.94 329.435C583.465 329.54 584.014 329.529 584.545 329.597C585.542 329.724 586.429 330.189 587.446 330.257C588.585 330.332 589.654 330.392 590.796 330.334C592.433 330.251 594.161 330.315 595.777 330.036C597.373 329.761 598.975 329.302 600.511 328.786C602.637 328.073 604.838 327.559 606.968 326.835C608.7 326.246 610.291 325.17 611.864 324.242C613.039 323.548 614.246 322.781 615.313 321.929C615.852 321.499 616.383 321.026 616.884 320.551C617.391 320.07 617.77 319.479 618.266 318.993C618.723 318.546 619.044 317.953 619.46 317.467C619.984 316.853 620.49 316.235 620.998 315.608C621.557 314.918 622.089 314.22 622.679 313.556C623.161 313.015 623.432 312.345 623.823 311.74C624.229 311.111 624.589 310.589 624.718 309.845C624.808 309.331 624.986 308.819 625.091 308.302C625.347 307.045 625.469 305.77 625.892 304.546C626.309 303.342 627.043 302.272 627.549 301.117C627.716 300.735 627.848 300.366 627.951 299.978C628.071 299.527 628.518 299.108 628.592 298.669C628.688 298.105 629.058 297.615 629.228 297.072C629.292 296.867 629.328 296.673 629.414 296.477C629.493 296.297 629.126 296.114 628.818 296.037C628.669 295.999 628.533 295.987 628.47 296.011Z" fill="#6F432E"/>
<path d="M629.277 296.078C628.289 295.98 627.256 295.946 626.261 295.906C625.247 295.866 624.271 295.62 623.249 295.653C622.81 295.668 622.364 295.529 621.925 295.495C621.366 295.452 620.788 295.454 620.229 295.482C619.677 295.51 619.22 295.439 618.68 295.362C618.191 295.293 617.685 295.349 617.189 295.294C615.973 295.158 614.773 295.191 613.571 295.252C612.69 295.297 611.91 295.424 611.064 295.623C610.827 295.679 610.525 295.67 610.3 295.752C610.091 295.828 609.941 296.005 609.714 296.016C609.357 296.034 608.673 296.299 608.401 296.534C608.082 296.808 607.844 297.052 607.738 297.433C607.6 297.93 607.277 298.571 607.025 299.011C606.45 300.014 606.252 301.176 605.808 302.22C605.361 303.272 604.8 304.25 604.341 305.298C603.8 306.534 603.171 307.471 602.137 308.332C600.525 309.673 598.202 310.381 596.223 310.945C594.54 311.425 592.845 312.185 591.106 312.386C589.533 312.568 587.85 312.459 586.297 312.77C585.239 312.982 584.207 313.035 583.145 313.03C582.787 313.028 582.42 312.985 582.048 313.004C581.657 313.024 581.263 313.304 580.937 313.507C580.059 314.055 579.52 315.026 578.994 315.91C578.679 316.438 578.407 317.028 577.996 317.493C577.516 318.038 576.921 318.427 576.449 318.988C576.199 319.286 576.123 319.734 575.833 319.993C575.327 320.444 574.81 320.852 574.279 321.271C573.532 321.86 572.795 322.519 572.155 323.228C571.561 323.886 570.733 324.468 570.291 325.225C570.135 325.492 569.814 325.75 569.771 326.081C569.729 326.404 570.518 326.519 570.688 326.648C570.816 326.746 571.087 326.797 571.248 326.845C571.721 326.986 572.061 327.103 572.474 327.369C572.969 327.688 573.492 327.849 574.049 328.019C575.441 328.447 577.028 328.19 578.454 328.364C579.033 328.435 579.683 328.689 580.218 328.924C581.031 329.28 582.072 329.261 582.94 329.435C583.465 329.54 584.014 329.529 584.545 329.597C585.542 329.724 586.429 330.189 587.446 330.257C588.585 330.332 589.654 330.392 590.796 330.334C592.433 330.251 594.161 330.315 595.777 330.036C597.373 329.761 598.975 329.302 600.511 328.786C602.637 328.073 604.838 327.559 606.968 326.835C608.7 326.246 610.291 325.17 611.864 324.242C613.039 323.548 614.246 322.781 615.313 321.929C615.852 321.499 616.383 321.026 616.884 320.551C617.391 320.07 617.77 319.479 618.266 318.993C618.723 318.546 619.044 317.953 619.46 317.467C619.984 316.853 620.49 316.235 620.998 315.608C621.557 314.918 622.089 314.22 622.679 313.556C623.161 313.015 623.432 312.345 623.823 311.74C624.229 311.111 624.589 310.589 624.718 309.845C624.808 309.331 624.986 308.819 625.091 308.302C625.347 307.045 625.469 305.77 625.892 304.546C626.309 303.342 627.043 302.272 627.549 301.117C627.716 300.735 627.848 300.366 627.951 299.978C628.071 299.527 628.518 299.108 628.592 298.669C628.688 298.105 629.058 297.615 629.228 297.072C629.292 296.867 629.328 296.673 629.414 296.477C629.558 296.148 628.22 295.813 628.463 296.119" stroke="#6F432E" stroke-width="5" stroke-linecap="round"/>
<path d="M600.736 291.846C599.847 293.152 599.545 294.874 598.479 296.055C597.737 296.876 596.924 298.028 595.649 297.862C595.426 297.833 595.22 297.677 595.06 297.531C594.816 297.311 594.851 297.11 594.723 296.858C594.393 296.207 595.018 295.5 595.424 295.037C596.059 294.315 596.735 293.785 597.515 293.227C598.084 292.819 598.988 292.584 599.449 292.073" stroke="#6F432E" stroke-width="5" stroke-linecap="round"/>
<path d="M584.742 299.063C584.474 299.025 584.438 298.891 584.742 299.063C584.745 299.063 584.749 299.064 584.753 299.064C585.06 299.104 585.257 299.214 585.541 299.308C585.624 299.336 585.708 299.36 585.794 299.381C586.565 299.567 587.452 299.5 588.218 299.461C588.887 299.427 589.551 299.559 590.207 299.378C590.418 299.32 591.131 299.049 590.92 298.675C590.643 298.186 589.572 298.337 589.136 298.359C588.298 298.402 587.384 298.554 586.658 299.013C586.406 299.172 586.098 299.306 585.794 299.381C585.708 299.36 585.624 299.336 585.541 299.308C585.257 299.214 585.06 299.104 584.753 299.064C584.749 299.064 584.745 299.063 584.742 299.063Z" fill="#6F432E"/>
<path d="M584.874 299.144C584.427 298.852 584.441 299.024 584.753 299.064C585.06 299.104 585.257 299.214 585.541 299.308C586.365 299.582 587.366 299.504 588.218 299.461C588.887 299.427 589.551 299.559 590.207 299.378C590.418 299.32 591.131 299.049 590.92 298.675C590.643 298.186 589.572 298.337 589.136 298.359C588.298 298.402 587.384 298.554 586.658 299.013C586.294 299.242 585.812 299.421 585.394 299.442C585.038 299.46 583.967 299.515 584.324 299.497" stroke="#6F432E" stroke-width="5" stroke-linecap="round"/>
<path d="M572.536 301.086C572.535 300.037 571.566 299.609 570.683 299.729C570.389 300.223 569.596 299.747 569.042 299.837C567.994 300.008 566.42 300.397 565.619 301.148C563.51 303.124 561.08 304.677 559.104 306.802C558.641 307.3 558.067 307.702 557.632 308.244C557.143 308.854 556.648 309.502 556.067 310.025C555.145 310.855 553.985 311.765 553.438 312.88C553.184 313.397 553.794 314.367 554.124 314.731C554.673 315.336 555.264 315.744 555.755 316.436C556.544 317.547 557.901 318.111 559.005 318.834C559.725 319.305 560.52 320.364 561.142 319.501C561.283 319.305 561.372 318.766 561.472 318.505C561.694 317.928 562.223 317.519 562.512 316.987C563.161 315.793 564.117 314.51 564.996 313.476C565.445 312.947 565.757 311.997 566.051 311.352C566.418 310.547 566.756 309.744 567.111 308.932C567.869 307.203 568.845 305.329 570.103 303.904C570.549 303.399 570.91 302.909 571.423 302.47C571.777 302.167 572.536 301.589 572.536 301.086Z" fill="#6F432E"/>
<path d="M570.458 299.772C571.391 299.54 572.535 299.947 572.536 301.086C572.536 301.589 571.777 302.167 571.423 302.47C570.91 302.909 570.549 303.399 570.103 303.904C568.845 305.329 567.869 307.203 567.111 308.932C566.756 309.744 566.418 310.547 566.051 311.352C565.757 311.997 565.445 312.947 564.996 313.476C564.117 314.51 563.161 315.793 562.512 316.987C562.223 317.519 561.694 317.928 561.472 318.505C561.372 318.766 561.283 319.305 561.142 319.501C560.52 320.364 559.725 319.305 559.005 318.834C557.901 318.111 556.544 317.547 555.755 316.436C555.264 315.744 554.673 315.336 554.124 314.731C553.794 314.367 553.184 313.397 553.438 312.88C553.985 311.765 555.145 310.855 556.067 310.025C556.648 309.502 557.143 308.854 557.632 308.244C558.067 307.702 558.641 307.3 559.104 306.802C561.08 304.677 563.51 303.124 565.619 301.148C566.42 300.397 567.994 300.008 569.042 299.837C569.596 299.747 570.389 300.223 570.683 299.729" stroke="#6F432E" stroke-width="5" stroke-linecap="round"/>
<path d="M562.009 284.601C561.995 284.547 561.976 284.495 561.949 284.446C561.651 283.658 561.393 282.843 560.728 282.877C559.418 282.943 558.208 282.779 556.957 283.16C556.189 283.394 555.555 283.81 554.883 284.238C554.127 284.72 553.577 285.614 552.749 285.977C551.596 286.482 550.363 287.113 549.263 287.718C548.746 288.002 548.097 288.471 547.692 288.888C547.023 289.58 546.257 290.064 545.508 290.655C545.053 291.015 544.251 291.785 543.679 291.905C543.216 292.002 543.695 292.555 543.815 292.779C545.173 295.305 545.807 297.99 546.56 300.749C546.654 301.096 547.341 304.217 547.795 304.111C548.616 303.918 549.024 302.674 549.521 302.124C550.531 301.006 551.538 299.905 552.546 298.789C553.372 297.874 554.117 296.925 554.948 296.006C556.76 293.999 557.714 291.417 559.413 289.325C560.305 288.226 561.007 286.879 561.751 285.671C561.923 285.391 562.097 284.954 562.009 284.601Z" fill="#6F432E"/>
<path d="M560.652 283.709C561.309 283.887 561.592 283.871 561.93 284.413C562.162 284.784 561.955 285.338 561.751 285.671C561.007 286.879 560.305 288.226 559.413 289.325C557.714 291.417 556.76 293.999 554.948 296.006C554.117 296.925 553.372 297.874 552.546 298.789C551.538 299.905 550.531 301.006 549.521 302.124C549.024 302.674 548.616 303.918 547.795 304.111C547.341 304.217 546.654 301.096 546.56 300.749C545.807 297.99 545.173 295.305 543.815 292.779C543.695 292.555 543.216 292.002 543.679 291.905C544.251 291.785 545.053 291.015 545.508 290.655C546.257 290.064 547.023 289.58 547.692 288.888C548.097 288.471 548.746 288.002 549.263 287.718C550.363 287.113 551.596 286.482 552.749 285.977C553.577 285.614 554.127 284.72 554.883 284.238C555.555 283.81 556.189 283.394 556.957 283.16C558.208 282.779 559.418 282.943 560.728 282.877C561.437 282.841 561.684 283.769 562.009 284.601" stroke="#6F432E" stroke-width="5" stroke-linecap="round"/>
<path d="M555.822 260.821C555.475 259.999 554.492 260.024 553.72 259.834C553.471 259.665 551.838 259.742 551.509 259.863C550.112 260.379 548.686 260.875 547.234 261.23C545.89 261.559 544.525 261.895 543.239 262.419C541.963 262.94 540.845 263.837 539.555 264.288C538.976 264.491 538.981 264.628 539.011 265.223L539.116 267.288C539.171 268.363 539.189 269.571 539.43 270.617C539.711 271.834 539.891 273.218 539.954 274.468C540.061 276.581 540.286 278.67 540.393 280.781C540.426 281.432 540.407 282.747 541.331 281.91C542.177 281.143 542.864 280.196 543.881 279.592C545.328 278.732 546.536 277.277 547.657 276.035C548.311 275.312 549.074 274.678 549.747 273.971C550.558 273.12 551.141 272.26 551.834 271.315C552.879 269.891 553.724 268.349 554.644 266.854C555.356 265.696 555.781 264.479 556.208 263.233C556.462 262.489 556.112 261.506 555.822 260.821Z" fill="#6F432E"/>
<path d="M553.642 259.814C554.425 260.026 555.464 259.971 555.822 260.821C556.112 261.506 556.462 262.489 556.208 263.233C555.781 264.479 555.356 265.696 554.644 266.854C553.724 268.349 552.879 269.891 551.834 271.315C551.141 272.26 550.558 273.12 549.747 273.971C549.074 274.678 548.311 275.312 547.657 276.035C546.536 277.277 545.328 278.732 543.881 279.592C542.864 280.196 542.177 281.143 541.331 281.91C540.407 282.747 540.426 281.432 540.393 280.781C540.286 278.67 540.061 276.581 539.954 274.468C539.891 273.218 539.711 271.834 539.43 270.617C539.189 269.571 539.171 268.363 539.116 267.288C539.081 266.6 539.046 265.911 539.011 265.223C538.981 264.628 538.976 264.491 539.555 264.288C540.845 263.837 541.963 262.94 543.239 262.419C544.525 261.895 545.89 261.559 547.234 261.23C548.686 260.875 550.112 260.379 551.509 259.863C551.838 259.742 553.471 259.665 553.72 259.834" stroke="#6F432E" stroke-width="5" stroke-linecap="round"/>
<path d="M593.968 116.929C594.152 115.08 594.277 113.035 593.887 111.202C594.138 110.405 592.502 113.012 592.391 113.177C592.042 113.695 591.346 114.211 590.86 114.616C589.453 115.787 588.283 117.222 586.668 118.134C585.307 118.904 584.283 120.463 583.244 121.614C582.246 122.719 581.587 124.084 580.518 125.137C579.449 126.189 578.881 127.361 578.402 128.76C577.945 130.095 576.936 131.872 577.879 133.216C578.554 134.18 579.714 134.34 580.574 135.038C581.358 135.675 582.537 135.312 583.388 135.066C584.472 134.752 585.853 134.914 586.985 134.857C588.514 134.779 590.439 134.963 591.879 134.431C593.088 133.985 594.292 133.527 595.545 133.233C596.387 133.035 596.462 132.172 596.042 131.499C595.878 131.236 595.964 130.8 595.932 130.499C595.878 129.996 595.729 129.437 595.642 128.923C595.558 128.427 595.68 127.777 595.507 127.3C595.246 126.583 595.129 125.715 595.059 124.957C594.925 123.496 594.275 122.227 594.046 120.802C593.852 119.591 593.846 118.153 593.968 116.929Z" fill="#6F432E" stroke="#6F432E" stroke-width="5" stroke-linecap="round"/>
<path d="M601.804 148.3C601.741 146.36 601.74 144.316 601.386 142.406C601.589 142.066 599.616 143.037 599.473 143.161C599.021 143.551 598.352 143.878 597.822 144.178C596.619 144.858 595.66 146.006 594.408 146.572C593.847 146.826 593.347 147.4 592.77 147.576C592.176 147.757 591.585 148.217 591.058 148.55C590.146 149.126 589.354 149.877 588.434 150.458C588.063 150.692 587.762 151.142 587.38 151.306C586.864 151.528 586.288 151.975 585.827 152.305C585.012 152.889 583.598 153.882 583.458 154.962C583.263 156.467 583.697 158.16 585.265 158.577C586.296 158.852 587.28 159.267 588.299 159.573C589.511 159.938 590.695 159.984 591.942 160.131C593.417 160.305 594.848 160.483 596.333 160.407C597.235 160.362 598.143 160.434 599.053 160.388C600.028 160.338 601.066 160.311 602.017 160.526C602.552 160.647 603.392 160.936 603.356 160.235C603.331 159.729 603.321 159.247 603.189 158.758C603.01 158.094 602.908 157.435 602.708 156.778C602.487 156.055 602.275 155.331 602.071 154.602C601.783 153.57 601.89 152.327 601.836 151.256C601.785 150.265 601.836 149.283 601.804 148.3Z" fill="#6F432E" stroke="#6F432E" stroke-width="5" stroke-linecap="round"/>
<path d="M549.845 150.61C548.62 147.474 547.092 144.493 545.863 141.352C545.945 141.195 546.606 141.589 546.816 141.681C548.231 142.301 549.629 143.244 550.953 144.073C553.556 145.706 556.18 147.288 558.939 148.643C559.422 148.88 559.954 148.929 560.466 149.071C561.32 149.309 562.12 149.725 562.97 149.97C563.925 150.244 564.861 150.808 565.821 150.981C566.595 151.122 567.78 151.488 568.457 151.906C569.442 152.513 570.402 153.459 571.182 154.324C571.577 154.761 571.92 155.085 572.187 155.607C572.679 156.567 572.351 157.181 571.779 157.921C571.25 158.606 569.653 158.687 568.89 158.725L568.856 158.727C567.498 158.796 566.132 158.773 564.832 158.695C563.151 158.594 561.49 157.74 559.791 157.768C559.35 157.775 558.75 157.672 558.327 157.54C557.411 157.254 556.444 156.966 555.54 156.63C554.501 156.244 553.404 156.001 552.379 155.601C551.809 155.378 551.723 155.381 551.505 154.823C550.955 153.415 550.395 152.018 549.845 150.61Z" fill="#6F432E"/>
<path d="M545.851 141.323C547.082 144.474 548.616 147.464 549.845 150.61C550.396 152.018 550.955 153.415 551.505 154.823C551.723 155.381 551.809 155.378 552.379 155.601C553.404 156.001 554.501 156.244 555.54 156.63C556.444 156.966 557.411 157.254 558.327 157.54C558.75 157.672 559.35 157.775 559.791 157.768C561.49 157.74 563.151 158.594 564.832 158.695C566.132 158.773 567.498 158.796 568.856 158.727C569.604 158.689 571.242 158.616 571.779 157.921C572.351 157.181 572.679 156.567 572.187 155.607C571.92 155.085 571.577 154.761 571.182 154.324C570.402 153.459 569.442 152.513 568.457 151.906C567.78 151.488 566.595 151.122 565.821 150.981C564.861 150.808 563.925 150.244 562.97 149.97C562.12 149.725 561.32 149.309 560.466 149.071C559.954 148.929 559.422 148.88 558.939 148.643C556.18 147.288 553.556 145.706 550.953 144.073C549.629 143.244 548.231 142.301 546.816 141.681C546.536 141.559 545.457 140.899 546.009 141.722" stroke="#6F432E" stroke-width="5" stroke-linecap="round"/>
<path d="M568.633 151.996C568.57 151.161 567.957 150.846 567.255 150.502C566.322 150.043 565.405 149.499 564.466 149.013C562.348 147.918 559.921 147.274 557.679 146.466C556.796 146.148 555.998 145.619 555.158 145.227C554.477 144.91 553.766 144.661 553.095 144.327C552.207 143.885 551.142 143.598 550.196 143.284C549.639 143.1 548.902 143.026 548.407 142.731" stroke="#6F432E" stroke-width="5" stroke-linecap="round"/>
<path d="M540.216 147.353C539.444 145.581 538.273 141.178 538.299 141.706C537.139 144.355 535.776 148.457 534.423 151.038C534.018 151.81 533.665 152.574 533.211 153.321C532.64 154.26 532.297 155.292 531.762 156.24C531.306 157.049 531.116 157.991 530.65 158.801C530.157 159.657 530.122 160.545 529.778 161.428C529.075 163.23 528.72 165.052 528.818 166.977C528.889 168.38 528.824 170.103 529.54 171.37C530.13 172.413 531.066 172.712 532.182 172.655C533.126 172.608 534.543 172.117 535.258 171.5C536.195 170.692 537.207 169.889 538.053 168.953C538.81 168.115 539.268 167.291 539.723 166.253C540.731 163.952 542.13 161.719 543.315 159.459C543.663 158.794 543.943 157.998 544.177 157.286C544.346 156.772 544.135 156.701 544.013 156.262C543.682 155.061 543.149 153.899 542.703 152.721C542.012 150.894 540.998 149.147 540.216 147.353Z" fill="#6F432E" stroke="#6F432E" stroke-width="5" stroke-linecap="round"/>
<path d="M537.85 124.051C537.442 122.366 536.51 120.229 535.54 118.807C535.525 118.505 537 119.663 537.247 119.816C537.765 120.137 538.365 120.366 538.941 120.558C540.443 121.06 542.074 121.336 543.607 121.727C546.188 122.387 548.873 122.615 551.451 123.353C552.721 123.717 553.933 123.913 555.249 123.989C555.785 124.019 556.344 123.963 556.871 124.084C557.546 124.239 558.196 124.717 558.799 125.05C560.034 125.732 561.198 126.603 561.79 127.915C562.219 128.865 562.503 129.498 561.857 130.396C561.683 130.638 560.704 130.88 560.416 131.001C559.916 131.212 559.399 131.415 558.866 131.54C558.229 131.69 557.482 131.624 556.834 131.656C556.412 131.678 555.93 131.764 555.509 131.697C554.489 131.537 553.517 131.594 552.532 131.31C551.85 131.113 551.174 130.934 550.493 130.769C549.992 130.648 549.465 130.728 548.95 130.664C548.047 130.55 547.199 130.623 546.317 130.324C545.606 130.083 544.704 130.146 543.953 130.089C543.106 130.025 541.522 130.325 540.855 129.655C540.356 129.155 540.132 128.417 539.61 127.918C538.689 127.036 538.136 125.234 537.85 124.051Z" fill="#6F432E" stroke="#6F432E" stroke-width="5" stroke-linecap="round"/>
<path d="M528.275 120.048C528.048 119.418 528.1 119.057 527.332 119.077C527.056 118.588 526.419 119.612 526.286 119.958C526.108 120.421 525.842 120.847 525.671 121.317C525.147 122.759 524.384 124.112 523.936 125.585C523.036 128.548 521.583 131.278 520.347 134.1C519.588 135.832 519.056 137.553 518.477 139.348C518.035 140.72 517.307 142.42 517.354 143.887C517.376 144.569 517.351 145.299 517.551 145.953C517.713 146.486 517.835 146.523 518.215 146.866C518.884 147.471 519.359 147.399 520.224 147.356C521.526 147.289 522.751 146.207 523.577 145.293C523.91 144.924 524.203 144.719 524.499 144.299C525.017 143.565 525.554 142.922 525.951 142.103C526.484 141.007 527.291 139.934 528.109 139.029C529.19 137.832 529.87 136.371 530.616 134.952C530.99 134.242 531.399 133.54 531.75 132.818C531.998 132.307 532.583 131.637 532.554 131.055C532.516 130.303 532.474 129.496 532.151 128.808C531.729 127.91 531.077 127.157 530.68 126.241C530.226 125.196 529.904 124.094 529.427 123.058C528.978 122.082 528.64 121.059 528.275 120.048Z" fill="#6F432E" stroke="#6F432E" stroke-width="5" stroke-linecap="round"/>
<path d="M493.186 162.359C492.584 161.794 492.587 160.948 492.758 159.987C492.367 159.878 494.754 159.655 495.02 159.637C496.587 159.529 498.136 159.159 499.695 159.044C500.738 158.968 501.702 158.388 502.733 158.299C503.312 158.249 503.871 158.004 504.458 157.975C504.964 157.949 505.492 157.966 505.992 157.89C507.836 157.611 509.605 157.557 511.478 157.612C512.882 157.652 514.077 157.758 515.282 158.49C517.088 159.586 516.192 161.864 515.564 163.385C515.34 163.927 514.824 164.278 514.357 164.596C513.702 165.042 513.199 165.614 512.677 166.193C511.858 167.099 510.565 168.06 509.503 168.661C507.09 170.024 504.69 171.31 502.48 172.98C502.122 173.251 501.91 173.717 501.686 173.145C501.554 172.806 501.312 172.512 501.189 172.152C500.8 171.013 499.711 169.957 498.999 169.017C498.326 168.128 497.695 167.165 496.938 166.348C496.237 165.592 495.409 164.898 494.779 164.085C494.301 163.469 493.754 162.89 493.186 162.359Z" fill="#6F432E" stroke="#6F432E" stroke-width="5" stroke-linecap="round"/>
<path d="M506.254 182.368C506.246 182.36 506.238 182.353 506.23 182.345C506.074 182.467 505.996 182.534 506.254 182.368C506.909 183.009 507.435 184.965 507.891 185.724C508.278 186.368 508.848 186.886 509.219 187.543C509.86 188.677 510.497 189.832 511.051 191.012C511.275 191.489 511.388 192.036 511.685 192.478C511.969 192.902 512.415 193.279 512.642 193.731C512.832 194.11 513.93 193.133 514.166 192.944C514.634 192.569 515.095 192.269 515.601 191.951C516.213 191.566 516.666 191.047 517.249 190.625C518.341 189.834 519.498 188.814 520.405 187.81C521.273 186.849 522.15 185.934 523.015 184.976C523.618 184.309 524.058 183.224 524.422 182.394C524.978 181.125 525.72 179.019 524.646 177.888C523.813 177.01 522.992 176.504 521.752 176.405C520.267 176.286 519.198 176.736 517.925 177.401C517.075 177.845 515.994 178.081 515.083 178.38C514.455 178.586 513.916 179.015 513.293 179.24C512.629 179.479 511.985 179.798 511.316 180.043C510.042 180.511 508.741 180.804 507.551 181.477C507.096 181.734 506.727 182.061 506.293 182.342C506.279 182.351 506.266 182.36 506.254 182.368Z" fill="#6F432E"/>
<path d="M506.23 182.345C506.897 182.962 507.43 184.956 507.891 185.724C508.278 186.368 508.848 186.886 509.219 187.543C509.86 188.677 510.497 189.832 511.051 191.012C511.275 191.489 511.388 192.036 511.685 192.478C511.969 192.902 512.415 193.279 512.642 193.731C512.832 194.11 513.93 193.133 514.166 192.944C514.634 192.569 515.095 192.269 515.601 191.951C516.213 191.566 516.666 191.047 517.249 190.625C518.341 189.834 519.498 188.814 520.405 187.81C521.273 186.849 522.15 185.934 523.015 184.976C523.618 184.309 524.058 183.224 524.422 182.394C524.978 181.125 525.72 179.019 524.646 177.888C523.813 177.01 522.992 176.504 521.752 176.405C520.267 176.286 519.198 176.736 517.925 177.401C517.075 177.845 515.994 178.081 515.083 178.38C514.455 178.586 513.916 179.015 513.293 179.24C512.629 179.479 511.985 179.798 511.316 180.043C510.042 180.511 508.741 180.804 507.551 181.477C507.096 181.734 506.727 182.061 506.293 182.342C505.827 182.645 506.257 182.328 506.519 182.12" stroke="#6F432E" stroke-width="5" stroke-linecap="round"/>
<path d="M477.357 137.827C476.317 136.392 475.386 134.836 474.238 133.484C473.897 133.082 476.982 133.463 478.079 133.407C478.773 133.372 479.593 133.368 480.273 133.506C480.882 133.63 481.565 133.922 482.186 133.908C483.277 133.884 484.352 134.301 485.46 134.327C486.593 134.353 487.751 134.217 488.882 134.16C490.47 134.079 491.783 134.33 493.256 134.74C494.035 134.956 494.829 135.134 495.623 135.29C496.727 135.507 497.867 135.594 498.953 135.896C499.962 136.176 500.949 136.344 501.938 136.691C502.64 136.938 503.22 137.507 503.753 138.018C504.905 139.122 504.771 142.308 503.363 143.269C502.359 143.955 501.57 144.996 500.581 145.698C499.755 146.285 498.74 146.856 497.764 147.168C496.863 147.457 495.913 147.788 494.977 147.921C494.066 148.051 493.232 148.567 492.348 148.83C491.337 149.131 490.303 149.408 489.282 149.663C488.38 149.887 487.485 149.923 486.589 150.22C485.061 150.726 484.41 148.823 483.598 147.861C482.393 146.436 481.154 144.793 480.519 143.01C479.837 141.095 478.532 139.449 477.357 137.827Z" fill="#6F432E" stroke="#6F432E" stroke-width="5" stroke-linecap="round"/>
<path d="M520.766 105.097C520.201 103.602 519.359 102.221 518.828 100.7C518.451 99.6213 516.569 103.615 515.945 104.487C515.158 105.587 514.39 106.69 513.656 107.824C512.803 109.14 512.538 110.813 511.815 112.202C511.16 113.46 510.199 114.458 509.385 115.612C508.536 116.816 507.329 118.156 507.375 119.762C507.417 121.25 507.17 122.709 507.246 124.211C507.295 125.177 507.708 126.023 508.678 126.268C508.882 126.32 509.096 126.248 509.302 126.269C509.577 126.297 509.792 126.466 510.081 126.46C510.428 126.452 510.866 126.489 511.201 126.396C512.165 126.13 513.018 125.076 513.587 124.33C514.183 123.549 514.836 122.83 515.355 121.992C515.959 121.017 516.341 120.153 517.117 119.294C518.125 118.178 519.198 116.716 519.869 115.375C520.04 115.032 520.281 114.736 520.47 114.405C520.702 113.999 520.767 113.534 520.997 113.129C521.428 112.369 521.612 111.312 521.927 110.48C522.14 109.917 522.614 109.447 522.318 108.863C522.226 108.681 522.118 108.094 521.978 107.993C521.857 107.905 521.553 107.061 521.515 106.899C521.362 106.247 521.001 105.716 520.766 105.097Z" fill="#6F432E" stroke="#6F432E" stroke-width="5" stroke-linecap="round"/>
<path d="M530.738 106.943C529.793 104.178 528.195 101.648 527.021 98.9825C526.322 98.1645 530.821 100.374 531.854 100.88L531.876 100.892C532.541 101.218 533.254 101.434 533.959 101.653C534.557 101.84 535.111 102.192 535.718 102.385C537.309 102.892 538.958 103.23 540.568 103.677C541.518 103.941 542.484 104.091 543.445 104.3C544.001 104.421 544.548 104.744 545.094 104.926C545.801 105.162 546.544 105.429 547.183 105.825C547.697 106.144 548.009 106.428 548.633 106.547C549.471 106.706 550.307 106.891 551.148 107.037C551.928 107.172 552.373 107.426 553.06 107.818L553.075 107.826C553.645 108.152 554.333 108.443 554.392 109.186C554.417 109.502 554.532 110.006 554.275 110.25C553.619 110.873 553.233 110.901 552.3 110.948C550.943 111.017 549.581 110.968 548.217 111.037C547.227 111.087 546.076 111.209 545.12 110.892C543.832 110.465 542.321 110.629 540.987 110.51C539.237 110.355 537.365 110.252 535.698 109.635C534.461 109.178 533.258 108.666 532.097 108.096C531.766 107.934 531.6 107.565 531.291 107.349C531.092 107.21 530.827 107.206 530.738 106.943Z" fill="#6F432E" stroke="#6F432E" stroke-width="5" stroke-linecap="round"/>
<path d="M517.018 76.1865C516.465 75.5037 516.976 75.3531 517.504 74.6239C517.469 73.9349 522.446 76.0375 525.041 76.548C525.995 76.7357 526.96 77.239 527.838 77.6481C528.804 78.0985 529.827 78.3125 530.775 78.8002C532.234 79.5512 534.073 80.2646 535.179 81.534C535.575 81.9894 536.259 82.3388 536.832 82.5147C537.479 82.7135 538.167 83.22 538.777 83.5398C539.451 83.8931 540.07 84.3288 540.734 84.6825L540.744 84.6878C541.2 84.9306 541.98 85.3464 542.263 85.7944C542.532 86.2207 542.818 86.6637 543.04 87.1154C543.297 87.6408 543.137 87.8767 543.164 88.3972C543.207 89.2535 541.194 89.2727 540.594 89.3031L535.258 89.5741C534.484 89.6134 533.765 89.4962 533.012 89.3333C532.181 89.1538 531.253 89.3043 530.41 89.3471C528.526 89.4427 526.65 89.6563 524.778 89.7513C523.796 89.8012 522.978 90.1435 522.39 89.3074C521.877 88.5781 521.553 87.7198 521.088 86.955C520.344 85.7332 520.249 84.4314 519.971 83.0817C519.631 81.4331 519.339 80.0336 518.53 78.5282C518.071 77.6729 517.64 76.9533 517.018 76.1865Z" fill="#6F432E" stroke="#6F432E" stroke-width="5" stroke-linecap="round"/>
<path d="M509.132 82.1461C508.687 81.3587 508.393 79.4543 507.944 79.7222C506.237 80.9569 504.151 83.6074 503.049 85.8329C502.236 87.4764 501.69 89.085 501.174 90.8308C500.957 91.565 500.554 92.2265 500.282 92.9397C500.04 93.5764 499.95 94.1911 499.6 94.7882C499 95.8153 498.559 97.5722 498.619 98.7681C498.682 100.006 498.826 101.095 499.152 102.277C499.373 103.077 500.138 103.744 500.922 104.001C501.958 104.34 502.786 103.936 503.845 103.826C504.796 103.727 505.767 102.836 506.301 102.111C506.977 101.193 508.024 100.591 508.537 99.5592C508.958 98.7138 509.715 97.6822 510.456 97.1024C511.29 96.4504 511.889 94.7565 512.327 93.8134C512.579 93.2709 513.075 92.808 513.462 92.3625C513.772 92.0057 513.619 91.7065 513.499 91.2697C513.229 90.2916 512.455 89.5097 512.175 88.4978C511.97 87.7556 511.775 86.9772 511.419 86.2951C511.059 85.6037 510.605 84.9342 510.302 84.216C509.997 83.4957 509.518 82.8302 509.132 82.1461Z" fill="#6F432E" stroke="#6F432E" stroke-width="5" stroke-linecap="round"/>
<path d="M504.852 53.9069C503.878 52.6375 503.835 52.1434 504.168 51.8432C504.844 51.3407 505.57 52.2337 506.093 52.582C507.012 53.1953 508.042 53.8924 509.071 54.2841C509.525 54.457 509.849 54.7496 510.195 55.0617C510.445 55.2874 510.868 55.2961 511.15 55.493C511.993 56.0829 512.89 56.4777 513.853 56.8278C515.15 57.2995 516.303 58.0839 517.607 58.53C518.698 58.9035 519.751 59.407 520.768 59.9599C521.772 60.5054 522.401 61.0587 522.957 62.0437C523.235 62.5347 523.371 63.6009 523.028 64.0775C522.817 64.3694 523.028 64.5244 522.552 64.5485C521.92 64.5806 521.306 64.7301 520.67 64.7624C519.383 64.8277 518.142 64.4176 516.838 64.4838C515.238 64.565 513.657 64.1721 512.068 64.2528C511.569 64.2781 510.301 64.4345 510.005 63.8844C509.847 63.59 509.674 63.234 509.434 62.9933C509.19 62.7484 509.223 62.4552 509.063 62.1577C508.464 61.0389 507.926 59.7608 507.462 58.5719C506.833 56.9629 505.908 55.2823 504.852 53.9069Z" fill="#6F432E" stroke="#6F432E" stroke-width="5" stroke-linecap="round"/>
<path d="M496.656 58.2933C496.394 57.0815 496.349 54.5356 496.143 54.6522C495.577 54.9717 494.689 57.9841 494.679 58.5645C494.658 59.711 494.208 60.8136 494.267 61.9635C494.355 63.706 493.658 65.3501 493.487 67.0635C493.355 68.3846 493.028 69.7779 493.075 71.1065C493.129 72.6619 492.782 75.3337 494.228 76.3449C495.242 77.0541 496.764 75.663 497.67 75.2698C498.724 74.8122 499.359 73.5238 500.109 72.6946C500.595 72.1563 501.837 71.2762 501.795 70.4534C501.769 69.9389 501.344 69.3954 501.069 68.959C500.657 68.3072 500.178 67.6863 499.793 67.0061C498.822 65.2869 498.072 63.3249 497.461 61.4464C497.123 60.4094 496.887 59.3592 496.656 58.2933Z" fill="#6F432E" stroke="#6F432E" stroke-width="5" stroke-linecap="round"/>
<path d="M466.596 108.768C465.964 107.395 465.202 105.917 464.376 104.648C463.931 103.966 468.009 105.762 468.462 105.913C469.603 106.291 470.85 106.912 472.065 106.978C473.354 107.048 474.725 107.72 475.963 108.029C477.856 108.502 479.798 108.927 481.635 109.594C482.74 109.996 483.69 110.45 484.858 110.679C486.158 110.935 487.007 111.495 488.175 112.069C489.531 112.734 492.047 113.892 492.262 115.679C492.376 116.624 492.53 117.749 491.988 118.572C491.327 119.577 490.008 120.256 488.837 120.447C487.167 120.719 485.458 121.035 483.798 121.38C481.866 121.781 479.813 121.727 477.846 121.827C476.326 121.904 474.798 121.863 473.271 121.941C472.837 121.963 472.391 122.102 472.081 121.791C471.807 121.515 471.7 121.133 471.524 120.794C470.997 119.774 470.421 118.661 469.975 117.586C469.448 116.318 469.117 114.949 468.677 113.643C468.348 112.666 468.116 111.632 467.706 110.696C467.401 110 466.909 109.447 466.596 108.768Z" fill="#6F432E" stroke="#6F432E" stroke-width="5" stroke-linecap="round"/>
<path d="M461.954 88.3868C460.81 85.8526 461.569 82.77 461 80.0954C460.801 79.1585 463.758 81.6875 464.19 81.8262C465.504 82.2479 466.8 82.4069 468.138 82.6904C469.845 83.0522 471.67 83.0792 473.337 83.6094C475.058 84.1571 476.732 84.6107 478.494 85.0036C481.073 85.5786 485.237 86.8108 485.399 90.0026C485.506 92.111 482.062 92.6594 480.642 92.9978C479.034 93.3808 477.496 93.6899 475.831 93.7744C474.143 93.8601 472.357 93.8483 470.666 93.7935C469.221 93.7466 467.777 93.4633 466.343 93.4216C466.119 93.415 463.153 93.623 463.101 93.5204C462.762 92.8508 462.663 91.8685 462.625 91.1327C462.578 90.2012 462.339 89.2418 461.954 88.3868Z" fill="#6F432E" stroke="#6F432E" stroke-width="5" stroke-linecap="round"/>
<path d="M583.412 84.2895C582.42 82.3036 580.703 80.7145 580.163 78.5397C580.13 77.9018 578.818 79.9419 578.477 80.2815C577.857 80.8988 577.105 81.5482 576.434 82.1071C575.509 82.8772 574.725 83.7991 573.784 84.5418C572.822 85.3003 571.883 86.2443 571.044 87.1388C570.331 87.8986 569.717 89.0321 569.295 89.9747C568.747 91.1999 568.344 92.561 567.685 93.7237C566.767 95.3411 565.979 97.4124 566.075 99.2996C566.117 100.135 566.268 100.994 566.465 101.803C566.602 102.365 566.776 102.963 567.17 103.397C567.91 104.214 567.954 105.354 569.011 105.867C570.101 106.397 571.251 106.91 572.485 106.847C573.065 106.818 573.607 106.672 574.19 106.642C574.768 106.613 575.554 106.518 576.106 106.335C576.705 106.136 577.47 106.027 578.099 105.971C578.685 105.918 579.221 105.441 579.812 105.411C580.367 105.382 581.052 104.976 581.604 104.846L581.656 104.834C582.211 104.704 582.866 104.55 583.364 104.31C585.949 103.064 588.989 102.224 590.98 100.02C591.499 99.4449 589.738 96.9892 589.587 96.3905C589.131 94.5912 587.907 93.0514 587.291 91.3086C587.084 90.7229 586.618 90.1762 586.312 89.6364C585.931 88.9607 585.611 88.228 585.259 87.5343C584.696 86.4218 583.971 85.4084 583.412 84.2895Z" fill="#6F432E" stroke="#6F432E" stroke-width="5" stroke-linecap="round"/>
<path d="M568.434 63.0469C566.044 60.0679 563.877 56.8794 561.406 53.9401C561.304 53.818 559.712 56.4391 559.308 56.8857C558.64 57.6255 557.865 58.2432 557.317 59.0899C556.57 60.2446 556.021 61.3152 555.551 62.6101C555.072 63.9281 554.578 65.1346 553.82 66.3192C553.305 67.1244 552.782 67.9793 552.351 68.832C551.436 70.64 551.45 72.6692 551.344 74.627C551.234 76.6509 551.639 80.3919 553.942 81.146C555.867 81.7764 557.757 81.1503 559.69 80.703C561.133 80.3688 562.757 80.0349 563.96 79.1257C565.211 78.1813 566.14 76.7443 567.11 75.5352C568.064 74.3456 569.031 73.1882 570.069 72.0727C570.654 71.444 571.352 70.9373 571.938 70.3216C572.275 69.9679 573.541 69.2601 573.512 68.7039C573.475 67.9574 572.458 67.1964 571.991 66.7044C570.833 65.4838 569.49 64.3627 568.434 63.0469Z" fill="#6F432E" stroke="#6F432E" stroke-width="5" stroke-linecap="round"/>
<path d="M545.808 40.3C544.888 39.4685 544.136 38.8288 542.987 38.3139C542.44 38.0689 542.173 38.9469 542.059 39.1891C541.575 40.211 541.085 41.1804 540.676 42.243C539.829 44.4425 538.311 46.2701 537.24 48.352C535.675 51.3916 533.859 54.2462 534.039 57.7876C534.094 58.8763 534.539 59.9536 535.37 60.7037C536.015 61.2867 536.778 61.2236 537.583 61.1828C538.505 61.1359 539.39 60.8959 540.207 60.458C540.984 60.0417 541.611 59.4223 542.38 58.9873C543.591 58.303 544.287 57.1884 545.195 56.1827C546.196 55.0754 547.329 54.0001 548.438 52.995C549.614 51.9288 550.536 50.5543 551.347 49.1932C551.809 48.4165 552.325 47.6373 552.738 46.8355C552.931 46.463 552.855 46.3284 552.55 46.109C551.978 45.6965 551.46 45.0674 550.922 44.5815C550.493 44.1942 550.017 43.893 549.531 43.5941C549.117 43.3395 548.849 42.8335 548.496 42.5031C548.02 42.0565 547.614 41.4099 547.056 41.0646C546.657 40.8171 546.148 40.6067 545.808 40.3Z" fill="#6F432E" stroke="#6F432E" stroke-width="5" stroke-linecap="round"/>
<path d="M526.142 39.7346C529.199 37.4532 532.314 35.2693 535.129 32.68C536.556 31.9415 532.533 31.3733 532.335 31.1066C531.85 30.453 530.915 30.2883 530.232 29.945C529.414 29.5334 528.621 29.1362 527.781 28.7682C526.418 28.1711 524.992 27.8187 523.611 27.2843C521.816 26.5902 520.06 25.7792 518.216 25.2318C516.621 24.7582 515.031 24.1545 513.597 23.3107C512.361 22.5831 511.029 22.2955 509.668 21.9067C507.981 21.4247 506.209 21.0569 504.478 20.7769C501.076 20.2267 497.525 19.5755 494.069 19.6296C491.019 19.6774 487.67 21.234 485.186 22.9132C481.818 25.1897 479.337 28.3351 476.648 31.3119L476.557 31.4126C475.431 32.6588 474.265 33.9494 473.344 35.3572C472.648 36.4221 471.972 37.4161 471.118 38.3619C470.022 39.5751 469.461 41.0258 468.737 42.4654C468.073 43.7831 467.435 45.0878 466.835 46.4394C466.279 47.6952 465.729 48.9811 465.135 50.2192C464.829 50.8554 464.629 51.5145 464.373 52.1704C464.223 52.5519 463.96 52.9287 463.9 53.3379C463.69 54.7545 463.552 56.0316 463.511 57.452C463.495 57.991 463.326 58.5084 463.269 59.0415C463.213 59.5742 463.292 60.0901 463.146 60.6185C462.958 61.293 462.589 62.0824 462.15 62.621C461.409 63.5303 461.062 65.0098 461.12 66.1564C461.149 66.7311 461.25 66.489 461.708 66.5997C462.369 66.7597 463.125 66.6198 463.803 66.5853C466.133 66.467 468.79 66.985 471.014 67.6388C473.398 68.3397 476.18 67.8496 478.648 67.7243C479.646 67.6736 480.422 66.7851 480.716 65.8711C481.245 64.2299 481.71 62.6962 482.033 60.9936C482.176 60.2411 482.19 59.3718 482.24 58.604C482.283 57.9382 482.095 57.2436 482.23 56.587C482.542 55.0696 482.713 53.4264 482.635 51.8806C482.56 50.4074 482.894 48.8101 483.542 47.4773C484.498 45.5069 485.845 44.0782 487.248 42.4324C488.884 40.5137 490.973 38.7165 493.268 37.6446C494.779 36.9391 496.128 36.5531 497.796 36.4684C499.008 36.4068 500.234 36.4867 501.447 36.5327C502.522 36.5735 503.564 36.8853 504.649 36.8302C505.531 36.7854 506.527 36.8277 507.402 36.9532C509.121 37.1998 510.965 37.9121 512.267 39.0459C513.792 40.3744 515.653 41.2647 517.059 42.6932C517.707 43.3517 518.921 43.1386 519.677 42.7508C521.771 41.6778 524.219 41.1698 526.142 39.7346Z" fill="#6F432E" stroke="#6F432E" stroke-width="5" stroke-linecap="round"/>
<path d="M534.887 32.5745C534.84 31.6376 534.469 31.2951 533.621 30.9235C532.783 30.5567 531.923 30.2377 531.083 29.8694C530.389 29.5654 529.553 29.0472 529.028 28.4951C528.712 28.1621 528.26 27.9838 527.849 27.7926C527.186 27.484 526.614 27.0294 525.93 26.7596C523.67 25.8675 521.181 25.5115 518.835 24.9906C516.719 24.5209 515.281 22.8267 513.213 22.2266C510.492 21.4368 507.738 21.0586 504.953 20.5562C504.371 20.4511 503.796 20.5039 503.209 20.3687C502.405 20.1838 501.595 20.0259 500.79 19.8475C499.392 19.5376 498.017 19.4545 496.596 19.3112C495.088 19.1592 493.446 19.4186 491.933 19.4954C490.199 19.5835 488.545 19.8585 486.838 20.109C484.485 20.4542 482.365 21.8888 480.197 22.7596C478.169 23.5736 476.899 25.4529 475.206 26.7327C474.376 27.3609 473.507 28.2791 472.849 29.1C472.363 29.7058 471.863 30.308 471.445 30.9654C469.417 34.1613 467.008 37.2453 466.052 40.9855C465.603 42.7435 465.287 44.5424 464.456 46.1665C464.01 47.0362 463.897 48.0774 463.733 49.0225C463.55 50.0816 463.421 50.8975 463.477 51.993C463.594 54.3156 463.34 56.5477 463.088 58.841C462.944 60.1574 462.665 61.5529 462.371 62.8468C462.263 63.3227 462.18 63.7958 462.116 64.2794C462.063 64.6699 462.02 64.6899 462.333 64.4129" stroke="#6F432E" stroke-width="5" stroke-linecap="round"/>
<path d="M467.67 39.0625C466.046 40.9135 465.53 43.4802 465.201 45.8387C464.93 47.7854 464.651 49.7178 464.353 51.6585C464.216 52.5489 464.048 53.4259 463.764 54.2844C463.509 55.0533 463.556 55.9001 463.413 56.6944C463.291 57.3686 463.22 58.0129 463.219 58.6956C463.218 59.2885 462.978 59.8345 462.964 60.4172C462.95 61.0223 462.901 61.6197 462.931 62.2262C462.959 62.7678 462.889 62.965 463.429 62.7004" stroke="#6F432E" stroke-width="5" stroke-linecap="round"/>
</g>
<defs>
<filter id="filter0_d_17_131" x="0" y="0.764648" width="654.485" height="356.093" filterUnits="userSpaceOnUse" color-interpolation-filters="sRGB">
<feFlood flood-opacity="0" result="BackgroundImageFix"/>
<feColorMatrix in="SourceAlpha" type="matrix" values="0 0 0 0 0 0 0 0 0 0 0 0 0 0 0 0 0 0 127 0" result="hardAlpha"/>
<feOffset dy="4"/>
<feGaussianBlur stdDeviation="10"/>
<feComposite in2="hardAlpha" operator="out"/>
<feColorMatrix type="matrix" values="0 0 0 0 0 0 0 0 0 0 0 0 0 0 0 0 0 0 0.25 0"/>
<feBlend mode="normal" in2="BackgroundImageFix" result="effect1_dropShadow_17_131"/>
<feBlend mode="normal" in="SourceGraphic" in2="effect1_dropShadow_17_131" result="shape"/>
</filter>
</defs>
</svg>
